<svg xmlns="http://www.w3.org/2000/svg" viewBox="0 0 220 220"><g id="OBJECTS"><rect x="99.65" y="132.5" width="0.52" height="75.35" style="fill:#3a3a5b"/><path d="M81,216.11a43.92,43.92,0,1,1,17,3.44A43.56,43.56,0,0,1,81,216.11Zm-12.3-69.68A41.51,41.51,0,1,0,98,134.28,41.23,41.23,0,0,0,68.66,146.43Z" style="fill:#9529f9"/><path d="M111.7,153.46l9.07-.64a2.45,2.45,0,0,1,2.61,2.27s.05,1.55.13,4c0,.62,0,1.28.08,2,.27,7.1.73,18.64,1.07,23.56s1.45,16.29,2.22,24c.08.72.14,1.4.21,2.06.35,3.46.6,5.81.6,5.81a2.47,2.47,0,0,1-2.27,2.62l-9.08.63a2.45,2.45,0,0,1-2.61-2.27s-.06-2.34-.14-5.82c0-.67,0-1.37,0-2.12-.21-7.76-.55-19.07-.9-24.08S111,169.09,110.14,162c-.08-.74-.17-1.44-.23-2.06-.29-2.37-.48-3.89-.48-3.89A2.44,2.44,0,0,1,111.7,153.46Z" style="fill:#fcba64"/><path d="M115.66,153.18l5.11-.36a2.45,2.45,0,0,1,2.61,2.27s.05,1.55.13,4c0,.62,0,1.28.08,2,.27,7.1.73,18.64,1.07,23.56s1.45,16.29,2.22,24c.08.72.14,1.4.21,2.06.35,3.46.6,5.81.6,5.81a2.47,2.47,0,0,1-2.27,2.62l-5.11.35a2.44,2.44,0,0,1-2.61-2.27s-.06-2.34-.14-5.82c0-.67,0-1.37,0-2.12-.21-7.75-.55-19.07-.9-24.08s-1.67-16.37-2.52-23.44c-.07-.74-.16-1.44-.22-2.06-.29-2.37-.48-3.89-.48-3.89A2.44,2.44,0,0,1,115.66,153.18Z" style="fill:#ffcd23"/><path d="M123.26,159a.54.54,0,0,1,.25,0c0,.62,0,1.28.08,2a.57.57,0,0,1-.18,0l-13.27.93c-.08-.74-.17-1.44-.23-2.06Z" style="fill:#3a3a5b"/><path d="M126.88,208.63l.21,2.06a.53.53,0,0,1-.12,0l-13.38.94c0-.67,0-1.37,0-2.12l13.27-.93A.07.07,0,0,1,126.88,208.63Z" style="fill:#3a3a5b"/><path d="M102.76,132.13a.26.26,0,0,1,.25.26v28.35a.26.26,0,0,1-.51,0V132.39A.26.26,0,0,1,102.76,132.13Z" style="fill:#3a3a5b"/><path d="M102.87,160.32a1,1,0,0,1,1,1v3.43a1,1,0,0,1-2,0v-3.43A1,1,0,0,1,102.87,160.32Z" style="fill:#babaf0"/><path d="M99.91,204.54a1,1,0,0,1,1,1V209a1,1,0,1,1-2,0v-3.43A1,1,0,0,1,99.91,204.54Z" style="fill:#babaf0"/><path d="M71.52,99.69s7.73.45,8.57,3.64c1.34,5.1,2.6,17,2.6,17l7.8-9.67L93.3,112S86.64,129.88,81,129,71.52,99.69,71.52,99.69Z" style="fill:#ffad73"/><path d="M54.7,139c2.95-6.61,4.36-8.48,4.41-10.56,0-1.64-.77-3.42-2.35-7.77a15.68,15.68,0,0,1-.78-3.14c-1.25-8.39,3.6-17.46,6.62-18.08.83-.22,2.26-3.25,2.24-8.13l.38.07,6.34,1.26s-.14,2-.14,3.88c0,1.57.09,3,.44,3.24l.73.07s5.29,7.35,5.74,14.19-4.24,9.8,0,23.47C82.72,151.4,53.07,142.6,54.7,139Z" style="fill:#ffad73"/><path d="M56.59,73.58c1.41-.86,3.66.17,3.66.17-.78-1.09-3.62-.74-3.62-.74,5.66-1.2,6.84,2.41,6.93,2.75C67.66,72.06,74.23,80,74.23,80L64.81,92.43s-.86-2-2-1.36C61,92,57.62,88.12,58.72,83a13,13,0,0,1,.41-1.53,3,3,0,0,1-1.17.29c-1,0-2.59-2.63-2.8-3.51S55.18,74.44,56.59,73.58Z"/><path d="M71.56,92.6s-.14,2-.14,3.88c-3.56-.1-5.43-3.34-6.2-5.14Z" style="fill:#ffad73"/><path d="M64.56,90.65a18.74,18.74,0,0,1-2.31-5.45c-.32-1.8.6-8.46,7.29-7.5a9,9,0,0,1,3.76,1.43c1.46,1,3.55,3.1,1.21,8.9l-.61,2Z"/><path d="M72.75,94.38s-8.4.14-8.41-5.09-1.09-8.75,4.27-9.06,6.41,1.69,6.84,3.44S74.94,94.21,72.75,94.38Z" style="fill:#ffad73"/><path d="M67.3,168.18c1.19,6.74,2.06,11.79,2.06,11.79C65.84,194.4,82,216.72,82,216.72l2.52-1s-7.32-17.62-4.83-35.19C83.24,155.68,78.58,139,78.58,139l-14.94,4.82-.7.23C64.27,151.12,66,160.69,67.3,168.18Z" style="fill:#ffad73"/><path d="M56.76,120.62c1.58,4.35,2.39,6.13,2.35,7.77,5-7.77,14.09-8.95,14.09-8.95l-17.22-2A15.68,15.68,0,0,0,56.76,120.62Z" style="fill:#ffad73"/><path d="M63,99.24s-7.18.74-8,2.59c-2.72,6-5.43,26.11-6.18,27.87s-3.07,11.48-5,16.27l2.52.76s8.33-13.81,9.08-17.41,4.91-18.21,4.91-18.21Z" style="fill:#ffad73"/><path d="M57.36,115.75l-.1,6.23a65.21,65.21,0,0,1,11.32-2.07,36,36,0,0,1,4.27-.12,17.82,17.82,0,0,1,4.8.75s.93-4,1.85-8.83a4.67,4.67,0,0,0,.08-.52c.54-4.56-3.51-8.28-1.81-10.1a15.15,15.15,0,0,0-5.18-1.3s2.83,5,2.58,6.26-11.22.13-12-.56-1.95-6-1.95-6-4.12.42-5.79,1.81a16.38,16.38,0,0,1,2.09,3.53,8.34,8.34,0,0,1,.54,1.74c.3,1.57,1.08,4.56-.69,6.91Z" style="fill:#fff"/><path d="M64.45,152c1.33,7,1.53,8.67,2.85,16.16,8.2-14.31,7-18.05,7-18.05Z" style="fill:#ffad73"/><path d="M39.07,215.21l2.46.87S51.08,189,55,184.81c7.57-8.07,18.71-43.24,18.71-43.24l-15.06-4.89c-2.23,2.16-4,6.21-5.51,11-3.69,12-5.12,28.65-5.31,31.06h0a.84.84,0,0,1-.24.49C35.87,192.25,39.07,215.21,39.07,215.21Z" style="fill:#ffad73"/><path d="M68.06,153.61l2.46-.64a24.22,24.22,0,0,1,3.65-.9,24.61,24.61,0,0,1,6.51-.26c-1.13-12.14-2.45-15.05-2.45-15.05l-1.6-.08-4.19,8.68Z" style="fill:#1a2c70"/><path d="M68.06,153.61l2.46-.64a24.22,24.22,0,0,1,3.65-.9,13.73,13.73,0,0,0-1.73-6.71Z" style="fill:#3a3a5b"/><path d="M47.83,178.72c7.88-6.17,14-26.82,14-26.82l-8.67-4.24C49.45,159.7,48,176.31,47.83,178.72Z" style="fill:#ffad73"/><path d="M77.9,135.8s-3.61,2.73-7.27,2.48-14.33-2.69-14.33-2.69a27.77,27.77,0,0,0-3.36,8.57,53.71,53.71,0,0,0-1.54,10.2s12.63-1.58,17.68,1.07Z" style="fill:#1a2c70"/><path d="M66.61,87.15c-3.53.91-5.07,0-5.07,0a13.56,13.56,0,0,1,3.27-5.91c1.32-1.39,7.37-1.49,7.56-1.21.55-.47,1.53-.82,2.83.76,2,2.36.21,6.53.21,6.53-.8.1-1-2.65-1.4-4a6.53,6.53,0,0,0-1.84-2.44c-.16.62-1.86,6.48-6.08,8.43a19.39,19.39,0,0,0,3.38-4.12A6,6,0,0,1,66.61,87.15Z"/><path d="M84.77,219.56h0Z" style="fill:#a2e2ff"/><path d="M34.92,147.58a4.45,4.45,0,0,1,5.51-3,4.71,4.71,0,0,1,1.65.81l1,.69s1,2.55.65,3.89c-.63,2.33-6.07,3-6.07,3l-1.08-.8h0A4.38,4.38,0,0,1,34.92,147.58Z" style="fill:#4c4b73"/><path d="M35.82,148.24a4.54,4.54,0,1,1,3.25,5.39A4.46,4.46,0,0,1,35.82,148.24Z" style="fill:#3a3a5b"/><path d="M39.36,149.37a1,1,0,0,1,1.36-.78c.27.1,7.56,4.66,7.56,4.66l-1.56,1.93-7.07-5.05A.82.82,0,0,1,39.36,149.37Z" style="fill:#2c2c2c"/><path d="M90.51,103.25l.95-.69a4.58,4.58,0,0,1,7.16,2.23A4.37,4.37,0,0,1,97,109.37h0l-1.08.8s-5.44-.71-6.06-3C89.5,105.8,90.51,103.25,90.51,103.25Z" style="fill:#4c4b73"/><path d="M92.2,102.4A4.37,4.37,0,1,1,89,107.79,4.45,4.45,0,0,1,92.2,102.4Z" style="fill:#3a3a5b"/><path d="M92.82,105.8a1,1,0,0,1,1.36.78.84.84,0,0,1-.29.76l-7.08,5-1.56-1.93S92.54,105.9,92.82,105.8Z" style="fill:#2c2c2c"/><path d="M93.28,112s2.61-3.22.73-4.89-4.3-1.18-4.37-.2a17,17,0,0,0,.83,3.74Z" style="fill:#ffad73"/><path d="M44,145.55a6.54,6.54,0,0,1-1.57,2.31c-.8.51-1.93,1.72-1.72,2.69s.42,2.48,1.43,2.48,3.36-4.45,3.66-5.29.54-1,.54-1Z" style="fill:#fccaa7"/><path d="M40.48,151.76a4.84,4.84,0,0,1,6-3.31,5,5,0,0,1,1.79.88l1,.75s1.09,2.78.7,4.23c-.68,2.53-6.59,3.31-6.59,3.31l-1.18-.87h0A4.77,4.77,0,0,1,40.48,151.76Z" style="fill:#4c4b73"/><path d="M41.47,152.47A4.94,4.94,0,1,1,45,158.33,4.85,4.85,0,0,1,41.47,152.47Z" style="fill:#3a3a5b"/><path d="M44.67,153.14a1.57,1.57,0,0,1,1.95-1.08,1.76,1.76,0,0,1,.58.29l.33.24,0,.06a1.51,1.51,0,0,1,.27,1.32A1.57,1.57,0,0,1,45.82,155l-.16,0,0,0-.38-.28h0A1.54,1.54,0,0,1,44.67,153.14Z" style="fill:#2c2c2c"/><path d="M45,153.37a1.6,1.6,0,1,1,1.15,1.9A1.58,1.58,0,0,1,45,153.37Z" style="fill:#4c4b73"/><path d="M93.05,109a4.83,4.83,0,0,0-6-3.3,5,5,0,0,0-1.8.88l-1,.75s-1.1,2.78-.71,4.23c.68,2.53,6.6,3.31,6.6,3.31l1.17-.87h0A4.74,4.74,0,0,0,93.05,109Z" style="fill:#4c4b73"/><path d="M86.07,106.37a4.75,4.75,0,1,1-3.53,5.86A4.86,4.86,0,0,1,86.07,106.37Z" style="fill:#3a3a5b"/><path d="M86,109.85l0,0,.34-.24a1.67,1.67,0,0,1,.58-.29,1.58,1.58,0,0,1,2,1.07A1.54,1.54,0,0,1,88.3,112h0l-.39.29,0,0-.16,0a1.57,1.57,0,0,1-2-1.08A1.55,1.55,0,0,1,86,109.85Z" style="fill:#2c2c2c"/><path d="M86.6,109.5a1.54,1.54,0,1,1-1.15,1.91A1.57,1.57,0,0,1,86.6,109.5Z" style="fill:#4c4b73"/><path d="M79.93,219.56h1.76c.6-.1,1-.27,1.64-.35a1.65,1.65,0,0,1,1.44.35H92.3c.19-.27,0-.89-.17-1.35a1.1,1.1,0,0,0-.71-.65,8.1,8.1,0,0,1-3.8-1.73c-.81-.74-3.91-2.69-3.91-2.69h0c-.07,0-.39.1-1.8,1.29-.73.62-2-.86-2-.86a1.65,1.65,0,0,0-.41.55,1.86,1.86,0,0,0-.16,1.15,7.51,7.51,0,0,1-.54,2.79c-.18.51-.32.88-.32.88S78.4,219.37,79.93,219.56Z" style="fill:#9529f9"/><path d="M79.51,214.12a5.54,5.54,0,0,0,1.91,1c.79.1,2.29-1.93,2.29-1.93h0c-.07,0-.39.1-1.8,1.29-.73.62-2-.86-2-.86A1.65,1.65,0,0,0,79.51,214.12Z" style="fill:#e9fbff"/><path d="M79.93,219.56h1.76c.6-.1,1-.27,1.64-.35a1.65,1.65,0,0,1,1.44.35H92.3c.19-.27,0-.89-.17-1.35-.23-.2-.29.88-.42,1.05a32.38,32.38,0,0,1-6.48-.19,3.64,3.64,0,0,0-2.84-.34,6.9,6.9,0,0,1-3.58-.68c-.18.51-.32.88-.32.88S78.4,219.37,79.93,219.56Z" style="fill:#e9fbff"/><path d="M38.91,219.56h1.77c.59-.1,1-.27,1.64-.35a1.62,1.62,0,0,1,1.43.35h7.53c.19-.27,0-.89-.17-1.35a1.1,1.1,0,0,0-.7-.65,8.09,8.09,0,0,1-3.81-1.73c-.81-.74-3.91-2.69-3.91-2.69h0c-.07,0-.39.1-1.8,1.29-.73.62-2-.86-2-.86a1.71,1.71,0,0,0-.4.55,1.79,1.79,0,0,0-.16,1.15,7.51,7.51,0,0,1-.54,2.79c-.18.51-.33.88-.33.88S37.39,219.37,38.91,219.56Z" style="fill:#9529f9"/><path d="M38.5,214.12a5.58,5.58,0,0,0,1.9,1c.8.1,2.29-1.93,2.29-1.93h0c-.07,0-.39.1-1.8,1.29-.73.62-2-.86-2-.86A1.71,1.71,0,0,0,38.5,214.12Z" style="fill:#e9fbff"/><path d="M38.91,219.56h1.77c.59-.1,1-.27,1.64-.35a1.62,1.62,0,0,1,1.43.35h7.53c.19-.27,0-.89-.17-1.35-.22-.2-.29.88-.41,1.05a32.36,32.36,0,0,1-6.48-.19,3.64,3.64,0,0,0-2.84-.34,6.9,6.9,0,0,1-3.58-.68c-.18.51-.33.88-.33.88S37.39,219.37,38.91,219.56Z" style="fill:#e9fbff"/><path d="M57.26,122a65.21,65.21,0,0,1,11.32-2.07,14.85,14.85,0,0,1-11.21-4.15h0Z" style="fill:#fff"/><path d="M78.23,136.76a13.92,13.92,0,0,1-6.74,2.5c-3.47.1-15.66-2.88-15.66-2.88l.5-.95s13.36,3.57,16.5,2.51a22.05,22.05,0,0,0,5-2.34Z" style="fill:#3a3a5b"/><g id="man"><path d="M179.78,189.31H148a2.14,2.14,0,0,0-2.12,2.14v26.41A2.14,2.14,0,0,0,148,220h31.82a2.14,2.14,0,0,0,2.12-2.14V191.45A2.13,2.13,0,0,0,179.78,189.31Z" style="fill:#fcba64"/><g style="opacity:0.5"><path d="M164.26,189.31l-3.91,12.85L145.84,192.1v-.65a2.14,2.14,0,0,1,2.12-2.14Z" style="fill:#1e1e1e"/></g><path d="M193.81,189.31H162a2.13,2.13,0,0,0-2.12,2.14v26.41A2.14,2.14,0,0,0,162,220h31.82a2.14,2.14,0,0,0,2.12-2.14V191.45A2.14,2.14,0,0,0,193.81,189.31Z" style="fill:#ffcd23"/><path d="M160.13,137.35c-1.09,2-3.79,3.14-7,4l-1.09.28c-5.61,1.4-13.13.6-15.3,3.51-2.42,3.24-5.3,20.27-5.3,20.27-3.47,1.38-3.43.7-3.43.7-1.06-4.6-1.14-18.59-.89-22.45.29-4.42,9.38-10.64,17.2-15.19,6-3.47,11.21-6,11.21-6l.48.11C162.91,124.37,163.12,131.87,160.13,137.35Z" style="fill:#ffad73"/><path d="M156,122.62c-.74,6.2-1.93,15.35-2.88,18.75l-1.09.28h0c-1.08-6.49-6.54-12-7.72-13.15,6-3.47,11.21-6,11.21-6Z" style="fill:#fff"/><path d="M190.89,176.84a64.08,64.08,0,0,0-1.67-8c-2.23-8-5.48-13.6-7.83-22.9-3.77-14.75-9.19-24.76-16.16-27.19l-.06,0a15.86,15.86,0,0,1-8.16-6.64c-.17-.27-.34-.54-.5-.83a17.69,17.69,0,0,1-.94-1.9c-.13-.31-.26-.63-.38-1l-5.32,9a40.91,40.91,0,0,0,2.26,4.5l.64,1.11h0l-1.32,2.22c-1.8,3.17-3,10.63-1.2,15.59,10.42,28.48,15.33,28.42,15.44,28.75a1.58,1.58,0,0,0,.51.68C169.85,173.46,191.28,179.57,190.89,176.84Z" style="fill:#ffad73"/><path d="M152.13,121.85a40.91,40.91,0,0,1-2.26-4.5l5.32-9c.12.33.25.65.38,1A12.84,12.84,0,0,1,152.13,121.85Z" style="fill:#ffad73"/><path d="M148.81,118.64s9.4-5,6.22-10.77-4.1-10.37-10.24-7.44-6.09,5.77-5.5,8S146.28,119.78,148.81,118.64Z" style="fill:#ffad73"/><path d="M155.25,108.27a10.85,10.85,0,0,0-13.94-2.19c-5.79,3.19-5.95-3.56-5.88-4.71,0,0,4.56-2.27,9.32-4.47C154.74,92.27,155.37,106.54,155.25,108.27Z" style="fill:#2c2c2c"/><path d="M168.23,182.48a69,69,0,0,1-10,.22c-10.78-.32-24.3-1.54-25.09.6-5.17,13.92-23.76,24.86-24.09,30,.06.33-4.72-2.23-4.57-2.34s1.51-.63,16.52-41.44c1.37-3.74,17-5.17,26.51-5.92,6.05-.49,10.77-.68,10.77-.68a63.88,63.88,0,0,1,13.07-.61C177.92,162.8,177.46,181.26,168.23,182.48Z" style="fill:#ffad73"/><path d="M128,166.13s4.69,1.69,6.68.7.25-3.57-1.08-3.57S129.35,163.31,128,166.13Z" style="fill:#ffad73"/><path d="M170.85,182.48a69.09,69.09,0,0,1-10,.22c1-3.13,3.52-8.77-.24-12.94,0,0-4.09-5.63-7.38-6.55a46.48,46.48,0,0,1,7.67-.26,64,64,0,0,1,13.07-.61C180.53,162.8,180.07,181.26,170.85,182.48Z" style="fill:#5b58ee"/><path d="M189.22,168.81l-.11.09-23,1.3a1.58,1.58,0,0,1-.51-.68c0-.05-.16-.09-.42-.24-.73-.42-2.44-1.66-5.19-6.32-2.45-4.12-5.71-10.92-9.83-22.19-1.81-5-.6-12.42,1.2-15.59a3.34,3.34,0,0,0,3-.07c4-1.92,10.59-6.48,10.87-6.39,7,2.43,12.39,12.44,16.16,27.19C183.74,155.21,187,160.77,189.22,168.81Z" style="fill:#fff"/><path d="M175.63,140.62l-11.25,10.56-6.87-10.58L160,163c2.75,4.66,4.46,5.9,5.19,6.32,6.36.36,15.59.21,16.33-3.56C182.69,159.92,175.63,140.62,175.63,140.62Z" style="fill:#fff"/><path d="M185.62,188.57c-20.64,4.92-39.92-7.28-40.64-3.8-2.21,10.8-13.41,26.44-13.68,28.31,0,.27-4.94.69-4.94.69s4.83-38.13,8.91-43.06c4.22-5.1,42.12-3.05,42.12-3.05C192.17,164.73,194.79,186.39,185.62,188.57Z" style="fill:#ffad73"/><path d="M161.38,167.23s10.09,10.45,11.21,11.47,5.41.66,5.41.66-4.7.62-4.7,1.43,3,9.4,4.11,9.4,9.46-.5,11.45-1.5,4.61-12.07.56-20.91l-3.25-7.84S181.56,166.69,161.38,167.23Z" style="fill:#5b58ee"/><path d="M161.56,150.59a6.56,6.56,0,0,0-8.13-4.49,7,7,0,0,0-2.44,1.2l-1.4,1s-1.49,3.77-1,5.74c.92,3.43,9,4.48,9,4.48l1.6-1.18h0A6.42,6.42,0,0,0,161.56,150.59Z" style="fill:#4c4b73"/><path d="M160.23,151.56a6.7,6.7,0,1,0-4.8,8A6.57,6.57,0,0,0,160.23,151.56Z" style="fill:#3a3a5b"/><path d="M155,153.24a1.5,1.5,0,0,0-2-1.16c-.4.15-11.17,6.89-11.17,6.89l2.31,2.85,10.44-7.46A1.24,1.24,0,0,0,155,153.24Z" style="fill:#2c2c2c"/><path d="M176.1,167c-4.85,4.86-27.13-9-27.13-9l2.52-4.39L166,157.07a76.71,76.71,0,0,1-8.51-16.47,59.89,59.89,0,0,1-2.94-10.29c-1.25-5,9.72-11.28,15.06-6.22,1.78,1.68,3.54,6.48,5,12.3C177.66,148,179.34,163.8,176.1,167Z" style="fill:#ffad73"/><path d="M174.06,133.84c-5.14,1.21-15.3,3.92-16.55,6.76a20.17,20.17,0,0,1,18.75,2.58Z" style="fill:#ffad73"/><path d="M174.77,136.4a26,26,0,0,0-17.26,4.2,59.89,59.89,0,0,1-2.94-10.29c-1.25-5,9.72-11.28,15.06-6.22C171.41,125.77,173.27,130.57,174.77,136.4Z" style="fill:#fff"/><path d="M110,219.56h-2.55c-.85-.13-1.48-.38-2.35-.49a2.4,2.4,0,0,0-2.07.49l0,0H92.19c-.27-.39,0-1.29.25-2a1.51,1.51,0,0,1,1-.93,11.67,11.67,0,0,0,5.48-2.5c1.16-1.06,5.63-3.87,5.63-3.87h0c.1,0,.56.15,2.59,1.86,1,.88,2.84-1.25,2.84-1.25a2.56,2.56,0,0,1,.59.79,2.69,2.69,0,0,1,.23,1.67,10.93,10.93,0,0,0,.77,4c.26.74.47,1.27.47,1.27S112.19,219.29,110,219.56Z" style="fill:#2c2c2c"/><path d="M110.6,211.73a8,8,0,0,1-2.75,1.39c-1.14.15-3.29-2.78-3.29-2.78h0c.1,0,.56.15,2.59,1.86,1,.88,2.84-1.25,2.84-1.25A2.56,2.56,0,0,1,110.6,211.73Z" style="fill:#3a3a5b"/><path d="M110,219.56h-2.55c-.85-.13-1.48-.38-2.35-.49a2.4,2.4,0,0,0-2.07.49l0,0H92.19c-.27-.39,0-1.29.25-2,.32-.3.42,1.27.6,1.51s8.82.09,9.32-.27a5.24,5.24,0,0,1,4.09-.5c1.81.44,4.49-.68,5.15-1,.26.74.47,1.27.47,1.27S112.19,219.29,110,219.56Z" style="fill:#3a3a5b"/><path d="M132.61,219.56h-2.68c-.9-.14-1.57-.4-2.49-.52a2.46,2.46,0,0,0-2.17.52l0,0H113.83c-.28-.41,0-1.36.26-2.06a1.63,1.63,0,0,1,1.07-1,12.3,12.3,0,0,0,5.78-2.64c1.23-1.11,5.93-4.08,5.93-4.08h0c.1,0,.59.16,2.73,2,1.11.94,3-1.31,3-1.31a2.62,2.62,0,0,1,.61.84,2.79,2.79,0,0,1,.25,1.75,11.32,11.32,0,0,0,.82,4.23c.26.78.49,1.34.49,1.34S134.92,219.27,132.61,219.56Z" style="fill:#2c2c2c"/><path d="M133.24,211.31a8.36,8.36,0,0,1-2.89,1.45c-1.21.16-3.48-2.93-3.48-2.93h0c.1,0,.59.16,2.73,2,1.11.94,3-1.31,3-1.31A2.62,2.62,0,0,1,133.24,211.31Z" style="fill:#3a3a5b"/><path d="M132.61,219.56h-2.68c-.9-.14-1.57-.4-2.49-.52a2.46,2.46,0,0,0-2.17.52l0,0H113.83c-.28-.41,0-1.36.26-2.06.35-.31.44,1.34.64,1.6s9.3.1,9.83-.29a5.52,5.52,0,0,1,4.31-.52c1.91.45,4.74-.72,5.44-1,.26.78.49,1.34.49,1.34S134.92,219.27,132.61,219.56Z" style="fill:#3a3a5b"/><path d="M153.34,156.76a7.15,7.15,0,0,0-8.85-4.89,7.52,7.52,0,0,0-2.64,1.31l-1.53,1.11s-1.62,4.1-1,6.24c1,3.74,9.73,4.88,9.73,4.88l1.74-1.29h0A7,7,0,0,0,153.34,156.76Z" style="fill:#4c4b73"/><path d="M137.83,161.58a7.28,7.28,0,1,1,8.84,4.89A7.14,7.14,0,0,1,137.83,161.58Z" style="fill:#3a3a5b"/><path d="M147.17,158.79a2.33,2.33,0,0,0-2.88-1.58,2.55,2.55,0,0,0-.86.42l-.49.36a4.46,4.46,0,0,0-.34,2c.33,1.21,3.16,1.58,3.16,1.58l.56-.41h0A2.29,2.29,0,0,0,147.17,158.79Z" style="fill:#2c2c2c"/><path d="M146.7,159.14A2.37,2.37,0,1,0,145,162,2.33,2.33,0,0,0,146.7,159.14Z" style="fill:#4c4b73"/></g><path d="M201.48,207.19a6.57,6.57,0,0,0-2.66-.5l-1.74,0s-3.45,2.12-4.21,4c-1.32,3.31,4.47,9,4.47,9l2,0h0a6.44,6.44,0,0,0,6-4A6.57,6.57,0,0,0,201.48,207.19Z" style="fill:#4c4b73"/><path d="M199.83,207.16a6.45,6.45,0,1,0,3.82,8.47A6.58,6.58,0,0,0,199.83,207.16Z" style="fill:#3a3a5b"/><path d="M197.56,211.72c-.42-.13-13.07-1.2-13.07-1.2l.13,3.67,12.83.3a1.23,1.23,0,0,0,1-.65A1.48,1.48,0,0,0,197.56,211.72Z" style="fill:#2c2c2c"/><path d="M190.87,206.45a7.43,7.43,0,0,0-2.9-.55l-1.89,0v.31a6.87,6.87,0,0,0-4.58,4.06,7.15,7.15,0,0,0,4.15,9.22c.23.09.47.17.7.24V220h2.16a7,7,0,0,0,6.5-4.34A7.14,7.14,0,0,0,190.87,206.45Z" style="fill:#4c4b73"/><path d="M189.08,206.42a7,7,0,1,0,4.15,9.22A7.15,7.15,0,0,0,189.08,206.42Z" style="fill:#3a3a5b"/><path d="M187.51,210.59a2.4,2.4,0,0,0-.94-.17H186s-1.22.75-1.49,1.42C184,213,186.05,215,186.05,215h.7a2.26,2.26,0,0,0,2.11-1.4A2.33,2.33,0,0,0,187.51,210.59Z" style="fill:#2c2c2c"/><path d="M186.93,210.59a2.27,2.27,0,1,0,1.35,3A2.31,2.31,0,0,0,186.93,210.59Z" style="fill:#4c4b73"/></g></svg>