<svg xmlns="http://www.w3.org/2000/svg" viewBox="0 0 220 220"><g id="OBJECTS"><path d="M67.77,149.43a6.19,6.19,0,0,1,7.17-5,6.46,6.46,0,0,1,2.4.88l1.42.82-.14.22a6,6,0,0,1,1.61,5,6.19,6.19,0,0,1-7.17,5l-.64-.13-.13.21-1.61-1h0a6.07,6.07,0,0,1-2.91-6.11" style="fill:#4c4b73"/><path d="M81.57,152.17a6.31,6.31,0,1,0-7.17,5,6.19,6.19,0,0,0,7.17-5" style="fill:#3a3a5b"/><path d="M74.18,151.26A1.4,1.4,0,0,1,75.94,150c.39.1,11.14,5.33,11.14,5.33l-1.87,2.9-10.52-5.94a1.15,1.15,0,0,1-.51-1" style="fill:#2c2c2c"/><path d="M80.79,154.94c-.16,0-3.54,1.6-5.26-.78a1.53,1.53,0,0,1,.57-2.42c.58-.22,1.54.45,1.91.84.63.63,2.78,2.36,2.78,2.36" style="fill:#ffad73"/><path d="M70.84,219.9c-1.15-.7-.5-5.93-.5-5.93s5.34-4.27,6.08-1,5.07,4.74,7.55,5.15a2.63,2.63,0,0,1,2.39,1.78Z" style="fill:#1f3866"/><path d="M76.89,215.71c-1.75.55-5.08,2.25-7.2,1.45-1.37-.51-9-22.66-9.53-32.35A16.47,16.47,0,0,0,60,183c-.06-.35-.12-.72-.19-1.12-.71-3.91-2.25-10.13-3.79-16.4-2.07-8.47-4.12-17.05-4.06-20.25C52,139,70.71,144,70.71,144a66.42,66.42,0,0,1,1.47,11.19c0,.48,0,1,.07,1.46.5,14.87,1.9,40,5.69,57.41a1.5,1.5,0,0,1-1,1.7" style="fill:#5b58ee"/><path d="M53.8,143.74,56,165.52c1.54,6.27,3.08,12.49,3.79,16.4.07.4.13.77.19,1.12l12.22-27.9a73.65,73.65,0,0,0-1-8.59c-.1-.59-.2-1.09-.28-1.49-.15-.72-.24-1.11-.24-1.11Z" style="fill:#2e51c0"/><path d="M61.81,102.23s6.26.22,8.59,3,5.12,22.59,6.67,26.65,3.41,18.34,3.41,18.88l-2.51.5s-7-14.73-7.57-18S62.22,114,62.27,112.86s-.46-10.63-.46-10.63" style="fill:#ffad73"/><path d="M46.1,109.69A2.64,2.64,0,0,0,42.36,107c-2.39,1.12-5,2.68-5.81,4.39-1.56,3.33-5,17.82-4.72,23.21a9.16,9.16,0,0,0,5-.11c2.07-.89,9.06-23,9.06-23Z" style="fill:#ffad73"/><path d="M54.21,219.93a15.89,15.89,0,0,0-1.1-4.11c-.76-1.54-5.64-.56-5.64-.56s-1,.84-1.19,4.74Z" style="fill:#1f3866"/><path d="M63.93,145.29l-9.88,71.56a19.23,19.23,0,0,1-7.71.21S43.45,179,43.69,169.8s.4-22.19,1.47-25.11c1.68-4.59,18.77.6,18.77.6" style="fill:#5b58ee"/><path d="M60.31,98.93v.93s.25,2.9-3.32,3.32-6.27-1.13-6.18-3.37a26,26,0,0,0,.7-4.35,9.92,9.92,0,0,0-.13-1.74l6.92-.14,2,.33Z" style="fill:#ffad73"/><path d="M60.34,93.91v3.64c-2.64,1-8-.66-8.44-2.79l6.4-1.18Z" style="fill:#ffa166"/><path d="M50.85,92.61c.81,4.32,6.38,4.17,8.79,3.9.68-.07,1.1-.16,1.1-.16.77-.2,1.19-1.41,1.39-3,.4-3.13-.1-7.71-.63-8.88-.79-1.76-2.29-3.67-7.9-2.29s-3.78,4.87-2.75,10.41" style="fill:#ffad73"/><path d="M58,93.63s.46.81,2,.65a1.18,1.18,0,0,0,1.13-1,5.82,5.82,0,0,0-3.17.36" style="fill:#fff"/><path d="M70.07,117.35A9.81,9.81,0,0,0,76,115.11s-3.6-9.88-5.58-11.58-10.06-3.17-10.06-3.17l-.12-.06h0c0,.9-1.41,2.55-3.59,2.7-2.59.16-5.82-1.7-5.82-3.19,0,0-6.16.44-9.44,2.21s-7.2,10.58-7.2,10.58,1.33,4.34,9.51,5.74l-.59,28.93c15.1,5,29-.15,29-.15.32,0-1.79-16.58-1.89-20.67-.07-2.66-.12-5.68-.15-9.1" style="fill:#fff"/><path d="M62.88,84.36A2.11,2.11,0,0,0,62.36,81a26.37,26.37,0,0,0-4.92-2.09,8.87,8.87,0,0,0-5.92.61,1.52,1.52,0,0,1,.24-.59,1.29,1.29,0,0,0-.5.74s-.07.06,0,.07a1.69,1.69,0,0,0-.81,0s.22,0,.3.11l0,0c-3.69,1.78-4.92,6.15-2.84,9,1.28,1.74,3.58,5.28,3.58,5.28A7.47,7.47,0,0,1,51,92.44a1.45,1.45,0,0,1,.13-.68,1.82,1.82,0,0,0,0-1.34c-.25-.63-.31-1.28.23-1.54s1.11.14,1.42.61a.94.94,0,0,0,1.13.36l0,0c1.56-.65.26-2.47,1.62-3.57s5-.53,6.19-1a7.34,7.34,0,0,0,1.14-.91"/><path d="M76.08,154.39a6.75,6.75,0,0,1,7.8-5.46,7.12,7.12,0,0,1,2.61,1l1.55.88-.15.25a6.48,6.48,0,0,1,1.74,5.49,6.73,6.73,0,0,1-7.8,5.46l-.69-.15-.14.23-1.75-1h0a6.6,6.6,0,0,1-3.17-6.64" style="fill:#4c4b73"/><path d="M91.1,157.37a6.86,6.86,0,1,0-7.8,5.45,6.74,6.74,0,0,0,7.8-5.45" style="fill:#3a3a5b"/><path d="M82.07,155.68a2.18,2.18,0,0,1,2.53-1.77,2.24,2.24,0,0,1,.85.32l.5.28,0,.08a2.09,2.09,0,0,1,.57,1.79,2.18,2.18,0,0,1-2.53,1.77l-.23-.05,0,.08-.57-.34h0a2.13,2.13,0,0,1-1-2.16" style="fill:#2c2c2c"/><path d="M87,156.65a2.23,2.23,0,1,0-2.54,1.77A2.19,2.19,0,0,0,87,156.65" style="fill:#4c4b73"/><path d="M31.83,134.55A55.19,55.19,0,0,0,56,136.72v-2.89s-15.08-3-18-5.64c0,0-5.31,2.22-6.14,6.36" style="fill:#ffad73"/><path d="M67.19,129.8a6.2,6.2,0,0,0-7.67-4.23,6.46,6.46,0,0,0-2.29,1.13l-1.32,1,.16.21a6,6,0,0,0-1.06,5.2,6.38,6.38,0,0,0,8.27,4l.16.19,1.5-1.11h0a6.09,6.09,0,0,0,2.25-6.38" style="fill:#4c4b73"/><path d="M53.75,134a6.31,6.31,0,1,1,7.66,4.23A6.19,6.19,0,0,1,53.75,134" style="fill:#3a3a5b"/><path d="M61,132.29a1.41,1.41,0,0,0-1.89-1.09c-.38.15-10.52,6.49-10.52,6.49l2.17,2.68,9.84-7a1.14,1.14,0,0,0,.4-1.06" style="fill:#2c2c2c"/><path d="M58.8,137.24c.05-.15,3-2.43,1.68-5a1.53,1.53,0,0,0-2.42-.59c-.46.42-.29,1.58-.12,2.09.29.84.86,3.54.86,3.54" style="fill:#ffad73"/><path d="M59.45,135.61a6.74,6.74,0,0,0-8.34-4.6,7,7,0,0,0-2.49,1.23l-1.44,1,.17.23a6.52,6.52,0,0,0-1.15,5.65,6.73,6.73,0,0,0,8.33,4.6c.23-.06.45-.13.67-.21l.17.21L57,142.55h0a6.62,6.62,0,0,0,2.45-6.94" style="fill:#4c4b73"/><path d="M44.83,140.16a6.87,6.87,0,1,1,8.33,4.59,6.74,6.74,0,0,1-8.33-4.59" style="fill:#3a3a5b"/><path d="M53.63,137.53a2.2,2.2,0,0,0-2.71-1.5,2.56,2.56,0,0,0-.81.4l-.47.34.06.08a2.09,2.09,0,0,0-.37,1.83,2.18,2.18,0,0,0,2.7,1.49l.22-.07,0,.07.53-.39h0a2.13,2.13,0,0,0,.8-2.25" style="fill:#2c2c2c"/><path d="M48.88,139a2.23,2.23,0,1,1,2.71,1.5,2.19,2.19,0,0,1-2.71-1.5" style="fill:#4c4b73"/><path d="M124,105.67s-7.4.43-8.21,3.48c-1.28,4.88-2.48,16.24-2.48,16.24l-7.46-9.26-2.69,1.29s6.37,17.12,11.75,16.33S124,105.67,124,105.67" style="fill:#ffa166"/><path d="M131.57,82.81s1-3.86,6.63-2.66c0,0-2.71-.34-3.46.71,0,0,2.15-1,3.5-.16s1.57,3.6,1.37,4.44-1.69,3.36-2.68,3.36a4.54,4.54,0,0,1-2.15-.87Z"/><path d="M121.37,86.79s7.18-8.63,11-3.11c0,0,2.83,1.18,3.86,6s-2.23,8.67-3.92,7.74c-1.09-.59-1.91,1.31-1.91,1.31Z"/><path d="M123.63,105.71s2.64,1.39,4.64.84,4.28-1.14,4.25-1.15c-.8-.16-2.18-3.07-2.17-7.78l-.36.07-6.07,1.2s.14,1.91.14,3.71c0,1.51-.08,2.94-.43,3.11" style="fill:#ffad73"/><path d="M123.92,98.89s.14,1.91.14,3.71c3.4-.1,5.2-3.2,5.93-4.91Z" style="fill:#ffa166"/><path d="M130.62,97a18,18,0,0,0,2.21-5.22c.3-1.72-.57-8.09-7-7.17a8.62,8.62,0,0,0-3.6,1.36c-1.39.94-3.4,3-1.16,8.52l.59,1.88Z"/><path d="M122.79,100.59s8,.14,8-4.87,1-8.36-4.09-8.66-6.13,1.61-6.54,3.28.49,10.09,2.59,10.25" style="fill:#ffad73"/><path d="M123.08,86.94s2.2,5.87,5.58,6.74,4.84,0,4.84,0A9.5,9.5,0,0,1,130.38,88s-5.64-3.85-7.3-1"/><path d="M123.63,87.41a7.27,7.27,0,0,0-2,2.59c-.4,1.28-.58,3.9-1.34,3.81,0,0-1.66-4,.2-6.25s3.19-.15,3.19-.15"/><path d="M117.42,141.78c4.09-13.07-.39-15.91,0-22.44s5.49-13.57,5.49-13.57a77.79,77.79,0,0,1,9.35-.41c2.86.2,7.76,9.1,6.54,17.32a15.78,15.78,0,0,1-.75,3c-1.51,4.16-2.28,5.86-2.25,7.43,0,2,1.4,3.78,4.22,10.1,1.56,3.49-26.8,11.91-22.63-1.44" style="fill:#ffad73"/><path d="M128,171.18c-1.14,6.44-2,11.27-2,11.27,2.13,8.73-1.07,19.93-3.71,27-.61,1.61-1.18,3-1.66,4.1h0l0,0h0a.42.42,0,0,1,0,.1h0c-.69,1.59-1.16,2.52-1.16,2.52l-3.89.18s.3-1.68.63-4.5v0c.1-.91.21-1.94.32-3.08a114.81,114.81,0,0,0-.38-25.8c-3.38-23.76,1.08-39.68,1.08-39.68l14.29,4.61.67.21c-1.27,6.74-2.91,15.89-4.17,23.06" style="fill:#ffad73"/><path d="M132.09,105.24s6.87.71,7.68,2.48c2.59,5.71,5.18,25,5.91,26.65s2.93,11,4.82,15.56l-2.41.73s-8-13.21-8.68-16.65-4.7-17.42-4.7-17.42Z" style="fill:#ffad73"/><path d="M137.51,121l.09,6a62.42,62.42,0,0,0-10.83-2,32.83,32.83,0,0,0-4.08-.12,17.17,17.17,0,0,0-4.59.72s-.89-3.86-1.77-8.45c0-.16-.06-.32-.08-.49-.51-4.36,3.36-7.92,1.74-9.67a15.64,15.64,0,0,1,5-1.23s-2.71,4.78-2.47,6,10.73.12,11.46-.55,1.87-5.74,1.87-5.74,3.71.41,5.53,1.73a15.91,15.91,0,0,0-2,3.37,8.48,8.48,0,0,0-.52,1.67c-.28,1.5-1,4.36.67,6.61Z" style="fill:#fff"/><path d="M130.72,155.72c-1.27,6.73-1.46,8.29-2.72,15.46-7.84-13.69-6.69-17.27-6.69-17.27Z" style="fill:#ffa166"/><path d="M155.33,211.73c0,.25,0,.49,0,.73-.11,2.29-.3,3.69-.3,3.69l-3.76-1.3s-.17-.54-.49-1.47c-.12-.38-.27-.83-.44-1.33h0c-.31-.91-.69-2-1.11-3.21-2.55-7.32-6.9-19.05-9.43-21.75-7.24-7.71-17.9-41.36-17.9-41.36l14.4-4.67c2.14,2.07,3.87,5.94,5.27,10.5,3.53,11.52,4.9,27.4,5.08,29.7h0a.81.81,0,0,0,.23.46c6.74,7.5,8.32,18.42,8.51,25.95,0,1.5,0,2.88,0,4.06" style="fill:#ffad73"/><path d="M127.42,156.94l-2.5-.31a23,23,0,0,0-3.49-.86,23.76,23.76,0,0,0-6.23-.25c1.09-11.61,2.66-15.31,2.66-15.31l5.22,9.14Z" style="fill:#1a2c70"/><path d="M127.42,156.94l-2.5-.31a23,23,0,0,0-3.49-.86,13,13,0,0,1,1.65-6.42Z" style="fill:#1f3866"/><path d="M117.86,140.21s3.45,2.61,7,2.37S138.52,140,138.52,140a26.85,26.85,0,0,1,3.22,8.2,46,46,0,0,1,1.37,9.81s-12-1.56-16.81,1Z" style="fill:#1a2c70"/><path d="M123.32,87.61s1.57,6.15,5.83,8.12c0,0-4.26-3.77-4.62-7.84s-1.21-.28-1.21-.28"/><path d="M159,151.47a4.27,4.27,0,0,0-5.27-2.91,4.58,4.58,0,0,0-1.58.78l-.91.66.11.15a4.11,4.11,0,0,0-.73,3.57,4.26,4.26,0,0,0,5.27,2.91l.43-.14.1.14,1-.77h0a4.17,4.17,0,0,0,1.55-4.39" style="fill:#4c4b73"/><path d="M149.73,154.35a4.34,4.34,0,1,1,5.27,2.91,4.26,4.26,0,0,1-5.27-2.91" style="fill:#3a3a5b"/><path d="M154.72,153.19a1,1,0,0,0-1.3-.75c-.26.1-7.23,4.46-7.23,4.46l1.49,1.85,6.77-4.83a.8.8,0,0,0,.27-.73" style="fill:#2c2c2c"/><path d="M98.05,110.54a4.38,4.38,0,0,1,6.84-2.13l.91.67-.11.14a4.08,4.08,0,0,1,.73,3.57,4.25,4.25,0,0,1-5.27,2.91l-.42-.14-.11.14-1-.77h0a4.16,4.16,0,0,1-1.54-4.39" style="fill:#4c4b73"/><path d="M107.29,113.42a4.34,4.34,0,1,0-5.27,2.91,4.26,4.26,0,0,0,5.27-2.91" style="fill:#3a3a5b"/><path d="M102.29,112.26a1,1,0,0,1,1.3-.75c.26.1,7.24,4.46,7.24,4.46l-1.49,1.85L102.57,113a.82.82,0,0,1-.28-.73" style="fill:#2c2c2c"/><path d="M103.15,117.44s-2.49-3.09-.7-4.68,4.11-1.13,4.18-.2a16,16,0,0,1-.8,3.58Z" style="fill:#ffa166"/><path d="M150.33,149.53a6.34,6.34,0,0,0,1.5,2.21c.76.48,1.85,1.65,1.65,2.58s-.4,2.37-1.37,2.37-3.21-4.26-3.5-5.07-.52-1-.52-1Z" style="fill:#ffad73"/><path d="M153.65,155.47a4.64,4.64,0,0,0-5.74-3.17,5,5,0,0,0-1.71.85l-1,.72.12.15a4.49,4.49,0,0,0-.8,3.89,4.65,4.65,0,0,0,5.74,3.17l.46-.15.11.14,1.13-.83h0a4.54,4.54,0,0,0,1.69-4.77" style="fill:#4c4b73"/><path d="M143.59,158.6a4.73,4.73,0,1,1,5.74,3.16,4.63,4.63,0,0,1-5.74-3.16" style="fill:#3a3a5b"/><path d="M149.64,156.79a1.52,1.52,0,0,0-2.41-.75l-.33.23,0,0a1.41,1.41,0,0,0-.25,1.26,1.5,1.5,0,0,0,1.86,1l.15-.05,0,.05.37-.27h0a1.46,1.46,0,0,0,.54-1.55" style="fill:#2c2c2c"/><path d="M146.38,157.8a1.53,1.53,0,1,1,1.86,1,1.51,1.51,0,0,1-1.86-1" style="fill:#4c4b73"/><path d="M103.37,114.54a4.63,4.63,0,0,1,5.73-3.16,4.84,4.84,0,0,1,1.72.84l1,.72-.12.16a4.43,4.43,0,0,1,.79,3.88,4.63,4.63,0,0,1-5.73,3.17c-.16-.05-.31-.09-.46-.15l-.12.15-1.12-.84h0a4.53,4.53,0,0,1-1.68-4.77" style="fill:#4c4b73"/><path d="M113.42,117.67a4.72,4.72,0,1,0-5.73,3.16,4.63,4.63,0,0,0,5.73-3.16" style="fill:#3a3a5b"/><path d="M107.37,115.86a1.5,1.5,0,0,1,1.86-1,1.55,1.55,0,0,1,.56.28l.32.23,0,0a1.45,1.45,0,0,1,.26,1.26,1.5,1.5,0,0,1-1.86,1l-.15-.05,0,.05-.36-.27h0a1.47,1.47,0,0,1-.55-1.55" style="fill:#2c2c2c"/><path d="M110.64,116.88a1.53,1.53,0,1,0-1.87,1,1.52,1.52,0,0,0,1.87-1" style="fill:#4c4b73"/><path d="M117.54,141.13a13.38,13.38,0,0,0,6.45,2.39c3.32.09,15-2.76,15-2.76l-.48-.91s-12.78,3.42-15.78,2.41a23,23,0,0,1-4.82-2.22Z" style="fill:#1f3866"/><path d="M120.33,219.94c-1.42,0-4.75-.36-6.08,0h-5.36c-1.25-.76-1.75-1.65,1.55-2.06,4.78-.59,5.65-5.39,5.74-6v-.07l4.47,1.71h0l0,0h0l0,.1h0a4.48,4.48,0,0,0,0,3c.42,1.22,1.17,3.21-.25,3.23" style="fill:#ffad73"/><path d="M155.48,219.94c-1.42,0-4.75-.36-6.08,0H144c-1.25-.76-1.73-1.48,1.55-2.06,4.83-.86,5.38-3.06,5.16-4.5a3.87,3.87,0,0,0-.44-1.33h0l5-.31s0,.28,0,.73a14.25,14.25,0,0,0,.43,4.25c.42,1.22,1.17,3.21-.25,3.23" style="fill:#ffad73"/><path d="M120.6,213.69a4.48,4.48,0,0,0,0,3c.42,1.22,1.17,3.21-.25,3.23s-4.75-.36-6.08,0h-5.36c-1.25-.76-1.75-1.65,1.55-2.06,4.78-.59,5.65-5.39,5.74-6v0c.1-.91.21-1.94.32-3.08a7,7,0,0,0,5.81.65h0c-.61,1.61-1.18,3-1.66,4.1h0l0,0h0a.42.42,0,0,1,0,.1Z" style="fill:#9529f9"/><path d="M155.48,219.94c-1.42,0-4.75-.36-6.08,0H144c-1.25-.76-1.73-1.48,1.55-2.06,4.83-.86,5.38-3.06,5.16-4.5-.12-.38-.27-.83-.44-1.33h0c-.31-.91-.68-2-1.11-3.21a15.17,15.17,0,0,0,6.16-1.16c0,1.5,0,2.88,0,4.06,0,.25,0,.49,0,.73a14.25,14.25,0,0,0,.43,4.25c.42,1.22,1.17,3.21-.25,3.23" style="fill:#9529f9"/><path d="M121.83,97.66s.21.46.3.69,1.43.24,1.86,0a3.49,3.49,0,0,0,.76-.78,18.88,18.88,0,0,0-2.92.11" style="fill:#fff"/></g></svg>