<svg xmlns="http://www.w3.org/2000/svg" viewBox="0 0 50 50"><g id="OBJECTS"><path d="M4.06,36.1A6.82,6.82,0,0,1,2,34.68,6.41,6.41,0,0,1,.52,32.57,6.36,6.36,0,0,1,0,30a6.57,6.57,0,0,1,2-4.7,7,7,0,0,1,2.11-1.43,6.42,6.42,0,0,1,2.57-.52,6.44,6.44,0,0,1,2.59.52,7.07,7.07,0,0,1,2.12,1.43,6.54,6.54,0,0,1,1.42,2.11A6.44,6.44,0,0,1,13.28,30a6.36,6.36,0,0,1-.52,2.58,6.54,6.54,0,0,1-1.42,2.11A6.86,6.86,0,0,1,9.22,36.1a6.44,6.44,0,0,1-2.59.52A6.42,6.42,0,0,1,4.06,36.1ZM4.7,25.4a4.91,4.91,0,0,0-1.58,1.07,5.25,5.25,0,0,0-1.07,1.58,4.88,4.88,0,0,0,0,3.87,5.42,5.42,0,0,0,1.07,1.59A5.07,5.07,0,0,0,4.7,34.58a5,5,0,0,0,3.88,0,5.07,5.07,0,0,0,1.58-1.07,5.24,5.24,0,0,0,1.07-1.59,4.88,4.88,0,0,0,0-3.87,5.07,5.07,0,0,0-1.07-1.58A5,5,0,0,0,4.7,25.4Zm2.67-7.77a2.42,2.42,0,0,1-.74-1.77,2.51,2.51,0,0,1,2.5-2.48,2.49,2.49,0,0,1,2.5,2.48,2.45,2.45,0,0,1-.73,1.77,2.5,2.5,0,0,1-3.53,0ZM15.2,31.4a.78.78,0,0,1-.25-.59v-5a3.19,3.19,0,0,1,2.19-2.91l2.5-.72-5.42-3.6-2.84,2.84a.68.68,0,0,1-.26.18.91.91,0,0,1-.32.06H7.48a.81.81,0,0,1-.6-.24.77.77,0,0,1-.25-.58A.85.85,0,0,1,7.48,20h3L13.53,17A.88.88,0,0,1,14,16.7a.84.84,0,0,1,.54.13l6.08,4.07a1.67,1.67,0,0,1,.8.93,2.09,2.09,0,0,1,.08.66,2.15,2.15,0,0,1-.28.63,1.7,1.7,0,0,1-1,.64l-2.62.76a1.39,1.39,0,0,0-.69.51,1.35,1.35,0,0,0-.3.8v5a.83.83,0,0,1-1.41.59ZM8.55,15.28a.76.76,0,0,0-.25.58.84.84,0,0,0,.83.84.82.82,0,0,0,.59-.24.79.79,0,0,0,.25-.6.76.76,0,0,0-.25-.58A.79.79,0,0,0,9.13,15,.76.76,0,0,0,8.55,15.28ZM22.32,36.1a6.72,6.72,0,0,1-3.53-3.53,6.57,6.57,0,0,1,0-5.17,6.73,6.73,0,0,1,1.43-2.11,7,7,0,0,1,2.1-1.43,6.71,6.71,0,0,1,5.18,0,7,7,0,0,1,2.11,1.43A6.7,6.7,0,0,1,31,27.4a6.57,6.57,0,0,1,0,5.17,6.7,6.7,0,0,1-1.42,2.11A6.82,6.82,0,0,1,27.5,36.1a6.71,6.71,0,0,1-5.18,0ZM23,25.4a5.16,5.16,0,0,0-1.58,1.06A5.07,5.07,0,0,0,20.32,28,4.92,4.92,0,0,0,19.93,30a4.86,4.86,0,0,0,.39,1.93A5,5,0,0,0,23,34.58a5,5,0,0,0,3.88,0,5.07,5.07,0,0,0,1.58-1.07,5.24,5.24,0,0,0,1.07-1.59A4.86,4.86,0,0,0,29.89,30,4.92,4.92,0,0,0,29.5,28a5,5,0,0,0-2.65-2.64,5,5,0,0,0-3.88,0Z" style="fill:#1e1e1e"/><path d="M22.5,36.1a6.82,6.82,0,0,1-2.11-1.42,6.61,6.61,0,0,1,0-9.39,7,7,0,0,1,2.11-1.43,6.66,6.66,0,0,1,5.16,0,7.2,7.2,0,0,1,2.12,1.43A6.54,6.54,0,0,1,31.2,27.4,6.44,6.44,0,0,1,31.72,30a6.36,6.36,0,0,1-.52,2.58,6.54,6.54,0,0,1-1.42,2.11,7,7,0,0,1-2.12,1.42,6.66,6.66,0,0,1-5.16,0Zm.64-10.7a4.91,4.91,0,0,0-1.58,1.07,5.25,5.25,0,0,0-1.07,1.58,4.88,4.88,0,0,0,0,3.87,5.42,5.42,0,0,0,1.07,1.59,5.07,5.07,0,0,0,1.58,1.07,4.86,4.86,0,0,0,1.93.39A4.92,4.92,0,0,0,27,34.58a5.07,5.07,0,0,0,1.58-1.07,5.24,5.24,0,0,0,1.07-1.59,4.88,4.88,0,0,0,0-3.87,5.07,5.07,0,0,0-1.07-1.58,5,5,0,0,0-5.46-1.07Zm2.67-7.77a2.42,2.42,0,0,1-.74-1.77,2.5,2.5,0,0,1,4.27-1.75,2.42,2.42,0,0,1,.73,1.75,2.45,2.45,0,0,1-.73,1.77,2.5,2.5,0,0,1-3.53,0ZM33.64,31.4a.78.78,0,0,1-.25-.59v-5a3.19,3.19,0,0,1,2.19-2.91l2.5-.72-5.42-3.6-2.84,2.84a.68.68,0,0,1-.26.18.91.91,0,0,1-.32.06H25.92a.81.81,0,0,1-.6-.24.77.77,0,0,1-.25-.58.85.85,0,0,1,.85-.85h3L32,17a.88.88,0,0,1,.51-.25.84.84,0,0,1,.54.13L39.1,20.9a1.67,1.67,0,0,1,.8.93,2.09,2.09,0,0,1,.08.66,2.15,2.15,0,0,1-.28.63,1.7,1.7,0,0,1-1,.64L36,24.52a1.39,1.39,0,0,0-.69.51,1.35,1.35,0,0,0-.3.8v5a.83.83,0,0,1-1.41.59ZM27,15.28a.76.76,0,0,0-.25.58.84.84,0,0,0,.83.84.82.82,0,0,0,.59-.24.79.79,0,0,0,.25-.6.76.76,0,0,0-.25-.58.79.79,0,0,0-.59-.25A.76.76,0,0,0,27,15.28ZM40.76,36.1a6.72,6.72,0,0,1-3.53-3.53,6.57,6.57,0,0,1,0-5.17,6.73,6.73,0,0,1,1.43-2.11,7,7,0,0,1,2.1-1.43,6.71,6.71,0,0,1,5.18,0,7,7,0,0,1,2.11,1.43,6.7,6.7,0,0,1,1.42,2.11,6.57,6.57,0,0,1,0,5.17,6.7,6.7,0,0,1-1.42,2.11,6.82,6.82,0,0,1-2.11,1.42,6.71,6.71,0,0,1-5.18,0Zm.65-10.7A5,5,0,0,0,38.76,28,4.92,4.92,0,0,0,38.37,30a4.86,4.86,0,0,0,.39,1.93,5.24,5.24,0,0,0,1.07,1.59,5.07,5.07,0,0,0,1.58,1.07,5,5,0,0,0,3.88,0,5.07,5.07,0,0,0,1.58-1.07,5.24,5.24,0,0,0,1.07-1.59A4.86,4.86,0,0,0,48.33,30,4.92,4.92,0,0,0,47.94,28a5,5,0,0,0-2.65-2.64,5,5,0,0,0-3.88,0Z" style="fill:#1e1e1e"/></g></svg>