<svg xmlns="http://www.w3.org/2000/svg" viewBox="0 0 50 50"><g id="OBJECTS"><path d="M50,25.6c0-.43-.1-.86-.11-1.3a2.38,2.38,0,0,0-.22-1.45c-.52-.68-1.45-.59-2.23-.57,0-1.14,0-2.29,0-3.43,0-.79.27-2.14-.21-2.84-.79-1.15-3.11-1-4.5-1,0-.2,0-.39,0-.59-.26-3-1.86-3.41-4.69-3.43C34.8,10.93,34,12,33.77,15.1c-.17,2.42-.23,4.85-.27,7.29-3,.25-6.17-.1-9.17-.07-2.57,0-5.16.05-7.73.15,0-2.41-.1-4.83-.27-7.23-.22-3-1-4.17-4.16-4.14-2.18,0-4.42.21-4.71,2.7,0,.43-.08.87-.11,1.32C6,15.14,3.86,15,3.06,16c-1,1.28-.54,4.68-.55,6.18a.81.81,0,0,0,0,.16,4.55,4.55,0,0,0-1.86.13c-.92.39-.58,2-.57,2.74s-.28,2.11.73,2.32a6.45,6.45,0,0,0,1.59.11,22.46,22.46,0,0,0,.54,5.48c.52,2.09,2.53,2.08,4.49,2.12,0,.27,0,.54,0,.81.23,2.65,1.68,2.82,4,2.86,1.49,0,3.84.55,4.71-.95.51-.88.4-2.42.44-3.41.06-2.12.05-4.24,0-6.36,0-.17,0-.34,0-.51,5.59-.06,11.22.21,16.79-.08,0,1.89,0,3.79,0,5.68a14.14,14.14,0,0,0,.21,4c.68,2,3,1.55,4.79,1.53,2,0,3.65.1,4.12-2.2a8.94,8.94,0,0,0,.17-1.48c1.86,0,3.89,0,4.42-2a19,19,0,0,0,.42-5.23,3.75,3.75,0,0,0,1.85-.25C50.14,27.24,50,26.28,50,25.6Zm-48.75.9c-.06-.51,0-1.08,0-1.57,0-.3,0-.61,0-.91,0-.08.07-.46,0-.49a4,4,0,0,1,.77,0h.55c0,1-.06,2-.08,3.06A5.22,5.22,0,0,1,1.21,26.5ZM4,32.2a16,16,0,0,1-.17-2.77c-.12-2.41-.19-4.82-.17-7.22a20.38,20.38,0,0,1,.19-4.49c.39-1.62,2-1.43,3.48-1.47,0,2.66.21,5.37.15,8-.06,3.22-.23,6.62-.1,9.89C5.57,34.1,4.48,34.21,4,32.2Zm11.49,3.21c-.08,1.23,0,2.11-1.26,2.41a11.89,11.89,0,0,1-2.53,0,3,3,0,0,1-3.09-2.07,16.89,16.89,0,0,1,0-3.69c0-2.61-.07-5.21,0-7.82,0-1.73,0-3.45,0-5.17,0-1.36.1-2.72.08-4.08,0-2.25,1.49-2.76,3.54-2.76A3.56,3.56,0,0,1,15,13.65a6.4,6.4,0,0,1,.2,2.42c.07,1.33.1,2.67.14,4,.07,2.56.13,5.11.16,7.67S15.64,32.87,15.47,35.41Zm1.17-8.83c0-1,0-2,0-3,2.56-.1,5.15-.12,7.71-.15,3,0,6.18.31,9.16.07,0,1,0,2,0,3C27.87,26.79,22.23,26.51,16.64,26.58Zm24.91-7.66c0,1.73-.09,3.45,0,5.17,0,2.45,0,4.88,0,7.33,0,2.69.79,6.18-3,6.24a7.27,7.27,0,0,1-2.42,0c-1.71-.76-1.4-2.09-1.43-3.48-.05-2.41-.05-4.81,0-7.22s.1-5,.17-7.51c.09-2.71-.72-7.37,3.18-7.34,2.31,0,3.2.77,3.58,3.21A21.88,21.88,0,0,1,41.55,18.92Zm4.71,10.7a12.56,12.56,0,0,1-.14,2.53C45.63,34.06,44.44,34,42.75,34c0-1.2-.13-2.44-.11-3.55,0-2.12,0-4.22,0-6.34-.05-2.65.14-5.33.07-8a9,9,0,0,1,2.1.18c1.27.35,1.29.47,1.42,1.91.17,1.77,0,3.63.07,5.41C46.31,25.61,46.33,27.62,46.26,29.62Zm1.28-2.94c0-1.07-.1-2.11-.12-3.07v-.19h.79c.38,0,.39-.06.5.24a3.83,3.83,0,0,1,0,.9c0,.33.06.65.08,1a6.85,6.85,0,0,1,0,.79,1.56,1.56,0,0,0,0,.27.27.27,0,0,1-.12,0C48.32,26.63,47.93,26.67,47.54,26.68Z" style="stroke:#000;stroke-miterlimit:10;stroke-width:0.459565848112106px"/><path d="M9.8,16.33a8.66,8.66,0,0,0-.21,4.29c.09.72,1.22.73,1.13,0a8.24,8.24,0,0,1,.17-4C11.17,16,10.07,15.67,9.8,16.33Z"/><path d="M11.36,13.29a.57.57,0,0,0,0,1.14A.57.57,0,0,0,11.36,13.29Z" style="stroke:#000;stroke-miterlimit:10;stroke-width:0.459565848112106px"/><path d="M36.13,15.81a4.34,4.34,0,0,0-.51,2,12.63,12.63,0,0,0-.07,2.46c.06.72,1.2.73,1.14,0a11.57,11.57,0,0,1,0-2,3.84,3.84,0,0,1,.39-1.84C37.55,15.8,36.56,15.23,36.13,15.81Z"/><path d="M37.75,13a.57.57,0,0,0,0,1.14A.57.57,0,0,0,37.75,13Z" style="stroke:#000;stroke-miterlimit:10;stroke-width:0.459565848112106px"/></g></svg>