<svg xmlns="http://www.w3.org/2000/svg" viewBox="0 0 50 50"><g id="OBJECTS"><path d="M4.33,42.17a4.17,4.17,0,0,1-3.06-1.26A4.17,4.17,0,0,1,0,37.84c0-.06.08-.62.25-1.69a8.19,8.19,0,0,1,1.66-3.48,10,10,0,0,1,1.93-2,12.7,12.7,0,0,1,2.49-1.48A16,16,0,0,1,10,28.14a24.31,24.31,0,0,1,4.4-.37h.77q.38,0,.75,0a1.34,1.34,0,0,1,1,.48,1.44,1.44,0,0,1,.37,1,1.44,1.44,0,0,1-1.52,1.35l-.66,0H14.4a15.91,15.91,0,0,0-6.54,1.08,10,10,0,0,0-3.43,2.4,5.43,5.43,0,0,0-1.32,2.46q-.21,1.14-.24,1.26a1.49,1.49,0,0,0,.44,1,1.36,1.36,0,0,0,1,.42H13a1.4,1.4,0,0,1,1,.43,1.38,1.38,0,0,1,.42,1,1.42,1.42,0,0,1-.42,1,1.39,1.39,0,0,1-1,.42ZM11,24.2a8.81,8.81,0,0,1-4.6-4.6,8.76,8.76,0,0,1,0-6.72A8.75,8.75,0,0,1,8.3,10.14,8.63,8.63,0,0,1,11,8.28a8.37,8.37,0,0,1,3.36-.67,8.37,8.37,0,0,1,3.36.67,8.81,8.81,0,0,1,4.6,4.6,8.76,8.76,0,0,1,0,6.72,8.63,8.63,0,0,1-1.86,2.74,8.75,8.75,0,0,1-2.74,1.86,8.64,8.64,0,0,1-6.72,0Zm1.12-13.27A5.71,5.71,0,0,0,9.08,14a5.59,5.59,0,0,0-.45,2.23,5.67,5.67,0,0,0,.45,2.24,6,6,0,0,0,1.24,1.84,5.8,5.8,0,0,0,1.84,1.24,5.8,5.8,0,0,0,4.48,0,5.8,5.8,0,0,0,1.84-1.24,5.94,5.94,0,0,0,1.23-1.84,5.5,5.5,0,0,0,.45-2.24A5.42,5.42,0,0,0,19.71,14a5.87,5.87,0,0,0-1.23-1.85,5.94,5.94,0,0,0-1.84-1.23,5.8,5.8,0,0,0-4.48,0Z" style="fill:#1e1e1e"/><path d="M49.73,36.93h0a8.11,8.11,0,0,0-1.91-3.68,11.13,11.13,0,0,0-2.17-2.05,14,14,0,0,0-2.82-1.53,17.67,17.67,0,0,0-2-.67q-1.05-.29-2.19-.48c-.77-.13-1.58-.22-2.39-.29a32.24,32.24,0,0,0-5.2,0c-.83.07-1.63.16-2.4.29s-1.5.29-2.19.48a16.42,16.42,0,0,0-2,.67,14.49,14.49,0,0,0-2.81,1.53,10.88,10.88,0,0,0-2.18,2,8.41,8.41,0,0,0-1.9,3.69c-.28,1.67-.28,1.74-.28,1.78A3.67,3.67,0,0,0,21,42.39H46.32A3.67,3.67,0,0,0,50,38.71S50,38.6,49.73,36.93ZM47.27,38.7a1.05,1.05,0,0,1-.29.67h0a.88.88,0,0,1-.66.27H21a.88.88,0,0,1-.65-.28.84.84,0,0,1-.28-.63s0-.14.24-1.27a5.81,5.81,0,0,1,1.42-2.59,8.32,8.32,0,0,1,2-1.72,13.27,13.27,0,0,1,2.68-1.24,18,18,0,0,1,3.32-.77,30.06,30.06,0,0,1,7.89,0,17.92,17.92,0,0,1,3.33.77,12.46,12.46,0,0,1,2.67,1.24,9.1,9.1,0,0,1,2,1.72A6.1,6.1,0,0,1,47,37.47C47.17,38.19,47.26,38.67,47.27,38.7Z" style="fill:#1e1e1e"/><path d="M27.37,22.42a8.71,8.71,0,0,0,2.72,1.84,8.49,8.49,0,0,0,6.66,0,8.78,8.78,0,0,0,2.71-1.84,8.69,8.69,0,0,0,1.83-2.71,8.47,8.47,0,0,0,0-6.65,8.74,8.74,0,0,0-1.83-2.72,8.56,8.56,0,0,0-12.09,0,8.54,8.54,0,0,0-1.82,2.72,8.59,8.59,0,0,0,0,6.65A8.45,8.45,0,0,0,27.37,22.42Zm.07-6a6,6,0,0,1,1.76-4.22,6.14,6.14,0,0,1,1.9-1.29,6.11,6.11,0,0,1,4.65,0,6.26,6.26,0,0,1,1.9,1.29,6.13,6.13,0,0,1,1.27,1.91,6,6,0,0,1,0,4.64,6,6,0,0,1-1.27,1.9,6,6,0,0,1-8.46,0,5.92,5.92,0,0,1-1.75-4.23Z" style="fill:#1e1e1e"/></g></svg>