<?xml version="1.0" encoding="utf-8"?>
<!-- Generator: Adobe Illustrator 25.2.0, SVG Export Plug-In . SVG Version: 6.00 Build 0)  -->
<svg version="1.1" id="Ebene_1" xmlns="http://www.w3.org/2000/svg" xmlns:xlink="http://www.w3.org/1999/xlink" x="0px" y="0px"
	 viewBox="0 0 220 220" style="enable-background:new 0 0 220 220;" xml:space="preserve">
<style type="text/css">
	.st0{display:none;}
	.st1{display:inline;fill:#AAAAA9;}
	.st2{fill:#5B58EE;}
	.st3{fill:#2E51C0;}
	.st4{fill:#FFB27D;}
	.st5{fill:#233862;}
	.st6{fill:#FCFCFC;}
	.st7{fill:#ED985F;}
	.st8{fill:#FFFFFF;}
	.st9{fill:#A87C5E;}
	.st10{fill:#1A2C70;}
	.st11{fill:#9529F9;}
	.st12{fill:#ED975D;}
	.st13{fill:#1E1E1E;}
	.st14{fill:#E5E5E5;}
	.st15{fill:#8C6B35;}
	.st16{fill:#D3D3D3;}
	.st17{opacity:0.75;}
	
		.st18{display:inline;fill:none;stroke:#C6C6C6;stroke-width:0.5;stroke-linecap:round;stroke-linejoin:round;stroke-miterlimit:10;}
	
		.st19{display:inline;fill:none;stroke:#C6C6C6;stroke-width:0.2;stroke-linecap:round;stroke-linejoin:round;stroke-miterlimit:10;}
</style>
<g id="Ebene_2_1_" class="st0">
	<rect x="-17" y="56.8" class="st1" width="272.3" height="186.6"/>
</g>
<g id="Ebene_1_1_">
	<path class="st2" d="M271.8,172.9c-1.4,1.5-2.2,4-0.1,6.8c4.3,4.5,11.6,23.6,11.6,23.6c-0.2,0.7,0,1.8-0.5,2.1c-0.9,0.5-3-1-3-1
		s-19.8-20.5-21.4-25.1c-1.2-3.4,4.9-19.9,8.5-28.5c0.7-1.8,1.5-3.6,2.5-5.3l0.1-0.1c1.8-1.2,4.1-1.3,5.9-0.1
		c0.4,0.2,0.8,0.5,1.1,0.8c4.4,3.6,7.3,12.1,7,13.9c-0.2,1.2-2,2.7-4.4,5.3c-0.5,0.5-1.6,1.9-2.1,2.4
		C274.8,169.8,272.4,172.2,271.8,172.9z"/>
	<path class="st3" d="M278.6,165.9c-0.5,0.5-1,1.1-1.5,1.6l-10.2-16.8c0.7-1.8,1.5-3.7,2.5-5.3l0.1-0.1l5.9-0.1h1.1v0.8L278.6,165.9
		z"/>
	<path class="st4" d="M272.9,106.6c0,0,2.2,5.4,1.6,8.6s-8.2,19.3-11,22s-21.2-8.9-21.2-8.9l1.8-1.7c0,0,15.5,4.7,16.3,3.5
		C261.2,128.9,263.9,105.1,272.9,106.6z"/>
	<path class="st2" d="M272.4,149.1c0,0,3.8,18.9,13.3,32.2c9.2,12.9,14,32.6,14,32.6c0.6,0.3,1.3,0.3,1.8,0c1.2-0.5,2,0.1,2.2-0.5
		c0,0-2.5-31.3-7.3-38.1c-3.8-5.4-4.4-13.8-3.9-21.5c-0.1-2.9,0-6-1-8.8L272.4,149.1z"/>
	<path class="st5" d="M303.8,219h-2.2c-0.8-0.1-1.3-0.3-2.1-0.4c-0.6-0.1-1.3,0-1.8,0.4l0,0l-9.5,0.1c-0.2-0.3,0-1.1,0.2-1.7
		c0.2-0.4,0.5-0.7,0.9-0.8c1.8-0.3,3.4-1.1,4.8-2.2c1-0.9,4.9-3.4,4.9-3.4l0,0c0.1,0,0.5,0.1,2.3,1.6c0.9,0.8,2.5-1.1,2.5-1.1
		c0.2,0.2,0.4,0.4,0.5,0.7c0.2,0.4,0.3,1,0.2,1.4c0,1.2,0.3,2.4,0.7,3.5c0.2,0.6,0.4,1.1,0.4,1.1S305.7,218.7,303.8,219z"/>
	<path class="st5" d="M304.2,212.1c-0.7,0.6-1.5,1-2.4,1.2c-1,0.1-2.9-2.4-2.9-2.4l0,0c0.1,0,0.5,0.1,2.3,1.6
		c0.9,0.8,2.5-1.1,2.5-1.1C303.9,211.6,304.1,211.8,304.2,212.1z"/>
	<path class="st5" d="M303.8,219h-2.2c-0.8-0.1-1.3-0.3-2.1-0.4c-0.6-0.1-1.3,0-1.8,0.4l0,0l-9.5,0.1c-0.2-0.3,0-1.1,0.2-1.7
		c0.3-0.2,0.4,1.1,0.5,1.3s7.7,0,8.2-0.3c1.1-0.6,2.4-0.8,3.6-0.5c1.6,0.4,3.9-0.6,4.5-0.9c0.2,0.6,0.4,1.1,0.4,1.1
		S305.7,218.7,303.8,219z"/>
	<path class="st6" d="M287.7,130.4c0-10.6,1.7-23.2-1-24.3c-3.9-1.6-8-1.5-12.2-1.5c-4,0.1-11.7,1-12.6,7.6
		c-0.6,4.2-1.6,7.8-1.6,7.8c0.6,1.6,1.9,2.8,3.4,3.4c0.1,0.7,0.4,1.4,0.7,2c0.3,0.9,0.8,1.7,1.3,2.4c3.9,5.7,3.5,9.1,1,21
		c3.9,3.2,23.1,1.3,25,0.1C295,146.7,287.7,141,287.7,130.4z"/>
	<path class="st5" d="M287.6,205.9l-1.6,1.6c-0.6,0.4-1.2,0.7-1.8,1.1c-0.6,0.3-0.9,0.9-1,1.6l0,0l-6.8,6.6c-0.4-0.1-0.8-0.8-1-1.4
		c-0.2-0.4-0.1-0.8,0.1-1.2c1.1-1.4,1.7-3.1,1.9-4.9c0.1-1.4,1.2-5.9,1.2-5.9l0,0c0.1-0.1,0.4-0.2,2.8-0.4c1.2-0.1,1-2.5,1-2.5
		c0.3,0,0.6,0,0.9,0.1c0.5,0.2,0.9,0.5,1.2,0.9c0.8,0.9,1.8,1.6,2.9,2.1l1.1,0.5C288.4,204.1,288.9,204.4,287.6,205.9z"/>
	<path class="st5" d="M283.2,200.6c-0.1,0.9-0.4,1.8-0.9,2.5c-0.6,0.8-3.8,0.3-3.8,0.3l0,0c0.1-0.1,0.4-0.2,2.8-0.4
		c1.2-0.1,1-2.5,1-2.5C282.6,200.5,282.9,200.5,283.2,200.6z"/>
	<path class="st5" d="M287.6,205.9l-1.6,1.6c-0.6,0.4-1.2,0.7-1.8,1.1c-0.6,0.3-0.9,0.9-1,1.6l0,0l-6.8,6.6c-0.4-0.1-0.8-0.8-1-1.4
		c0-0.4,1,0.5,1.3,0.6s5.6-5.3,5.7-5.9c0.3-1.2,1.2-2.2,2.3-2.8c1.4-0.8,2.4-3.2,2.6-3.8l1.1,0.5
		C288.4,204.1,288.9,204.4,287.6,205.9z"/>
	<path class="st4" d="M281.4,107.7c0,0,5.9-0.1,8.6,1.7s14.9,14.7,16.4,18.3s-12.5,13.9-12.5,13.9l-2-3.1c0,0,7.6-9.5,6.8-10.6
		C297.9,126.7,276.7,115.5,281.4,107.7z"/>
	<path class="st4" d="M293.4,137.7l2.3,1.8c0,0-2.1,4.4-3.2,4.9h-0.1c-1.2,0.2-4.2-1.7-4.7-3.7c-0.1-0.2-0.1-0.4,0-0.6
		c0.5-1.2,3.3-1.9,4.7-2.2C293.1,137.7,293.4,137.7,293.4,137.7z"/>
	<path class="st4" d="M245.7,127l-1.2,2.7c0,0-4.8-0.9-5.5-1.9v-0.1c-0.5-1.1,0.6-4.5,2.5-5.5c0.2-0.1,0.4-0.1,0.6-0.1
		c1.3,0.1,2.7,2.7,3.3,4C245.6,126.7,245.7,127,245.7,127z"/>
	<path class="st6" d="M279.4,104.6c0,0,5.5-0.4,9.4,2c1.8,1.1,8.6,8.3,8.6,8.3s-1.1,5.8-9.3,7.6c-8.2,1.8-9.3-11.7-9.3-11.7
		L279.4,104.6z"/>
	<path class="st4" d="M278.4,104.1c0.2,0.4,0.2,0.9,0,1.3c-0.7,1.2-2.8,3.2-8.1,2.8c-1.8-0.1-2.2-1.5-1.1-2.9
		c0.3-0.3,0.2-2.3,0.2-3.1c-0.1-1-0.1-1.9,0-2.9l3.8-2.6l3.6-2.5C276.2,100,277.7,103,278.4,104.1z"/>
	<path class="st7" d="M276.6,97.1c0,0-2.6,4.1-7.2,5c-0.1-1-0.1-1.9,0-2.9l3.8-2.6L276.6,97.1z"/>
	<path class="st4" d="M267.8,99c0,0,8.8,2,10-3.3s3.1-8.8-2.4-10.3s-7.1,0.3-7.9,2S265.5,98.3,267.8,99z"/>
	<path d="M281.7,85.1c0.2-0.1,0.5-0.2,0.7-0.1c-0.2-0.2-0.5-0.2-0.8-0.3c0-0.8-0.5-1.6-1.3-1.9c0.3,0.2,0.5,0.6,0.5,0.9
		c-1.1-1.2-3.5-2.3-10.3-2.2c-9,0.1-6.4,6-5.3,6.8s4.1-0.9,6.3-0.6c2.2,0.3,2.4,3.5,3,3.9s0.5-0.3,1.5-0.7s1,1.3,0.6,2.3
		s0.9,2.5,0.9,2.5l1.5-1.4c1.5-1.4,3.2-7.6,2.6-9L281.7,85.1z"/>
	<path class="st8" d="M267,95.6c0.2,0.5,0.6,0.8,1.1,0.9s1.7,0.2,2.2-1C269.6,95.3,267.9,95.5,267,95.6z"/>
	<g>
		<path class="st9" d="M269.1,91.4c0.1-0.2,0.3-0.3,0.5-0.4s0.4-0.1,0.6-0.1s0.4,0,0.7,0.1c0.2,0.1,0.4,0.3,0.5,0.5
			c-0.1-0.2-0.3-0.2-0.5-0.3c-0.2,0-0.4-0.1-0.6,0c-0.2,0-0.4,0-0.6,0C269.5,91.3,269.2,91.3,269.1,91.4z"/>
	</g>
	<g>
		<path class="st9" d="M267.6,91.4c-0.3,0-0.5-0.1-0.8-0.1s-0.5,0-0.7,0.2c0-0.1,0.1-0.3,0.3-0.4c0.1-0.1,0.3-0.1,0.4-0.1
			c0.2,0,0.3,0,0.4,0.1C267.4,91.2,267.5,91.3,267.6,91.4z"/>
	</g>
</g>
<g>
	<path class="st4" d="M79.9,116L79.9,116L79.9,116z"/>
	<path class="st10" d="M80,152.5L80,152.5c-0.1,2.1-0.2,4.1-0.4,6.2c-0.3,3-0.7,6-1.2,8.9l0,0c-0.1,0.5-0.2,1-0.2,1.5
		s-0.1,0.8-0.2,1.2l-0.5,2.6c-0.1,0.7-0.3,1.3-0.4,2c-0.8,4.1-1.6,7.1-1.8,8l0,0c0,0.3,0.1,0.6,0.2,0.9c2.3,5.2,1.7,7.3,1.3,12.3
		c-0.6,6.5-1.7,13-3.3,19.3l-4,3.8c0,0,1.3-7-0.3-19.6c-0.6-4.5-1.4-8.9-2.4-13.4c-1.3-5.5-4.4-19.9-4.8-30.5
		c0-1.1,0.3-12.1,2.4-16.6c0.6-1.2,4.9,1.6,4.9,1.6h4.4h4.4l0.1,0.2c0.8,1.9,1.3,3.9,1.4,6C80,148.7,80.1,150.6,80,152.5z"/>
	<path class="st5" d="M80,152.5L80,152.5c-0.1,2.1-0.2,4.1-0.4,6.2c-0.3,3-0.7,6-1.2,8.9l0,0c-0.1,0.5-0.2,1-0.2,1.5
		s-0.1,0.8-0.2,1.2l-0.5,2.6c-0.1,0.7-0.3,1.3-0.4,2c0,0-12.2-28.7-12.3-29.1l9-5h4.4l0.1,0.2c0.8,1.9,1.3,3.9,1.4,6
		C80,148.7,80.1,150.6,80,152.5z"/>
	<path class="st11" d="M69.2,220L69.2,220c0.4-0.3,0.9-0.4,1.3-0.3c0.6,0.1,1,0.2,1.5,0.3h1.7c1.4-0.2,1.3-0.6,1.3-0.6
		s-0.1-0.3-0.3-0.8c-0.3-0.8-0.5-1.7-0.5-2.6c0.1-0.4,0-0.7-0.1-1.1c-0.1-0.2-0.2-0.4-0.4-0.5c0,0-1.2,1.4-1.8,0.8
		c-1.3-1.1-1.6-1.2-1.7-1.2l0,0c0,0-2.9,1.8-3.7,2.5c-1,0.8-2.3,1.4-3.6,1.6c-0.3,0.1-0.5,0.3-0.7,0.6c-0.2,0.4-0.3,1-0.2,1.3H69.2z
		"/>
	<path class="st4" d="M66.2,108c0,0-2.8,17.7-7.2,24.5c-2.3,3.4-17.8-9.8-17.8-9.8l1.8-1.1c0,0,12.4,6.5,12.8,5.8
		c0.4-0.7,1.5-15.4,4-17.4S66.2,108,66.2,108z"/>
	<path d="M67.4,99.8c0,0-3.5-0.2-5.1-5.8c-1.2-4.4,1.2-9.7,7.5-9.2c0,0,4.2-0.4,5.6,3c0.6,1.5,1.7,2.1-0.2,7.7l-0.4,1.9L67.4,99.8z"
		/>
	<path d="M74.5,94.7c0,0,2.1,2.5,4.6,2s7.2-2,9.1,0.2s-0.8,7.3,1.1,9.2s0.4,7.7-8,5.8s-8.1-11.2-8-12.5C73.6,97.7,74,96.2,74.5,94.7
		z"/>
	<path class="st10" d="M114.3,189.5l-0.4,2.5c0,0-10.1-3.1-21.4-6.1c-3.6-1-7.2-1.9-10.8-2.7s-14.3-47-14.3-47s15.9-1.6,20,6.2
		c7.6,12.2-0.8,32.7,4.2,33.4c1.3,0.2,2.5,0.5,3.7,1C104,180.1,114.3,189.5,114.3,189.5z"/>
	<path class="st6" d="M62.6,108c3-1.4,6.3-2.3,9.6-2.7c4.7-0.3,10.3,0.2,11.6,1.5c1.7,3,2.3,6.4,1.8,9.8c-0.8,3.2-1.9,6.5-2,9.8
		c-0.2,5.7,2.1,8.6,4.4,15c1.5,4.2-13.9,12.9-25.1,4.6c0.3-4.6,1.5-16.3,0.3-18.4C59.7,121.5,60.3,109.6,62.6,108z"/>
	<path class="st4" d="M83.8,106.8c0,0,11.7,13.4,13,17.3c1.3,3.9-16.5,11.6-16.5,11.6l-0.7-2.8c0,0,11.2-8.2,10.9-9s-8.9-7.5-9-10.7
		S83.8,106.8,83.8,106.8z"/>
	<path class="st4" d="M69.4,110c-4.7,0.2-2.9-2.2-2.3-3c0.1-0.1,0.1-0.2,0.2-0.4c0.3-1.4,0.3-2.9,0.2-4.3c-0.1-1.4-0.3-2.9-0.3-3.4
		l0,0v-0.2l5.8-1.6l1,1.8l0.2,0.4c0.1,1,0,2.1,0.3,3.1c0.2,1,0.9,1.9,1.4,2.7C76.3,105.5,76.5,109.8,69.4,110z"/>
	<path class="st12" d="M74.5,102.5c-2.9-0.2-5.3-1.5-7.3-3.6l0,0c2.3-0.5,4.6-0.4,6.8,0.1l0.2,0.4C74.3,100.5,74.2,101.5,74.5,102.5
		z"/>
	<path class="st4" d="M74.6,101.1c0,0-7.8,0.7-8.2-4.2s-1.6-8.1,3.4-8.7s6.1,1.2,6.6,2.8S76.6,100.8,74.6,101.1z"/>
	<path d="M73.4,87.8c0,0-1.8,5.9-5,6.9S63.7,95,63.7,95c1.5-1.5,2.4-3.5,2.6-5.7C66.2,89.3,71.6,85.2,73.4,87.8z"/>
	<path class="st13" d="M72.9,88.3c0.9,0.6,1.6,1.4,2.1,2.4c0.5,1.2,2.2,3.9,2.2,3.7c0-0.4,0.7-4.1-1.2-6.1S72.9,88.3,72.9,88.3z"/>
	<path class="st8" d="M72.5,98.5c0,0,0.1,0.7,0.6,0.7c0.6,0,1.4,0,2-0.2c0.1-0.3,0.3-0.6,0.3-0.9C74.6,98,73.5,98.4,72.5,98.5z"/>
	<path class="st4" d="M80.3,132.5l1.8,1.6c0,0-2,3.4-2.9,3.7H79c-1,0.1-3.3-1.7-3.5-3.4c0-0.2,0-0.3,0.1-0.5c0.5-0.9,2.8-1.3,4-1.4
		C80,132.5,80.3,132.5,80.3,132.5z"/>
	<path class="st4" d="M44,122.2l-0.6,1.9c-1.1-0.1-2.2-0.3-3.2-0.6c-0.5-0.2-1.1-0.6-1.2-1.1c-0.2-1.1,0-3.1,1-3.8
		c0.1-0.1,0.3-0.1,0.4-0.2C41.4,118.3,44,122.2,44,122.2z"/>
	<path class="st11" d="M117.7,191.3L117.7,191.3c-0.4-0.3-0.5-0.8-0.5-1.3c0-0.6,0.1-1,0.2-1.6l-0.2-1.6c-0.3-1.4-0.7-1.3-0.7-1.3
		l-0.8,0.4c-0.8,0.4-1.6,0.7-2.5,0.8c-0.4,0-0.7,0.1-1,0.3c-0.2,0.1-0.3,0.3-0.5,0.4c0,0,1.5,1,1,1.7c-1,1.4-1,1.7-1,1.8l0,0
		c0,0,2.1,2.7,2.9,3.4c0.9,0.9,1.6,2.1,2,3.4c0.1,0.3,0.4,0.5,0.7,0.6c0.4,0.1,1,0.2,1.3,0L117.7,191.3z"/>
	<g>
		<path class="st9" d="M70.8,94.9c0.1-0.2,0.2-0.4,0.4-0.5c0.2-0.1,0.4-0.2,0.6-0.2c0.4,0,0.9,0,1.1,0.4c-0.2-0.1-0.4-0.1-0.6-0.1
			s-0.4,0-0.6,0C71.4,94.5,71.1,94.6,70.8,94.9z"/>
	</g>
	<g>
		<path class="st9" d="M74.7,94.5c0.2-0.3,0.5-0.4,0.8-0.5c0.3,0,0.7,0.1,0.9,0.3c-0.1-0.1-0.3-0.1-0.4-0.1s-0.3,0-0.4,0
			C75.3,94.3,75,94.4,74.7,94.5z"/>
	</g>
</g>
<g>
	<g>
		<path class="st14" d="M93.2,142.5l10.6,0.4l-10.6,0.4c-0.2,0-0.5-0.2-0.5-0.4S92.9,142.5,93.2,142.5L93.2,142.5z"/>
	</g>
	<g>
		<path class="st14" d="M94.6,146.4l20.3,0.5l-20.3,0.4c-0.2,0-0.5-0.2-0.5-0.4C94.1,146.6,94.3,146.4,94.6,146.4L94.6,146.4z"/>
	</g>
	<g>
		<path class="st14" d="M93.3,96.5l7.2,0.4l-7.2,0.5c-0.2,0-0.5-0.2-0.5-0.4C92.8,96.7,93,96.5,93.3,96.5L93.3,96.5z"/>
	</g>
	<g>
		<path class="st14" d="M92.8,100.4l15.5,0.4l-15.5,0.5c-0.2,0-0.5-0.2-0.5-0.4S92.5,100.4,92.8,100.4L92.8,100.4z"/>
	</g>
	<g>
		<path class="st14" d="M78.8,212.6l15.8,0.5l-15.8,0.4c-0.2,0-0.5-0.2-0.5-0.4C78.3,212.8,78.5,212.6,78.8,212.6
			C78.7,212.6,78.8,212.6,78.8,212.6z"/>
	</g>
	<g>
		<path class="st14" d="M79.7,216.3l26.6,0.4l-26.6,0.4c-0.2,0-0.5-0.2-0.5-0.4S79.4,216.3,79.7,216.3L79.7,216.3z"/>
	</g>
</g>
<g>
	<path class="st4" d="M147.7,117.9L147.7,117.9L147.7,117.9z"/>
	<path class="st2" d="M148,155L148,155c-0.4,2-0.7,4-1.1,6c-0.7,2.9-1.4,5.8-2.3,8.5l0,0c-0.2,0.5-0.3,1-0.4,1.4
		c-0.1,0.5-0.2,0.8-0.3,1.1l-0.8,2.5c-0.2,0.7-0.5,1.2-0.6,1.9c-1.3,3.9-2.4,6.7-2.7,7.6l0,0c0,0.3,0,0.6,0.1,0.9
		c1.6,5.3,0.8,7.3-0.2,12.1c-1.4,6.3-3.2,12.5-5.6,18.4l-4.4,3.2c0,0,2.1-6.7,2.1-19.1c0-4.5-0.3-8.8-0.7-13.4
		c-0.6-5.5-1.9-19.9-1-30.3c0.1-1.1,1.8-11.8,4.4-15.9c0.7-1.1,4.6,2.2,4.6,2.2l4.3,0.5l4.3,0.5l0.1,0.2c0.5,1.9,0.8,4,0.6,6
		C148.5,151.3,148.4,153.2,148,155z"/>
	<path class="st3" d="M148,155L148,155c-0.4,2-0.7,4-1.1,6c-0.7,2.9-1.4,5.8-2.3,8.5l0,0c-0.2,0.5-0.3,1-0.4,1.4
		c-0.1,0.5-0.2,0.8-0.3,1.1l-0.8,2.5c-0.2,0.7-0.5,1.2-0.6,1.9c0,0-8.4-29.5-8.4-29.9l9.4-3.8l4.3,0.5l0.1,0.2c0.5,1.9,0.8,4,0.6,6
		C148.5,151.3,148.4,153.2,148,155z"/>
	<path class="st5" d="M129.3,219.5L129.3,219.5c0.4-0.2,0.9-0.3,1.3-0.1c0.6,0.2,1,0.3,1.4,0.5l1.7,0.2c1.4,0,1.3-0.4,1.3-0.4
		s-0.1-0.3-0.2-0.8c-0.2-0.8-0.3-1.7-0.2-2.6c0.1-0.4,0.1-0.7,0-1.1c-0.1-0.2-0.1-0.4-0.3-0.5c0,0-1.3,1.2-1.9,0.6
		c-1.1-1.2-1.4-1.4-1.5-1.4l0,0c0,0-3,1.4-3.9,2c-1.1,0.7-2.4,1.1-3.7,1.1c-0.3,0.1-0.5,0.2-0.8,0.5c-0.2,0.4-0.4,0.9-0.4,1.2
		L129.3,219.5z"/>
	<path class="st4" d="M134.3,110c0,0-2.7,17.4-7.1,24.1c-2.3,3.3-17.5-9.6-17.5-9.6l1.8-1.1c0,0,12.2,6.4,12.6,5.7
		s1.5-15.1,3.9-17.1S134.3,110,134.3,110z"/>
	<path class="st15" d="M135.4,102c0,0-3.4-0.2-5-5.7c-1.2-4.3,1.2-9.5,7.4-9c0,0,4.1-0.4,5.5,2.9c0.6,1.5,1.7,2.1-0.2,7.6l-0.4,1.9
		L135.4,102z"/>
	<path class="st15" d="M143,97.5c0,0,2,2.3,4.7,2c2.6-0.2,7.6-1.2,9.4,0.8c1.8,2-1.3,6.2,0.6,7.9c1.9,1.8,0,6.6-8.6,4.4
		s-7.7-10.1-7.6-11.2C141.9,100,142.4,98.8,143,97.5z"/>
	<path class="st2" d="M176,194.1l-0.7,2.4c0,0-9.4-4.3-20-8.7c-3.4-1.4-6.8-2.8-10.2-4s-7.8-47.6-7.8-47.6s15.7,0.5,18.7,8.6
		c5.8,12.9-5,31.7-0.3,33.1c1.2,0.4,2.4,0.8,3.5,1.5C167.2,183.6,176,194.1,176,194.1z"/>
	<path class="st16" d="M130.5,110c2.9-1.4,6.2-2.3,9.4-2.7c4.6-0.3,10.1,0.2,11.4,1.5c1.7,2.9,2.3,6.3,1.8,9.6
		c-0.8,3.1-1.9,6.4-2,9.6c-0.2,5.6,2.1,8.4,4.3,14.7c1.5,4.1-13.7,12.7-24.6,4.5c0.3-4.5,1.5-16,0.3-18.1
		C127.6,123.3,128.2,111.6,130.5,110z"/>
	<path class="st4" d="M151.3,109.1c0,0,13.7,10.9,15.6,14.4c1.9,3.5-13.9,14.1-13.9,14.1l-1.2-2.6c0,0,9.4-9.9,8.9-10.6
		c-0.4-0.7-9.9-5.7-10.6-8.7C149.6,112.6,151.3,109.1,151.3,109.1z"/>
	<path class="st4" d="M137.4,112c-4.6,0.2-2.8-2.2-2.3-2.9c0.1-0.1,0.1-0.2,0.2-0.4c0.3-1.4,0.3-2.8,0.2-4.2
		c-0.1-1.4-0.3-2.8-0.3-3.3l0,0V101l5.7-1.6l1,1.8l0.2,0.4c0.1,1,0,2.1,0.3,3c0.2,1,0.9,1.9,1.4,2.7
		C144.2,107.6,144.4,111.8,137.4,112z"/>
	<path class="st12" d="M142.4,104.6c-2.8-0.2-5.2-1.5-7.2-3.5l0,0c2.3-0.5,4.5-0.4,6.7,0.1l0.2,0.4
		C142.2,102.6,142.1,103.6,142.4,104.6z"/>
	<path class="st4" d="M142.5,103.2c0,0-7.7,0.7-8.1-4.1c-0.4-4.8-1.6-8,3.3-8.5c4.9-0.6,6,1.2,6.5,2.7
		C144.8,94.9,144.5,102.9,142.5,103.2z"/>
	<path class="st15" d="M141.3,90.2c0,0-1.8,5.8-4.9,6.8s-4.6,0.3-4.6,0.3c1.5-1.5,2.2-3.4,2.4-5.6C134.1,91.6,139.6,87.6,141.3,90.2
		z"/>
	<path class="st15" d="M140.8,90.7c0.9,0.6,1.6,1.4,2.1,2.4c0.5,1.2,2.2,3.8,2.2,3.6c0-0.4,0.7-4-1.2-6
		C142,88.7,140.8,90.7,140.8,90.7z"/>
	<path class="st8" d="M140.5,100.7c0,0,0.1,0.7,0.6,0.7c0.6,0,1.4,0,2-0.2c0.1-0.3,0.3-0.6,0.3-0.9
		C142.5,100.2,141.4,100.6,140.5,100.7z"/>
	<path class="st4" d="M152.5,134.5l2,1.2c0,0-1.3,3.6-2.1,4.1h-0.2c-0.9,0.3-3.5-1.1-4-2.7c0-0.2-0.1-0.3,0-0.5
		c0.3-1,2.5-1.8,3.6-2.1C152.2,134.6,152.5,134.5,152.5,134.5z"/>
	<path class="st4" d="M112.5,124l-0.6,1.9c-1.1-0.1-2.2-0.3-3.1-0.6c-0.5-0.2-1.1-0.6-1.2-1.1c-0.2-1.1,0-3,1-3.7
		c0.1-0.1,0.3-0.1,0.4-0.2C109.9,120.1,112.5,124,112.5,124z"/>
	<path class="st5" d="M179.1,196.2L179.1,196.2c-0.4-0.3-0.4-0.8-0.3-1.3c0.1-0.6,0.2-1,0.4-1.5v-1.6c-0.1-1.4-0.5-1.4-0.5-1.4
		l-0.8,0.3c-0.8,0.3-1.6,0.5-2.5,0.5c-0.4-0.1-0.7,0-1,0.2c-0.2,0.1-0.3,0.3-0.5,0.3c0,0,1.3,1.2,0.8,1.8c-1.2,1.2-1.2,1.5-1.2,1.6
		l0,0c0,0,1.7,2.9,2.4,3.7c0.8,1,1.3,2.3,1.5,3.6c0.1,0.3,0.3,0.5,0.6,0.7c0.4,0.1,0.9,0.3,1.3,0.2L179.1,196.2z"/>
	<g>
		<path class="st9" d="M138.8,97.1c0.1-0.2,0.2-0.4,0.4-0.5s0.4-0.2,0.6-0.2c0.4,0,0.9,0,1.1,0.4c-0.2-0.1-0.4-0.1-0.6-0.1
			c-0.2,0-0.4,0-0.6,0C139.4,96.8,139.1,96.9,138.8,97.1z"/>
	</g>
	<g>
		<path class="st9" d="M142.6,96.8c0.2-0.3,0.5-0.4,0.8-0.5c0.3,0,0.7,0.1,0.9,0.3c-0.1-0.1-0.3-0.1-0.4-0.1s-0.3,0-0.4,0
			C143.2,96.6,142.9,96.7,142.6,96.8z"/>
	</g>
</g>
<g>
	<g>
		<path class="st14" d="M160.8,143.9l10.4,0.4l-10.4,0.4c-0.2,0-0.5-0.2-0.5-0.4S160.5,143.9,160.8,143.9L160.8,143.9z"/>
	</g>
	<g>
		<path class="st14" d="M162.2,147.7l19.9,0.5l-19.9,0.4c-0.2,0-0.5-0.2-0.5-0.4C161.7,147.9,161.9,147.7,162.2,147.7L162.2,147.7z"
			/>
	</g>
	<g>
		<path class="st14" d="M160.9,98.7l7.1,0.4l-7.1,0.5c-0.2,0-0.5-0.2-0.5-0.4C160.4,98.9,160.6,98.7,160.9,98.7L160.9,98.7z"/>
	</g>
	<g>
		<path class="st14" d="M160.4,102.5l15.2,0.4l-15.2,0.5c-0.2,0-0.5-0.2-0.5-0.4C159.9,102.8,160.1,102.5,160.4,102.5L160.4,102.5z"
			/>
	</g>
	<g>
		<path class="st14" d="M146.6,212.7l15.5,0.5l-15.5,0.4c-0.2,0-0.5-0.2-0.5-0.4C146.1,212.9,146.3,212.7,146.6,212.7
			C146.5,212.7,146.6,212.7,146.6,212.7z"/>
	</g>
	<g>
		<path class="st14" d="M147.5,216.4l26.1,0.4l-26.1,0.4c-0.2,0-0.5-0.2-0.5-0.4S147.2,216.4,147.5,216.4L147.5,216.4z"/>
	</g>
</g>
<g>
	<g>
		<path class="st14" d="M286.3,87.6L297,88l-10.7,0.4c-0.2,0-0.5-0.2-0.5-0.4C285.8,87.8,286,87.6,286.3,87.6
			C286.2,87.6,286.2,87.6,286.3,87.6z"/>
	</g>
	<g>
		<path class="st14" d="M284.9,91.6l6.8,0.4l-6.8,0.4c-0.2,0-0.5-0.2-0.5-0.4C284.4,91.8,284.6,91.6,284.9,91.6
			C284.8,91.6,284.9,91.6,284.9,91.6z"/>
	</g>
	<g>
		<path class="st14" d="M297.7,147.9l12.4,0.4l-12.4,0.4c-0.2,0-0.5-0.2-0.5-0.4S297.4,147.9,297.7,147.9L297.7,147.9z"/>
	</g>
	<g>
		<path class="st14" d="M297.4,151.8l5.8,0.5l-5.8,0.4c-0.2,0-0.5-0.2-0.5-0.4C296.9,152,297.1,151.8,297.4,151.8
			C297.3,151.8,297.4,151.8,297.4,151.8z"/>
	</g>
	<g>
		<path class="st14" d="M309,123.5l6.5,0.4l-6.5,0.5c-0.2,0-0.5-0.2-0.5-0.4S308.7,123.6,309,123.5L309,123.5z"/>
	</g>
	<g>
		<path class="st14" d="M310.1,127.1l17.7,0.5l-17.7,0.4c-0.2,0-0.5-0.2-0.5-0.4S309.8,127.1,310.1,127.1L310.1,127.1z"/>
	</g>
	<g>
		<path class="st14" d="M308.4,207.6l15.3,0.4l-15.3,0.4c-0.2,0-0.5-0.2-0.5-0.4C308,207.8,308.2,207.6,308.4,207.6L308.4,207.6z"/>
	</g>
	<g>
		<path class="st14" d="M308.9,211.8l6,0.4l-6,0.4c-0.2,0-0.5-0.2-0.5-0.4C308.4,212.1,308.6,211.9,308.9,211.8L308.9,211.8z"/>
	</g>
</g>
<g id="Ebene_3" class="st17">
	<g id="Motion_Lines_Thic" class="st0">
		<path class="st18" d="M110.4,182.3c1-0.9,2.2-1.6,3.5-2.2"/>
		<path class="st18" d="M79.1,219.1c0,0,12.1-1.2,20.9-8.9"/>
		<path class="st18" d="M169.4,217.2c11.4-0.8,14.4-2.5,22.9-9.6"/>
		<path class="st18" d="M84.8,137.6c5.3,2.6,11.2,3.1,16.7,1.3"/>
		<path class="st18" d="M88.7,134.6c2.9,1.4,5.7,1.7,9.1,1.4"/>
		<path class="st18" d="M160.4,141.7c3.4,0.8,5.6,1.5,10.5,1"/>
		<path class="st18" d="M157.4,145.1c5.6,1.2,9.3,2.4,17.4,1.6"/>
		<path class="st18" d="M168.9,213.4c5-0.3,9.9-2.7,13.3-6.5"/>
		<path class="st18" d="M78.6,215.4c3.9-0.5,7.6-2.4,10.3-5.2"/>
		<path class="st18" d="M43.9,129.6c-0.2,4.2,0.8,8.5,2.7,11.9"/>
		<path class="st18" d="M39.9,126.9c0.1,3.3,0.5,6.6,1.3,9.8"/>
		<path class="st18" d="M142.4,97.9c3.5,0.9,7.5,1.2,11.4,0.7"/>
		<path class="st18" d="M144.6,94c5,1.2,11.3,1.2,16.3-0.4"/>
		<path class="st18" d="M106.2,179.6c1.6-1.8,3.7-3.3,6-4.2"/>
	</g>
	<g id="Motion_Lines_Thin" class="st0">
		<path class="st19" d="M156,146c3.2,1.6,6.6,2.6,10.1,3"/>
		<path class="st19" d="M159.2,143.2c3.1,1.1,6.8,1.6,9.9,1.5"/>
		<path class="st19" d="M169.2,215.4c4.7,0,9.4-1.5,13.2-4.2"/>
		<path class="st19" d="M169.6,218.5c0.9-0.1,1.8,0,2.7,0s4.3-0.4,5.2-0.8"/>
		<path class="st19" d="M143.3,96.1c2.1,0.6,4.3,0.9,6.5,1.1"/>
		<path class="st19" d="M145.3,92.2c2.6,0.5,4.9,0.5,7.4,0.4"/>
		<path class="st19" d="M42.1,128.3c-0.2,1.4-0.2,2.8,0,4.2s0.2,1.4,0.5,2.5"/>
		<path class="st19" d="M46,130.8c-0.1,1.5,0.1,3.1,0.5,4.6"/>
		<path class="st19" d="M90.6,133.4c1.9,0.8,5.4,1.2,6.1,1.2"/>
		<path class="st19" d="M86.8,136.3c0.2,0.2,2.5,1.2,4.1,1.6c1.2,0.3,3.2,0.4,4.8,0.2"/>
		<path class="st19" d="M78.5,213.7c1.1-0.3,2.2-0.7,3.2-1.2c1-0.6,1.9-1.4,2.3-2.5"/>
		<path class="st19" d="M79.1,217.2c3.2,0,6.3-1.3,8.9-3.6"/>
		<path class="st19" d="M109.2,181.2c2.3-1.9,4-3.4,5.7-3.6"/>
		<path class="st19" d="M105.2,178.7c0.9-1.2,1.1-1.4,2.3-2.2"/>
		<path class="st19" d="M81.4,93.3c5.2,0.1,13-0.9,14.6-2.1"/>
		<path class="st19" d="M90,95.4c2.6,0.1,5.2-0.4,7.6-1.5"/>
		<path class="st19" d="M90.9,97.2c2.1,0.1,4.2,0,6.3-0.2"/>
	</g>
</g>
</svg>
