<?xml version="1.0" encoding="utf-8"?>
<!-- Generator: Adobe Illustrator 25.2.0, SVG Export Plug-In . SVG Version: 6.00 Build 0)  -->
<svg version="1.1" id="Ebene_1" xmlns="http://www.w3.org/2000/svg" xmlns:xlink="http://www.w3.org/1999/xlink" x="0px" y="0px"
	 viewBox="0 0 220 220" style="enable-background:new 0 0 220 220;" xml:space="preserve">
<style type="text/css">
	.st0{fill:#FFB27D;}
	.st1{fill:#ED985F;}
	.st2{fill:#FFFFFF;}
	.st3{fill:#A87C5E;}
	.st4{display:none;}
	.st5{display:inline;fill:#4C4B73;}
	.st6{display:inline;fill:#3A3A5B;}
	.st7{display:inline;fill:#2C2C2C;}
	.st8{display:inline;fill:#FFAD73;}
	.st9{display:inline;fill:#1F3866;}
	.st10{display:inline;fill:#5B58EE;}
	.st11{display:inline;fill:#2E51C0;}
	.st12{display:inline;fill:#FFA166;}
	.st13{display:inline;fill:#FFFFFF;}
	.st14{display:inline;}
	.st15{display:inline;fill:#1A2C70;}
	.st16{display:inline;fill:#9529F9;}
	.st17{fill:#5B58EE;}
	.st18{fill:#2E51C0;}
	.st19{fill:#FCFCFC;}
	.st20{fill:#233862;}
	.st21{fill:#E5E5E5;}
	.st22{fill:#7C5A18;}
	.st23{fill:#1A2C70;}
	.st24{fill:#162659;}
	.st25{fill:#D3D3D3;}
	.st26{fill:#F29E64;}
	.st27{fill:#F20A0A;}
</style>
<g>
	<path class="st0" d="M80.7,112.6c0.2,0.4,0.2,1,0,1.3c-0.8,1.2-3,3.3-8.8,2.9c-2-0.1-3.3-1.3-2.1-2.8c0.5-0.5,1.2-2.2,1.1-3.4
		c-0.1-1-0.1-2,0-3l4.1-2.7l3.9-2.6C78.3,108.4,79.9,111.5,80.7,112.6z"/>
	<path class="st1" d="M78.7,105.4c0,0-2.8,4.3-7.8,5.1c-0.1-1-0.1-2,0-3l4.1-2.7L78.7,105.4z"/>
	<path class="st0" d="M69,108.7c0,0,10,0.7,10.4-5.1c0.4-5.7,1.9-9.7-4.4-10.3c-6.3-0.6-7.7,1.4-8.3,3.4
		C66.2,98.6,66.4,108.3,69,108.7z"/>
	<path d="M81.8,92c0.2-0.1,0.5,0.2,0.9,0.2c-0.2-0.2-0.6-0.5-1-0.6c-0.1-0.9-0.3-1.9-1.3-2.1c0.3,0.1,0.2,0.9,0.2,1.2
		c-1.4-1.1-1.4-2.3-8.8-1.1c-9.9,0.9-10.2,7.2-9.1,8.3c1.1,1,6-1.5,8.4-1.6c2.5-0.1,3.2,5.6,3.9,5.8c0.8,0.3,0.5-2.7,1.5-3.3
		c1-0.6,1.3,1.2,1.1,2.3c-0.2,1.1,2,1.6,2,1.6l1.4-1.7c1.4-1.7,1.6-7.6,0.7-9L81.8,92z"/>
	<path class="st2" d="M67.7,105.2c0.3,0.4,0.8,0.8,1.4,0.8s1.8-0.1,2.2-1.4C70.4,104.5,68.5,105,67.7,105.2z"/>
	<g>
		<path class="st3" d="M69.2,100.5c0.1-0.2,0.3-0.3,0.4-0.5c0.2-0.1,0.4-0.2,0.7-0.2c0.2,0,0.4-0.1,0.8,0c0.2,0.1,0.4,0.2,0.6,0.4
			c-0.1-0.2-0.3-0.1-0.5-0.2c-0.2,0-0.4,0-0.7,0.1c-0.2,0-0.4,0.1-0.7,0.1C69.5,100.4,69.3,100.4,69.2,100.5z"/>
	</g>
	<g>
		<path class="st3" d="M67.5,100.8c-0.3,0-0.5,0-0.9,0c-0.4,0.1-0.5,0.1-0.8,0.3c0-0.1,0.1-0.3,0.2-0.4c0.1-0.1,0.3-0.1,0.4-0.2
			c0.2,0,0.3,0,0.4,0C67.3,100.6,67.4,100.7,67.5,100.8z"/>
	</g>
	<g>
		<g class="st4">
			<path class="st5" d="M18.3,149.4c0.5-3.3,3.7-5.6,7.2-5c0.9,0.1,1.7,0.4,2.4,0.9l1.4,0.8l-0.1,0.2c1.3,1.3,1.9,3.2,1.6,5.1
				c-0.5,3.3-3.7,5.6-7.2,5c-0.2,0-0.4-0.1-0.6-0.1l-0.1,0.2l-1.6-0.9l0,0C19.1,154.3,17.9,151.9,18.3,149.4"/>
			<path class="st6" d="M32.1,152.2c0.5-3.3-1.8-6.4-5.3-7c-3.4-0.5-6.7,1.7-7.2,5s1.8,6.4,5.3,7C28.4,157.7,31.6,155.5,32.1,152.2"
				/>
			<path class="st7" d="M24.7,151.3c0-0.7,0.8-1.5,1.8-1.3c0.4,0.1,11.1,5.3,11.1,5.3l-1.9,2.9l-10.5-5.9
				C25.2,152.3,24.7,152,24.7,151.3"/>
			<path class="st8" d="M31.3,154.9c-0.2,0-3.5,1.6-5.3-0.8c-0.8-1.1-0.2-2.1,0.6-2.4c0.6-0.2,1.5,0.5,1.9,0.8
				C29.2,153.2,31.3,154.9,31.3,154.9"/>
			<path class="st9" d="M21.4,219.9c-1.1-0.7-0.5-5.9-0.5-5.9s5.3-4.3,6.1-1s5.1,4.7,7.5,5.1c1.7,0.3,2.2,1.2,2.4,1.8L21.4,219.9
				L21.4,219.9z"/>
			<path class="st10" d="M27.4,215.7c-1.7,0.6-5.1,2.3-7.2,1.5c-1.4-0.5-9-22.7-9.5-32.4c0-0.5-0.1-1.1-0.2-1.8
				c-0.1-0.3-0.1-0.7-0.2-1.1C9.6,178,8,171.8,6.5,165.5c-2.1-8.5-4.1-17-4.1-20.3c0.1-6.3,18.8-1.3,18.8-1.3s1.1,4.5,1.5,11.2
				c0,0.5,0,1,0.1,1.5c0.5,14.9,1.9,40,5.7,57.4C28.6,214.7,28.2,215.5,27.4,215.7"/>
			<path class="st11" d="M4.3,143.7l2.2,21.8c1.5,6.3,3.1,12.5,3.8,16.4c0.1,0.4,0.1,0.8,0.2,1.1l12.2-27.9c-0.2-3.6-0.6-6.6-1-8.6
				c-0.1-0.6-0.2-1.1-0.3-1.5c-0.1-0.7-0.2-1.1-0.2-1.1L4.3,143.7z"/>
			<path class="st8" d="M12.4,102.2c0,0,6.3,0.2,8.6,3c2.3,2.8,5.1,22.6,6.7,26.7c1.6,4.1,3.4,18.3,3.4,18.9l-2.5,0.5
				c0,0-7-14.7-7.6-18c-0.6-3.2-8.2-19.3-8.1-20.4C12.9,111.7,12.4,102.2,12.4,102.2"/>
			<path class="st8" d="M-3.4,109.7c0.3-2.1-1.9-3.6-3.7-2.7c-2.4,1.1-5,2.7-5.8,4.4c-1.6,3.3-5,17.8-4.7,23.2c0,0,2.9,0.8,5-0.1
				c2.1-0.9,9.1-23,9.1-23L-3.4,109.7z"/>
			<path class="st9" d="M4.8,219.9c0,0-0.3-2.6-1.1-4.1c-0.8-1.5-5.6-0.6-5.6-0.6s-1,0.8-1.2,4.7L4.8,219.9z"/>
			<path class="st10" d="M14.5,145.3l-9.9,71.6c0,0-4.3,1-7.7,0.2c0,0-2.9-38.1-2.7-47.3c0.2-9.2,0.4-22.2,1.5-25.1
				C-2.6,140.1,14.5,145.3,14.5,145.3"/>
			<path class="st8" d="M10.9,98.9v0.9c0,0,0.3,2.9-3.3,3.3c-3.6,0.4-6.3-1.1-6.2-3.4c0.3-1.7,0.7-2.9,0.7-4.4c0-0.5,0-1.1-0.1-1.7
				l6.9-0.1l2,0.3V98.9z"/>
			<path class="st12" d="M10.9,93.9v3.6c-2.6,1-8-0.7-8.4-2.8l6.4-1.2L10.9,93.9z"/>
			<path class="st8" d="M1.4,92.6c0.8,4.3,6.4,4.2,8.8,3.9c0.7-0.1,1.1-0.2,1.1-0.2c0.8-0.2,1.2-1.4,1.4-3c0.4-3.1-0.1-7.7-0.6-8.9
				c-0.8-1.8-2.3-3.7-7.9-2.3C-1.5,83.6,0.4,87.1,1.4,92.6"/>
			<path class="st13" d="M8.5,93.6c0,0,0.5,0.8,2,0.6c1-0.1,1.1-1,1.1-1S10.2,92.9,8.5,93.6"/>
			<path class="st13" d="M20.6,117.3c4-0.3,5.9-2.2,5.9-2.2s-3.6-9.9-5.6-11.6s-10.1-3.2-10.1-3.2c-0.1,0-0.1-0.1-0.1-0.1l0,0
				c0,0.9-1.4,2.6-3.6,2.7c-2.6,0.2-5.8-1.7-5.8-3.2c0,0-6.2,0.4-9.4,2.2c-3.3,1.8-7.2,10.6-7.2,10.6s1.3,4.3,9.5,5.7l-0.6,28.9
				c15.1,5,29-0.2,29-0.2c0.3,0-1.8-16.6-1.9-20.7C20.7,123.8,20.6,120.8,20.6,117.3"/>
			<path class="st14" d="M13.4,84.4c1-1,0.7-2.7-0.5-3.3C11.6,80.4,9.7,79.5,8,79c-2.5-0.7-5,0.1-5.9,0.6c0-0.2,0.1-0.4,0.2-0.6
				c0,0-0.4,0.3-0.5,0.7l-0.1,0.1c0,0-0.5-0.1-0.8,0.1c0,0,0.2,0,0.3,0.1l0,0c-3.7,1.8-4.9,6.1-2.8,9c1.3,1.7,3.6,5.3,3.6,5.3
				s-0.4-1-0.5-1.8c0-0.2,0-0.5,0.1-0.7c0.2-0.4,0.2-0.9,0-1.3c-0.3-0.6-0.3-1.3,0.2-1.5c0.6-0.3,1.1,0.1,1.4,0.6
				C3.4,90,3.9,90.1,4.3,90l0,0c1.6-0.6,0.3-2.5,1.6-3.6c1.4-1.1,5-0.5,6.2-1C12.7,85,13.1,84.7,13.4,84.4"/>
			<path class="st5" d="M26.6,154.4c0.6-3.6,4.1-6,7.8-5.5c1,0.2,1.8,0.5,2.6,1l1.5,0.9l-0.2,0.2c1.4,1.4,2.1,3.4,1.7,5.5
				c-0.6,3.6-4.1,6-7.8,5.5c-0.2,0-0.5-0.1-0.7-0.1l-0.1,0.2l-1.8-1l0,0C27.5,159.7,26.2,157.1,26.6,154.4"/>
			<path class="st6" d="M41.6,157.4c0.6-3.6-2-7-5.7-7.6s-7.2,1.9-7.8,5.5c-0.6,3.6,2,7,5.7,7.6C37.6,163.4,41.1,161,41.6,157.4"/>
			<path class="st7" d="M32.6,155.7c0.2-1.2,1.3-2,2.5-1.8c0.3,0,0.6,0.2,0.8,0.3l0.5,0.3v0.1c0.4,0.5,0.7,1.1,0.6,1.8
				c-0.2,1.2-1.3,2-2.5,1.8c-0.1,0-0.2,0-0.2,0v0.1l-0.6-0.3l0,0C32.9,157.4,32.5,156.6,32.6,155.7"/>
			<path class="st5" d="M37.5,156.7c0.2-1.2-0.7-2.3-1.9-2.5c-1.2-0.2-2.3,0.6-2.5,1.8s0.7,2.3,1.9,2.5
				C36.2,158.6,37.3,157.8,37.5,156.7"/>
			<path class="st8" d="M-17.6,134.5c0,0,10.2,3.9,24.2,2.2v-2.9c0,0-15.1-3-18-5.6C-11.5,128.2-16.8,130.4-17.6,134.5"/>
			<path class="st5" d="M17.7,129.8c-0.9-3.2-4.3-5.1-7.7-4.2c-0.9,0.2-1.6,0.6-2.3,1.1l-1.3,1l0.2,0.2c-1.1,1.4-1.6,3.3-1.1,5.2
				c0.9,3.2,4.3,5.1,7.7,4.2c0.2-0.1,0.4-0.1,0.6-0.2l0.2,0.2l1.5-1.1l0,0C17.4,134.7,18.4,132.2,17.7,129.8"/>
			<path class="st6" d="M4.3,134c-0.9-3.2,1.2-6.6,4.5-7.5c3.4-0.9,6.8,1,7.7,4.2c0.9,3.2-1.2,6.6-4.5,7.5
				C8.6,139.1,5.2,137.2,4.3,134"/>
			<path class="st7" d="M11.6,132.3c-0.1-0.7-0.9-1.4-1.9-1.1c-0.4,0.1-10.5,6.5-10.5,6.5l2.2,2.7l9.8-7
				C11.1,133.4,11.6,133,11.6,132.3"/>
			<path class="st8" d="M9.3,137.2c0.1-0.2,3-2.4,1.7-5c-0.6-1.2-1.8-1.1-2.4-0.6c-0.5,0.4-0.3,1.6-0.1,2.1
				C8.8,134.5,9.3,137.2,9.3,137.2"/>
			<path class="st5" d="M10,135.6c-0.9-3.5-4.7-5.6-8.3-4.6c-0.9,0.3-1.8,0.7-2.5,1.2l-1.4,1l0.2,0.2c-1.2,1.6-1.7,3.6-1.2,5.7
				c0.9,3.5,4.7,5.6,8.3,4.6c0.2-0.1,0.5-0.1,0.7-0.2l0.2,0.2l1.6-1.2l0,0C9.6,140.9,10.7,138.2,10,135.6"/>
			<path class="st6" d="M-4.6,140.2c-0.9-3.5,1.3-7.2,4.9-8.2c3.7-1,7.4,1.1,8.3,4.6s-1.3,7.2-4.9,8.2C0,145.7-3.7,143.7-4.6,140.2"
				/>
			<path class="st7" d="M4.2,137.5c-0.3-1.1-1.5-1.8-2.7-1.5c-0.3,0.1-0.6,0.2-0.8,0.4l-0.5,0.3l0.1,0.1c-0.4,0.5-0.6,1.2-0.4,1.8
				c0.3,1.1,1.5,1.8,2.7,1.5c0.1,0,0.1,0,0.2-0.1l0.1,0.1l0.5-0.4l0,0C4.1,139.3,4.4,138.4,4.2,137.5"/>
			<path class="st5" d="M-0.6,139c-0.3-1.1,0.4-2.3,1.6-2.6s2.4,0.3,2.7,1.5c0.3,1.1-0.4,2.3-1.6,2.6S-0.3,140.1-0.6,139"/>
			<path class="st12" d="M74.5,105.7c0,0-7.4,0.4-8.2,3.5c-1.3,4.9-2.5,16.2-2.5,16.2l-7.5-9.3l-2.7,1.3c0,0,6.4,17.1,11.7,16.3
				C70.8,132.9,74.5,105.7,74.5,105.7"/>
			<path class="st14" d="M82.1,82.8c0,0,1-3.9,6.6-2.7c0,0-2.7-0.3-3.5,0.7c0,0,2.2-1,3.5-0.2s1.6,3.6,1.4,4.4
				c-0.2,0.8-1.7,3.4-2.7,3.4s-2.2-0.9-2.2-0.9L82.1,82.8z"/>
			<path class="st14" d="M71.9,86.8c0,0,7.2-8.6,11-3.1c0,0,2.8,1.2,3.9,6c1,4.9-2.2,8.7-3.9,7.7c-1.1-0.6-1.9,1.3-1.9,1.3
				L71.9,86.8z"/>
			<path class="st8" d="M74.2,105.7c0,0,2.6,1.4,4.6,0.8c1.9-0.5,4.3-1.1,4.3-1.2c-0.8-0.2-2.2-3.1-2.2-7.8l-0.4,0.1l-6.1,1.2
				c0,0,0.1,1.9,0.1,3.7C74.6,104.1,74.5,105.5,74.2,105.7"/>
			<path class="st12" d="M74.5,98.9c0,0,0.1,1.9,0.1,3.7c3.4-0.1,5.2-3.2,5.9-4.9L74.5,98.9z"/>
			<path class="st14" d="M81.2,97c0,0,1.8-2.8,2.2-5.2c0.3-1.7-0.6-8.1-7-7.2c0,0-1.9,0.2-3.6,1.4c-1.4,0.9-3.4,3-1.2,8.5l0.6,1.9
				L81.2,97z"/>
			<path class="st8" d="M73.3,100.6c0,0,8,0.1,8-4.9s1-8.4-4.1-8.7c-5.1-0.3-6.1,1.6-6.5,3.3C70.3,92,71.2,100.4,73.3,100.6"/>
			<path class="st14" d="M73.6,86.9c0,0,2.2,5.9,5.6,6.7c3.4,0.9,4.8,0,4.8,0s-2.6-2.1-3.1-5.7C80.9,88,75.3,84.1,73.6,86.9"/>
			<path class="st14" d="M74.2,87.4c0,0-1.6,1.3-2,2.6c-0.4,1.3-0.6,3.9-1.3,3.8c0,0-1.7-4,0.2-6.3C73,85.2,74.2,87.4,74.2,87.4"/>
			<path class="st8" d="M68,141.8c4.1-13.1-0.4-15.9,0-22.4s5.5-13.6,5.5-13.6s6.1-0.6,9.3-0.4c2.9,0.2,7.8,9.1,6.5,17.3
				c-0.2,1-0.4,2-0.8,3c-1.5,4.2-2.3,5.9-2.2,7.4c0,2,1.4,3.8,4.2,10.1C92.1,146.7,63.8,155.1,68,141.8"/>
			<path class="st8" d="M78.5,171.2c-1.1,6.4-2,11.3-2,11.3c2.1,8.7-1.1,19.9-3.7,27c-0.6,1.6-1.2,3-1.7,4.1l0,0l0,0l0,0l0,0v0.1
				l0,0c-0.7,1.6-1.2,2.5-1.2,2.5l-3.9,0.2c0,0,0.3-1.7,0.6-4.5l0,0c0.1-0.9,0.2-1.9,0.3-3.1c0.6-6.4,1-16.1-0.4-25.8
				c-3.4-23.8,1.1-39.7,1.1-39.7l14.3,4.6l0.7,0.2C81.4,154.9,79.8,164,78.5,171.2"/>
			<path class="st8" d="M82.6,105.2c0,0,6.9,0.7,7.7,2.5c2.6,5.7,5.2,25,5.9,26.7s2.9,11,4.8,15.6l-2.4,0.7c0,0-8-13.2-8.7-16.6
				s-4.7-17.4-4.7-17.4L82.6,105.2z"/>
			<path class="st13" d="M88.1,121l0.1,6c0,0-5.2-1.5-10.8-2c-1.4-0.1-2.7-0.2-4.1-0.1c-1.7,0.1-3.2,0.3-4.6,0.7
				c0,0-0.9-3.9-1.8-8.4c0-0.2-0.1-0.3-0.1-0.5c-0.5-4.4,3.4-7.9,1.7-9.7c0,0,1.4-0.8,5-1.2c0,0-2.7,4.8-2.5,6s10.7,0.1,11.5-0.5
				c0.7-0.7,1.9-5.7,1.9-5.7s3.7,0.4,5.5,1.7c0,0-1.2,1.5-2,3.4c-0.2,0.5-0.4,1.1-0.5,1.7c-0.3,1.5-1,4.4,0.7,6.6L88.1,121z"/>
			<path class="st12" d="M81.3,155.7c-1.3,6.7-1.5,8.3-2.7,15.5c-7.8-13.7-6.7-17.3-6.7-17.3L81.3,155.7z"/>
			<path class="st8" d="M105.9,211.7c0,0.3,0,0.5,0,0.7c-0.1,2.3-0.3,3.7-0.3,3.7l-3.8-1.3c0,0-0.2-0.5-0.5-1.5
				c-0.1-0.4-0.3-0.8-0.4-1.3l0,0c-0.3-0.9-0.7-2-1.1-3.2c-2.6-7.3-6.9-19-9.4-21.7c-7.2-7.7-17.9-41.4-17.9-41.4l14.4-4.7
				c2.1,2.1,3.9,5.9,5.3,10.5c3.5,11.5,4.9,27.4,5.1,29.7l0,0c0,0.2,0.1,0.3,0.2,0.5c6.7,7.5,8.3,18.4,8.5,25.9
				C105.9,209.2,105.9,210.5,105.9,211.7"/>
			<path class="st15" d="M78,156.9l-2.5-0.3c-1.2-0.4-2.4-0.7-3.5-0.9c-3.5-0.6-6.2-0.2-6.2-0.2c1.1-11.6,2.7-15.3,2.7-15.3l5.2,9.1
				L78,156.9z"/>
			<path class="st9" d="M78,156.9l-2.5-0.3c-1.2-0.4-2.4-0.7-3.5-0.9c-0.2-2.2,0.7-4.6,1.7-6.4L78,156.9z"/>
			<path class="st15" d="M68.4,140.2c0,0,3.5,2.6,7,2.4c3.5-0.2,13.7-2.6,13.7-2.6s1.9,2.7,3.2,8.2c1.4,5.6,1.4,9.8,1.4,9.8
				s-12-1.6-16.8,1L68.4,140.2z"/>
			<path class="st14" d="M73.9,87.6c0,0,1.6,6.2,5.8,8.1c0,0-4.3-3.8-4.6-7.8C74.7,83.8,73.9,87.6,73.9,87.6"/>
			<path class="st5" d="M109.5,151.5c-0.6-2.2-3-3.5-5.3-2.9c-0.6,0.2-1.1,0.4-1.6,0.8l-0.9,0.7l0.1,0.1c-0.8,1-1.1,2.3-0.7,3.6
				c0.6,2.2,3,3.5,5.3,2.9c0.1,0,0.3-0.1,0.4-0.1l0.1,0.1l1-0.8l0,0C109.3,154.8,110,153.1,109.5,151.5"/>
			<path class="st6" d="M100.3,154.3c-0.6-2.2,0.8-4.5,3.1-5.2c2.3-0.6,4.7,0.7,5.3,2.9s-0.8,4.5-3.1,5.2
				C103.2,157.9,100.9,156.6,100.3,154.3"/>
			<path class="st7" d="M105.3,153.2c0-0.5-0.6-1-1.3-0.7c-0.3,0.1-7.2,4.5-7.2,4.5l1.5,1.8l6.8-4.8
				C105,153.9,105.3,153.7,105.3,153.2"/>
			<path class="st5" d="M48.6,110.5c0.6-2.2,3-3.5,5.3-2.9c0.6,0.2,1.1,0.4,1.6,0.8l0.9,0.7l-0.1,0.1c0.8,1,1.1,2.3,0.7,3.6
				c-0.6,2.2-3,3.5-5.3,2.9c-0.1,0-0.3-0.1-0.4-0.1l-0.1,0.1l-1-0.8l0,0C48.8,113.9,48.1,112.2,48.6,110.5"/>
			<path class="st6" d="M57.8,113.4c0.6-2.2-0.8-4.5-3.1-5.2c-2.3-0.6-4.7,0.7-5.3,2.9c-0.6,2.2,0.8,4.5,3.1,5.2
				C54.9,116.9,57.2,115.6,57.8,113.4"/>
			<path class="st7" d="M52.8,112.3c0-0.5,0.6-1,1.3-0.7c0.3,0.1,7.2,4.5,7.2,4.5l-1.5,1.8l-6.8-4.8C53.1,113,52.8,112.8,52.8,112.3
				"/>
			<path class="st12" d="M53.7,117.4c0,0-2.5-3.1-0.7-4.7s4.1-1.1,4.2-0.2s-0.8,3.6-0.8,3.6L53.7,117.4z"/>
			<path class="st8" d="M100.9,149.5c0,0,0.7,1.7,1.5,2.2s1.8,1.6,1.6,2.6c-0.2,0.9-0.4,2.4-1.4,2.4s-3.2-4.3-3.5-5.1s-0.5-1-0.5-1
				L100.9,149.5z"/>
			<path class="st5" d="M104.2,155.5c-0.6-2.4-3.2-3.8-5.7-3.2c-0.6,0.2-1.2,0.5-1.7,0.8l-1,0.7l0.1,0.2c-0.8,1.1-1.2,2.5-0.8,3.9
				c0.6,2.4,3.2,3.8,5.7,3.2c0.2,0,0.3-0.1,0.5-0.1l0.1,0.1l1.1-0.8l0,0C103.9,159.1,104.7,157.3,104.2,155.5"/>
			<path class="st6" d="M94.1,158.6c-0.6-2.4,0.9-4.9,3.4-5.6c2.5-0.7,5.1,0.7,5.7,3.2c0.6,2.4-0.9,4.9-3.4,5.6
				C97.3,162.4,94.8,161,94.1,158.6"/>
			<path class="st7" d="M100.2,156.8c-0.2-0.8-1-1.2-1.9-1c-0.2,0.1-0.4,0.2-0.6,0.3l-0.3,0.2v0.1c-0.3,0.4-0.4,0.8-0.3,1.3
				c0.2,0.8,1,1.2,1.9,1c0.1,0,0.1,0,0.1,0l0,0l0.4-0.3l0,0C100.1,158,100.3,157.4,100.2,156.8"/>
			<path class="st5" d="M96.9,157.8c-0.2-0.8,0.3-1.6,1.1-1.8s1.7,0.2,1.9,1s-0.3,1.6-1.1,1.8C98,159,97.1,158.6,96.9,157.8"/>
			<path class="st5" d="M53.9,114.5c0.6-2.4,3.2-3.8,5.7-3.2c0.6,0.2,1.2,0.5,1.7,0.8l1,0.7l-0.1,0.2c0.8,1.1,1.2,2.5,0.8,3.9
				c-0.6,2.4-3.2,3.8-5.7,3.2c-0.2,0-0.3-0.1-0.5-0.1l-0.1,0.1l-1.1-0.8l0,0C54.1,118.2,53.4,116.3,53.9,114.5"/>
			<path class="st6" d="M64,117.7c0.6-2.4-0.9-4.9-3.4-5.6s-5.1,0.7-5.7,3.2c-0.6,2.4,0.9,4.9,3.4,5.6
				C60.7,121.5,63.3,120.1,64,117.7"/>
			<path class="st7" d="M57.9,115.9c0.2-0.8,1-1.2,1.9-1c0.2,0.1,0.4,0.2,0.6,0.3l0.3,0.2v0.1c0.3,0.4,0.4,0.8,0.3,1.3
				c-0.2,0.8-1,1.2-1.9,1c-0.1,0-0.1,0-0.1,0l0,0l-0.4-0.3l0,0C58,117.1,57.8,116.4,57.9,115.9"/>
			<path class="st5" d="M61.2,116.9c0.2-0.8-0.3-1.6-1.1-1.8c-0.8-0.2-1.7,0.2-1.9,1c-0.2,0.8,0.3,1.6,1.1,1.8
				C60.1,118.1,61,117.7,61.2,116.9"/>
			<path class="st9" d="M68.1,141.1c0,0,3.1,2.3,6.5,2.4c3.3,0.1,15-2.8,15-2.8l-0.5-0.9c0,0-12.8,3.4-15.8,2.4s-4.8-2.2-4.8-2.2
				L68.1,141.1z"/>
			<path class="st8" d="M70.9,219.9c-1.4,0-4.7-0.4-6.1,0h-5.4c-1.3-0.8-1.8-1.7,1.6-2.1c4.8-0.6,5.6-5.4,5.7-6l0,0l0,0l4.5,1.7l0,0
				l0,0l0,0l0,0v0.1l0,0c-0.2,0.4-0.5,1.6,0,3C71.5,217.9,72.3,219.9,70.9,219.9"/>
			<path class="st8" d="M106,219.9c-1.4,0-4.7-0.4-6.1,0h-5.4c-1.2-0.8-1.7-1.5,1.6-2.1c4.8-0.9,5.4-3.1,5.2-4.5
				c-0.1-0.7-0.4-1.3-0.4-1.3l0,0l5-0.3c0,0,0,0.3,0,0.7c0,1.1,0,3,0.4,4.3C106.7,217.9,107.4,219.9,106,219.9"/>
			<path class="st16" d="M71.1,213.7c-0.2,0.4-0.5,1.6,0,3c0.4,1.2,1.2,3.2-0.3,3.2c-1.4,0-4.7-0.4-6.1,0h-5.4
				c-1.2-0.8-1.8-1.7,1.6-2.1c4.8-0.6,5.6-5.4,5.7-6l0,0c0.1-0.9,0.2-1.9,0.3-3.1c0,0,2.2,1.6,5.8,0.6l0,0c-0.6,1.6-1.2,3-1.7,4.1
				l0,0l0,0l0,0l0,0C71.2,213.6,71.2,213.6,71.1,213.7L71.1,213.7z"/>
			<path class="st16" d="M106,219.9c-1.4,0-4.7-0.4-6.1,0h-5.4c-1.2-0.8-1.7-1.5,1.6-2.1c4.8-0.9,5.4-3.1,5.2-4.5
				c-0.1-0.4-0.3-0.8-0.4-1.3l0,0c-0.3-0.9-0.7-2-1.1-3.2c1.4,0,3.9-0.1,6.2-1.2c0,1.5,0,2.9,0,4.1c0,0.3,0,0.5,0,0.7
				c0,1.1,0,3,0.4,4.3C106.7,217.9,107.4,219.9,106,219.9"/>
			<path class="st13" d="M72.4,97.7c0,0,0.2,0.5,0.3,0.7s1.4,0.2,1.9,0c0.4-0.2,0.8-0.8,0.8-0.8C75.3,97.5,73,97.5,72.4,97.7"/>
		</g>
		<g id="Ebene_1_1_">
			<path class="st17" d="M65.8,172.9c-1.5,1.4-2.6,3.8-0.7,6.8c3.9,4.9,9.4,24.6,9.4,24.6c-0.3,0.7-0.2,1.8-0.7,2
				c-0.9,0.4-2.9-1.3-2.9-1.3s-17.8-22.2-19-27c-0.9-3.5,6.7-19.4,11.1-27.6c0.9-1.7,1.8-3.4,3-5l0.1-0.1c1.9-1,4.2-0.9,5.9,0.4
				c0.4,0.2,0.8,0.6,1,0.9c4.1,4,6.2,12.7,5.7,14.5c-0.3,1.2-2.2,2.5-4.9,4.9c-0.5,0.5-1.8,1.7-2.3,2.2
				C69.1,170.1,66.5,172.3,65.8,172.9z"/>
			<path class="st18" d="M73.2,166.6c-0.5,0.5-1.1,1-1.6,1.5L63,150.3c0.9-1.7,1.8-3.5,3-5l0.1-0.1l5.9,0.4l1.1,0.1l-0.1,0.8
				L73.2,166.6z"/>
			<path class="st17" d="M68.2,149.5c0,0,3.8,18.9,13.3,32.2c9.2,12.9,14,32.6,14,32.6c0.6,0.3,1.3,0.3,1.8,0c1.2-0.5,2,0.1,2.2-0.5
				c0,0-2.5-31.3-7.3-38.1c-3.8-5.4-4.4-13.8-3.9-21.5c-0.1-2.9,0-6-1-8.8L68.2,149.5z"/>
			<path class="st19" d="M87.6,146.6c0,0-13.2-0.7-18.8,5.9c-4.2-5.6-4.5-5.3-4.5-5.3c0.2-1.3-0.9-13.4-3.3-17.6
				c0,0,0.4-15.2,4.6-14.5l2.1-1.1l15.3,0.2l1.7,0.8c0,0,4.1,1.9,5.1,14.8C88.1,135,87.6,141.7,87.6,146.6z"/>
			<path class="st20" d="M99.6,219.4h-2.2c-0.8-0.1-1.3-0.3-2.1-0.4c-0.6-0.1-1.3,0-1.8,0.4l0,0l-9.5,0.1c-0.2-0.3,0-1.1,0.2-1.7
				c0.2-0.4,0.5-0.7,0.9-0.8c1.8-0.3,3.4-1.1,4.8-2.2c1-0.9,4.9-3.4,4.9-3.4l0,0c0.1,0,0.5,0.1,2.3,1.6c0.9,0.8,2.5-1.1,2.5-1.1
				c0.2,0.2,0.4,0.4,0.5,0.7c0.2,0.4,0.3,1,0.2,1.4c0,1.2,0.3,2.4,0.7,3.5c0.2,0.6,0.4,1.1,0.4,1.1S101.5,219.1,99.6,219.4z"/>
			<path class="st20" d="M100,212.5c-0.7,0.6-1.5,1-2.4,1.2c-1,0.1-2.9-2.4-2.9-2.4l0,0c0.1,0,0.5,0.1,2.3,1.6
				c0.9,0.8,2.5-1.1,2.5-1.1C99.7,212,99.9,212.2,100,212.5z"/>
			<path class="st20" d="M99.6,219.4h-2.2c-0.8-0.1-1.3-0.3-2.1-0.4c-0.6-0.1-1.3,0-1.8,0.4l0,0l-9.5,0.1c-0.2-0.3,0-1.1,0.2-1.7
				c0.3-0.2,0.4,1.1,0.5,1.3s7.7,0,8.2-0.3c1.1-0.6,2.4-0.8,3.6-0.5c1.6,0.4,3.9-0.6,4.5-0.9c0.2,0.6,0.4,1.1,0.4,1.1
				S101.5,219.1,99.6,219.4z"/>
			<path class="st20" d="M78.5,207.2l-1.7,1.4c-0.6,0.3-1.3,0.6-1.9,0.9c-0.6,0.2-1,0.8-1.1,1.5l0,0l-7.4,5.9
				c-0.4-0.1-0.7-0.9-0.9-1.5c-0.2-0.4,0-0.8,0.2-1.2c1.2-1.3,2-2.9,2.3-4.7c0.2-1.4,1.7-5.8,1.7-5.8l0,0c0.1-0.1,0.4-0.2,2.8-0.1
				c1.2,0,1.2-2.4,1.2-2.4c0.3,0,0.6,0.1,0.9,0.2c0.5,0.2,0.9,0.6,1.1,1c0.7,1,1.6,1.8,2.7,2.4l1,0.6
				C79.5,205.5,80,205.8,78.5,207.2z"/>
			<path class="st20" d="M74.9,201.8c-0.1,0.9-0.4,1.8-0.9,2.5c-0.6,0.8-3.8,0.3-3.8,0.3l0,0c0.1-0.1,0.4-0.2,2.8-0.4
				c1.2-0.1,1-2.5,1-2.5C74.3,201.7,74.6,201.7,74.9,201.8z"/>
			<path class="st20" d="M78.5,207.2l-1.7,1.4c-0.6,0.3-1.3,0.6-1.9,0.9c-0.6,0.2-1,0.8-1.1,1.5l0,0l-7.4,5.9
				c-0.4-0.1-0.7-0.9-0.9-1.5c0-0.4,0.9,0.6,1.2,0.7c0.3,0.1,6.1-4.8,6.2-5.4c0.4-1.2,1.4-2.1,2.5-2.6c1.5-0.7,2.7-3,2.9-3.5l1,0.6
				C79.5,205.5,80,205.8,78.5,207.2z"/>
		</g>
	</g>
	<path class="st0" d="M79.7,110.8c0.9,1.8,1.2,1.6,3.4,3.5c-7.3,14-12.7,14-15.3-0.2c0,0,2.4-0.2,2.8-1.4
		C70.8,112,79.7,110.8,79.7,110.8z"/>
	<path class="st0" d="M84.7,115.2c1.6-4.8,3.8-5.5,5.1-9.7c4.8-14.6,4.1-11.3,10.2-25.7c-0.8-3.9-0.2-11.7,1.6-8.1
		c0.1,3.1,1.7-0.2,3.3-2.9c0,0,1.4-1.3,1.6,0.1c0,0,1.5-1.5,1.3,0.3c0,0,1.6-0.2,0.9,1.4c-3.7,7.6,1.1-1.3,0.4,2.8
		c0,0-2.4,5.9-5,8.1c-3.8,11.5-11.8,34.1-11.9,39c0,2-1.7,6.6-2.4,9.5C85,126.8,86.1,116,84.7,115.2z"/>
	<path class="st0" d="M65.7,115.2c0,0-1-2.9-3.2-5.3c-1.2-1.2-1.3-2.8-1.9-4.4c-4.8-14.6-4.2-11.3-10.3-25.7
		c0.8-3.9,0.2-11.7-1.6-8.1c-0.1,3.1-1.7-0.2-3.3-2.9c0,0-1.4-1.3-1.6,0.1c0,0-1.5-1.5-1.3,0.3c-2-0.2-0.7,1.7,0.1,3.5
		c1.6,3.6-2-2.9-1.4,0.7c0,0,2.4,5.9,5,8.1c0,0,3.7,14.2,11.4,35.6c0.4,1.1,0.5,2.2,0.5,3.4c0,2,2.3,6.3,3,9.3
		C62.6,126.5,62.1,118.3,65.7,115.2z"/>
</g>
<g id="Ebene_4">
	<g>
		<path class="st21" d="M97,119.3l10.7,0.4L97,120.1c-0.2,0-0.5-0.2-0.5-0.4S96.7,119.3,97,119.3C96.9,119.3,96.9,119.3,97,119.3z"
			/>
	</g>
	<g>
		<path class="st21" d="M95.6,123.3l6.8,0.4l-6.8,0.4c-0.2,0-0.5-0.2-0.5-0.4S95.3,123.3,95.6,123.3
			C95.5,123.3,95.6,123.3,95.6,123.3z"/>
	</g>
	<g>
		<path class="st21" d="M92.2,146.2l12.4,0.4L92.2,147c-0.2,0-0.5-0.2-0.5-0.4S91.9,146.2,92.2,146.2L92.2,146.2z"/>
	</g>
	<g>
		<path class="st21" d="M91.9,150.1l5.8,0.5l-5.8,0.4c-0.2,0-0.5-0.2-0.5-0.4C91.4,150.3,91.6,150.1,91.9,150.1
			C91.8,150.1,91.9,150.1,91.9,150.1z"/>
	</g>
	<g>
		<path class="st21" d="M108.2,87l6.5,0.4l-6.5,0.5c-0.2,0-0.5-0.2-0.5-0.4S107.9,87.1,108.2,87L108.2,87z"/>
	</g>
	<g>
		<path class="st21" d="M109.9,82.5l17.7,0.5l-17.7,0.4c-0.2,0-0.5-0.2-0.5-0.4S109.6,82.5,109.9,82.5L109.9,82.5z"/>
	</g>
	<g>
		<path class="st21" d="M103.9,211.2l15.3,0.4l-15.3,0.4c-0.2,0-0.5-0.2-0.5-0.4C103.5,211.4,103.7,211.2,103.9,211.2L103.9,211.2z"
			/>
	</g>
	<g>
		<path class="st21" d="M104.4,215.4l6,0.4l-6,0.4c-0.2,0-0.5-0.2-0.5-0.4C103.9,215.7,104.1,215.5,104.4,215.4L104.4,215.4z"/>
	</g>
</g>
<g>
	<path class="st0" d="M147,112.1c0.2,0.4,0.2,1,0,1.4c-0.8,1.3-3,3.5-8.8,3c-2-0.1-3.3-1.4-2.1-2.9c0.5-0.5,1.2-2.3,1.1-3.6
		c-0.1-1.1-0.1-2.1,0-3.2l4.1-2.8l3.9-2.7C144.6,107.7,146.2,110.9,147,112.1z"/>
	<path class="st1" d="M145,104.5c0,0-2.8,4.5-7.8,5.4c-0.1-1.1-0.1-2.1,0-3.2l4.1-2.8L145,104.5z"/>
	<path class="st0" d="M135.4,106.6c0,0,9.6,2.2,10.9-3.6s3.4-9.6-2.6-11.2s-7.7,0.3-8.6,2.2S132.9,105.8,135.4,106.6z"/>
	<path class="st22" d="M150.5,91.5c0.2-0.1,0.5-0.2,0.8-0.1c-0.2-0.2-0.5-0.2-0.9-0.3c0-0.9-0.5-1.7-1.4-2.1c0.3,0.2,0.5,0.7,0.5,1
		c-1.2-1.3-3.8-2.5-11.2-2.4c-9.8,0.1-7,6.5-5.8,7.4s4.5-1,6.8-0.7c2.4,0.3,2.6,3.8,3.3,4.2c0.7,0.4,0.5-0.3,1.6-0.8
		s1.1,1.4,0.7,2.5c-0.4,1.1,1,2.7,1,2.7l1.6-1.5c1.6-1.5,3.5-8.3,2.8-9.8L150.5,91.5z"/>
	<path class="st2" d="M134.6,102.9c0.2,0.5,0.7,0.9,1.2,1s1.8,0.2,2.4-1.1C137.4,102.6,135.5,102.8,134.6,102.9z"/>
	<g>
		<path class="st3" d="M136.9,98.3c0.1-0.2,0.3-0.3,0.5-0.4s0.4-0.1,0.7-0.1c0.2,0,0.4,0,0.8,0.1c0.2,0.1,0.4,0.3,0.5,0.5
			c-0.1-0.2-0.3-0.2-0.5-0.3c-0.2,0-0.4-0.1-0.7,0c-0.2,0-0.4,0-0.7,0C137.2,98.2,137,98.2,136.9,98.3z"/>
	</g>
	<g>
		<path class="st3" d="M135.2,98.3c-0.3,0-0.5-0.1-0.9-0.1s-0.5,0-0.8,0.2c0-0.1,0.1-0.3,0.3-0.4c0.1-0.1,0.3-0.1,0.4-0.1
			c0.2,0,0.3,0,0.4,0.1C135,98.1,135.1,98.2,135.2,98.3z"/>
	</g>
	<g>
		<g class="st4">
			<path class="st5" d="M84.9,149.4c0.5-3.3,3.7-5.6,7.2-5c0.9,0.1,1.7,0.4,2.4,0.9l1.4,0.8l-0.1,0.2c1.3,1.3,1.9,3.2,1.6,5.1
				c-0.5,3.3-3.7,5.6-7.2,5c-0.2,0-0.4-0.1-0.6-0.1l-0.1,0.2l-1.6-0.9l0,0C85.7,154.3,84.5,151.9,84.9,149.4"/>
			<path class="st6" d="M98.7,152.2c0.5-3.3-1.8-6.4-5.3-7c-3.4-0.5-6.7,1.7-7.2,5s1.8,6.4,5.3,7C95,157.7,98.2,155.5,98.7,152.2"/>
			<path class="st7" d="M91.3,151.3c0-0.7,0.8-1.5,1.8-1.3c0.4,0.1,11.1,5.3,11.1,5.3l-1.9,2.9l-10.5-5.9
				C91.8,152.3,91.3,152,91.3,151.3"/>
			<path class="st8" d="M97.9,154.9c-0.2,0-3.5,1.6-5.3-0.8c-0.8-1.1-0.2-2.1,0.6-2.4c0.6-0.2,1.5,0.5,1.9,0.8
				C95.8,153.2,97.9,154.9,97.9,154.9"/>
			<path class="st9" d="M88,219.9c-1.1-0.7-0.5-5.9-0.5-5.9s5.3-4.3,6.1-1s5.1,4.7,7.5,5.1c1.7,0.3,2.2,1.2,2.4,1.8L88,219.9
				L88,219.9z"/>
			<path class="st10" d="M94,215.7c-1.7,0.6-5.1,2.3-7.2,1.5c-1.4-0.5-9-22.7-9.5-32.4c0-0.5-0.1-1.1-0.2-1.8
				c-0.1-0.3-0.1-0.7-0.2-1.1c-0.7-3.9-2.3-10.1-3.8-16.4c-2.1-8.5-4.1-17-4.1-20.3c0.1-6.3,18.8-1.3,18.8-1.3s1.1,4.5,1.5,11.2
				c0,0.5,0,1,0.1,1.5c0.5,14.9,1.9,40,5.7,57.4C95.2,214.7,94.8,215.5,94,215.7"/>
			<path class="st11" d="M70.9,143.7l2.2,21.8c1.5,6.3,3.1,12.5,3.8,16.4c0.1,0.4,0.1,0.8,0.2,1.1l12.2-27.9c-0.2-3.6-0.6-6.6-1-8.6
				c-0.1-0.6-0.2-1.1-0.3-1.5c-0.1-0.7-0.2-1.1-0.2-1.1L70.9,143.7z"/>
			<path class="st8" d="M79,102.2c0,0,6.3,0.2,8.6,3c2.3,2.8,5.1,22.6,6.7,26.7c1.6,4.1,3.4,18.3,3.4,18.9l-2.5,0.5
				c0,0-7-14.7-7.6-18c-0.6-3.2-8.2-19.3-8.1-20.4C79.5,111.7,79,102.2,79,102.2"/>
			<path class="st8" d="M63.2,109.7c0.3-2.1-1.9-3.6-3.7-2.7c-2.4,1.1-5,2.7-5.8,4.4c-1.6,3.3-5,17.8-4.7,23.2c0,0,2.9,0.8,5-0.1
				c2.1-0.9,9.1-23,9.1-23L63.2,109.7z"/>
			<path class="st9" d="M71.4,219.9c0,0-0.3-2.6-1.1-4.1c-0.8-1.5-5.6-0.6-5.6-0.6s-1,0.8-1.2,4.7L71.4,219.9z"/>
			<path class="st10" d="M81.1,145.3l-9.9,71.6c0,0-4.3,1-7.7,0.2c0,0-2.9-38.1-2.7-47.3c0.2-9.2,0.4-22.2,1.5-25.1
				C64,140.1,81.1,145.3,81.1,145.3"/>
			<path class="st8" d="M77.5,98.9v0.9c0,0,0.3,2.9-3.3,3.3c-3.6,0.4-6.3-1.1-6.2-3.4c0.3-1.7,0.7-2.9,0.7-4.4c0-0.5,0-1.1-0.1-1.7
				l6.9-0.1l2,0.3V98.9z"/>
			<path class="st12" d="M77.5,93.9v3.6c-2.6,1-8-0.7-8.4-2.8l6.4-1.2L77.5,93.9z"/>
			<path class="st8" d="M68,92.6c0.8,4.3,6.4,4.2,8.8,3.9c0.7-0.1,1.1-0.2,1.1-0.2c0.8-0.2,1.2-1.4,1.4-3c0.4-3.1-0.1-7.7-0.6-8.9
				c-0.8-1.8-2.3-3.7-7.9-2.3C65.1,83.6,67,87.1,68,92.6"/>
			<path class="st13" d="M75.1,93.6c0,0,0.5,0.8,2,0.6c1-0.1,1.1-1,1.1-1S76.8,92.9,75.1,93.6"/>
			<path class="st13" d="M87.2,117.3c4-0.3,5.9-2.2,5.9-2.2s-3.6-9.9-5.6-11.6s-10.1-3.2-10.1-3.2c-0.1,0-0.1-0.1-0.1-0.1l0,0
				c0,0.9-1.4,2.6-3.6,2.7c-2.6,0.2-5.8-1.7-5.8-3.2c0,0-6.2,0.4-9.4,2.2c-3.3,1.8-7.2,10.6-7.2,10.6s1.3,4.3,9.5,5.7l-0.6,28.9
				c15.1,5,29-0.2,29-0.2c0.3,0-1.8-16.6-1.9-20.7C87.3,123.8,87.2,120.8,87.2,117.3"/>
			<path class="st14" d="M80,84.4c1-1,0.7-2.7-0.5-3.3c-1.3-0.7-3.2-1.6-4.9-2.1c-2.5-0.7-5,0.1-5.9,0.6c0-0.2,0.1-0.4,0.2-0.6
				c0,0-0.4,0.3-0.5,0.7l-0.1,0.1c0,0-0.5-0.1-0.8,0.1c0,0,0.2,0,0.3,0.1l0,0c-3.7,1.8-4.9,6.1-2.8,9c1.3,1.7,3.6,5.3,3.6,5.3
				s-0.4-1-0.5-1.8c0-0.2,0-0.5,0.1-0.7c0.2-0.4,0.2-0.9,0-1.3c-0.3-0.6-0.3-1.3,0.2-1.5c0.6-0.3,1.1,0.1,1.4,0.6
				c0.2,0.4,0.7,0.5,1.1,0.4l0,0c1.6-0.6,0.3-2.5,1.6-3.6c1.4-1.1,5-0.5,6.2-1C79.3,85,79.7,84.7,80,84.4"/>
			<path class="st5" d="M93.2,154.4c0.6-3.6,4.1-6,7.8-5.5c1,0.2,1.8,0.5,2.6,1l1.5,0.9l-0.2,0.2c1.4,1.4,2.1,3.4,1.7,5.5
				c-0.6,3.6-4.1,6-7.8,5.5c-0.2,0-0.5-0.1-0.7-0.1l-0.1,0.2l-1.8-1l0,0C94.1,159.7,92.8,157.1,93.2,154.4"/>
			<path class="st6" d="M108.2,157.4c0.6-3.6-2-7-5.7-7.6s-7.2,1.9-7.8,5.5c-0.6,3.6,2,7,5.7,7.6C104.2,163.4,107.7,161,108.2,157.4
				"/>
			<path class="st7" d="M99.2,155.7c0.2-1.2,1.3-2,2.5-1.8c0.3,0,0.6,0.2,0.8,0.3l0.5,0.3v0.1c0.4,0.5,0.7,1.1,0.6,1.8
				c-0.2,1.2-1.3,2-2.5,1.8c-0.1,0-0.2,0-0.2,0v0.1l-0.6-0.3l0,0C99.5,157.4,99.1,156.6,99.2,155.7"/>
			<path class="st5" d="M104.1,156.7c0.2-1.2-0.7-2.3-1.9-2.5c-1.2-0.2-2.3,0.6-2.5,1.8s0.7,2.3,1.9,2.5
				C102.8,158.6,103.9,157.8,104.1,156.7"/>
			<path class="st8" d="M49,134.5c0,0,10.2,3.9,24.2,2.2v-2.9c0,0-15.1-3-18-5.6C55.1,128.2,49.8,130.4,49,134.5"/>
			<path class="st5" d="M84.3,129.8c-0.9-3.2-4.3-5.1-7.7-4.2c-0.9,0.2-1.6,0.6-2.3,1.1l-1.3,1l0.2,0.2c-1.1,1.4-1.6,3.3-1.1,5.2
				c0.9,3.2,4.3,5.1,7.7,4.2c0.2-0.1,0.4-0.1,0.6-0.2l0.2,0.2l1.5-1.1l0,0C84,134.7,85,132.2,84.3,129.8"/>
			<path class="st6" d="M70.9,134c-0.9-3.2,1.2-6.6,4.5-7.5c3.4-0.9,6.8,1,7.7,4.2c0.9,3.2-1.2,6.6-4.5,7.5
				C75.2,139.1,71.8,137.2,70.9,134"/>
			<path class="st7" d="M78.2,132.3c-0.1-0.7-0.9-1.4-1.9-1.1c-0.4,0.1-10.5,6.5-10.5,6.5l2.2,2.7l9.8-7
				C77.7,133.4,78.2,133,78.2,132.3"/>
			<path class="st8" d="M75.9,137.2c0.1-0.2,3-2.4,1.7-5c-0.6-1.2-1.8-1.1-2.4-0.6c-0.5,0.4-0.3,1.6-0.1,2.1
				C75.4,134.5,75.9,137.2,75.9,137.2"/>
			<path class="st5" d="M76.6,135.6c-0.9-3.5-4.7-5.6-8.3-4.6c-0.9,0.3-1.8,0.7-2.5,1.2l-1.4,1l0.2,0.2c-1.2,1.6-1.7,3.6-1.2,5.7
				c0.9,3.5,4.7,5.6,8.3,4.6c0.2-0.1,0.5-0.1,0.7-0.2l0.2,0.2l1.6-1.2l0,0C76.2,140.9,77.3,138.2,76.6,135.6"/>
			<path class="st6" d="M62,140.2c-0.9-3.5,1.3-7.2,4.9-8.2c3.7-1,7.4,1.1,8.3,4.6s-1.3,7.2-4.9,8.2C66.6,145.7,62.9,143.7,62,140.2
				"/>
			<path class="st7" d="M70.8,137.5c-0.3-1.1-1.5-1.8-2.7-1.5c-0.3,0.1-0.6,0.2-0.8,0.4l-0.5,0.3l0.1,0.1c-0.4,0.5-0.6,1.2-0.4,1.8
				c0.3,1.1,1.5,1.8,2.7,1.5c0.1,0,0.1,0,0.2-0.1l0.1,0.1l0.5-0.4l0,0C70.7,139.3,71,138.4,70.8,137.5"/>
			<path class="st5" d="M66,139c-0.3-1.1,0.4-2.3,1.6-2.6s2.4,0.3,2.7,1.5c0.3,1.1-0.4,2.3-1.6,2.6S66.3,140.1,66,139"/>
			<path class="st12" d="M141.1,105.7c0,0-7.4,0.4-8.2,3.5c-1.3,4.9-2.5,16.2-2.5,16.2l-7.5-9.3l-2.7,1.3c0,0,6.4,17.1,11.7,16.3
				C137.4,132.9,141.1,105.7,141.1,105.7"/>
			<path class="st14" d="M148.7,82.8c0,0,1-3.9,6.6-2.7c0,0-2.7-0.3-3.5,0.7c0,0,2.2-1,3.5-0.2s1.6,3.6,1.4,4.4
				c-0.2,0.8-1.7,3.4-2.7,3.4s-2.2-0.9-2.2-0.9L148.7,82.8z"/>
			<path class="st14" d="M138.5,86.8c0,0,7.2-8.6,11-3.1c0,0,2.8,1.2,3.9,6c1,4.9-2.2,8.7-3.9,7.7c-1.1-0.6-1.9,1.3-1.9,1.3
				L138.5,86.8z"/>
			<path class="st8" d="M140.8,105.7c0,0,2.6,1.4,4.6,0.8c1.9-0.5,4.3-1.1,4.3-1.2c-0.8-0.2-2.2-3.1-2.2-7.8l-0.4,0.1l-6.1,1.2
				c0,0,0.1,1.9,0.1,3.7C141.2,104.1,141.1,105.5,140.8,105.7"/>
			<path class="st12" d="M141.1,98.9c0,0,0.1,1.9,0.1,3.7c3.4-0.1,5.2-3.2,5.9-4.9L141.1,98.9z"/>
			<path class="st14" d="M147.8,97c0,0,1.8-2.8,2.2-5.2c0.3-1.7-0.6-8.1-7-7.2c0,0-1.9,0.2-3.6,1.4c-1.4,0.9-3.4,3-1.2,8.5l0.6,1.9
				L147.8,97z"/>
			<path class="st8" d="M139.9,100.6c0,0,8,0.1,8-4.9s1-8.4-4.1-8.7c-5.1-0.3-6.1,1.6-6.5,3.3C136.9,92,137.8,100.4,139.9,100.6"/>
			<path class="st14" d="M140.2,86.9c0,0,2.2,5.9,5.6,6.7c3.4,0.9,4.8,0,4.8,0s-2.6-2.1-3.1-5.7C147.5,88,141.9,84.1,140.2,86.9"/>
			<path class="st14" d="M140.8,87.4c0,0-1.6,1.3-2,2.6c-0.4,1.3-0.6,3.9-1.3,3.8c0,0-1.7-4,0.2-6.3
				C139.6,85.2,140.8,87.4,140.8,87.4"/>
			<path class="st8" d="M134.6,141.8c4.1-13.1-0.4-15.9,0-22.4s5.5-13.6,5.5-13.6s6.1-0.6,9.3-0.4c2.9,0.2,7.8,9.1,6.5,17.3
				c-0.2,1-0.4,2-0.8,3c-1.5,4.2-2.3,5.9-2.2,7.4c0,2,1.4,3.8,4.2,10.1C158.7,146.7,130.4,155.1,134.6,141.8"/>
			<path class="st8" d="M145.1,171.2c-1.1,6.4-2,11.3-2,11.3c2.1,8.7-1.1,19.9-3.7,27c-0.6,1.6-1.2,3-1.7,4.1l0,0l0,0l0,0l0,0v0.1
				l0,0c-0.7,1.6-1.2,2.5-1.2,2.5l-3.9,0.2c0,0,0.3-1.7,0.6-4.5l0,0c0.1-0.9,0.2-1.9,0.3-3.1c0.6-6.4,1-16.1-0.4-25.8
				c-3.4-23.8,1.1-39.7,1.1-39.7l14.3,4.6l0.7,0.2C148,154.9,146.4,164,145.1,171.2"/>
			<path class="st8" d="M149.2,105.2c0,0,6.9,0.7,7.7,2.5c2.6,5.7,5.2,25,5.9,26.7s2.9,11,4.8,15.6l-2.4,0.7c0,0-8-13.2-8.7-16.6
				s-4.7-17.4-4.7-17.4L149.2,105.2z"/>
			<path class="st13" d="M154.7,121l0.1,6c0,0-5.2-1.5-10.8-2c-1.4-0.1-2.7-0.2-4.1-0.1c-1.7,0.1-3.2,0.3-4.6,0.7
				c0,0-0.9-3.9-1.8-8.4c0-0.2-0.1-0.3-0.1-0.5c-0.5-4.4,3.4-7.9,1.7-9.7c0,0,1.4-0.8,5-1.2c0,0-2.7,4.8-2.5,6s10.7,0.1,11.5-0.5
				c0.7-0.7,1.9-5.7,1.9-5.7s3.7,0.4,5.5,1.7c0,0-1.2,1.5-2,3.4c-0.2,0.5-0.4,1.1-0.5,1.7c-0.3,1.5-1,4.4,0.7,6.6L154.7,121z"/>
			<path class="st12" d="M147.9,155.7c-1.3,6.7-1.5,8.3-2.7,15.5c-7.8-13.7-6.7-17.3-6.7-17.3L147.9,155.7z"/>
			<path class="st8" d="M172.5,211.7c0,0.3,0,0.5,0,0.7c-0.1,2.3-0.3,3.7-0.3,3.7l-3.8-1.3c0,0-0.2-0.5-0.5-1.5
				c-0.1-0.4-0.3-0.8-0.4-1.3l0,0c-0.3-0.9-0.7-2-1.1-3.2c-2.6-7.3-6.9-19-9.4-21.7c-7.2-7.7-17.9-41.4-17.9-41.4l14.4-4.7
				c2.1,2.1,3.9,5.9,5.3,10.5c3.5,11.5,4.9,27.4,5.1,29.7l0,0c0,0.2,0.1,0.3,0.2,0.5c6.7,7.5,8.3,18.4,8.5,25.9
				C172.5,209.2,172.5,210.5,172.5,211.7"/>
			<path class="st15" d="M144.6,156.9l-2.5-0.3c-1.2-0.4-2.4-0.7-3.5-0.9c-3.5-0.6-6.2-0.2-6.2-0.2c1.1-11.6,2.7-15.3,2.7-15.3
				l5.2,9.1L144.6,156.9z"/>
			<path class="st9" d="M144.6,156.9l-2.5-0.3c-1.2-0.4-2.4-0.7-3.5-0.9c-0.2-2.2,0.7-4.6,1.7-6.4L144.6,156.9z"/>
			<path class="st15" d="M135,140.2c0,0,3.5,2.6,7,2.4c3.5-0.2,13.7-2.6,13.7-2.6s1.9,2.7,3.2,8.2c1.4,5.6,1.4,9.8,1.4,9.8
				s-12-1.6-16.8,1L135,140.2z"/>
			<path class="st14" d="M140.5,87.6c0,0,1.6,6.2,5.8,8.1c0,0-4.3-3.8-4.6-7.8C141.3,83.8,140.5,87.6,140.5,87.6"/>
			<path class="st5" d="M176.1,151.5c-0.6-2.2-3-3.5-5.3-2.9c-0.6,0.2-1.1,0.4-1.6,0.8l-0.9,0.7l0.1,0.1c-0.8,1-1.1,2.3-0.7,3.6
				c0.6,2.2,3,3.5,5.3,2.9c0.1,0,0.3-0.1,0.4-0.1l0.1,0.1l1-0.8l0,0C175.9,154.8,176.6,153.1,176.1,151.5"/>
			<path class="st6" d="M166.9,154.3c-0.6-2.2,0.8-4.5,3.1-5.2c2.3-0.6,4.7,0.7,5.3,2.9s-0.8,4.5-3.1,5.2
				C169.8,157.9,167.5,156.6,166.9,154.3"/>
			<path class="st7" d="M171.9,153.2c0-0.5-0.6-1-1.3-0.7c-0.3,0.1-7.2,4.5-7.2,4.5l1.5,1.8l6.8-4.8
				C171.6,153.9,171.9,153.7,171.9,153.2"/>
			<path class="st5" d="M115.2,110.5c0.6-2.2,3-3.5,5.3-2.9c0.6,0.2,1.1,0.4,1.6,0.8l0.9,0.7l-0.1,0.1c0.8,1,1.1,2.3,0.7,3.6
				c-0.6,2.2-3,3.5-5.3,2.9c-0.1,0-0.3-0.1-0.4-0.1l-0.1,0.1l-1-0.8l0,0C115.4,113.9,114.7,112.2,115.2,110.5"/>
			<path class="st6" d="M124.4,113.4c0.6-2.2-0.8-4.5-3.1-5.2c-2.3-0.6-4.7,0.7-5.3,2.9c-0.6,2.2,0.8,4.5,3.1,5.2
				C121.5,116.9,123.8,115.6,124.4,113.4"/>
			<path class="st7" d="M119.4,112.3c0-0.5,0.6-1,1.3-0.7c0.3,0.1,7.2,4.5,7.2,4.5l-1.5,1.8l-6.8-4.8
				C119.7,113,119.4,112.8,119.4,112.3"/>
			<path class="st12" d="M120.3,117.4c0,0-2.5-3.1-0.7-4.7s4.1-1.1,4.2-0.2s-0.8,3.6-0.8,3.6L120.3,117.4z"/>
			<path class="st8" d="M167.5,149.5c0,0,0.7,1.7,1.5,2.2s1.8,1.6,1.6,2.6c-0.2,0.9-0.4,2.4-1.4,2.4s-3.2-4.3-3.5-5.1s-0.5-1-0.5-1
				L167.5,149.5z"/>
			<path class="st5" d="M170.8,155.5c-0.6-2.4-3.2-3.8-5.7-3.2c-0.6,0.2-1.2,0.5-1.7,0.8l-1,0.7l0.1,0.2c-0.8,1.1-1.2,2.5-0.8,3.9
				c0.6,2.4,3.2,3.8,5.7,3.2c0.2,0,0.3-0.1,0.5-0.1l0.1,0.1l1.1-0.8l0,0C170.5,159.1,171.3,157.3,170.8,155.5"/>
			<path class="st6" d="M160.7,158.6c-0.6-2.4,0.9-4.9,3.4-5.6c2.5-0.7,5.1,0.7,5.7,3.2c0.6,2.4-0.9,4.9-3.4,5.6
				C163.9,162.4,161.4,161,160.7,158.6"/>
			<path class="st7" d="M166.8,156.8c-0.2-0.8-1-1.2-1.9-1c-0.2,0.1-0.4,0.2-0.6,0.3l-0.3,0.2v0.1c-0.3,0.4-0.4,0.8-0.3,1.3
				c0.2,0.8,1,1.2,1.9,1c0.1,0,0.1,0,0.1,0l0,0l0.4-0.3l0,0C166.7,158,166.9,157.4,166.8,156.8"/>
			<path class="st5" d="M163.5,157.8c-0.2-0.8,0.3-1.6,1.1-1.8s1.7,0.2,1.9,1s-0.3,1.6-1.1,1.8C164.6,159,163.7,158.6,163.5,157.8"
				/>
			<path class="st5" d="M120.5,114.5c0.6-2.4,3.2-3.8,5.7-3.2c0.6,0.2,1.2,0.5,1.7,0.8l1,0.7l-0.1,0.2c0.8,1.1,1.2,2.5,0.8,3.9
				c-0.6,2.4-3.2,3.8-5.7,3.2c-0.2,0-0.3-0.1-0.5-0.1l-0.1,0.1l-1.1-0.8l0,0C120.7,118.2,120,116.3,120.5,114.5"/>
			<path class="st6" d="M130.6,117.7c0.6-2.4-0.9-4.9-3.4-5.6c-2.5-0.7-5.1,0.7-5.7,3.2c-0.6,2.4,0.9,4.9,3.4,5.6
				C127.3,121.5,129.9,120.1,130.6,117.7"/>
			<path class="st7" d="M124.5,115.9c0.2-0.8,1-1.2,1.9-1c0.2,0.1,0.4,0.2,0.6,0.3l0.3,0.2v0.1c0.3,0.4,0.4,0.8,0.3,1.3
				c-0.2,0.8-1,1.2-1.9,1c-0.1,0-0.1,0-0.1,0l0,0l-0.4-0.3l0,0C124.6,117.1,124.4,116.4,124.5,115.9"/>
			<path class="st5" d="M127.8,116.9c0.2-0.8-0.3-1.6-1.1-1.8c-0.8-0.2-1.7,0.2-1.9,1c-0.2,0.8,0.3,1.6,1.1,1.8
				C126.7,118.1,127.6,117.7,127.8,116.9"/>
			<path class="st9" d="M134.7,141.1c0,0,3.1,2.3,6.5,2.4c3.3,0.1,15-2.8,15-2.8l-0.5-0.9c0,0-12.8,3.4-15.8,2.4s-4.8-2.2-4.8-2.2
				L134.7,141.1z"/>
			<path class="st8" d="M137.5,219.9c-1.4,0-4.7-0.4-6.1,0H126c-1.3-0.8-1.8-1.7,1.6-2.1c4.8-0.6,5.6-5.4,5.7-6l0,0l0,0l4.5,1.7l0,0
				l0,0l0,0l0,0v0.1l0,0c-0.2,0.4-0.5,1.6,0,3C138.1,217.9,138.9,219.9,137.5,219.9"/>
			<path class="st8" d="M172.6,219.9c-1.4,0-4.7-0.4-6.1,0h-5.4c-1.2-0.8-1.7-1.5,1.6-2.1c4.8-0.9,5.4-3.1,5.2-4.5
				c-0.1-0.7-0.4-1.3-0.4-1.3l0,0l5-0.3c0,0,0,0.3,0,0.7c0,1.1,0,3,0.4,4.3C173.3,217.9,174,219.9,172.6,219.9"/>
			<path class="st16" d="M137.7,213.7c-0.2,0.4-0.5,1.6,0,3c0.4,1.2,1.2,3.2-0.3,3.2c-1.4,0-4.7-0.4-6.1,0h-5.4
				c-1.2-0.8-1.8-1.7,1.6-2.1c4.8-0.6,5.6-5.4,5.7-6l0,0c0.1-0.9,0.2-1.9,0.3-3.1c0,0,2.2,1.6,5.8,0.6l0,0c-0.6,1.6-1.2,3-1.7,4.1
				l0,0l0,0l0,0l0,0C137.8,213.6,137.8,213.6,137.7,213.7L137.7,213.7z"/>
			<path class="st16" d="M172.6,219.9c-1.4,0-4.7-0.4-6.1,0h-5.4c-1.2-0.8-1.7-1.5,1.6-2.1c4.8-0.9,5.4-3.1,5.2-4.5
				c-0.1-0.4-0.3-0.8-0.4-1.3l0,0c-0.3-0.9-0.7-2-1.1-3.2c1.4,0,3.9-0.1,6.2-1.2c0,1.5,0,2.9,0,4.1c0,0.3,0,0.5,0,0.7
				c0,1.1,0,3,0.4,4.3C173.3,217.9,174,219.9,172.6,219.9"/>
			<path class="st13" d="M139,97.7c0,0,0.2,0.5,0.3,0.7s1.4,0.2,1.9,0c0.4-0.2,0.8-0.8,0.8-0.8C141.9,97.5,139.6,97.5,139,97.7"/>
		</g>
		<g id="Ebene_1_2_">
			<path class="st23" d="M134.2,173.3c-1.4,1.5-2.2,4-0.1,6.8c4.3,4.5,11.6,23.6,11.6,23.6c-0.2,0.7,0,1.8-0.5,2.1c-0.9,0.5-3-1-3-1
				s-19.8-20.5-21.4-25.1c-1.2-3.4,4.9-19.9,8.5-28.5c0.7-1.8,1.5-3.6,2.5-5.3l0.1-0.1c1.8-1.2,4.1-1.3,5.9-0.1
				c0.4,0.2,0.8,0.5,1.1,0.8c4.4,3.6,7.3,12.1,7,13.9c-0.2,1.2-2,2.7-4.4,5.3c-0.5,0.5-1.6,1.9-2.1,2.4
				C137.2,170.2,134.8,172.6,134.2,173.3z"/>
			<path class="st24" d="M141,166.3c-0.5,0.5-1,1.1-1.5,1.6l-10.2-16.8c0.7-1.8,1.5-3.7,2.5-5.3l0.1-0.1l5.9-0.1h1.1v0.8L141,166.3z
				"/>
			<path class="st23" d="M134.6,148.8c0,0,2.9,19.1,11.8,32.8c8.6,13.3,12.4,33.2,12.4,33.2c0.6,0.3,1.3,0.4,1.8,0.1
				c1.2-0.4,2,0.2,2.2-0.4c0,0-1-31.4-5.5-38.4c-3.5-5.6-3.7-14-2.9-21.7c0-2.9,0.3-6-0.6-8.8L134.6,148.8z"/>
			<path class="st25" d="M154.2,146.6c0,0-13.2-0.7-18.8,5.9c-4.2-5.6-4.5-5.3-4.5-5.3c0.2-1.3-2.8-15.5-3.3-17.6
				c0,0,0.4-15.2,4.6-14.5l2.1-1.1l15.3,0.2l1.7,0.8c0,0,4.1,1.9,5.1,14.8C155.7,134.7,154.2,141.7,154.2,146.6z"/>
			<path class="st20" d="M162.7,220.1l-2.2-0.1c-0.8-0.1-1.3-0.4-2.1-0.5c-0.6-0.1-1.3-0.1-1.8,0.3l0,0l-9.5-0.4
				c-0.2-0.3,0.1-1.1,0.3-1.7c0.2-0.4,0.5-0.7,0.9-0.8c1.8-0.2,3.4-0.9,4.9-2c1-0.9,5.1-3.2,5.1-3.2l0,0c0.1,0,0.5,0.1,2.2,1.7
				c0.9,0.8,2.5-1,2.5-1c0.2,0.2,0.4,0.4,0.5,0.7c0.2,0.4,0.3,1,0.1,1.4c-0.1,1.2,0.2,2.4,0.5,3.5c0.2,0.6,0.3,1.1,0.3,1.1
				S164.6,219.9,162.7,220.1z"/>
			<path class="st20" d="M163.4,213.2c-0.7,0.6-1.5,0.9-2.5,1.1c-1,0.1-2.8-2.5-2.8-2.5l0,0c0.1,0,0.5,0.1,2.2,1.7
				c0.9,0.8,2.5-1,2.5-1C163.1,212.7,163.3,212.9,163.4,213.2z"/>
			<path class="st20" d="M162.7,220.1l-2.2-0.1c-0.8-0.1-1.3-0.4-2.1-0.5c-0.6-0.1-1.3-0.1-1.8,0.3l0,0l-9.5-0.4
				c-0.2-0.3,0.1-1.1,0.3-1.7c0.3-0.2,0.3,1.1,0.4,1.3s7.7,0.4,8.2,0.1c1.1-0.5,2.4-0.7,3.6-0.3c1.6,0.5,3.9-0.4,4.5-0.7
				c0.2,0.6,0.3,1.1,0.3,1.1S164.6,219.9,162.7,220.1z"/>
			<path class="st20" d="M150,206.3l-1.6,1.6c-0.6,0.4-1.2,0.7-1.8,1.1c-0.6,0.3-0.9,0.9-1,1.6l0,0l-6.8,6.6c-0.4-0.1-0.8-0.8-1-1.4
				c-0.2-0.4-0.1-0.8,0.1-1.2c1.1-1.4,1.7-3.1,1.9-4.9c0.1-1.4,1.2-5.9,1.2-5.9l0,0c0.1-0.1,0.4-0.2,2.8-0.4c1.2-0.1,1-2.5,1-2.5
				c0.3,0,0.6,0,0.9,0.1c0.5,0.2,0.9,0.5,1.2,0.9c0.8,0.9,1.8,1.6,2.9,2.1l1.1,0.5C150.8,204.5,151.3,204.8,150,206.3z"/>
			<path class="st20" d="M145.6,201c-0.1,0.9-0.4,1.8-0.9,2.5c-0.6,0.8-3.8,0.3-3.8,0.3l0,0c0.1-0.1,0.4-0.2,2.8-0.4
				c1.2-0.1,1-2.5,1-2.5C145,200.9,145.3,200.9,145.6,201z"/>
			<path class="st20" d="M150,206.3l-1.6,1.6c-0.6,0.4-1.2,0.7-1.8,1.1c-0.6,0.3-0.9,0.9-1,1.6l0,0l-6.8,6.6c-0.4-0.1-0.8-0.8-1-1.4
				c0-0.4,1,0.5,1.3,0.6s5.6-5.3,5.7-5.9c0.3-1.2,1.2-2.2,2.3-2.8c1.4-0.8,2.4-3.2,2.6-3.8l1.1,0.5
				C150.8,204.5,151.3,204.8,150,206.3z"/>
		</g>
	</g>
	<path class="st0" d="M146.3,110.8c0.9,1.8,1.2,1.6,3.4,3.5c-4.5,9-12.7,14-15.3-0.2c0,0,2.4-0.2,2.8-1.4
		C137.4,112,146.3,110.8,146.3,110.8z"/>
	<path class="st0" d="M151.3,115.2c1.6-4.8,3.8-5.5,5.1-9.7c4.8-14.6,6.1-12.3,12.2-26.7c-0.8-3.9-0.2-11.7,1.6-8.1
		c0.1,3.1,1.7-0.2,3.3-2.9c0,0,1.4-1.3,1.6,0.1c0,0,1.5-1.5,1.3,0.3c0,0,1.6-0.2,0.9,1.4c-3.7,7.6,1.1-1.3,0.4,2.8
		c0,0-2.4,5.9-5,8.1c-3.8,11.5-13.8,35.1-13.9,40c0,2-1.7,6.6-2.4,9.5C151.6,126.8,152.7,116,151.3,115.2z"/>
	<path class="st26" d="M132.3,115.2c0,0-1-2.9-3.2-5.3c-1.2-1.2-1.3-2.8-1.9-4.4c-4.8-14.6-6.2-12.3-12.3-26.7
		c0.8-3.9,0.2-11.7-1.6-8.1c-0.1,3.1-1.7-0.2-3.3-2.9c0,0-1.4-1.3-1.6,0.1c0,0-1.5-1.5-1.3,0.3c-2-0.2-0.7,1.7,0.1,3.5
		c1.6,3.6-2-2.9-1.4,0.7c0,0,2.4,5.9,5,8.1c0,0,5.7,15.2,13.4,36.6c0.4,1.1,0.5,2.2,0.5,3.4c0,2,2.3,6.3,3,9.3
		C129.2,126.5,128.7,118.3,132.3,115.2z"/>
</g>
<g id="Ebene_4_1_">
	<g>
		<path class="st21" d="M163.6,119.3l10.7,0.4l-10.7,0.4c-0.2,0-0.5-0.2-0.5-0.4S163.3,119.3,163.6,119.3
			C163.5,119.3,163.5,119.3,163.6,119.3z"/>
	</g>
	<g>
		<path class="st21" d="M162.2,123.3l6.8,0.4l-6.8,0.4c-0.2,0-0.5-0.2-0.5-0.4S161.9,123.3,162.2,123.3
			C162.1,123.3,162.2,123.3,162.2,123.3z"/>
	</g>
	<g>
		<path class="st21" d="M158.8,146.2l12.4,0.4l-12.4,0.4c-0.2,0-0.5-0.2-0.5-0.4S158.5,146.2,158.8,146.2L158.8,146.2z"/>
	</g>
	<g>
		<path class="st21" d="M158.5,150.1l5.8,0.5l-5.8,0.4c-0.2,0-0.5-0.2-0.5-0.4C158,150.3,158.2,150.1,158.5,150.1
			C158.4,150.1,158.5,150.1,158.5,150.1z"/>
	</g>
	<g>
		<path class="st21" d="M174.8,87l6.5,0.4l-6.5,0.5c-0.2,0-0.5-0.2-0.5-0.4S174.5,87.1,174.8,87L174.8,87z"/>
	</g>
	<g>
		<path class="st21" d="M176.5,82.5l17.7,0.5l-17.7,0.4c-0.2,0-0.5-0.2-0.5-0.4S176.2,82.5,176.5,82.5L176.5,82.5z"/>
	</g>
	<g>
		<path class="st21" d="M170.5,211.2l15.3,0.4l-15.3,0.4c-0.2,0-0.5-0.2-0.5-0.4C170.1,211.4,170.3,211.2,170.5,211.2L170.5,211.2z"
			/>
	</g>
	<g>
		<path class="st21" d="M171,215.4l6,0.4l-6,0.4c-0.2,0-0.5-0.2-0.5-0.4C170.5,215.7,170.7,215.5,171,215.4L171,215.4z"/>
	</g>
</g>
<g>
	<path class="st27" d="M151.2,157.9c-0.3,0-0.6,0-0.9,0c-10.4-0.2-17.8-2.8-25-5.2c-6.9-2.4-13.4-4.6-22.3-4.8
		c-8.3-0.2-17,0.8-27.6,2.1c-13.1,1.7-30.9,0.5-45-12.9c0,0,6.3,2.2,6-2.6c5.9,8.7,26.4,12,38.3,10.4c10.8-1.4,19.7-2.4,28.3-2.2
		c9.8,0.2,16.9,2.7,23.9,5.1c7.1,2.5,13.8,4.8,23.4,5c10.1,0.2,33.2-7.3,32.8-6.8c-3.1,4,4.3,3.4,4.3,3.4
		C178.7,153,162,157.9,151.2,157.9z"/>
</g>
</svg>
