<?xml version="1.0" encoding="utf-8"?>
<!-- Generator: Adobe Illustrator 25.2.0, SVG Export Plug-In . SVG Version: 6.00 Build 0)  -->
<svg version="1.1" id="Ebene_1" xmlns="http://www.w3.org/2000/svg" xmlns:xlink="http://www.w3.org/1999/xlink" x="0px" y="0px"
	 viewBox="0 0 220 220" style="enable-background:new 0 0 220 220;" xml:space="preserve">
<style type="text/css">
	.st0{display:none;}
	.st1{display:inline;fill:#4C4B73;}
	.st2{display:inline;fill:#3A3A5B;}
	.st3{display:inline;fill:#2C2C2C;}
	.st4{display:inline;fill:#FFAD73;}
	.st5{display:inline;fill:#1F3866;}
	.st6{display:inline;fill:#5B58EE;}
	.st7{display:inline;fill:#2E51C0;}
	.st8{display:inline;fill:#FFA166;}
	.st9{display:inline;fill:#FFFFFF;}
	.st10{display:inline;}
	.st11{display:inline;fill:#1A2C70;}
	.st12{display:inline;fill:#9529F9;}
	.st13{fill:#E5E5E5;}
	.st14{fill:#F7AD7C;}
	.st15{fill:#1A2C70;}
	.st16{fill:#FCFCFC;}
	.st17{fill:#FFA166;}
	.st18{fill:#FFB27D;}
	.st19{fill:#A87C5E;}
	.st20{fill:#FFFFFF;}
	.st21{fill:#9529F9;}
	.st22{fill:#5B58EE;}
	.st23{fill:#D3D3D3;}
	.st24{fill:#825E23;}
	.st25{fill:#233862;}
	.st26{fill:#F20A0A;}
</style>
<g>
	<g>
		<g class="st0">
			<path class="st1" d="M232.3,149.4c0.5-3.3,3.7-5.6,7.2-5c0.9,0.1,1.7,0.4,2.4,0.9l1.4,0.8l-0.1,0.2c1.3,1.3,1.9,3.2,1.6,5.1
				c-0.5,3.3-3.7,5.6-7.2,5c-0.2,0-0.4-0.1-0.6-0.1l-0.1,0.2l-1.6-0.9l0,0C233.1,154.3,231.9,151.9,232.3,149.4"/>
			<path class="st2" d="M246.1,152.2c0.5-3.3-1.8-6.4-5.3-7c-3.4-0.5-6.7,1.7-7.2,5s1.8,6.4,5.3,7
				C242.4,157.7,245.6,155.5,246.1,152.2"/>
			<path class="st3" d="M238.7,151.3c0-0.7,0.8-1.5,1.8-1.3c0.4,0.1,11.1,5.3,11.1,5.3l-1.9,2.9l-10.5-5.9
				C239.2,152.3,238.7,152,238.7,151.3"/>
			<path class="st4" d="M245.3,154.9c-0.2,0-3.5,1.6-5.3-0.8c-0.8-1.1-0.2-2.1,0.6-2.4c0.6-0.2,1.5,0.5,1.9,0.8
				C243.2,153.2,245.3,154.9,245.3,154.9"/>
			<path class="st5" d="M235.4,219.9c-1.1-0.7-0.5-5.9-0.5-5.9s5.3-4.3,6.1-1s5.1,4.7,7.5,5.1c1.7,0.3,2.2,1.2,2.4,1.8L235.4,219.9
				L235.4,219.9z"/>
			<path class="st6" d="M241.4,215.7c-1.7,0.6-5.1,2.3-7.2,1.5c-1.4-0.5-9-22.7-9.5-32.4c0-0.5-0.1-1.1-0.2-1.8
				c-0.1-0.3-0.1-0.7-0.2-1.1c-0.7-3.9-2.3-10.1-3.8-16.4c-2.1-8.5-4.1-17-4.1-20.3c0.1-6.3,18.8-1.3,18.8-1.3s1.1,4.5,1.5,11.2
				c0,0.5,0,1,0.1,1.5c0.5,14.9,1.9,40,5.7,57.4C242.6,214.7,242.2,215.5,241.4,215.7"/>
			<path class="st7" d="M218.3,143.7l2.2,21.8c1.5,6.3,3.1,12.5,3.8,16.4c0.1,0.4,0.1,0.8,0.2,1.1l12.2-27.9c-0.2-3.6-0.6-6.6-1-8.6
				c-0.1-0.6-0.2-1.1-0.3-1.5c-0.1-0.7-0.2-1.1-0.2-1.1L218.3,143.7z"/>
			<path class="st4" d="M226.4,102.2c0,0,6.3,0.2,8.6,3c2.3,2.8,5.1,22.6,6.7,26.7c1.6,4.1,3.4,18.3,3.4,18.9l-2.5,0.5
				c0,0-7-14.7-7.6-18c-0.6-3.2-8.2-19.3-8.1-20.4C226.9,111.7,226.4,102.2,226.4,102.2"/>
			<path class="st4" d="M210.6,109.7c0.3-2.1-1.9-3.6-3.7-2.7c-2.4,1.1-5,2.7-5.8,4.4c-1.6,3.3-5,17.8-4.7,23.2c0,0,2.9,0.8,5-0.1
				c2.1-0.9,9.1-23,9.1-23L210.6,109.7z"/>
			<path class="st5" d="M218.8,219.9c0,0-0.3-2.6-1.1-4.1c-0.8-1.5-5.6-0.6-5.6-0.6s-1,0.8-1.2,4.7L218.8,219.9z"/>
			<path class="st6" d="M228.5,145.3l-9.9,71.6c0,0-4.3,1-7.7,0.2c0,0-2.9-38.1-2.7-47.3c0.2-9.2,0.4-22.2,1.5-25.1
				C211.4,140.1,228.5,145.3,228.5,145.3"/>
			<path class="st4" d="M224.9,98.9v0.9c0,0,0.3,2.9-3.3,3.3s-6.3-1.1-6.2-3.4c0.3-1.7,0.7-2.9,0.7-4.4c0-0.5,0-1.1-0.1-1.7l6.9-0.1
				l2,0.3V98.9z"/>
			<path class="st8" d="M224.9,93.9v3.6c-2.6,1-8-0.7-8.4-2.8l6.4-1.2L224.9,93.9z"/>
			<path class="st4" d="M215.4,92.6c0.8,4.3,6.4,4.2,8.8,3.9c0.7-0.1,1.1-0.2,1.1-0.2c0.8-0.2,1.2-1.4,1.4-3
				c0.4-3.1-0.1-7.7-0.6-8.9c-0.8-1.8-2.3-3.7-7.9-2.3C212.5,83.6,214.4,87.1,215.4,92.6"/>
			<path class="st9" d="M222.5,93.6c0,0,0.5,0.8,2,0.6c1-0.1,1.1-1,1.1-1S224.2,92.9,222.5,93.6"/>
			<path class="st9" d="M234.6,117.3c4-0.3,5.9-2.2,5.9-2.2s-3.6-9.9-5.6-11.6s-10.1-3.2-10.1-3.2c-0.1,0-0.1-0.1-0.1-0.1l0,0
				c0,0.9-1.4,2.6-3.6,2.7c-2.6,0.2-5.8-1.7-5.8-3.2c0,0-6.2,0.4-9.4,2.2c-3.3,1.8-7.2,10.6-7.2,10.6s1.3,4.3,9.5,5.7l-0.6,28.9
				c15.1,5,29-0.2,29-0.2c0.3,0-1.8-16.6-1.9-20.7C234.7,123.8,234.6,120.8,234.6,117.3"/>
			<path class="st10" d="M227.4,84.4c1-1,0.7-2.7-0.5-3.3c-1.3-0.7-3.2-1.6-4.9-2.1c-2.5-0.7-5,0.1-5.9,0.6c0-0.2,0.1-0.4,0.2-0.6
				c0,0-0.4,0.3-0.5,0.7l-0.1,0.1c0,0-0.5-0.1-0.8,0.1c0,0,0.2,0,0.3,0.1l0,0c-3.7,1.8-4.9,6.1-2.8,9c1.3,1.7,3.6,5.3,3.6,5.3
				s-0.4-1-0.5-1.8c0-0.2,0-0.5,0.1-0.7c0.2-0.4,0.2-0.9,0-1.3c-0.3-0.6-0.3-1.3,0.2-1.5c0.6-0.3,1.1,0.1,1.4,0.6
				c0.2,0.4,0.7,0.5,1.1,0.4l0,0c1.6-0.6,0.3-2.5,1.6-3.6c1.4-1.1,5-0.5,6.2-1C226.7,85,227.1,84.7,227.4,84.4"/>
			<path class="st1" d="M240.6,154.4c0.6-3.6,4.1-6,7.8-5.5c1,0.2,1.8,0.5,2.6,1l1.5,0.9l-0.2,0.2c1.4,1.4,2.1,3.4,1.7,5.5
				c-0.6,3.6-4.1,6-7.8,5.5c-0.2,0-0.5-0.1-0.7-0.1l-0.1,0.2l-1.8-1l0,0C241.5,159.7,240.2,157.1,240.6,154.4"/>
			<path class="st2" d="M255.6,157.4c0.6-3.6-2-7-5.7-7.6c-3.7-0.6-7.2,1.9-7.8,5.5s2,7,5.7,7.6C251.6,163.4,255.1,161,255.6,157.4"
				/>
			<path class="st3" d="M246.6,155.7c0.2-1.2,1.3-2,2.5-1.8c0.3,0,0.6,0.2,0.8,0.3l0.5,0.3v0.1c0.4,0.5,0.7,1.1,0.6,1.8
				c-0.2,1.2-1.3,2-2.5,1.8c-0.1,0-0.2,0-0.2,0v0.1l-0.6-0.3l0,0C246.9,157.4,246.5,156.6,246.6,155.7"/>
			<path class="st1" d="M251.5,156.7c0.2-1.2-0.7-2.3-1.9-2.5c-1.2-0.2-2.3,0.6-2.5,1.8c-0.2,1.2,0.7,2.3,1.9,2.5
				C250.2,158.6,251.3,157.8,251.5,156.7"/>
			<path class="st4" d="M196.4,134.5c0,0,10.2,3.9,24.2,2.2v-2.9c0,0-15.1-3-18-5.6C202.5,128.2,197.2,130.4,196.4,134.5"/>
			<path class="st1" d="M231.7,129.8c-0.9-3.2-4.3-5.1-7.7-4.2c-0.9,0.2-1.6,0.6-2.3,1.1l-1.3,1l0.2,0.2c-1.1,1.4-1.6,3.3-1.1,5.2
				c0.9,3.2,4.3,5.1,7.7,4.2c0.2-0.1,0.4-0.1,0.6-0.2l0.2,0.2l1.5-1.1l0,0C231.4,134.7,232.4,132.2,231.7,129.8"/>
			<path class="st2" d="M218.3,134c-0.9-3.2,1.2-6.6,4.5-7.5c3.4-0.9,6.8,1,7.7,4.2s-1.2,6.6-4.5,7.5
				C222.6,139.1,219.2,137.2,218.3,134"/>
			<path class="st3" d="M225.6,132.3c-0.1-0.7-0.9-1.4-1.9-1.1c-0.4,0.1-10.5,6.5-10.5,6.5l2.2,2.7l9.8-7
				C225.1,133.4,225.6,133,225.6,132.3"/>
			<path class="st4" d="M223.3,137.2c0.1-0.2,3-2.4,1.7-5c-0.6-1.2-1.8-1.1-2.4-0.6c-0.5,0.4-0.3,1.6-0.1,2.1
				C222.8,134.5,223.3,137.2,223.3,137.2"/>
			<path class="st1" d="M224,135.6c-0.9-3.5-4.7-5.6-8.3-4.6c-0.9,0.3-1.8,0.7-2.5,1.2l-1.4,1l0.2,0.2c-1.2,1.6-1.7,3.6-1.2,5.7
				c0.9,3.5,4.7,5.6,8.3,4.6c0.2-0.1,0.5-0.1,0.7-0.2l0.2,0.2l1.6-1.2l0,0C223.6,140.9,224.7,138.2,224,135.6"/>
			<path class="st2" d="M209.4,140.2c-0.9-3.5,1.3-7.2,4.9-8.2c3.7-1,7.4,1.1,8.3,4.6s-1.3,7.2-4.9,8.2
				C214,145.7,210.3,143.7,209.4,140.2"/>
			<path class="st3" d="M218.2,137.5c-0.3-1.1-1.5-1.8-2.7-1.5c-0.3,0.1-0.6,0.2-0.8,0.4l-0.5,0.3l0.1,0.1c-0.4,0.5-0.6,1.2-0.4,1.8
				c0.3,1.1,1.5,1.8,2.7,1.5c0.1,0,0.1,0,0.2-0.1l0.1,0.1l0.5-0.4l0,0C218.1,139.3,218.4,138.4,218.2,137.5"/>
			<path class="st1" d="M213.4,139c-0.3-1.1,0.4-2.3,1.6-2.6s2.4,0.3,2.7,1.5c0.3,1.1-0.4,2.3-1.6,2.6
				C214.9,140.8,213.7,140.1,213.4,139"/>
			<path class="st8" d="M288.5,105.7c0,0-7.4,0.4-8.2,3.5c-1.3,4.9-2.5,16.2-2.5,16.2l-7.5-9.3l-2.7,1.3c0,0,6.4,17.1,11.7,16.3
				C284.8,132.9,288.5,105.7,288.5,105.7"/>
			<path class="st10" d="M296.1,82.8c0,0,1-3.9,6.6-2.7c0,0-2.7-0.3-3.5,0.7c0,0,2.2-1,3.5-0.2s1.6,3.6,1.4,4.4
				c-0.2,0.8-1.7,3.4-2.7,3.4s-2.2-0.9-2.2-0.9L296.1,82.8z"/>
			<path class="st10" d="M285.9,86.8c0,0,7.2-8.6,11-3.1c0,0,2.8,1.2,3.9,6c1,4.9-2.2,8.7-3.9,7.7c-1.1-0.6-1.9,1.3-1.9,1.3
				L285.9,86.8z"/>
			<path class="st4" d="M288.2,105.7c0,0,2.6,1.4,4.6,0.8c1.9-0.5,4.3-1.1,4.3-1.2c-0.8-0.2-2.2-3.1-2.2-7.8l-0.4,0.1l-6.1,1.2
				c0,0,0.1,1.9,0.1,3.7C288.6,104.1,288.5,105.5,288.2,105.7"/>
			<path class="st8" d="M288.5,98.9c0,0,0.1,1.9,0.1,3.7c3.4-0.1,5.2-3.2,5.9-4.9L288.5,98.9z"/>
			<path class="st10" d="M295.2,97c0,0,1.8-2.8,2.2-5.2c0.3-1.7-0.6-8.1-7-7.2c0,0-1.9,0.2-3.6,1.4c-1.4,0.9-3.4,3-1.2,8.5l0.6,1.9
				L295.2,97z"/>
			<path class="st4" d="M287.3,100.6c0,0,8,0.1,8-4.9s1-8.4-4.1-8.7c-5.1-0.3-6.1,1.6-6.5,3.3C284.3,92,285.2,100.4,287.3,100.6"/>
			<path class="st10" d="M287.6,86.9c0,0,2.2,5.9,5.6,6.7c3.4,0.9,4.8,0,4.8,0s-2.6-2.1-3.1-5.7C294.9,88,289.3,84.1,287.6,86.9"/>
			<path class="st10" d="M288.2,87.4c0,0-1.6,1.3-2,2.6c-0.4,1.3-0.6,3.9-1.3,3.8c0,0-1.7-4,0.2-6.3C287,85.2,288.2,87.4,288.2,87.4
				"/>
			<path class="st4" d="M282,141.8c4.1-13.1-0.4-15.9,0-22.4s5.5-13.6,5.5-13.6s6.1-0.6,9.3-0.4c2.9,0.2,7.8,9.1,6.5,17.3
				c-0.2,1-0.4,2-0.8,3c-1.5,4.2-2.3,5.9-2.2,7.4c0,2,1.4,3.8,4.2,10.1C306.1,146.7,277.8,155.1,282,141.8"/>
			<path class="st4" d="M292.5,171.2c-1.1,6.4-2,11.3-2,11.3c2.1,8.7-1.1,19.9-3.7,27c-0.6,1.6-1.2,3-1.7,4.1l0,0l0,0l0,0l0,0v0.1
				l0,0c-0.7,1.6-1.2,2.5-1.2,2.5l-3.9,0.2c0,0,0.3-1.7,0.6-4.5l0,0c0.1-0.9,0.2-1.9,0.3-3.1c0.6-6.4,1-16.1-0.4-25.8
				c-3.4-23.8,1.1-39.7,1.1-39.7l14.3,4.6l0.7,0.2C295.4,154.9,293.8,164,292.5,171.2"/>
			<path class="st4" d="M296.6,105.2c0,0,6.9,0.7,7.7,2.5c2.6,5.7,5.2,25,5.9,26.7c0.7,1.7,2.9,11,4.8,15.6l-2.4,0.7
				c0,0-8-13.2-8.7-16.6c-0.7-3.4-4.7-17.4-4.7-17.4L296.6,105.2z"/>
			<path class="st9" d="M302.1,121l0.1,6c0,0-5.2-1.5-10.8-2c-1.4-0.1-2.7-0.2-4.1-0.1c-1.7,0.1-3.2,0.3-4.6,0.7
				c0,0-0.9-3.9-1.8-8.4c0-0.2-0.1-0.3-0.1-0.5c-0.5-4.4,3.4-7.9,1.7-9.7c0,0,1.4-0.8,5-1.2c0,0-2.7,4.8-2.5,6
				c0.2,1.2,10.7,0.1,11.5-0.5c0.7-0.7,1.9-5.7,1.9-5.7s3.7,0.4,5.5,1.7c0,0-1.2,1.5-2,3.4c-0.2,0.5-0.4,1.1-0.5,1.7
				c-0.3,1.5-1,4.4,0.7,6.6L302.1,121z"/>
			<path class="st8" d="M295.3,155.7c-1.3,6.7-1.5,8.3-2.7,15.5c-7.8-13.7-6.7-17.3-6.7-17.3L295.3,155.7z"/>
			<path class="st4" d="M319.9,211.7c0,0.3,0,0.5,0,0.7c-0.1,2.3-0.3,3.7-0.3,3.7l-3.8-1.3c0,0-0.2-0.5-0.5-1.5
				c-0.1-0.4-0.3-0.8-0.4-1.3l0,0c-0.3-0.9-0.7-2-1.1-3.2c-2.6-7.3-6.9-19-9.4-21.7c-7.2-7.7-17.9-41.4-17.9-41.4l14.4-4.7
				c2.1,2.1,3.9,5.9,5.3,10.5c3.5,11.5,4.9,27.4,5.1,29.7l0,0c0,0.2,0.1,0.3,0.2,0.5c6.7,7.5,8.3,18.4,8.5,25.9
				C319.9,209.2,319.9,210.5,319.9,211.7"/>
			<path class="st11" d="M292,156.9l-2.5-0.3c-1.2-0.4-2.4-0.7-3.5-0.9c-3.5-0.6-6.2-0.2-6.2-0.2c1.1-11.6,2.7-15.3,2.7-15.3
				l5.2,9.1L292,156.9z"/>
			<path class="st5" d="M292,156.9l-2.5-0.3c-1.2-0.4-2.4-0.7-3.5-0.9c-0.2-2.2,0.7-4.6,1.7-6.4L292,156.9z"/>
			<path class="st11" d="M282.4,140.2c0,0,3.5,2.6,7,2.4c3.5-0.2,13.7-2.6,13.7-2.6s1.9,2.7,3.2,8.2c1.4,5.6,1.4,9.8,1.4,9.8
				s-12-1.6-16.8,1L282.4,140.2z"/>
			<path class="st10" d="M287.9,87.6c0,0,1.6,6.2,5.8,8.1c0,0-4.3-3.8-4.6-7.8C288.7,83.8,287.9,87.6,287.9,87.6"/>
			<path class="st1" d="M323.5,151.5c-0.6-2.2-3-3.5-5.3-2.9c-0.6,0.2-1.1,0.4-1.6,0.8l-0.9,0.7l0.1,0.1c-0.8,1-1.1,2.3-0.7,3.6
				c0.6,2.2,3,3.5,5.3,2.9c0.1,0,0.3-0.1,0.4-0.1l0.1,0.1l1-0.8l0,0C323.3,154.8,324,153.1,323.5,151.5"/>
			<path class="st2" d="M314.3,154.3c-0.6-2.2,0.8-4.5,3.1-5.2c2.3-0.6,4.7,0.7,5.3,2.9s-0.8,4.5-3.1,5.2
				C317.2,157.9,314.9,156.6,314.3,154.3"/>
			<path class="st3" d="M319.3,153.2c0-0.5-0.6-1-1.3-0.7c-0.3,0.1-7.2,4.5-7.2,4.5l1.5,1.8l6.8-4.8
				C319,153.9,319.3,153.7,319.3,153.2"/>
			<path class="st1" d="M262.6,110.5c0.6-2.2,3-3.5,5.3-2.9c0.6,0.2,1.1,0.4,1.6,0.8l0.9,0.7l-0.1,0.1c0.8,1,1.1,2.3,0.7,3.6
				c-0.6,2.2-3,3.5-5.3,2.9c-0.1,0-0.3-0.1-0.4-0.1l-0.1,0.1l-1-0.8l0,0C262.8,113.9,262.1,112.2,262.6,110.5"/>
			<path class="st2" d="M271.8,113.4c0.6-2.2-0.8-4.5-3.1-5.2c-2.3-0.6-4.7,0.7-5.3,2.9c-0.6,2.2,0.8,4.5,3.1,5.2
				C268.9,116.9,271.2,115.6,271.8,113.4"/>
			<path class="st3" d="M266.8,112.3c0-0.5,0.6-1,1.3-0.7c0.3,0.1,7.2,4.5,7.2,4.5l-1.5,1.8l-6.8-4.8
				C267.1,113,266.8,112.8,266.8,112.3"/>
			<path class="st8" d="M267.7,117.4c0,0-2.5-3.1-0.7-4.7s4.1-1.1,4.2-0.2c0.1,0.9-0.8,3.6-0.8,3.6L267.7,117.4z"/>
			<path class="st4" d="M314.9,149.5c0,0,0.7,1.7,1.5,2.2s1.8,1.6,1.6,2.6c-0.2,0.9-0.4,2.4-1.4,2.4s-3.2-4.3-3.5-5.1s-0.5-1-0.5-1
				L314.9,149.5z"/>
			<path class="st1" d="M318.2,155.5c-0.6-2.4-3.2-3.8-5.7-3.2c-0.6,0.2-1.2,0.5-1.7,0.8l-1,0.7l0.1,0.2c-0.8,1.1-1.2,2.5-0.8,3.9
				c0.6,2.4,3.2,3.8,5.7,3.2c0.2,0,0.3-0.1,0.5-0.1l0.1,0.1l1.1-0.8l0,0C317.9,159.1,318.7,157.3,318.2,155.5"/>
			<path class="st2" d="M308.1,158.6c-0.6-2.4,0.9-4.9,3.4-5.6c2.5-0.7,5.1,0.7,5.7,3.2c0.6,2.4-0.9,4.9-3.4,5.6
				C311.3,162.4,308.8,161,308.1,158.6"/>
			<path class="st3" d="M314.2,156.8c-0.2-0.8-1-1.2-1.9-1c-0.2,0.1-0.4,0.2-0.6,0.3l-0.3,0.2v0.1c-0.3,0.4-0.4,0.8-0.3,1.3
				c0.2,0.8,1,1.2,1.9,1c0.1,0,0.1,0,0.1,0l0,0l0.4-0.3l0,0C314.1,158,314.3,157.4,314.2,156.8"/>
			<path class="st1" d="M310.9,157.8c-0.2-0.8,0.3-1.6,1.1-1.8s1.7,0.2,1.9,1s-0.3,1.6-1.1,1.8S311.1,158.6,310.9,157.8"/>
			<path class="st1" d="M267.9,114.5c0.6-2.4,3.2-3.8,5.7-3.2c0.6,0.2,1.2,0.5,1.7,0.8l1,0.7l-0.1,0.2c0.8,1.1,1.2,2.5,0.8,3.9
				c-0.6,2.4-3.2,3.8-5.7,3.2c-0.2,0-0.3-0.1-0.5-0.1l-0.1,0.1l-1.1-0.8l0,0C268.1,118.2,267.4,116.3,267.9,114.5"/>
			<path class="st2" d="M278,117.7c0.6-2.4-0.9-4.9-3.4-5.6s-5.1,0.7-5.7,3.2c-0.6,2.4,0.9,4.9,3.4,5.6
				C274.7,121.5,277.3,120.1,278,117.7"/>
			<path class="st3" d="M271.9,115.9c0.2-0.8,1-1.2,1.9-1c0.2,0.1,0.4,0.2,0.6,0.3l0.3,0.2v0.1c0.3,0.4,0.4,0.8,0.3,1.3
				c-0.2,0.8-1,1.2-1.9,1c-0.1,0-0.1,0-0.1,0l0,0l-0.4-0.3l0,0C272,117.1,271.8,116.4,271.9,115.9"/>
			<path class="st1" d="M275.2,116.9c0.2-0.8-0.3-1.6-1.1-1.8c-0.8-0.2-1.7,0.2-1.9,1c-0.2,0.8,0.3,1.6,1.1,1.8
				C274.1,118.1,275,117.7,275.2,116.9"/>
			<path class="st5" d="M282.1,141.1c0,0,3.1,2.3,6.5,2.4c3.3,0.1,15-2.8,15-2.8l-0.5-0.9c0,0-12.8,3.4-15.8,2.4s-4.8-2.2-4.8-2.2
				L282.1,141.1z"/>
			<path class="st4" d="M284.9,219.9c-1.4,0-4.7-0.4-6.1,0h-5.4c-1.3-0.8-1.8-1.7,1.6-2.1c4.8-0.6,5.6-5.4,5.7-6l0,0l0,0l4.5,1.7
				l0,0l0,0l0,0l0,0v0.1l0,0c-0.2,0.4-0.5,1.6,0,3C285.5,217.9,286.3,219.9,284.9,219.9"/>
			<path class="st4" d="M320,219.9c-1.4,0-4.7-0.4-6.1,0h-5.4c-1.2-0.8-1.7-1.5,1.6-2.1c4.8-0.9,5.4-3.1,5.2-4.5
				c-0.1-0.7-0.4-1.3-0.4-1.3l0,0l5-0.3c0,0,0,0.3,0,0.7c0,1.1,0,3,0.4,4.3C320.7,217.9,321.4,219.9,320,219.9"/>
			<path class="st12" d="M285.1,213.7c-0.2,0.4-0.5,1.6,0,3c0.4,1.2,1.2,3.2-0.3,3.2c-1.4,0-4.7-0.4-6.1,0h-5.4
				c-1.2-0.8-1.8-1.7,1.6-2.1c4.8-0.6,5.6-5.4,5.7-6l0,0c0.1-0.9,0.2-1.9,0.3-3.1c0,0,2.2,1.6,5.8,0.6l0,0c-0.6,1.6-1.2,3-1.7,4.1
				l0,0l0,0l0,0l0,0C285.2,213.6,285.2,213.6,285.1,213.7L285.1,213.7z"/>
			<path class="st12" d="M320,219.9c-1.4,0-4.7-0.4-6.1,0h-5.4c-1.2-0.8-1.7-1.5,1.6-2.1c4.8-0.9,5.4-3.1,5.2-4.5
				c-0.1-0.4-0.3-0.8-0.4-1.3l0,0c-0.3-0.9-0.7-2-1.1-3.2c1.4,0,3.9-0.1,6.2-1.2c0,1.5,0,2.9,0,4.1c0,0.3,0,0.5,0,0.7
				c0,1.1,0,3,0.4,4.3C320.7,217.9,321.4,219.9,320,219.9"/>
			<path class="st9" d="M286.4,97.7c0,0,0.2,0.5,0.3,0.7c0.1,0.2,1.4,0.2,1.9,0c0.4-0.2,0.8-0.8,0.8-0.8
				C289.3,97.5,287,97.5,286.4,97.7"/>
		</g>
	</g>
</g>
<g>
	<g>
		<path class="st13" d="M66.2,211.3l10.7,0.4l-10.7,0.4c-0.2,0-0.5-0.2-0.5-0.4S65.9,211.3,66.2,211.3
			C66.1,211.3,66.1,211.3,66.2,211.3z"/>
	</g>
	<g>
		<path class="st13" d="M64.8,215.3l6.8,0.4l-6.8,0.4c-0.2,0-0.5-0.2-0.5-0.4S64.5,215.3,64.8,215.3
			C64.7,215.3,64.8,215.3,64.8,215.3z"/>
	</g>
	<g>
		<path class="st13" d="M96.7,154.4l10.7,0.4l-10.7,0.4c-0.2,0-0.5-0.2-0.5-0.4S96.4,154.4,96.7,154.4
			C96.6,154.4,96.6,154.4,96.7,154.4z"/>
	</g>
	<g>
		<path class="st13" d="M95.3,158.4l6.8,0.4l-6.8,0.4c-0.2,0-0.5-0.2-0.5-0.4S95,158.4,95.3,158.4C95.2,158.4,95.3,158.4,95.3,158.4
			z"/>
	</g>
	<g>
		<path class="st13" d="M51.5,90.7l6.5,0.4l-6.5,0.5c-0.2,0-0.5-0.2-0.5-0.4S51.2,90.8,51.5,90.7L51.5,90.7z"/>
	</g>
	<g>
		<path class="st13" d="M47.6,86.3l17.7,0.5l-17.7,0.4c-0.2,0-0.5-0.2-0.5-0.4S47.3,86.3,47.6,86.3L47.6,86.3z"/>
	</g>
</g>
<g>
	<g>
		<path class="st14" d="M89.2,139c0.1-1,0.2-1.8,0.2-2.6c0-0.3,0.1-0.6,0.1-0.9c0.6-2.3,1.2-4.3,1.9-6.2
			c1.8-3.6,14.9-11.3,18.4-14.6c3.6-3.4,9.8-16.2,9.8-16.2s2.8-10.3,0.2-7.4c-0.4,0.5-0.8,1-1.1,1.4c0-1.3-1.2,1.3-1.1,2.3
			c-0.5,1.4-0.5,2.4-0.5,2.4s-7.7,10.4-12.3,14c-4.5,3.6-9.5,5.4-10,5.6s-1.7,0.4-3.8,0c-0.6-0.1-1.1-0.2-1.4-0.3
			c-1.5-0.6-3.2-0.9-4.8-1.1c-1.8-0.3-2.6-0.8-3.2-2.2c-0.1-0.3-0.1-1-0.1-1.4c0-1.3-5.3-0.5-5.3,0.6c0,0.8-0.1,1.5-0.4,1.8
			c-0.4,0.5-1.3,1.1-2.3,1.5c-0.3,0.1-0.8,0.2-1.5,0.4c-2.1,0.4-3.3,0.3-3.8,0c-3.2-2-7.3-4.6-9.9-6.1C53.2,107.2,46,96.4,46,96.4
			s0-0.7-0.3-1.7c0.1-1.1-1.8-3.7-2.4-4.4c-2.6-2.9,0.2,7.4,0.2,7.4s6.2,12.8,9.8,16.2c3.6,3.4,15.8,9.9,15.5,12
			c-0.1,0.7-0.3,1.5-0.4,2.9c-0.1,0.6,0.6,2.6,0.9,3.1c1.7,3.2,1.5,7.1,1.7,6.7c0.1,1.5,0.1,3.5,0.1,4.9c0,0.7,0,1.3-0.1,1.8h-0.1
			l0,0c0,0.1-0.8,4.9-1.1,8.6H93c0-0.7-0.1-1.4-0.1-2.3v-0.2c-0.2-2.7-3.4-9-3.5-9.2c0-0.5,0.1-1,0.1-1.5
			C89.2,140.1,89.2,139.5,89.2,139z"/>
		<path class="st15" d="M69.5,157.2c0.3,1.5,0.9,3.5,1.8,6.1c-3,7-8,18.5-8.9,21.1c-0.7,2.1-2.3,8.1-3.8,13.8
			c-1.3,4.7-2.4,9.2-2.9,10.8c-0.8,2.7-1,4.1-0.7,4.8c0.1,0.3,0.4,0.4,0.7,0.5c0.1,0,0.1,0,0.2,0c1.3,0,4.6-2.4,4.7-2.5l0,0
			c0,0,2.1-4.4,4.1-8.3c2.1-4,3.1-9,3.2-11.1c0.1-2.4,0.9-4.7,0.9-4.7c0.2-0.5,0.3-0.9,3.1-4.5c0.8-1,2.6-3.3,4.8-6.2
			c0.3,0.7,0.5,1.3,0.7,1.9c1.7,4.2,2.7,6.8,3.5,7.6c1.2,1.3,24.7,14.8,25.7,15.4c0.1,0.1,3.6,2.6,5.4,2.6c0.4,0,0.7-0.1,0.9-0.4
			c0.3-0.4,0.3-1.2-0.1-2.2c-1-3-5.2-7.2-12.6-12.3c-2-1.4-4.2-2.4-6.1-3.3c-2.3-1.1-4.2-2-5-3.1c-0.7-1-1.8-9.5-2.8-18.3
			c3-3.9,5.4-7,5.7-7.6c0.5-1,0.6-2,0.5-3.4l-23,0C69.5,155.2,69.3,156.4,69.5,157.2z"/>
	</g>
	<path class="st15" d="M70.6,145.3l3.5-0.4l15.9-3c0,0,2.5,6.6,2.9,9.4s0,4.6-1.2,6.9c-0.3,0.6-2.6,3-5.9,7.3h-0.1
		c-1-1.7-3.4-2.4-5.2-3c-2.6-0.9-5.2-1.8-7.8-2.3l-1.3,2.9c-1.1-2.9-1.6-4.5-1.8-6.1C68.9,154.3,70.6,145.3,70.6,145.3L70.6,145.3z"
		/>
	<path class="st16" d="M67.9,128.4c0.2-1.8,1.2-8,1.5-9.4c0.2-1.3,0.8-2.7,1.5-2.8c0.5-0.1,2.5-0.5,2.5-0.5v0.1c0,0-0.9,3.7-0.1,6.1
		c0.4,1.2,1.3,1.9,2.6,1.9c1,0,2.2-0.4,3.6-1.1c1.9-1.1,2.9-2.8,3.8-4.3c0.4-0.7,0.8-1.3,1.1-1.7c0.9-0.8,1-0.9,1.4-1.2h0.1H86
		c0.4,0,1.5,0.3,1.5,0.3s2.9,0.8,3.2,0.9c0,0-1.7,1.3-2.6,2.4c-1,1.1-1.9,5-1.4,7c0.8,3.2,3.1,3.6,4.1,3.6c0.3,0,0.5,0,0.5,0h0.2
		v0.2c0,0.1-1.7,6.5-1.8,8c-0.1,1.4,1.3,7.2,2.6,10c0.1,0.3,0.3,0.5,0.1,0.8c-0.9,2-11.9,2.9-13.3,3c-0.3,0-0.5,0-0.8,0
		c-2.4,0-5.7-0.2-6.4-0.3c-0.8-0.1-1.7-0.4-1.8-0.4l-0.6-0.1v-0.1c0-0.1,1.6-6.8,1.4-9.7c-0.1-3-0.9-7-1.3-8
		c-0.1-0.2-0.2-0.4-0.3-0.6C68.5,131.4,67.8,129.9,67.9,128.4L67.9,128.4z"/>
	<path class="st14" d="M46.3,97.1c0.9-3.4,0.5-10.5-1-7.4c-0.1,2.7-1.4-0.2-2.7-2.5c0,0-1.1-1.1-1.3,0.1c0,0-1.2-1.3-1,0.2
		c-1.6-0.2-0.6,1.5,0.1,3c1.3,3.1-1.6-2.5-1.1,0.6c0,0,2.4,5.9,4,7C43.3,98.1,45.2,100,46.3,97.1z"/>
	<path class="st14" d="M117,97.3c-0.5-3.3,0.4-10.5,1.7-7.5c-0.1,2.6,1.4-0.1,2.8-2.3c0,0,1.2-1,1.3,0.2c0,0,1.3-1.2,1,0.3
		c0,0,1.3-0.1,0.6,1.2c-3.3,6.1,1-1.1,0.2,2.3c0,0-2.7,5.3-4.9,6.9C116.1,99,117.8,98.2,117,97.3z"/>
	<g>
		<path d="M81.4,91.1c0,0,0.8-4.3,6.9-3.3c0,0-2.9-0.2-3.7,1.1c0,0,2.2-1.2,3.8-0.4c1.5,0.8,1.9,3.8,1.8,4.7c-0.2,1-1.6,3.7-2.6,3.8
			c-0.8,0-1.6-0.3-2.3-0.8L81.4,91.1z"/>
		<path d="M70.6,96.1c0,0,7.2-9.8,11.6-4.1c0,0,3.1,1.1,4.5,6.2s-1.8,9.5-3.7,8.6c-1.2-0.5-2,1.6-2,1.6L70.6,96.1z"/>
		<path class="st14" d="M74.2,116.3c0,0,3,1.4,5,0.6c2.1-0.8,4.5-1.5,4.5-1.5c-0.9-0.1-2.5-3.2-2.9-8.2l-0.4,0.1l-6.5,1.7
			c0,0,0.3,2,0.4,4C74.6,114.5,74.6,116.1,74.2,116.3"/>
		<path class="st17" d="M73.9,109c0,0,0.3,2,0.4,4c3.7-0.4,5.4-3.8,6-5.6L73.9,109z"/>
		<path d="M81.3,106.4c1-1.8,1.7-3.8,2.1-5.8c0.2-1.9-1.2-8.6-8-7.3c-1.4,0.3-2.7,0.8-3.8,1.6c-1.4,1.1-3.5,3.5-0.6,9.3l0.7,2
			L81.3,106.4z"/>
		<path class="st18" d="M73,110.8c0,0,8.6-0.3,8.2-5.8c-0.4-5.4,0.5-9.1-4.9-9c-5.5,0.1-6.5,2.2-6.8,4
			C69.2,101.7,70.6,110.8,73,110.8"/>
		<g>
			<g>
				<path class="st19" d="M75.2,103.3c-0.4-0.2-0.7-0.2-1.1-0.2c-0.1,0-0.4,0-0.7,0.1s-0.5,0.1-0.7,0.3c0.2-0.4,0.7-0.6,1.1-0.7
					c0.3,0,0.4,0,0.7,0C74.8,103,75,103.1,75.2,103.3z"/>
			</g>
			<g>
				<path class="st19" d="M71.1,103.5c-0.4,0-1.5,0.2-1.8,0.6c0-0.4,0.5-0.6,0.8-0.7S70.8,103.3,71.1,103.5z"/>
			</g>
		</g>
		<path d="M72.4,96.2c0,0,2.8,6.2,6.4,6.9c3.7,0.7,5.2-0.3,5.2-0.3c-1.9-1.5-3.3-3.5-3.7-5.9C80.3,96.7,74,93,72.4,96.2"/>
		<path d="M72.9,96c-0.8,0.8-1.6,1.8-2,2.9c-0.4,1.3-1.6,4.8-2.4,4.7c0,0-0.8-4.7,1-7.3C71.4,93.9,72.9,96,72.9,96"/>
		<path d="M72,96.5c0,0,2.8,6.9,7.5,8.6c0,0-4.8-3.8-5.5-8.1C73.4,92.7,72,96.5,72,96.5"/>
		<path class="st20" d="M71.4,107.7c0,0,0.3,0.5,0.3,0.7s1.6,0.1,2.1-0.1c0.4-0.2,0.6-0.6,0.8-0.9C73.6,107.4,72.5,107.6,71.4,107.7
			"/>
	</g>
	<path class="st21" d="M51.5,217.1L51.5,217.1c0.7-0.2,1.5-0.2,2,0.2c0.8,0.4,1.4,0.8,2,1.1l2.5,0.8c2.1,0.4,2.2-0.3,2.2-0.3
		s0-0.5-0.1-1.3c-0.1-1.3,0.1-2.7,0.5-4c0.3-0.5,0.3-1,0.4-1.6c-0.1-0.3-0.1-0.7-0.3-0.9c0,0-2.4,1.5-3,0.3
		c-1.4-2.2-1.8-2.5-1.9-2.5l0,0c0,0-5,1.3-6.5,1.9c-1.8,0.7-4,1-6,0.6c-0.5,0-0.9,0.2-1.3,0.5c-0.5,0.5-0.9,1.3-0.9,1.8L51.5,217.1z
		"/>
	<path class="st21" d="M115,208.4L115,208.4c-0.2-0.7,0.1-1.3,0.5-1.9c0.5-0.7,0.9-1,1.5-1.6l1-2c0.8-1.8,0.2-2,0.2-2l-1.2-0.2
		c-1.2-0.2-2.4-0.5-3.5-1.1c-0.5-0.3-0.9-0.4-1.4-0.5c-0.3,0-0.6,0.1-0.9,0.1c0,0,0.9,2.3-0.2,2.7c-2.2,0.8-2.5,1.1-2.6,1.2l0,0
		c0,0,0.2,4.7,0.6,6.1c0.3,1.7,0.1,3.6-0.5,5.4c-0.1,0.4,0.1,0.9,0.3,1.2c0.4,0.4,1,1,1.5,1L115,208.4z"/>
</g>
<g>
	<g>
		<path class="st13" d="M133,211.2l10.9,0.4L133,212c-0.2,0-0.5-0.2-0.5-0.4C132.5,211.4,132.7,211.2,133,211.2
			C132.9,211.2,132.9,211.2,133,211.2z"/>
	</g>
	<g>
		<path class="st13" d="M131.5,215.2l6.9,0.4l-6.9,0.4c-0.2,0-0.5-0.2-0.5-0.4S131.2,215.2,131.5,215.2
			C131.4,215.2,131.5,215.2,131.5,215.2z"/>
	</g>
	<g>
		<path class="st13" d="M163.9,153.4l10.9,0.4l-10.9,0.4c-0.2,0-0.5-0.2-0.5-0.4S163.6,153.4,163.9,153.4
			C163.8,153.4,163.8,153.4,163.9,153.4z"/>
	</g>
	<g>
		<path class="st13" d="M162.5,157.5l6.9,0.4l-6.9,0.4c-0.2,0-0.5-0.2-0.5-0.4C162,157.7,162.2,157.5,162.5,157.5
			C162.4,157.5,162.5,157.5,162.5,157.5z"/>
	</g>
	<g>
		<path class="st13" d="M195.1,91.2c-0.3-0.1-0.5-0.3-0.5-0.5c0-0.2,0.3-0.4,0.5-0.4l6.6,0.5L195.1,91.2L195.1,91.2z"/>
	</g>
	<g>
		<path class="st13" d="M192.9,95.5c-0.3,0-0.5-0.3-0.5-0.5c0-0.2,0.3-0.4,0.5-0.4l18,0.4L192.9,95.5L192.9,95.5z"/>
	</g>
</g>
<g>
	<g>
		<path class="st18" d="M156.3,137.8c0.1-1,0.2-1.8,0.2-2.6c0-0.3,0.1-0.6,0.1-0.9c0.6-2.3,1.2-4.4,1.9-6.3
			c1.8-3.7,15.1-11.5,18.7-14.8c3.7-3.5,9.9-16.4,9.9-16.4s2.8-10.5,0.2-7.5c-0.4,0.5-0.8,1-1.1,1.4c0-1.3-1.2,1.3-1.1,2.3
			c-0.5,1.4-0.5,2.4-0.5,2.4s-7.8,10.6-12.5,14.2c-4.6,3.7-9.6,5.5-10.2,5.7s-1.7,0.4-3.9,0c-0.6-0.1-1.1-0.2-1.4-0.3
			c-1.5-0.6-3.2-0.9-4.9-1.1c-1.8-0.3-2.6-0.8-3.2-2.2c-0.1-0.3-0.1-1-0.1-1.4c0-1.3-5.4-0.5-5.4,0.6c0,0.8-0.1,1.5-0.4,1.8
			c-0.4,0.5-1.3,1.1-2.3,1.5c-0.3,0.1-0.8,0.2-1.5,0.4c-2.1,0.4-3.4,0.3-3.9,0c-3.2-2-7.4-4.7-10.1-6.2
			c-5.2-2.8-12.5-13.8-12.5-13.8s0-0.7-0.3-1.7c0.1-1.1-1.8-3.8-2.4-4.5c-2.6-2.9,0.2,7.5,0.2,7.5s6.3,13,9.9,16.4
			s16,10.1,15.7,12.2c-0.1,0.7-0.3,1.5-0.4,2.9c-0.1,0.6,0.6,2.6,0.9,3.1c1.7,3.2,1.5,7.2,1.7,6.8c0.1,1.5,0.1,3.6,0.1,5
			c0,0.7,0,1.3-0.1,1.8h-0.1l0,0c0,0.1-0.8,5-1.1,8.7h23.6c0-0.7-0.1-1.4-0.1-2.3v-0.2c-0.2-2.7-3.5-9.1-3.6-9.3
			c0-0.5,0.1-1,0.1-1.5C156.3,138.9,156.3,138.3,156.3,137.8z"/>
		<path class="st22" d="M136.3,156.3c0.3,1.5,0.9,3.6,1.8,6.2c-3,7.1-8.1,18.8-9,21.4c-0.7,2.1-2.3,8.2-3.9,14
			c-1.3,4.8-2.4,9.3-2.9,11c-0.8,2.7-1,4.2-0.7,4.9c0.1,0.3,0.4,0.4,0.7,0.5c0.1,0,0.1,0,0.2,0c1.3,0,4.7-2.4,4.8-2.5l0,0
			c0,0,2.1-4.5,4.2-8.4c2.1-4.1,3.1-9.1,3.2-11.3c0.1-2.4,0.9-4.8,0.9-4.8c0.2-0.5,0.3-0.9,3.1-4.6c0.8-1,2.6-3.4,4.9-6.3
			c0.3,0.7,0.5,1.3,0.7,1.9c1.7,4.3,2.7,6.9,3.6,7.7c1.2,1.3,25.1,15,26.1,15.6c0.1,0.1,3.7,2.6,5.5,2.6c0.4,0,0.7-0.1,0.9-0.4
			c0.3-0.4,0.3-1.2-0.1-2.2c-1-3-5.3-7.3-12.8-12.5c-2-1.4-4.3-2.4-6.2-3.4c-2.3-1.1-4.3-2-5.1-3.1c-0.7-1-1.8-9.6-2.8-18.6
			c3-4,5.5-7.1,5.8-7.7c0.5-1,0.6-2,0.5-3.5l-23.4,0C136.3,154.2,136.1,155.4,136.3,156.3z"/>
	</g>
	<path class="st22" d="M137.4,144.2l3.6-0.4l16.2-3.1c0,0,2.5,6.7,2.9,9.5c0.4,2.8,0,4.7-1.2,7c-0.3,0.6-2.6,3-6,7.4h-0.1
		c-1-1.7-3.5-2.4-5.3-3c-2.6-0.9-5.3-1.8-7.9-2.3l-1.3,2.9c-1.1-2.9-1.6-4.6-1.8-6.2C135.7,153.3,137.4,144.2,137.4,144.2
		L137.4,144.2z"/>
	<path class="st23" d="M134.7,127c0.2-1.8,1.2-8.1,1.5-9.5c0.2-1.3,0.8-2.7,1.5-2.8c0.5-0.1,2.5-0.5,2.5-0.5v0.1
		c0,0-0.9,3.8-0.1,6.2c0.4,1.2,1.3,1.9,2.6,1.9c1,0,2.2-0.4,3.7-1.1c1.9-1.1,2.9-2.8,3.9-4.4c0.4-0.7,0.8-1.3,1.1-1.7
		c0.9-0.8,1-0.9,1.4-1.2h0.1h0.1c0.4,0,1.5,0.3,1.5,0.3s2.9,0.8,3.2,0.9c0,0-1.7,1.3-2.6,2.5c-1,1.1-1.9,5.1-1.4,7.1
		c0.8,3.2,3.1,3.7,4.2,3.7c0.3,0,0.5,0,0.5,0h0.2v0.2c0,0.1-1.7,6.6-1.8,8.1c-0.1,1.4,1.3,7.3,2.7,10.2c0.1,0.3,0.3,0.5,0.1,0.8
		c-0.9,2-12.1,2.9-13.5,3c-0.3,0-0.5,0-0.8,0c-2.4,0-5.8-0.2-6.5-0.3c-0.8-0.1-1.7-0.4-1.8-0.4l-0.6-0.1v-0.1c0-0.1,1.6-6.9,1.4-9.9
		c-0.1-3-0.9-7.1-1.3-8.1c-0.1-0.2-0.2-0.4-0.3-0.6C135.3,130.1,134.6,128.5,134.7,127L134.7,127z"/>
	<path class="st18" d="M112.8,95.2c0.9-3.5,0.5-10.7-1-7.5c-0.1,2.7-1.4-0.2-2.7-2.5c0,0-1.1-1.1-1.3,0.1c0,0-1.2-1.3-1,0.2
		c-1.6-0.2-0.6,1.5,0.1,3c1.3,3.1-1.6-2.5-1.1,0.6c0,0,2.4,6,4.1,7.1C109.7,96.3,111.7,98.2,112.8,95.2z"/>
	<path class="st18" d="M184.5,95.4c-0.5-3.4,0.4-10.7,1.7-7.6c-0.1,2.6,1.4-0.1,2.8-2.3c0,0,1.2-1,1.3,0.2c0,0,1.3-1.2,1,0.3
		c0,0,1.3-0.1,0.6,1.2c-3.4,6.2,1-1.1,0.2,2.3c0,0-2.7,5.4-5,7C183.6,97.2,185.4,96.4,184.5,95.4z"/>
	<g>
		<path class="st24" d="M150,91.2c0,0,1-3.2,5.7-1.9c0,0-2.2-0.4-3,0.5c0,0,1.8-0.7,3,0.1c1.1,0.8,1.1,3.1,0.9,3.8
			c-0.3,0.7-1.6,2.7-2.4,2.7c-0.6-0.1-1.2-0.4-1.7-0.8L150,91.2z"/>
		<path class="st24" d="M139.1,93.5c0,0,8.4-9,12-2.7c0,0,2.9,1.5,3.7,6.8c0.7,5.3-3,9.4-4.8,8.2c-1.1-0.7-2.2,1.4-2.2,1.4
			L139.1,93.5z"/>
		<path class="st18" d="M141.1,114.7c0,0,3,1.4,5.1,0.6c2.1-0.8,4.6-1.5,4.6-1.5c-0.9-0.1-2.5-3.2-2.9-8.3l-0.4,0.1l-6.6,1.7
			c0,0,0.3,2,0.4,4.1C141.5,112.9,141.5,114.5,141.1,114.7"/>
		<path class="st17" d="M140.8,107.3c0,0,0.3,2,0.4,4.1c3.8-0.4,5.5-3.9,6.1-5.7L140.8,107.3z"/>
		<path class="st24" d="M148.7,105.3c1.3-1.7,2.3-3.7,2.9-5.7c0.5-1.9-0.1-9-7.3-8.6c-1.5,0.1-2.9,0.5-4.1,1.2
			c-1.6,1-4.1,3.2-1.8,9.5l0.5,2.2L148.7,105.3z"/>
		<path class="st18" d="M139.5,108.8c0,0,8.9,0.8,9.2-4.9c0.3-5.6,1.7-9.3-3.9-9.9c-5.7-0.6-7,1.4-7.5,3.2
			C136.8,98.9,137,108.5,139.5,108.8"/>
		<g>
			<g>
				<path class="st19" d="M142.8,101.3c-0.4-0.3-0.7-0.3-1.1-0.3c-0.1,0-0.4-0.1-0.7,0s-0.5,0-0.8,0.2c0.3-0.4,0.8-0.5,1.2-0.6
					c0.3,0,0.4,0.1,0.7,0.1C142.4,100.9,142.6,101.1,142.8,101.3z"/>
			</g>
			<g>
				<path class="st19" d="M138.5,101c-0.4-0.1-1.6,0-1.9,0.4c0.1-0.4,0.6-0.6,0.9-0.6C137.8,100.7,138.2,100.7,138.5,101z"/>
			</g>
		</g>
		<path class="st24" d="M140.8,93.6c0,0,2.1,6.8,5.7,8c3.7,1.2,5.4,0.4,5.4,0.4c-1.8-1.8-3-4-3.1-6.6
			C148.9,95.1,142.9,90.5,140.8,93.6"/>
		<path class="st24" d="M141.1,93.5c-0.9,0.8-1.8,1.8-2.3,2.9c-0.6,1.4-2.2,5.1-2.9,4.9c0,0-0.1-5.2,2-7.9
			C139.9,91,141.1,93.5,141.1,93.5"/>
		<path class="st24" d="M140.4,93.7c0,0,1.3,7.7,5.6,10.5c0,0-4-5-3.7-9.5C142.7,90.2,140.4,93.7,140.4,93.7"/>
		<path class="st20" d="M138.3,105.4c0,0,0.2,0.6,0.2,0.8s1.6,0.3,2.2,0.2c0.4-0.2,0.7-0.5,0.9-0.8
			C140.6,105.3,139.4,105.4,138.3,105.4"/>
	</g>
	<path class="st25" d="M118,217.1L118,217.1c0.7-0.2,1.5-0.2,2,0.2c0.8,0.4,1.4,0.8,2,1.1l2.5,0.8c2.1,0.4,2.2-0.3,2.2-0.3
		s0-0.5-0.1-1.3c-0.1-1.3,0.1-2.7,0.5-4.1c0.3-0.5,0.3-1,0.4-1.6c-0.1-0.3-0.1-0.7-0.3-0.9c0,0-2.4,1.5-3,0.3
		c-1.4-2.2-1.8-2.5-1.9-2.5l0,0c0,0-5.1,1.3-6.6,1.9c-1.8,0.7-4.1,1-6.1,0.6c-0.5,0-0.9,0.2-1.3,0.5c-0.5,0.5-0.9,1.3-0.9,1.8
		L118,217.1z"/>
	<path class="st25" d="M182.5,208.2L182.5,208.2c-0.2-0.7,0.1-1.3,0.5-1.9c0.5-0.7,0.9-1,1.5-1.6l1-2c0.8-1.8,0.2-2,0.2-2l-1.2-0.2
		c-1.2-0.2-2.4-0.5-3.6-1.1c-0.5-0.3-0.9-0.4-1.4-0.5c-0.3,0-0.6,0.1-0.9,0.1c0,0,0.9,2.3-0.2,2.7c-2.2,0.8-2.5,1.1-2.6,1.2l0,0
		c0,0,0.2,4.8,0.6,6.2c0.3,1.7,0.1,3.7-0.5,5.5c-0.1,0.4,0.1,0.9,0.3,1.2c0.4,0.4,1,1,1.5,1L182.5,208.2z"/>
</g>
<g>
	<path class="st26" d="M149.2,157.9c-0.3,0-0.6,0-0.9,0c-10.4-0.2-17.8-2.8-25-5.2c-6.9-2.4-13.4-4.6-22.3-4.8
		c-8.3-0.2-17,0.8-27.6,2.1c-13.1,1.7-30.9,0.5-45-12.9c0,0,6.3,2.2,6-2.6c5.9,8.7,26.4,12,38.3,10.4c10.8-1.4,19.7-2.4,28.3-2.2
		c9.8,0.2,16.9,2.7,23.9,5.1c7.1,2.5,13.8,4.8,23.4,5c10.1,0.2,33.2-7.3,32.8-6.8c-3.1,4,4.3,3.4,4.3,3.4
		C176.7,153,160,157.9,149.2,157.9z"/>
</g>
</svg>
