<?xml version="1.0" encoding="utf-8"?>
<!-- Generator: Adobe Illustrator 25.2.0, SVG Export Plug-In . SVG Version: 6.00 Build 0)  -->
<svg version="1.1" id="Ebene_1" xmlns="http://www.w3.org/2000/svg" xmlns:xlink="http://www.w3.org/1999/xlink" x="0px" y="0px"
	 viewBox="0 0 220 220" style="enable-background:new 0 0 220 220;" xml:space="preserve">
<style type="text/css">
	.st0{display:none;}
	.st1{display:inline;fill:#4C4B73;}
	.st2{display:inline;fill:#3A3A5B;}
	.st3{display:inline;fill:#2C2C2C;}
	.st4{display:inline;fill:#FFAD73;}
	.st5{display:inline;fill:#1F3866;}
	.st6{display:inline;fill:#5B58EE;}
	.st7{display:inline;fill:#2E51C0;}
	.st8{display:inline;fill:#FFA166;}
	.st9{display:inline;fill:#FFFFFF;}
	.st10{display:inline;}
	.st11{display:inline;fill:#1A2C70;}
	.st12{display:inline;fill:#9529F9;}
	.st13{fill:#5B58EE;}
	.st14{fill:#2E51C0;}
	.st15{fill:#FCFCFC;}
	.st16{fill:#233862;}
	.st17{fill:#FFB27D;}
	.st18{fill:#F29E64;}
	.st19{fill:#ED985F;}
	.st20{fill:#FFFFFF;}
	.st21{fill:#A87C5E;}
	.st22{fill:#E5E5E5;}
	.st23{fill:#1A2C70;}
	.st24{fill:#9529F9;}
	.st25{fill:#FFA166;}
	.st26{fill:#F20A0A;}
</style>
<g>
	<g class="st0">
		<path class="st1" d="M82.3,149.4c0.5-3.3,3.7-5.6,7.2-5c0.9,0.1,1.7,0.4,2.4,0.9l1.4,0.8l-0.1,0.2c1.3,1.3,1.9,3.2,1.6,5.1
			c-0.5,3.3-3.7,5.6-7.2,5c-0.2,0-0.4-0.1-0.6-0.1l-0.1,0.2l-1.6-0.9l0,0C83.1,154.3,81.9,151.9,82.3,149.4"/>
		<path class="st2" d="M96.1,152.2c0.5-3.3-1.8-6.4-5.3-7c-3.4-0.5-6.7,1.7-7.2,5s1.8,6.4,5.3,7C92.4,157.7,95.6,155.5,96.1,152.2"
			/>
		<path class="st3" d="M88.7,151.3c0-0.7,0.8-1.5,1.8-1.3c0.4,0.1,11.1,5.3,11.1,5.3l-1.9,2.9l-10.5-5.9
			C89.2,152.3,88.7,152,88.7,151.3"/>
		<path class="st4" d="M95.3,154.9c-0.2,0-3.5,1.6-5.3-0.8c-0.8-1.1-0.2-2.1,0.6-2.4c0.6-0.2,1.5,0.5,1.9,0.8
			C93.2,153.2,95.3,154.9,95.3,154.9"/>
		<path class="st5" d="M85.4,219.9c-1.1-0.7-0.5-5.9-0.5-5.9s5.3-4.3,6.1-1s5.1,4.7,7.5,5.1c1.7,0.3,2.2,1.2,2.4,1.8L85.4,219.9
			L85.4,219.9z"/>
		<path class="st6" d="M91.4,215.7c-1.7,0.6-5.1,2.3-7.2,1.5c-1.4-0.5-9-22.7-9.5-32.4c0-0.5-0.1-1.1-0.2-1.8
			c-0.1-0.3-0.1-0.7-0.2-1.1c-0.7-3.9-2.3-10.1-3.8-16.4c-2.1-8.5-4.1-17-4.1-20.3c0.1-6.3,18.8-1.3,18.8-1.3s1.1,4.5,1.5,11.2
			c0,0.5,0,1,0.1,1.5c0.5,14.9,1.9,40,5.7,57.4C92.6,214.7,92.2,215.5,91.4,215.7"/>
		<path class="st7" d="M68.3,143.7l2.2,21.8c1.5,6.3,3.1,12.5,3.8,16.4c0.1,0.4,0.1,0.8,0.2,1.1l12.2-27.9c-0.2-3.6-0.6-6.6-1-8.6
			c-0.1-0.6-0.2-1.1-0.3-1.5c-0.1-0.7-0.2-1.1-0.2-1.1L68.3,143.7z"/>
		<path class="st4" d="M76.4,102.2c0,0,6.3,0.2,8.6,3c2.3,2.8,5.1,22.6,6.7,26.7c1.6,4.1,3.4,18.3,3.4,18.9l-2.5,0.5
			c0,0-7-14.7-7.6-18c-0.6-3.2-8.2-19.3-8.1-20.4C76.9,111.7,76.4,102.2,76.4,102.2"/>
		<path class="st4" d="M60.6,109.7c0.3-2.1-1.9-3.6-3.7-2.7c-2.4,1.1-5,2.7-5.8,4.4c-1.6,3.3-5,17.8-4.7,23.2c0,0,2.9,0.8,5-0.1
			c2.1-0.9,9.1-23,9.1-23L60.6,109.7z"/>
		<path class="st5" d="M68.8,219.9c0,0-0.3-2.6-1.1-4.1c-0.8-1.5-5.6-0.6-5.6-0.6s-1,0.8-1.2,4.7L68.8,219.9z"/>
		<path class="st6" d="M78.5,145.3l-9.9,71.6c0,0-4.3,1-7.7,0.2c0,0-2.9-38.1-2.7-47.3c0.2-9.2,0.4-22.2,1.5-25.1
			C61.4,140.1,78.5,145.3,78.5,145.3"/>
		<path class="st4" d="M74.9,98.9v0.9c0,0,0.3,2.9-3.3,3.3c-3.6,0.4-6.3-1.1-6.2-3.4c0.3-1.7,0.7-2.9,0.7-4.4c0-0.5,0-1.1-0.1-1.7
			l6.9-0.1l2,0.3V98.9z"/>
		<path class="st8" d="M74.9,93.9v3.6c-2.6,1-8-0.7-8.4-2.8l6.4-1.2L74.9,93.9z"/>
		<path class="st4" d="M65.4,92.6c0.8,4.3,6.4,4.2,8.8,3.9c0.7-0.1,1.1-0.2,1.1-0.2c0.8-0.2,1.2-1.4,1.4-3c0.4-3.1-0.1-7.7-0.6-8.9
			c-0.8-1.8-2.3-3.7-7.9-2.3C62.5,83.6,64.4,87.1,65.4,92.6"/>
		<path class="st9" d="M72.5,93.6c0,0,0.5,0.8,2,0.6c1-0.1,1.1-1,1.1-1S74.2,92.9,72.5,93.6"/>
		<path class="st9" d="M84.6,117.3c4-0.3,5.9-2.2,5.9-2.2s-3.6-9.9-5.6-11.6s-10.1-3.2-10.1-3.2c-0.1,0-0.1-0.1-0.1-0.1l0,0
			c0,0.9-1.4,2.6-3.6,2.7c-2.6,0.2-5.8-1.7-5.8-3.2c0,0-6.2,0.4-9.4,2.2c-3.3,1.8-7.2,10.6-7.2,10.6s1.3,4.3,9.5,5.7l-0.6,28.9
			c15.1,5,29-0.2,29-0.2c0.3,0-1.8-16.6-1.9-20.7C84.7,123.8,84.6,120.8,84.6,117.3"/>
		<path class="st10" d="M77.4,84.4c1-1,0.7-2.7-0.5-3.3c-1.3-0.7-3.2-1.6-4.9-2.1c-2.5-0.7-5,0.1-5.9,0.6c0-0.2,0.1-0.4,0.2-0.6
			c0,0-0.4,0.3-0.5,0.7l-0.1,0.1c0,0-0.5-0.1-0.8,0.1c0,0,0.2,0,0.3,0.1l0,0c-3.7,1.8-4.9,6.1-2.8,9c1.3,1.7,3.6,5.3,3.6,5.3
			s-0.4-1-0.5-1.8c0-0.2,0-0.5,0.1-0.7c0.2-0.4,0.2-0.9,0-1.3c-0.3-0.6-0.3-1.3,0.2-1.5c0.6-0.3,1.1,0.1,1.4,0.6
			c0.2,0.4,0.7,0.5,1.1,0.4l0,0c1.6-0.6,0.3-2.5,1.6-3.6c1.4-1.1,5-0.5,6.2-1C76.7,85,77.1,84.7,77.4,84.4"/>
		<path class="st1" d="M90.6,154.4c0.6-3.6,4.1-6,7.8-5.5c1,0.2,1.8,0.5,2.6,1l1.5,0.9l-0.2,0.2c1.4,1.4,2.1,3.4,1.7,5.5
			c-0.6,3.6-4.1,6-7.8,5.5c-0.2,0-0.5-0.1-0.7-0.1l-0.1,0.2l-1.8-1l0,0C91.5,159.7,90.2,157.1,90.6,154.4"/>
		<path class="st2" d="M105.6,157.4c0.6-3.6-2-7-5.7-7.6s-7.2,1.9-7.8,5.5c-0.6,3.6,2,7,5.7,7.6C101.6,163.4,105.1,161,105.6,157.4"
			/>
		<path class="st3" d="M96.6,155.7c0.2-1.2,1.3-2,2.5-1.8c0.3,0,0.6,0.2,0.8,0.3l0.5,0.3v0.1c0.4,0.5,0.7,1.1,0.6,1.8
			c-0.2,1.2-1.3,2-2.5,1.8c-0.1,0-0.2,0-0.2,0v0.1l-0.6-0.3l0,0C96.9,157.4,96.5,156.6,96.6,155.7"/>
		<path class="st1" d="M101.5,156.7c0.2-1.2-0.7-2.3-1.9-2.5c-1.2-0.2-2.3,0.6-2.5,1.8s0.7,2.3,1.9,2.5
			C100.2,158.6,101.3,157.8,101.5,156.7"/>
		<path class="st4" d="M46.4,134.5c0,0,10.2,3.9,24.2,2.2v-2.9c0,0-15.1-3-18-5.6C52.5,128.2,47.2,130.4,46.4,134.5"/>
		<path class="st1" d="M81.7,129.8c-0.9-3.2-4.3-5.1-7.7-4.2c-0.9,0.2-1.6,0.6-2.3,1.1l-1.3,1l0.2,0.2c-1.1,1.4-1.6,3.3-1.1,5.2
			c0.9,3.2,4.3,5.1,7.7,4.2c0.2-0.1,0.4-0.1,0.6-0.2l0.2,0.2l1.5-1.1l0,0C81.4,134.7,82.4,132.2,81.7,129.8"/>
		<path class="st2" d="M68.3,134c-0.9-3.2,1.2-6.6,4.5-7.5c3.4-0.9,6.8,1,7.7,4.2c0.9,3.2-1.2,6.6-4.5,7.5
			C72.6,139.1,69.2,137.2,68.3,134"/>
		<path class="st3" d="M75.6,132.3c-0.1-0.7-0.9-1.4-1.9-1.1c-0.4,0.1-10.5,6.5-10.5,6.5l2.2,2.7l9.8-7
			C75.1,133.4,75.6,133,75.6,132.3"/>
		<path class="st4" d="M73.3,137.2c0.1-0.2,3-2.4,1.7-5c-0.6-1.2-1.8-1.1-2.4-0.6c-0.5,0.4-0.3,1.6-0.1,2.1
			C72.8,134.5,73.3,137.2,73.3,137.2"/>
		<path class="st1" d="M74,135.6c-0.9-3.5-4.7-5.6-8.3-4.6c-0.9,0.3-1.8,0.7-2.5,1.2l-1.4,1l0.2,0.2c-1.2,1.6-1.7,3.6-1.2,5.7
			c0.9,3.5,4.7,5.6,8.3,4.6c0.2-0.1,0.5-0.1,0.7-0.2l0.2,0.2l1.6-1.2l0,0C73.6,140.9,74.7,138.2,74,135.6"/>
		<path class="st2" d="M59.4,140.2c-0.9-3.5,1.3-7.2,4.9-8.2c3.7-1,7.4,1.1,8.3,4.6s-1.3,7.2-4.9,8.2
			C64,145.7,60.3,143.7,59.4,140.2"/>
		<path class="st3" d="M68.2,137.5c-0.3-1.1-1.5-1.8-2.7-1.5c-0.3,0.1-0.6,0.2-0.8,0.4l-0.5,0.3l0.1,0.1c-0.4,0.5-0.6,1.2-0.4,1.8
			c0.3,1.1,1.5,1.8,2.7,1.5c0.1,0,0.1,0,0.2-0.1l0.1,0.1l0.5-0.4l0,0C68.1,139.3,68.4,138.4,68.2,137.5"/>
		<path class="st1" d="M63.4,139c-0.3-1.1,0.4-2.3,1.6-2.6s2.4,0.3,2.7,1.5c0.3,1.1-0.4,2.3-1.6,2.6S63.7,140.1,63.4,139"/>
		<path class="st8" d="M138.5,105.7c0,0-7.4,0.4-8.2,3.5c-1.3,4.9-2.5,16.2-2.5,16.2l-7.5-9.3l-2.7,1.3c0,0,6.4,17.1,11.7,16.3
			C134.8,132.9,138.5,105.7,138.5,105.7"/>
		<path class="st10" d="M146.1,82.8c0,0,1-3.9,6.6-2.7c0,0-2.7-0.3-3.5,0.7c0,0,2.2-1,3.5-0.2s1.6,3.6,1.4,4.4
			c-0.2,0.8-1.7,3.4-2.7,3.4s-2.2-0.9-2.2-0.9L146.1,82.8z"/>
		<path class="st10" d="M135.9,86.8c0,0,7.2-8.6,11-3.1c0,0,2.8,1.2,3.9,6c1,4.9-2.2,8.7-3.9,7.7c-1.1-0.6-1.9,1.3-1.9,1.3
			L135.9,86.8z"/>
		<path class="st4" d="M138.2,105.7c0,0,2.6,1.4,4.6,0.8c1.9-0.5,4.3-1.1,4.3-1.2c-0.8-0.2-2.2-3.1-2.2-7.8l-0.4,0.1l-6.1,1.2
			c0,0,0.1,1.9,0.1,3.7C138.6,104.1,138.5,105.5,138.2,105.7"/>
		<path class="st8" d="M138.5,98.9c0,0,0.1,1.9,0.1,3.7c3.4-0.1,5.2-3.2,5.9-4.9L138.5,98.9z"/>
		<path class="st10" d="M145.2,97c0,0,1.8-2.8,2.2-5.2c0.3-1.7-0.6-8.1-7-7.2c0,0-1.9,0.2-3.6,1.4c-1.4,0.9-3.4,3-1.2,8.5l0.6,1.9
			L145.2,97z"/>
		<path class="st4" d="M137.3,100.6c0,0,8,0.1,8-4.9s1-8.4-4.1-8.7c-5.1-0.3-6.1,1.6-6.5,3.3C134.3,92,135.2,100.4,137.3,100.6"/>
		<path class="st10" d="M137.6,86.9c0,0,2.2,5.9,5.6,6.7c3.4,0.9,4.8,0,4.8,0s-2.6-2.1-3.1-5.7C144.9,88,139.3,84.1,137.6,86.9"/>
		<path class="st10" d="M138.2,87.4c0,0-1.6,1.3-2,2.6c-0.4,1.3-0.6,3.9-1.3,3.8c0,0-1.7-4,0.2-6.3C137,85.2,138.2,87.4,138.2,87.4"
			/>
		<path class="st4" d="M132,141.8c4.1-13.1-0.4-15.9,0-22.4s5.5-13.6,5.5-13.6s6.1-0.6,9.3-0.4c2.9,0.2,7.8,9.1,6.5,17.3
			c-0.2,1-0.4,2-0.8,3c-1.5,4.2-2.3,5.9-2.2,7.4c0,2,1.4,3.8,4.2,10.1C156.1,146.7,127.8,155.1,132,141.8"/>
		<path class="st4" d="M142.5,171.2c-1.1,6.4-2,11.3-2,11.3c2.1,8.7-1.1,19.9-3.7,27c-0.6,1.6-1.2,3-1.7,4.1l0,0l0,0l0,0l0,0v0.1
			l0,0c-0.7,1.6-1.2,2.5-1.2,2.5l-3.9,0.2c0,0,0.3-1.7,0.6-4.5l0,0c0.1-0.9,0.2-1.9,0.3-3.1c0.6-6.4,1-16.1-0.4-25.8
			c-3.4-23.8,1.1-39.7,1.1-39.7l14.3,4.6l0.7,0.2C145.4,154.9,143.8,164,142.5,171.2"/>
		<path class="st4" d="M146.6,105.2c0,0,6.9,0.7,7.7,2.5c2.6,5.7,5.2,25,5.9,26.7s2.9,11,4.8,15.6l-2.4,0.7c0,0-8-13.2-8.7-16.6
			s-4.7-17.4-4.7-17.4L146.6,105.2z"/>
		<path class="st9" d="M152.1,121l0.1,6c0,0-5.2-1.5-10.8-2c-1.4-0.1-2.7-0.2-4.1-0.1c-1.7,0.1-3.2,0.3-4.6,0.7c0,0-0.9-3.9-1.8-8.4
			c0-0.2-0.1-0.3-0.1-0.5c-0.5-4.4,3.4-7.9,1.7-9.7c0,0,1.4-0.8,5-1.2c0,0-2.7,4.8-2.5,6s10.7,0.1,11.5-0.5c0.7-0.7,1.9-5.7,1.9-5.7
			s3.7,0.4,5.5,1.7c0,0-1.2,1.5-2,3.4c-0.2,0.5-0.4,1.1-0.5,1.7c-0.3,1.5-1,4.4,0.7,6.6L152.1,121z"/>
		<path class="st8" d="M145.3,155.7c-1.3,6.7-1.5,8.3-2.7,15.5c-7.8-13.7-6.7-17.3-6.7-17.3L145.3,155.7z"/>
		<path class="st4" d="M169.9,211.7c0,0.3,0,0.5,0,0.7c-0.1,2.3-0.3,3.7-0.3,3.7l-3.8-1.3c0,0-0.2-0.5-0.5-1.5
			c-0.1-0.4-0.3-0.8-0.4-1.3l0,0c-0.3-0.9-0.7-2-1.1-3.2c-2.6-7.3-6.9-19-9.4-21.7c-7.2-7.7-17.9-41.4-17.9-41.4l14.4-4.7
			c2.1,2.1,3.9,5.9,5.3,10.5c3.5,11.5,4.9,27.4,5.1,29.7l0,0c0,0.2,0.1,0.3,0.2,0.5c6.7,7.5,8.3,18.4,8.5,25.9
			C169.9,209.2,169.9,210.5,169.9,211.7"/>
		<path class="st11" d="M142,156.9l-2.5-0.3c-1.2-0.4-2.4-0.7-3.5-0.9c-3.5-0.6-6.2-0.2-6.2-0.2c1.1-11.6,2.7-15.3,2.7-15.3l5.2,9.1
			L142,156.9z"/>
		<path class="st5" d="M142,156.9l-2.5-0.3c-1.2-0.4-2.4-0.7-3.5-0.9c-0.2-2.2,0.7-4.6,1.7-6.4L142,156.9z"/>
		<path class="st11" d="M132.4,140.2c0,0,3.5,2.6,7,2.4c3.5-0.2,13.7-2.6,13.7-2.6s1.9,2.7,3.2,8.2c1.4,5.6,1.4,9.8,1.4,9.8
			s-12-1.6-16.8,1L132.4,140.2z"/>
		<path class="st10" d="M137.9,87.6c0,0,1.6,6.2,5.8,8.1c0,0-4.3-3.8-4.6-7.8C138.7,83.8,137.9,87.6,137.9,87.6"/>
		<path class="st1" d="M173.5,151.5c-0.6-2.2-3-3.5-5.3-2.9c-0.6,0.2-1.1,0.4-1.6,0.8l-0.9,0.7l0.1,0.1c-0.8,1-1.1,2.3-0.7,3.6
			c0.6,2.2,3,3.5,5.3,2.9c0.1,0,0.3-0.1,0.4-0.1l0.1,0.1l1-0.8l0,0C173.3,154.8,174,153.1,173.5,151.5"/>
		<path class="st2" d="M164.3,154.3c-0.6-2.2,0.8-4.5,3.1-5.2c2.3-0.6,4.7,0.7,5.3,2.9s-0.8,4.5-3.1,5.2
			C167.2,157.9,164.9,156.6,164.3,154.3"/>
		<path class="st3" d="M169.3,153.2c0-0.5-0.6-1-1.3-0.7c-0.3,0.1-7.2,4.5-7.2,4.5l1.5,1.8l6.8-4.8
			C169,153.9,169.3,153.7,169.3,153.2"/>
		<path class="st1" d="M112.6,110.5c0.6-2.2,3-3.5,5.3-2.9c0.6,0.2,1.1,0.4,1.6,0.8l0.9,0.7l-0.1,0.1c0.8,1,1.1,2.3,0.7,3.6
			c-0.6,2.2-3,3.5-5.3,2.9c-0.1,0-0.3-0.1-0.4-0.1l-0.1,0.1l-1-0.8l0,0C112.8,113.9,112.1,112.2,112.6,110.5"/>
		<path class="st2" d="M121.8,113.4c0.6-2.2-0.8-4.5-3.1-5.2c-2.3-0.6-4.7,0.7-5.3,2.9c-0.6,2.2,0.8,4.5,3.1,5.2
			C118.9,116.9,121.2,115.6,121.8,113.4"/>
		<path class="st3" d="M116.8,112.3c0-0.5,0.6-1,1.3-0.7c0.3,0.1,7.2,4.5,7.2,4.5l-1.5,1.8l-6.8-4.8
			C117.1,113,116.8,112.8,116.8,112.3"/>
		<path class="st8" d="M117.7,117.4c0,0-2.5-3.1-0.7-4.7s4.1-1.1,4.2-0.2s-0.8,3.6-0.8,3.6L117.7,117.4z"/>
		<path class="st4" d="M164.9,149.5c0,0,0.7,1.7,1.5,2.2s1.8,1.6,1.6,2.6c-0.2,0.9-0.4,2.4-1.4,2.4s-3.2-4.3-3.5-5.1s-0.5-1-0.5-1
			L164.9,149.5z"/>
		<path class="st1" d="M168.2,155.5c-0.6-2.4-3.2-3.8-5.7-3.2c-0.6,0.2-1.2,0.5-1.7,0.8l-1,0.7l0.1,0.2c-0.8,1.1-1.2,2.5-0.8,3.9
			c0.6,2.4,3.2,3.8,5.7,3.2c0.2,0,0.3-0.1,0.5-0.1l0.1,0.1l1.1-0.8l0,0C167.9,159.1,168.7,157.3,168.2,155.5"/>
		<path class="st2" d="M158.1,158.6c-0.6-2.4,0.9-4.9,3.4-5.6c2.5-0.7,5.1,0.7,5.7,3.2c0.6,2.4-0.9,4.9-3.4,5.6
			C161.3,162.4,158.8,161,158.1,158.6"/>
		<path class="st3" d="M164.2,156.8c-0.2-0.8-1-1.2-1.9-1c-0.2,0.1-0.4,0.2-0.6,0.3l-0.3,0.2v0.1c-0.3,0.4-0.4,0.8-0.3,1.3
			c0.2,0.8,1,1.2,1.9,1c0.1,0,0.1,0,0.1,0l0,0l0.4-0.3l0,0C164.1,158,164.3,157.4,164.2,156.8"/>
		<path class="st1" d="M160.9,157.8c-0.2-0.8,0.3-1.6,1.1-1.8s1.7,0.2,1.9,1s-0.3,1.6-1.1,1.8C162,159,161.1,158.6,160.9,157.8"/>
		<path class="st1" d="M117.9,114.5c0.6-2.4,3.2-3.8,5.7-3.2c0.6,0.2,1.2,0.5,1.7,0.8l1,0.7l-0.1,0.2c0.8,1.1,1.2,2.5,0.8,3.9
			c-0.6,2.4-3.2,3.8-5.7,3.2c-0.2,0-0.3-0.1-0.5-0.1l-0.1,0.1l-1.1-0.8l0,0C118.1,118.2,117.4,116.3,117.9,114.5"/>
		<path class="st2" d="M128,117.7c0.6-2.4-0.9-4.9-3.4-5.6s-5.1,0.7-5.7,3.2c-0.6,2.4,0.9,4.9,3.4,5.6
			C124.7,121.5,127.3,120.1,128,117.7"/>
		<path class="st3" d="M121.9,115.9c0.2-0.8,1-1.2,1.9-1c0.2,0.1,0.4,0.2,0.6,0.3l0.3,0.2v0.1c0.3,0.4,0.4,0.8,0.3,1.3
			c-0.2,0.8-1,1.2-1.9,1c-0.1,0-0.1,0-0.1,0l0,0l-0.4-0.3l0,0C122,117.1,121.8,116.4,121.9,115.9"/>
		<path class="st1" d="M125.2,116.9c0.2-0.8-0.3-1.6-1.1-1.8c-0.8-0.2-1.7,0.2-1.9,1c-0.2,0.8,0.3,1.6,1.1,1.8
			C124.1,118.1,125,117.7,125.2,116.9"/>
		<path class="st5" d="M132.1,141.1c0,0,3.1,2.3,6.5,2.4c3.3,0.1,15-2.8,15-2.8l-0.5-0.9c0,0-12.8,3.4-15.8,2.4s-4.8-2.2-4.8-2.2
			L132.1,141.1z"/>
		<path class="st4" d="M134.9,219.9c-1.4,0-4.7-0.4-6.1,0h-5.4c-1.3-0.8-1.8-1.7,1.6-2.1c4.8-0.6,5.6-5.4,5.7-6l0,0l0,0l4.5,1.7l0,0
			l0,0l0,0l0,0v0.1l0,0c-0.2,0.4-0.5,1.6,0,3C135.5,217.9,136.3,219.9,134.9,219.9"/>
		<path class="st4" d="M170,219.9c-1.4,0-4.7-0.4-6.1,0h-5.4c-1.2-0.8-1.7-1.5,1.6-2.1c4.8-0.9,5.4-3.1,5.2-4.5
			c-0.1-0.7-0.4-1.3-0.4-1.3l0,0l5-0.3c0,0,0,0.3,0,0.7c0,1.1,0,3,0.4,4.3C170.7,217.9,171.4,219.9,170,219.9"/>
		<path class="st12" d="M135.1,213.7c-0.2,0.4-0.5,1.6,0,3c0.4,1.2,1.2,3.2-0.3,3.2c-1.4,0-4.7-0.4-6.1,0h-5.4
			c-1.2-0.8-1.8-1.7,1.6-2.1c4.8-0.6,5.6-5.4,5.7-6l0,0c0.1-0.9,0.2-1.9,0.3-3.1c0,0,2.2,1.6,5.8,0.6l0,0c-0.6,1.6-1.2,3-1.7,4.1
			l0,0l0,0l0,0l0,0C135.2,213.6,135.2,213.6,135.1,213.7L135.1,213.7z"/>
		<path class="st12" d="M170,219.9c-1.4,0-4.7-0.4-6.1,0h-5.4c-1.2-0.8-1.7-1.5,1.6-2.1c4.8-0.9,5.4-3.1,5.2-4.5
			c-0.1-0.4-0.3-0.8-0.4-1.3l0,0c-0.3-0.9-0.7-2-1.1-3.2c1.4,0,3.9-0.1,6.2-1.2c0,1.5,0,2.9,0,4.1c0,0.3,0,0.5,0,0.7
			c0,1.1,0,3,0.4,4.3C170.7,217.9,171.4,219.9,170,219.9"/>
		<path class="st9" d="M136.4,97.7c0,0,0.2,0.5,0.3,0.7s1.4,0.2,1.9,0c0.4-0.2,0.8-0.8,0.8-0.8C139.3,97.5,137,97.5,136.4,97.7"/>
	</g>
	<g id="Ebene_1_1_">
		<path class="st13" d="M131.6,173.3c-1.4,1.5-2.2,4-0.1,6.8c4.3,4.5,11.6,23.6,11.6,23.6c-0.2,0.7,0,1.8-0.5,2.1c-0.9,0.5-3-1-3-1
			s-19.8-20.5-21.4-25.1c-1.2-3.4,4.9-19.9,8.5-28.5c0.7-1.8,1.5-3.6,2.5-5.3l0.1-0.1c1.8-1.2,4.1-1.3,5.9-0.1
			c0.4,0.2,0.8,0.5,1.1,0.8c4.4,3.6,7.3,12.1,7,13.9c-0.2,1.2-2,2.7-4.4,5.3c-0.5,0.5-1.6,1.9-2.1,2.4
			C134.6,170.2,132.2,172.6,131.6,173.3z"/>
		<path class="st14" d="M138.4,166.3c-0.5,0.5-1,1.1-1.5,1.6l-10.2-16.8c0.7-1.8,1.5-3.7,2.5-5.3l0.1-0.1l5.9-0.1h1.1v0.8
			L138.4,166.3z"/>
		<path class="st13" d="M132.2,149.5c0,0,3.8,18.9,13.3,32.2c9.2,12.9,14,32.6,14,32.6c0.6,0.3,1.3,0.3,1.8,0c1.2-0.5,2,0.1,2.2-0.5
			c0,0-2.5-31.3-7.3-38.1c-3.8-5.4-4.4-13.8-3.9-21.5c-0.1-2.9,0-6-1-8.8L132.2,149.5z"/>
		<path class="st15" d="M151.6,146.6c0,0-13.2-0.7-18.8,5.9c-4.2-5.6-4.5-5.3-4.5-5.3c0.2-1.3-2.8-15.5-3.3-17.6
			c0,0,0.4-15.2,4.6-14.5l2.1-1.1l15.3,0.2l1.7,0.8c0,0,4.1,1.9,5.1,14.8C153.1,134.7,151.6,141.7,151.6,146.6z"/>
		<path class="st16" d="M163.6,219.4h-2.2c-0.8-0.1-1.3-0.3-2.1-0.4c-0.6-0.1-1.3,0-1.8,0.4l0,0l-9.5,0.1c-0.2-0.3,0-1.1,0.2-1.7
			c0.2-0.4,0.5-0.7,0.9-0.8c1.8-0.3,3.4-1.1,4.8-2.2c1-0.9,4.9-3.4,4.9-3.4l0,0c0.1,0,0.5,0.1,2.3,1.6c0.9,0.8,2.5-1.1,2.5-1.1
			c0.2,0.2,0.4,0.4,0.5,0.7c0.2,0.4,0.3,1,0.2,1.4c0,1.2,0.3,2.4,0.7,3.5c0.2,0.6,0.4,1.1,0.4,1.1S165.5,219.1,163.6,219.4z"/>
		<path class="st16" d="M164,212.5c-0.7,0.6-1.5,1-2.4,1.2c-1,0.1-2.9-2.4-2.9-2.4l0,0c0.1,0,0.5,0.1,2.3,1.6
			c0.9,0.8,2.5-1.1,2.5-1.1C163.7,212,163.9,212.2,164,212.5z"/>
		<path class="st16" d="M163.6,219.4h-2.2c-0.8-0.1-1.3-0.3-2.1-0.4c-0.6-0.1-1.3,0-1.8,0.4l0,0l-9.5,0.1c-0.2-0.3,0-1.1,0.2-1.7
			c0.3-0.2,0.4,1.1,0.5,1.3s7.7,0,8.2-0.3c1.1-0.6,2.4-0.8,3.6-0.5c1.6,0.4,3.9-0.6,4.5-0.9c0.2,0.6,0.4,1.1,0.4,1.1
			S165.5,219.1,163.6,219.4z"/>
		<path class="st16" d="M147.4,206.3l-1.6,1.6c-0.6,0.4-1.2,0.7-1.8,1.1c-0.6,0.3-0.9,0.9-1,1.6l0,0l-6.8,6.6
			c-0.4-0.1-0.8-0.8-1-1.4c-0.2-0.4-0.1-0.8,0.1-1.2c1.1-1.4,1.7-3.1,1.9-4.9c0.1-1.4,1.2-5.9,1.2-5.9l0,0c0.1-0.1,0.4-0.2,2.8-0.4
			c1.2-0.1,1-2.5,1-2.5c0.3,0,0.6,0,0.9,0.1c0.5,0.2,0.9,0.5,1.2,0.9c0.8,0.9,1.8,1.6,2.9,2.1l1.1,0.5
			C148.2,204.5,148.7,204.8,147.4,206.3z"/>
		<path class="st16" d="M143,201c-0.1,0.9-0.4,1.8-0.9,2.5c-0.6,0.8-3.8,0.3-3.8,0.3l0,0c0.1-0.1,0.4-0.2,2.8-0.4
			c1.2-0.1,1-2.5,1-2.5C142.4,200.9,142.7,200.9,143,201z"/>
		<path class="st16" d="M147.4,206.3l-1.6,1.6c-0.6,0.4-1.2,0.7-1.8,1.1c-0.6,0.3-0.9,0.9-1,1.6l0,0l-6.8,6.6
			c-0.4-0.1-0.8-0.8-1-1.4c0-0.4,1,0.5,1.3,0.6s5.6-5.3,5.7-5.9c0.3-1.2,1.2-2.2,2.3-2.8c1.4-0.8,2.4-3.2,2.6-3.8l1.1,0.5
			C148.2,204.5,148.7,204.8,147.4,206.3z"/>
	</g>
</g>
<path class="st17" d="M143.7,110.8c0.9,1.8,1.2,1.6,3.4,3.5c-4.5,9-12.7,14-15.3-0.2c0,0,2.4-0.2,2.8-1.4
	C134.8,112,143.7,110.8,143.7,110.8z"/>
<path class="st17" d="M148.7,115.2c1.6-4.8,3.8-5.5,5.1-9.7c4.8-14.6,6.1-12.3,12.2-26.7c-0.8-3.9-0.2-11.7,1.6-8.1
	c0.1,3.1,1.7-0.2,3.3-2.9c0,0,1.4-1.3,1.6,0.1c0,0,1.5-1.5,1.3,0.3c0,0,1.6-0.2,0.9,1.4c-3.7,7.6,1.1-1.3,0.4,2.8c0,0-2.4,5.9-5,8.1
	c-3.8,11.5-13.8,35.1-13.9,40c0,2-1.7,6.6-2.4,9.5C149,126.8,150.1,116,148.7,115.2z"/>
<path class="st18" d="M129.7,115.2c0,0-1-2.9-3.2-5.3c-1.2-1.2-1.3-2.8-1.9-4.4c-4.8-14.6-6.2-12.3-12.3-26.7
	c0.8-3.9,0.2-11.7-1.6-8.1c-0.1,3.1-1.7-0.2-3.3-2.9c0,0-1.4-1.3-1.6,0.1c0,0-1.5-1.5-1.3,0.3c-2-0.2-0.7,1.7,0.1,3.5
	c1.6,3.6-2-2.9-1.4,0.7c0,0,2.4,5.9,5,8.1c0,0,5.7,15.2,13.4,36.6c0.4,1.1,0.5,2.2,0.5,3.4c0,2,2.3,6.3,3,9.3
	C126.6,126.5,126.1,118.3,129.7,115.2z"/>
<g>
	<path class="st17" d="M144.4,112.1c0.2,0.4,0.2,1,0,1.4c-0.8,1.3-3,3.5-8.8,3c-2-0.1-3.3-1.4-2.1-2.9c0.5-0.5,1.2-2.3,1.1-3.6
		c-0.1-1.1-0.1-2.1,0-3.2l4.1-2.8l3.9-2.7C142,107.7,143.6,110.9,144.4,112.1z"/>
	<path class="st19" d="M142.4,104.5c0,0-2.8,4.5-7.8,5.4c-0.1-1.1-0.1-2.1,0-3.2l4.1-2.8L142.4,104.5z"/>
	<path class="st17" d="M132.8,106.6c0,0,9.6,2.2,10.9-3.6s3.4-9.6-2.6-11.2c-6-1.6-7.7,0.3-8.6,2.2S130.3,105.8,132.8,106.6z"/>
	<path d="M147.9,91.5c0.2-0.1,0.5-0.2,0.8-0.1c-0.2-0.2-0.5-0.2-0.9-0.3c0-0.9-0.5-1.7-1.4-2.1c0.3,0.2,0.5,0.7,0.5,1
		c-1.2-1.3-3.8-2.5-11.2-2.4c-9.8,0.1-7,6.5-5.8,7.4c1.2,0.9,4.5-1,6.8-0.7c2.4,0.3,2.6,3.8,3.3,4.2c0.7,0.4,0.5-0.3,1.6-0.8
		s1.1,1.4,0.7,2.5c-0.4,1.1,1,2.7,1,2.7l1.6-1.5c1.6-1.5,3.5-8.3,2.8-9.8L147.9,91.5z"/>
	<path class="st20" d="M132,102.9c0.2,0.5,0.7,0.9,1.2,1c0.5,0.1,1.8,0.2,2.4-1.1C134.8,102.6,132.9,102.8,132,102.9z"/>
	<g>
		<path class="st21" d="M134.3,98.3c0.1-0.2,0.3-0.3,0.5-0.4c0.2-0.1,0.4-0.1,0.7-0.1c0.2,0,0.4,0,0.8,0.1c0.2,0.1,0.4,0.3,0.5,0.5
			c-0.1-0.2-0.3-0.2-0.5-0.3c-0.2,0-0.4-0.1-0.7,0c-0.2,0-0.4,0-0.7,0C134.6,98.2,134.4,98.2,134.3,98.3z"/>
	</g>
	<g>
		<path class="st21" d="M132.6,98.3c-0.3,0-0.5-0.1-0.9-0.1s-0.5,0-0.8,0.2c0-0.1,0.1-0.3,0.3-0.4c0.1-0.1,0.3-0.1,0.4-0.1
			c0.2,0,0.3,0,0.4,0.1C132.4,98.1,132.5,98.2,132.6,98.3z"/>
	</g>
</g>
<g id="Ebene_4">
	<g>
		<path class="st22" d="M161,119.3l10.7,0.4l-10.7,0.4c-0.2,0-0.5-0.2-0.5-0.4C160.5,119.5,160.7,119.3,161,119.3
			C160.9,119.3,160.9,119.3,161,119.3z"/>
	</g>
	<g>
		<path class="st22" d="M159.6,123.3l6.8,0.4l-6.8,0.4c-0.2,0-0.5-0.2-0.5-0.4C159.1,123.5,159.3,123.3,159.6,123.3
			C159.5,123.3,159.6,123.3,159.6,123.3z"/>
	</g>
	<g>
		<path class="st22" d="M68.2,211.3l10.7,0.4l-10.7,0.4c-0.2,0-0.5-0.2-0.5-0.4C67.7,211.5,67.9,211.3,68.2,211.3
			C68.1,211.3,68.1,211.3,68.2,211.3z"/>
	</g>
	<g>
		<path class="st22" d="M66.8,215.3l6.8,0.4l-6.8,0.4c-0.2,0-0.5-0.2-0.5-0.4C66.3,215.5,66.5,215.3,66.8,215.3
			C66.7,215.3,66.8,215.3,66.8,215.3z"/>
	</g>
	<g>
		<path class="st22" d="M98.7,154.4l10.7,0.4l-10.7,0.4c-0.2,0-0.5-0.2-0.5-0.4S98.4,154.4,98.7,154.4
			C98.6,154.4,98.6,154.4,98.7,154.4z"/>
	</g>
	<g>
		<path class="st22" d="M97.3,158.4l6.8,0.4l-6.8,0.4c-0.2,0-0.5-0.2-0.5-0.4S97,158.4,97.3,158.4C97.2,158.4,97.3,158.4,97.3,158.4
			z"/>
	</g>
	<g>
		<path class="st22" d="M156.2,146.2l12.4,0.4l-12.4,0.4c-0.2,0-0.5-0.2-0.5-0.4S155.9,146.2,156.2,146.2L156.2,146.2z"/>
	</g>
	<g>
		<path class="st22" d="M155.9,150.1l5.8,0.5l-5.8,0.4c-0.2,0-0.5-0.2-0.5-0.4C155.4,150.3,155.6,150.1,155.9,150.1
			C155.8,150.1,155.9,150.1,155.9,150.1z"/>
	</g>
	<g>
		<path class="st22" d="M172.2,87l6.5,0.4l-6.5,0.5c-0.2,0-0.5-0.2-0.5-0.4S171.9,87.1,172.2,87L172.2,87z"/>
	</g>
	<g>
		<path class="st22" d="M173.9,82.5l17.7,0.5l-17.7,0.4c-0.2,0-0.5-0.2-0.5-0.4S173.6,82.5,173.9,82.5L173.9,82.5z"/>
	</g>
	<g>
		<path class="st22" d="M53.5,90.7l6.5,0.4l-6.5,0.5c-0.2,0-0.5-0.2-0.5-0.4S53.2,90.8,53.5,90.7L53.5,90.7z"/>
	</g>
	<g>
		<path class="st22" d="M49.6,86.3l17.7,0.5l-17.7,0.4c-0.2,0-0.5-0.2-0.5-0.4S49.3,86.3,49.6,86.3L49.6,86.3z"/>
	</g>
	<g>
		<path class="st22" d="M167.9,211.2l15.3,0.4l-15.3,0.4c-0.2,0-0.5-0.2-0.5-0.4C167.5,211.4,167.7,211.2,167.9,211.2L167.9,211.2z"
			/>
	</g>
	<g>
		<path class="st22" d="M168.4,215.4l6,0.4l-6,0.4c-0.2,0-0.5-0.2-0.5-0.4C167.9,215.7,168.1,215.5,168.4,215.4L168.4,215.4z"/>
	</g>
</g>
<g>
	<g>
		<path class="st17" d="M91.2,139c0.1-1,0.2-1.8,0.2-2.6c0-0.3,0.1-0.6,0.1-0.9c0.6-2.3,1.2-4.3,1.9-6.2
			c1.8-3.6,14.9-11.3,18.4-14.6c3.6-3.4,9.8-16.2,9.8-16.2s2.8-10.3,0.2-7.4c-0.4,0.5-0.8,1-1.1,1.4c0-1.3-1.2,1.3-1.1,2.3
			c-0.5,1.4-0.5,2.4-0.5,2.4s-7.7,10.4-12.3,14c-4.5,3.6-9.5,5.4-10,5.6c-0.5,0.2-1.7,0.4-3.8,0c-0.6-0.1-1.1-0.2-1.4-0.3
			c-1.5-0.6-3.2-0.9-4.8-1.1c-1.8-0.3-2.6-0.8-3.2-2.2c-0.1-0.3-0.1-1-0.1-1.4c0-1.3-5.3-0.5-5.3,0.6c0,0.8-0.1,1.5-0.4,1.8
			c-0.4,0.5-1.3,1.1-2.3,1.5c-0.3,0.1-0.8,0.2-1.5,0.4c-2.1,0.4-3.3,0.3-3.8,0c-3.2-2-7.3-4.6-9.9-6.1c-5.1-2.8-12.3-13.6-12.3-13.6
			s0-0.7-0.3-1.7c0.1-1.1-1.8-3.7-2.4-4.4c-2.6-2.9,0.2,7.4,0.2,7.4s6.2,12.8,9.8,16.2c3.6,3.4,15.8,9.9,15.5,12
			c-0.1,0.7-0.3,1.5-0.4,2.9c-0.1,0.6,0.6,2.6,0.9,3.1c1.7,3.2,1.5,7.1,1.7,6.7c0.1,1.5,0.1,3.5,0.1,4.9c0,0.7,0,1.3-0.1,1.8l-0.1,0
			l0,0c0,0.1-0.8,4.9-1.1,8.6h23.2c0-0.7-0.1-1.4-0.1-2.3l0-0.2c-0.2-2.7-3.4-9-3.5-9.2c0-0.5,0.1-1,0.1-1.5
			C91.2,140.1,91.2,139.5,91.2,139z"/>
		<path class="st23" d="M71.5,157.2c0.3,1.5,0.9,3.5,1.8,6.1c-3,7-8,18.5-8.9,21.1c-0.7,2.1-2.3,8.1-3.8,13.8
			c-1.3,4.7-2.4,9.2-2.9,10.8c-0.8,2.7-1,4.1-0.7,4.8c0.1,0.3,0.4,0.4,0.7,0.5c0.1,0,0.1,0,0.2,0c1.3,0,4.6-2.4,4.7-2.5l0,0
			c0,0,2.1-4.4,4.1-8.3c2.1-4,3.1-9,3.2-11.1c0.1-2.4,0.9-4.7,0.9-4.7c0.2-0.5,0.3-0.9,3.1-4.5c0.8-1,2.6-3.3,4.8-6.2
			c0.3,0.7,0.5,1.3,0.7,1.9c1.7,4.2,2.7,6.8,3.5,7.6c1.2,1.3,24.7,14.8,25.7,15.4c0.1,0.1,3.6,2.6,5.4,2.6c0.4,0,0.7-0.1,0.9-0.4
			c0.3-0.4,0.3-1.2-0.1-2.2c-1-3-5.2-7.2-12.6-12.3c-2-1.4-4.2-2.4-6.1-3.3c-2.3-1.1-4.2-2-5-3.1c-0.7-1-1.8-9.5-2.8-18.3
			c3-3.9,5.4-7,5.7-7.6c0.5-1,0.6-2,0.5-3.4H71.4C71.4,155.2,71.3,156.4,71.5,157.2z"/>
	</g>
	<path class="st23" d="M72.6,145.3l3.5-0.4l14.8-2.8c0,0,3.4,6.4,3.8,9.2c0.4,2.8,0.2,4.6-1,6.9c-0.3,0.6-2.6,3-5.9,7.3h-0.1
		c-1-1.7-3.4-2.4-5.2-3c-2.6-0.9-5.2-1.8-7.8-2.3l-1.3,2.9c-1.1-2.9-1.6-4.5-1.8-6.1C70.9,154.3,72.6,145.3,72.6,145.3L72.6,145.3z"
		/>
	<path class="st15" d="M69.9,128.4c0.2-1.8,1.2-8,1.5-9.4c0.2-1.3,0.8-2.7,1.5-2.8c0.5-0.1,2.5-0.5,2.5-0.5l0,0.1
		c0,0-0.9,3.7-0.1,6.1c0.4,1.2,1.3,1.9,2.6,1.9c1,0,2.2-0.4,3.6-1.1c1.9-1.1,2.9-2.8,3.8-4.3c0.4-0.7,0.8-1.3,1.1-1.7
		c0.9-0.8,0.9-0.8,1.3-1.1l0.1,0c0,0,0.1,0,0.1,0c0.4,0,1.5,0.3,1.5,0.3c0,0,2.9,0.8,3.2,0.9c0,0-1.6,1.2-2.5,2.3
		c-1,1.1-1.9,5-1.4,7c0.8,3.2,3.1,3.6,4.1,3.6c0.3,0,0.5,0,0.5,0l0.2,0l0,0.2c0,0.1-1.7,6.5-1.8,8c-0.1,1.4,1,7.4,2.3,10.2
		c0.1,0.3,0.3,0.5,0.1,0.8c-0.9,2-11.6,2.7-13,2.8c-0.3,0-0.5,0-0.8,0c-2.4,0-5.7-0.2-6.4-0.3c-0.8-0.1-1.7-0.4-1.8-0.4l-0.1,0
		l0-0.1c0-0.1,1.1-6.9,0.9-9.8c-0.1-3-0.9-7-1.3-8c-0.1-0.2-0.2-0.4-0.3-0.6C70.5,131.4,69.8,129.9,69.9,128.4L69.9,128.4z"/>
</g>
<path class="st17" d="M48.3,97.1c0.9-3.4,0.5-10.5-1-7.4c-0.1,2.7-1.4-0.2-2.7-2.5c0,0-1.1-1.1-1.3,0.1c0,0-1.2-1.3-1,0.2
	c-1.6-0.2-0.6,1.5,0.1,3c1.3,3.1-1.6-2.5-1.1,0.6c0,0,2.4,5.9,4,7C45.3,98.1,47.2,100,48.3,97.1z"/>
<path class="st17" d="M119,97.3c-0.5-3.3,0.4-10.5,1.7-7.5c-0.1,2.6,1.4-0.1,2.8-2.3c0,0,1.2-1,1.3,0.2c0,0,1.3-1.2,1,0.3
	c0,0,1.3-0.1,0.6,1.2c-3.3,6.1,1-1.1,0.2,2.3c0,0-2.7,5.3-4.9,6.9C118.1,99,119.8,98.2,119,97.3z"/>
<path class="st24" d="M53.5,217.1L53.5,217.1c0.7-0.2,1.5-0.2,2,0.2c0.8,0.4,1.4,0.8,2,1.1l2.5,0.8c2.1,0.4,2.2-0.3,2.2-0.3
	s0-0.5-0.1-1.3c-0.1-1.3,0.1-2.7,0.5-4c0.3-0.5,0.3-1,0.4-1.6c-0.1-0.3-0.1-0.7-0.3-0.9c0,0-2.4,1.5-3,0.3c-1.4-2.2-1.8-2.5-1.9-2.5
	l0,0c0,0-5,1.3-6.5,1.9c-1.8,0.7-4,1-6,0.6c-0.5,0-0.9,0.2-1.3,0.5c-0.5,0.5-0.9,1.3-0.9,1.8L53.5,217.1z"/>
<path class="st24" d="M117,208.4L117,208.4c-0.2-0.7,0.1-1.3,0.5-1.9c0.5-0.7,0.9-1,1.5-1.6l1-2c0.8-1.8,0.2-2,0.2-2l-1.2-0.2
	c-1.2-0.2-2.4-0.5-3.5-1.1c-0.5-0.3-0.9-0.4-1.4-0.5c-0.3,0-0.6,0.1-0.9,0.1c0,0,0.9,2.3-0.2,2.7c-2.2,0.8-2.5,1.1-2.6,1.2l0,0
	c0,0,0.2,4.7,0.6,6.1c0.3,1.7,0.1,3.6-0.5,5.4c-0.1,0.4,0.1,0.9,0.3,1.2c0.4,0.4,1,1,1.5,1L117,208.4z"/>
<g>
	<path d="M83.4,91.1c0,0,0.8-4.3,6.9-3.3c0,0-2.9-0.2-3.7,1.1c0,0,2.2-1.2,3.8-0.4c1.5,0.8,1.9,3.8,1.8,4.7c-0.2,1-1.6,3.7-2.6,3.8
		c-0.8,0-1.6-0.3-2.3-0.8L83.4,91.1z"/>
	<path d="M72.6,96.1c0,0,7.2-9.8,11.6-4.1c0,0,3.1,1.1,4.5,6.2c1.4,5.1-1.8,9.5-3.7,8.6c-1.2-0.5-2,1.6-2,1.6L72.6,96.1z"/>
	<path class="st17" d="M76.2,116.3c0,0,3,1.4,5,0.6c2.1-0.8,4.5-1.5,4.5-1.5c-0.9-0.1-2.5-3.2-2.9-8.2l-0.4,0.1l-6.5,1.7
		c0,0,0.3,2,0.4,4C76.6,114.5,76.6,116.1,76.2,116.3"/>
	<path class="st25" d="M76.1,108.9c0,0,0.3,2,0.4,4c3.7-0.4,5.4-3.8,6-5.6L76.1,108.9z"/>
	<path d="M83.3,106.4c1-1.8,1.7-3.8,2.1-5.8c0.2-1.9-1.2-8.6-8-7.3c-1.4,0.3-2.7,0.8-3.8,1.6c-1.4,1.1-3.5,3.5-0.6,9.3l0.7,2
		L83.3,106.4z"/>
	<path class="st17" d="M75,110.8c0,0,8.6-0.3,8.2-5.8c-0.4-5.4,0.5-9.1-4.9-9c-5.5,0.1-6.5,2.2-6.8,4
		C71.2,101.7,72.6,110.8,75,110.8"/>
	<g>
		<g>
			<path class="st21" d="M77.2,103.3c-0.4-0.2-0.7-0.2-1.1-0.2c-0.1,0-0.4,0-0.7,0.1s-0.5,0.1-0.7,0.3c0.2-0.4,0.7-0.6,1.1-0.7
				c0.3,0,0.4,0,0.7,0C76.8,103,77,103.1,77.2,103.3z"/>
		</g>
		<g>
			<path class="st21" d="M73.1,103.5c-0.4,0-1.5,0.2-1.8,0.6c0-0.4,0.5-0.6,0.8-0.7C72.4,103.3,72.8,103.3,73.1,103.5z"/>
		</g>
	</g>
	<path d="M74.4,96.2c0,0,2.8,6.2,6.4,6.9c3.7,0.7,5.2-0.3,5.2-0.3c-1.9-1.5-3.3-3.5-3.7-5.9C82.3,96.7,76,93,74.4,96.2"/>
	<path d="M74.9,96c-0.8,0.8-1.6,1.8-2,2.9c-0.4,1.3-1.6,4.8-2.4,4.7c0,0-0.8-4.7,1-7.3C73.4,93.9,74.9,96,74.9,96"/>
	<path d="M74,96.5c0,0,2.8,6.9,7.5,8.6c0,0-4.8-3.8-5.5-8.1C75.4,92.7,74,96.5,74,96.5"/>
	<path class="st20" d="M73.4,107.7c0,0,0.3,0.5,0.3,0.7s1.6,0.1,2.1-0.1c0.4-0.2,0.6-0.6,0.8-0.9C75.6,107.4,74.5,107.6,73.4,107.7"
		/>
</g>
<g>
	<path class="st26" d="M151.2,157.9c-0.3,0-0.6,0-0.9,0c-10.4-0.2-17.8-2.8-25-5.2c-6.9-2.4-13.4-4.6-22.3-4.8
		c-8.3-0.2-17,0.8-27.6,2.1c-13.1,1.7-30.9,0.5-45-12.9c0,0,6.3,2.2,6-2.6c5.9,8.7,26.4,12,38.3,10.4c10.8-1.4,19.7-2.4,28.3-2.2
		c9.8,0.2,16.9,2.7,23.9,5.1c7.1,2.5,13.8,4.8,23.4,5c10.1,0.2,33.2-7.3,32.8-6.8c-3.1,4,4.3,3.4,4.3,3.4
		C178.7,153,162,157.9,151.2,157.9z"/>
</g>
</svg>
