<?xml version="1.0" encoding="utf-8"?>
<!-- Generator: Adobe Illustrator 25.2.0, SVG Export Plug-In . SVG Version: 6.00 Build 0)  -->
<svg version="1.1" id="Ebene_1" xmlns="http://www.w3.org/2000/svg" xmlns:xlink="http://www.w3.org/1999/xlink" x="0px" y="0px"
	 viewBox="0 0 220 220" style="enable-background:new 0 0 220 220;" xml:space="preserve">
<style type="text/css">
	.st0{display:none;}
	.st1{display:inline;fill:#AAAAA9;}
	.st2{fill:#5B58EE;}
	.st3{fill:#2E51C0;}
	.st4{fill:#FFB27D;}
	.st5{fill:#233862;}
	.st6{fill:#D3D3D3;}
	.st7{fill:#ED985F;}
	.st8{fill:#A07C4B;}
	.st9{fill:#FFFFFF;}
	.st10{fill:#A87C5E;}
	.st11{fill:#1A2C70;}
	.st12{fill:#9529F9;}
	.st13{fill:#FCFCFC;}
	.st14{fill:#ED975D;}
	.st15{fill:#1E1E1E;}
	.st16{fill:#E5E5E5;}
	.st17{opacity:0.75;}
	
		.st18{display:inline;fill:none;stroke:#C6C6C6;stroke-width:0.5;stroke-linecap:round;stroke-linejoin:round;stroke-miterlimit:10;}
	
		.st19{display:inline;fill:none;stroke:#C6C6C6;stroke-width:0.2;stroke-linecap:round;stroke-linejoin:round;stroke-miterlimit:10;}
</style>
<g id="Ebene_2_1_" class="st0">
	<rect x="-17" y="56.8" class="st1" width="272.3" height="186.6"/>
</g>
<g id="Ebene_1_1_">
	<path class="st2" d="M136.8,172.9c-1.4,1.5-2.2,4-0.1,6.8c4.3,4.5,11.6,23.6,11.6,23.6c-0.2,0.7,0,1.8-0.5,2.1c-0.9,0.5-3-1-3-1
		s-19.8-20.5-21.4-25.1c-1.2-3.4,4.9-19.9,8.5-28.5c0.7-1.8,1.5-3.6,2.5-5.3l0.1-0.1c1.8-1.2,4.1-1.3,5.9-0.1
		c0.4,0.2,0.8,0.5,1.1,0.8c4.4,3.6,7.3,12.1,7,13.9c-0.2,1.2-2,2.7-4.4,5.3c-0.5,0.5-1.6,1.9-2.1,2.4
		C139.8,169.8,137.4,172.2,136.8,172.9z"/>
	<path class="st3" d="M143.6,165.9c-0.5,0.5-1,1.1-1.5,1.6l-10.2-16.8c0.7-1.8,1.5-3.7,2.5-5.3l0.1-0.1l5.9-0.1h1.1v0.8L143.6,165.9
		z"/>
	<path class="st4" d="M137.9,106.6c0,0,2.2,5.4,1.6,8.6s-8.2,19.3-11,22s-21.2-8.9-21.2-8.9l1.8-1.7c0,0,15.5,4.7,16.3,3.5
		S128.9,105.1,137.9,106.6z"/>
	<path class="st2" d="M137.4,149.1c0,0,3.8,18.9,13.3,32.2c9.2,12.9,14,32.6,14,32.6c0.6,0.3,1.3,0.3,1.8,0c1.2-0.5,2,0.1,2.2-0.5
		c0,0-2.5-31.3-7.3-38.1c-3.8-5.4-4.4-13.8-3.9-21.5c-0.1-2.9,0-6-1-8.8L137.4,149.1z"/>
	<path class="st5" d="M168.8,219h-2.2c-0.8-0.1-1.3-0.3-2.1-0.4c-0.6-0.1-1.3,0-1.8,0.4l0,0l-9.5,0.1c-0.2-0.3,0-1.1,0.2-1.7
		c0.2-0.4,0.5-0.7,0.9-0.8c1.8-0.3,3.4-1.1,4.8-2.2c1-0.9,4.9-3.4,4.9-3.4l0,0c0.1,0,0.5,0.1,2.3,1.6c0.9,0.8,2.5-1.1,2.5-1.1
		c0.2,0.2,0.4,0.4,0.5,0.7c0.2,0.4,0.3,1,0.2,1.4c0,1.2,0.3,2.4,0.7,3.5c0.2,0.6,0.4,1.1,0.4,1.1S170.7,218.7,168.8,219z"/>
	<path class="st5" d="M169.2,212.1c-0.7,0.6-1.5,1-2.4,1.2c-1,0.1-2.9-2.4-2.9-2.4l0,0c0.1,0,0.5,0.1,2.3,1.6
		c0.9,0.8,2.5-1.1,2.5-1.1C168.9,211.6,169.1,211.8,169.2,212.1z"/>
	<path class="st5" d="M168.8,219h-2.2c-0.8-0.1-1.3-0.3-2.1-0.4c-0.6-0.1-1.3,0-1.8,0.4l0,0l-9.5,0.1c-0.2-0.3,0-1.1,0.2-1.7
		c0.3-0.2,0.4,1.1,0.5,1.3s7.7,0,8.2-0.3c1.1-0.6,2.4-0.8,3.6-0.5c1.6,0.4,3.9-0.6,4.5-0.9c0.2,0.6,0.4,1.1,0.4,1.1
		S170.7,218.7,168.8,219z"/>
	<path class="st6" d="M152.7,130.4c0-10.6,1.7-23.2-1-24.3c-3.9-1.6-8-1.5-12.2-1.5c-4,0.1-11.7,1-12.6,7.6
		c-0.6,4.2-1.6,7.8-1.6,7.8c0.6,1.6,1.9,2.8,3.4,3.4c0.1,0.7,0.4,1.4,0.7,2c0.3,0.9,0.8,1.7,1.3,2.4c3.9,5.7,3.5,9.1,1,21
		c3.9,3.2,23.1,1.3,25,0.1C160,146.7,152.7,141,152.7,130.4z"/>
	<path class="st5" d="M152.6,205.9l-1.6,1.6c-0.6,0.4-1.2,0.7-1.8,1.1c-0.6,0.3-0.9,0.9-1,1.6l0,0l-6.8,6.6c-0.4-0.1-0.8-0.8-1-1.4
		c-0.2-0.4-0.1-0.8,0.1-1.2c1.1-1.4,1.7-3.1,1.9-4.9c0.1-1.4,1.2-5.9,1.2-5.9l0,0c0.1-0.1,0.4-0.2,2.8-0.4c1.2-0.1,1-2.5,1-2.5
		c0.3,0,0.6,0,0.9,0.1c0.5,0.2,0.9,0.5,1.2,0.9c0.8,0.9,1.8,1.6,2.9,2.1l1.1,0.5C153.4,204.1,153.9,204.4,152.6,205.9z"/>
	<path class="st5" d="M148.2,200.6c-0.1,0.9-0.4,1.8-0.9,2.5c-0.6,0.8-3.8,0.3-3.8,0.3l0,0c0.1-0.1,0.4-0.2,2.8-0.4
		c1.2-0.1,1-2.5,1-2.5C147.6,200.5,147.9,200.5,148.2,200.6z"/>
	<path class="st5" d="M152.6,205.9l-1.6,1.6c-0.6,0.4-1.2,0.7-1.8,1.1c-0.6,0.3-0.9,0.9-1,1.6l0,0l-6.8,6.6c-0.4-0.1-0.8-0.8-1-1.4
		c0-0.4,1,0.5,1.3,0.6s5.6-5.3,5.7-5.9c0.3-1.2,1.2-2.2,2.3-2.8c1.4-0.8,2.4-3.2,2.6-3.8l1.1,0.5
		C153.4,204.1,153.9,204.4,152.6,205.9z"/>
	<path class="st4" d="M146.4,107.7c0,0,5.9-0.1,8.6,1.7s14.9,14.7,16.4,18.3s-12.5,13.9-12.5,13.9l-2-3.1c0,0,7.6-9.5,6.8-10.6
		C162.9,126.7,141.7,115.5,146.4,107.7z"/>
	<path class="st4" d="M158.4,137.7l2.3,1.8c0,0-2.1,4.4-3.2,4.9h-0.1c-1.2,0.2-4.2-1.7-4.7-3.7c-0.1-0.2-0.1-0.4,0-0.6
		c0.5-1.2,3.3-1.9,4.7-2.2C158.1,137.7,158.4,137.7,158.4,137.7z"/>
	<path class="st4" d="M110.7,127l-1.2,2.7c0,0-4.8-0.9-5.5-1.9v-0.1c-0.5-1.1,0.6-4.5,2.5-5.5c0.2-0.1,0.4-0.1,0.6-0.1
		c1.3,0.1,2.7,2.7,3.3,4C110.6,126.7,110.7,127,110.7,127z"/>
	<path class="st6" d="M144.4,104.6c0,0,5.5-0.4,9.4,2c1.8,1.1,8.6,8.3,8.6,8.3s-1.1,5.8-9.3,7.6s-9.3-11.7-9.3-11.7L144.4,104.6z"/>
	<path class="st4" d="M143.4,104.1c0.2,0.4,0.2,0.9,0,1.3c-0.7,1.2-2.8,3.2-8.1,2.8c-1.8-0.1-2.2-1.5-1.1-2.9
		c0.3-0.3,0.2-2.3,0.2-3.1c-0.1-1-0.1-1.9,0-2.9l3.8-2.6l3.6-2.5C141.2,100,142.7,103,143.4,104.1z"/>
	<path class="st7" d="M141.6,97.1c0,0-2.6,4.1-7.2,5c-0.1-1-0.1-1.9,0-2.9l3.8-2.6L141.6,97.1z"/>
	<path class="st4" d="M132.8,99c0,0,8.8,2,10-3.3s3.1-8.8-2.4-10.3s-7.1,0.3-7.9,2C131.7,89.1,130.5,98.3,132.8,99z"/>
	<path class="st8" d="M146.7,85.1c0.2-0.1,0.5-0.2,0.7-0.1c-0.2-0.2-0.5-0.2-0.8-0.3c0-0.8-0.5-1.6-1.3-1.9c0.3,0.2,0.5,0.6,0.5,0.9
		c-1.1-1.2-4-2.8-10.8-2.7c-9,0.1-7.1,6.6-6,7.4c1.1,0.8,5.3-1,7.5-0.7s2.4,3.5,3,3.9s0.5-0.3,1.5-0.7s1,1.3,0.6,2.3
		s0.3,4.4,0.3,4.4l1.5-1.4c1.5-1.4,3.8-9.5,3.2-10.9L146.7,85.1z"/>
	<path class="st9" d="M132,95.6c0.2,0.5,0.6,0.8,1.1,0.9s1.7,0.2,2.2-1C134.6,95.3,132.9,95.5,132,95.6z"/>
	<g>
		<path class="st10" d="M134.1,91.4c0.1-0.2,0.3-0.3,0.5-0.4s0.4-0.1,0.6-0.1s0.4,0,0.7,0.1c0.2,0.1,0.4,0.3,0.5,0.5
			c-0.1-0.2-0.3-0.2-0.5-0.3c-0.2,0-0.4-0.1-0.6,0c-0.2,0-0.4,0-0.6,0C134.5,91.3,134.2,91.3,134.1,91.4z"/>
	</g>
	<g>
		<path class="st10" d="M132.6,91.4c-0.3,0-0.5-0.1-0.8-0.1c-0.3,0-0.5,0-0.7,0.2c0-0.1,0.1-0.3,0.3-0.4c0.1-0.1,0.3-0.1,0.4-0.1
			c0.2,0,0.3,0,0.4,0.1C132.4,91.2,132.5,91.3,132.6,91.4z"/>
	</g>
</g>
<g>
	<path class="st4" d="M-50.1,116L-50.1,116L-50.1,116z"/>
	<path class="st11" d="M-50,152.5L-50,152.5c-0.1,2.1-0.2,4.1-0.4,6.2c-0.3,3-0.7,6-1.2,8.9l0,0c-0.1,0.5-0.2,1-0.2,1.5
		s-0.1,0.8-0.2,1.2l-0.5,2.6c-0.1,0.7-0.3,1.3-0.4,2c-0.8,4.1-1.6,7.1-1.8,8l0,0c0,0.3,0.1,0.6,0.2,0.9c2.3,5.2,1.7,7.3,1.3,12.3
		c-0.6,6.5-1.7,13-3.3,19.3l-4,3.8c0,0,1.3-7-0.3-19.6c-0.6-4.5-1.4-8.9-2.4-13.4c-1.3-5.5-4.4-19.9-4.8-30.5
		c0-1.1,0.3-12.1,2.4-16.6c0.6-1.2,4.9,1.6,4.9,1.6h4.4h4.4l0.1,0.2c0.8,1.9,1.3,3.9,1.4,6C-50,148.7-49.9,150.6-50,152.5z"/>
	<path class="st5" d="M-50,152.5L-50,152.5c-0.1,2.1-0.2,4.1-0.4,6.2c-0.3,3-0.7,6-1.2,8.9l0,0c-0.1,0.5-0.2,1-0.2,1.5
		s-0.1,0.8-0.2,1.2l-0.5,2.6c-0.1,0.7-0.3,1.3-0.4,2c0,0-12.2-28.7-12.3-29.1l9-5h4.4l0.1,0.2c0.8,1.9,1.3,3.9,1.4,6
		C-50,148.7-49.9,150.6-50,152.5z"/>
	<path class="st12" d="M-60.8,220L-60.8,220c0.4-0.3,0.9-0.4,1.3-0.3c0.6,0.1,1,0.2,1.5,0.3h1.7c1.4-0.2,1.3-0.6,1.3-0.6
		s-0.1-0.3-0.3-0.8c-0.3-0.8-0.5-1.7-0.5-2.6c0.1-0.4,0-0.7-0.1-1.1c-0.1-0.2-0.2-0.4-0.4-0.5c0,0-1.2,1.4-1.8,0.8
		c-1.3-1.1-1.6-1.2-1.7-1.2l0,0c0,0-2.9,1.8-3.7,2.5c-1,0.8-2.3,1.4-3.6,1.6c-0.3,0.1-0.5,0.3-0.7,0.6c-0.2,0.4-0.3,1-0.2,1.3H-60.8
		z"/>
	<path class="st4" d="M-63.8,108c0,0-2.8,17.7-7.2,24.5c-2.3,3.4-17.8-9.8-17.8-9.8l1.8-1.1c0,0,12.4,6.5,12.8,5.8
		c0.4-0.7,1.5-15.4,4-17.4S-63.8,108-63.8,108z"/>
	<path d="M-62.6,99.8c0,0-3.5-0.2-5.1-5.8c-1.2-4.4,1.2-9.7,7.5-9.2c0,0,4.2-0.4,5.6,3c0.6,1.5,1.7,2.1-0.2,7.7l-0.4,1.9L-62.6,99.8
		z"/>
	<path d="M-55.5,94.7c0,0,2.1,2.5,4.6,2s7.2-2,9.1,0.2s-0.8,7.3,1.1,9.2s0.4,7.7-8,5.8s-8.1-11.2-8-12.5
		C-56.4,97.7-56,96.2-55.5,94.7z"/>
	<path class="st11" d="M-15.7,189.5l-0.4,2.5c0,0-10.1-3.1-21.4-6.1c-3.6-1-7.2-1.9-10.8-2.7s-14.3-47-14.3-47s15.9-1.6,20,6.2
		c7.6,12.2-0.8,32.7,4.2,33.4c1.3,0.2,2.5,0.5,3.7,1C-26,180.1-15.7,189.5-15.7,189.5z"/>
	<path class="st13" d="M-67.4,108c3-1.4,6.3-2.3,9.6-2.7c4.7-0.3,10.3,0.2,11.6,1.5c1.7,3,2.3,6.4,1.8,9.8c-0.8,3.2-1.9,6.5-2,9.8
		c-0.2,5.7,2.1,8.6,4.4,15c1.5,4.2-13.9,12.9-25.1,4.6c0.3-4.6,1.5-16.3,0.3-18.4C-70.3,121.5-69.7,109.6-67.4,108z"/>
	<path class="st4" d="M-46.2,106.8c0,0,11.7,13.4,13,17.3c1.3,3.9-16.5,11.6-16.5,11.6l-0.7-2.8c0,0,11.2-8.2,10.9-9
		s-8.9-7.5-9-10.7S-46.2,106.8-46.2,106.8z"/>
	<path class="st4" d="M-60.6,110c-4.7,0.2-2.9-2.2-2.3-3c0.1-0.1,0.1-0.2,0.2-0.4c0.3-1.4,0.3-2.9,0.2-4.3c-0.1-1.4-0.3-2.9-0.3-3.4
		l0,0v-0.2l5.8-1.6l1,1.8l0.2,0.4c0.1,1,0,2.1,0.3,3.1c0.2,1,0.9,1.9,1.4,2.7C-53.7,105.5-53.5,109.8-60.6,110z"/>
	<path class="st14" d="M-55.5,102.5c-2.9-0.2-5.3-1.5-7.3-3.6l0,0c2.3-0.5,4.6-0.4,6.8,0.1l0.2,0.4
		C-55.7,100.5-55.8,101.5-55.5,102.5z"/>
	<path class="st4" d="M-55.4,101.1c0,0-7.8,0.7-8.2-4.2s-1.6-8.1,3.4-8.7s6.1,1.2,6.6,2.8S-53.4,100.8-55.4,101.1z"/>
	<path d="M-56.6,87.8c0,0-1.8,5.9-5,6.9s-4.7,0.3-4.7,0.3c1.5-1.5,2.4-3.5,2.6-5.7C-63.8,89.3-58.4,85.2-56.6,87.8z"/>
	<path class="st15" d="M-57.1,88.3c0.9,0.6,1.6,1.4,2.1,2.4c0.5,1.2,2.2,3.9,2.2,3.7c0-0.4,0.7-4.1-1.2-6.1S-57.1,88.3-57.1,88.3z"
		/>
	<path class="st9" d="M-57.5,98.5c0,0,0.1,0.7,0.6,0.7c0.6,0,1.4,0,2-0.2c0.1-0.3,0.3-0.6,0.3-0.9C-55.4,98-56.5,98.4-57.5,98.5z"/>
	<path class="st4" d="M-49.7,132.5l1.8,1.6c0,0-2,3.4-2.9,3.7H-51c-1,0.1-3.3-1.7-3.5-3.4c0-0.2,0-0.3,0.1-0.5
		c0.5-0.9,2.8-1.3,4-1.4C-50,132.5-49.7,132.5-49.7,132.5z"/>
	<path class="st4" d="M-86,122.2l-0.6,1.9c-1.1-0.1-2.2-0.3-3.2-0.6c-0.5-0.2-1.1-0.6-1.2-1.1c-0.2-1.1,0-3.1,1-3.8
		c0.1-0.1,0.3-0.1,0.4-0.2C-88.6,118.3-86,122.2-86,122.2z"/>
	<path class="st12" d="M-12.3,191.3L-12.3,191.3c-0.4-0.3-0.5-0.8-0.5-1.3c0-0.6,0.1-1,0.2-1.6l-0.2-1.6c-0.3-1.4-0.7-1.3-0.7-1.3
		l-0.8,0.4c-0.8,0.4-1.6,0.7-2.5,0.8c-0.4,0-0.7,0.1-1,0.3c-0.2,0.1-0.3,0.3-0.5,0.4c0,0,1.5,1,1,1.7c-1,1.4-1,1.7-1,1.8l0,0
		c0,0,2.1,2.7,2.9,3.4c0.9,0.9,1.6,2.1,2,3.4c0.1,0.3,0.4,0.5,0.7,0.6c0.4,0.1,1,0.2,1.3,0L-12.3,191.3z"/>
	<g>
		<path class="st10" d="M-59.2,94.9c0.1-0.2,0.2-0.4,0.4-0.5c0.2-0.1,0.4-0.2,0.6-0.2c0.4,0,0.9,0,1.1,0.4c-0.2-0.1-0.4-0.1-0.6-0.1
			s-0.4,0-0.6,0C-58.6,94.5-58.9,94.6-59.2,94.9z"/>
	</g>
	<g>
		<path class="st10" d="M-55.3,94.5c0.2-0.3,0.5-0.4,0.8-0.5c0.3,0,0.7,0.1,0.9,0.3c-0.1-0.1-0.3-0.1-0.4-0.1s-0.3,0-0.4,0
			C-54.7,94.3-55,94.4-55.3,94.5z"/>
	</g>
</g>
<g id="Ebene_4">
	<g>
		<path class="st16" d="M151.3,87.6L162,88l-10.7,0.4c-0.2,0-0.5-0.2-0.5-0.4C150.8,87.8,151,87.6,151.3,87.6
			C151.2,87.6,151.2,87.6,151.3,87.6z"/>
	</g>
	<g>
		<path class="st16" d="M149.9,91.6l6.8,0.4l-6.8,0.4c-0.2,0-0.5-0.2-0.5-0.4C149.4,91.8,149.6,91.6,149.9,91.6
			C149.8,91.6,149.9,91.6,149.9,91.6z"/>
	</g>
	<g>
		<path class="st16" d="M162.7,147.9l12.4,0.4l-12.4,0.4c-0.2,0-0.5-0.2-0.5-0.4S162.4,147.9,162.7,147.9L162.7,147.9z"/>
	</g>
	<g>
		<path class="st16" d="M162.4,151.8l5.8,0.5l-5.8,0.4c-0.2,0-0.5-0.2-0.5-0.4C161.9,152,162.1,151.8,162.4,151.8
			C162.3,151.8,162.4,151.8,162.4,151.8z"/>
	</g>
	<g>
		<path class="st16" d="M174,123.5l6.5,0.4l-6.5,0.5c-0.2,0-0.5-0.2-0.5-0.4S173.7,123.6,174,123.5L174,123.5z"/>
	</g>
	<g>
		<path class="st16" d="M175.1,127.1l17.7,0.5l-17.7,0.4c-0.2,0-0.5-0.2-0.5-0.4S174.8,127.1,175.1,127.1L175.1,127.1z"/>
	</g>
	<g>
		<path class="st16" d="M173.4,207.6l15.3,0.4l-15.3,0.4c-0.2,0-0.5-0.2-0.5-0.4C173,207.8,173.2,207.6,173.4,207.6L173.4,207.6z"/>
	</g>
	<g>
		<path class="st16" d="M173.9,211.8l6,0.4l-6,0.4c-0.2,0-0.5-0.2-0.5-0.4C173.4,212.1,173.6,211.9,173.9,211.8L173.9,211.8z"/>
	</g>
</g>
<g id="Ebene_1_2_">
	<path class="st11" d="M66,173.9c-1.5,1.4-2.5,3.8-0.6,6.8c4,4.8,9.9,24.4,9.9,24.4c-0.2,0.7-0.1,1.8-0.6,2.1
		c-0.9,0.4-2.9-1.2-2.9-1.2s-18.3-21.8-19.6-26.5c-1-3.5,6.3-19.5,10.5-27.8c0.8-1.7,1.7-3.5,2.9-5.1l0.1-0.1c1.9-1.1,4.2-1,5.9,0.3
		c0.4,0.2,0.8,0.6,1,0.9c4.1,3.9,6.4,12.6,6,14.4c-0.3,1.2-2.2,2.6-4.8,5c-0.5,0.5-1.7,1.8-2.3,2.2C69.2,171.1,66.7,173.3,66,173.9z
		"/>
	<path class="st5" d="M73.3,167.4c-0.5,0.5-1.1,1-1.6,1.5l-9-17.5c0.8-1.7,1.8-3.6,2.9-5.1l0.1-0.1l5.9,0.3l1.1,0.1l-0.1,0.8
		L73.3,167.4z"/>
	<path class="st4" d="M64.8,106.5c0,0,2.9,5.1,2.7,8.3c-0.2,3.3-5.5,20.2-7.9,23.3c-2.4,3.1-22.2-6-22.2-6l1.6-1.9
		c0,0,16,2.6,16.6,1.3C56.3,130.2,55.7,106.3,64.8,106.5z"/>
	<path class="st11" d="M65.8,149.6c0,0,4.8,19.9,14.9,32.7c9.8,12.5,15.5,31.9,15.5,31.9c0.6,0.3,1.3,0.2,1.8-0.1
		c1.2-0.6,2,0,2.2-0.6c0,0-3.9-31.2-9-37.7c-4-5.2-5-13.6-4.9-21.3c-0.2-2.9-0.3-6-1.4-8.7L65.8,149.6z"/>
	<path class="st12" d="M100.5,219.2l-2.2,0.1c-0.8-0.1-1.3-0.2-2.1-0.3c-0.6-0.1-1.3,0.1-1.8,0.5l0,0l-9.5,0.5
		c-0.2-0.3-0.1-1.1,0.1-1.7c0.2-0.4,0.5-0.7,0.9-0.8c1.8-0.4,3.3-1.3,4.7-2.4c1-0.9,4.7-3.6,4.7-3.6l0,0c0.1,0,0.5,0.1,2.4,1.5
		c0.9,0.8,2.4-1.2,2.4-1.2c0.2,0.2,0.4,0.4,0.5,0.7c0.2,0.4,0.3,1,0.3,1.4c0.1,1.2,0.4,2.4,0.9,3.5c0.2,0.6,0.4,1.1,0.4,1.1
		S102.3,218.8,100.5,219.2z"/>
	<path class="st5" d="M100.5,212.3c-0.7,0.6-1.5,1.1-2.3,1.3c-1,0.1-3-2.3-3-2.3l0,0c0.1,0,0.5,0.1,2.4,1.5c0.9,0.8,2.4-1.2,2.4-1.2
		C100.2,211.8,100.4,212,100.5,212.3z"/>
	<path class="st5" d="M100.5,219.2l-2.2,0.1c-0.8-0.1-1.3-0.2-2.1-0.3c-0.6-0.1-1.3,0.1-1.8,0.5l0,0l-9.5,0.5
		c-0.2-0.3-0.1-1.1,0.1-1.7c0.3-0.2,0.4,1.1,0.6,1.3s7.7-0.4,8.2-0.7c1.1-0.6,2.4-0.9,3.6-0.7c1.6,0.3,3.9-0.8,4.5-1.1
		c0.2,0.6,0.4,1.1,0.4,1.1S102.3,218.8,100.5,219.2z"/>
	<path class="st13" d="M83.1,130.4c0-10.6,1.7-23.2-1-24.3c-3.9-1.6-8-1.5-12.2-1.5c-4,0.1-11.7,1-12.6,7.6
		c-0.6,4.2-1.6,7.8-1.6,7.8c0.6,1.6,1.9,2.8,3.4,3.4c0.1,0.7,0.4,1.4,0.7,2c0.3,0.9,0.8,1.7,1.3,2.4c3.9,5.7,3.5,9.1,1,21
		c3.9,3.2,23.1,1.3,25,0.1C90.4,146.7,83.1,141,83.1,130.4z"/>
	<path class="st12" d="M79.5,208l-1.7,1.5c-0.6,0.4-1.2,0.6-1.9,1c-0.6,0.3-1,0.8-1.1,1.5l0,0l-7.2,6.1c-0.4-0.1-0.7-0.9-0.9-1.5
		c-0.2-0.4,0-0.8,0.2-1.2c1.2-1.3,1.9-3,2.2-4.8c0.2-1.4,1.6-5.8,1.6-5.8l0,0c0.1-0.1,0.4-0.2,2.8-0.2c1.2,0,1.2-2.4,1.2-2.4
		c0.3,0,0.6,0,0.9,0.2c0.5,0.2,0.9,0.6,1.1,1c0.7,1,1.7,1.7,2.7,2.3l1.1,0.6C80.4,206.2,80.9,206.6,79.5,208z"/>
	<path class="st5" d="M75.5,202.4c-0.2,0.9-0.5,1.8-1.1,2.4c-0.7,0.8-3.8,0-3.8,0l0,0c0.1-0.1,0.4-0.2,2.8-0.2
		c1.2,0,1.2-2.4,1.2-2.4C74.9,202.2,75.2,202.2,75.5,202.4z"/>
	<path class="st5" d="M79.5,208l-1.7,1.5c-0.6,0.4-1.2,0.6-1.9,1c-0.6,0.3-1,0.8-1.1,1.5l0,0l-7.2,6.1c-0.4-0.1-0.7-0.9-0.9-1.5
		c0-0.4,1,0.6,1.3,0.7c0.3,0.1,6-4.9,6.1-5.5c0.4-1.2,1.4-2.1,2.5-2.6c1.5-0.7,2.6-3,2.9-3.6l1.1,0.6
		C80.4,206.2,80.9,206.6,79.5,208z"/>
	<path class="st4" d="M78.6,108.2c0,0,5.9,0.8,8.3,2.9c2.4,2.2,12.6,16.7,13.6,20.5c1,3.8-14.4,11.9-14.4,11.9l-1.5-3.4
		c0,0,8.9-8.3,8.3-9.5C92.2,129.4,72.8,115.3,78.6,108.2z"/>
	<path class="st4" d="M86.1,139.7l2,2.1c0,0-2.7,4-3.9,4.4l-0.1,0c-1.2,0-3.9-2.3-4.1-4.3c-0.1-0.2,0-0.4,0.1-0.6
		c0.7-1.1,3.5-1.4,5-1.5C85.8,139.6,86.1,139.7,86.1,139.7z"/>
	<path class="st4" d="M42,131l-0.8,2.8c0,0-4.9-0.2-5.7-1.1l0-0.1c-0.6-1,0-4.5,1.7-5.8c0.2-0.1,0.4-0.2,0.6-0.2
		c1.3-0.1,3,2.3,3.8,3.5C41.8,130.7,42,131,42,131z"/>
	<path class="st13" d="M77.1,104.9c0,0,5.5,0.4,9,3.3c1.6,1.3,7.3,9.5,7.3,9.5s-1.9,5.6-10.3,6.2c-8.4,0.6-7.5-12.9-7.5-12.9
		L77.1,104.9z"/>
	<path class="st4" d="M73.8,104.1c0.2,0.4,0.2,0.9,0,1.3c-0.7,1.2-2.8,3.2-8.1,2.8c-1.8-0.1-2.2-1.5-1.1-2.9
		c0.3-0.3,0.2-2.3,0.2-3.1c-0.1-1-0.1-1.9,0-2.9l3.8-2.6l3.6-2.5C71.6,100,73.1,103,73.8,104.1z"/>
	<path class="st7" d="M72,97.1c0,0-2.6,4.1-7.2,5c-0.1-1-0.1-1.9,0-2.9l3.8-2.6L72,97.1z"/>
	<path class="st4" d="M63.2,99c0,0,8.8,2,10-3.3s3.1-8.8-2.4-10.3s-7.1,0.3-7.9,2S60.9,98.3,63.2,99z"/>
	<path d="M77.1,85.1c0.2-0.1,0.5-0.2,0.7-0.1c-0.2-0.2-0.5-0.2-0.8-0.3c0-0.8-0.5-1.6-1.3-1.9c0.3,0.2,0.5,0.6,0.5,0.9
		c-1.1-1.2-3.5-2.3-10.3-2.2c-9,0.1-6.4,6-5.3,6.8s4.1-0.9,6.3-0.6s2.4,3.5,3,3.9s0.5-0.3,1.5-0.7s1,1.3,0.6,2.3s0.9,2.5,0.9,2.5
		l1.5-1.4c1.5-1.4,3.2-7.6,2.6-9L77.1,85.1z"/>
	<path class="st9" d="M62.4,95.6c0.2,0.5,0.6,0.8,1.1,0.9c0.5,0.1,1.7,0.2,2.2-1C65,95.3,63.3,95.5,62.4,95.6z"/>
	<g>
		<path class="st10" d="M64.5,91.4c0.1-0.2,0.3-0.3,0.5-0.4s0.4-0.1,0.6-0.1s0.4,0,0.7,0.1c0.2,0.1,0.4,0.3,0.5,0.5
			c-0.1-0.2-0.3-0.2-0.5-0.3c-0.2,0-0.4-0.1-0.6,0c-0.2,0-0.4,0-0.6,0C64.9,91.3,64.6,91.3,64.5,91.4z"/>
	</g>
	<g>
		<path class="st10" d="M63,91.4c-0.3,0-0.5-0.1-0.8-0.1s-0.5,0-0.7,0.2c0-0.1,0.1-0.3,0.3-0.4c0.1-0.1,0.3-0.1,0.4-0.1
			c0.2,0,0.3,0,0.4,0.1C62.8,91.2,62.9,91.3,63,91.4z"/>
	</g>
</g>
<g id="Ebene_4_1_">
	<g>
		<path class="st16" d="M81.7,87.6L92.4,88l-10.7,0.4c-0.2,0-0.5-0.2-0.5-0.4C81.2,87.8,81.4,87.6,81.7,87.6
			C81.6,87.6,81.6,87.6,81.7,87.6z"/>
	</g>
	<g>
		<path class="st16" d="M80.3,91.6l6.8,0.4l-6.8,0.4c-0.2,0-0.5-0.2-0.5-0.4C79.8,91.8,80,91.6,80.3,91.6
			C80.2,91.6,80.3,91.6,80.3,91.6z"/>
	</g>
	<g>
		<path class="st16" d="M93.1,147.9l12.4,0.4l-12.4,0.4c-0.2,0-0.5-0.2-0.5-0.4S92.8,147.9,93.1,147.9L93.1,147.9z"/>
	</g>
	<g>
		<path class="st16" d="M92.8,151.8l5.8,0.5l-5.8,0.4c-0.2,0-0.5-0.2-0.5-0.4C92.3,152,92.5,151.8,92.8,151.8
			C92.7,151.8,92.8,151.8,92.8,151.8z"/>
	</g>
	<g>
		<path class="st16" d="M88.5,106.2l6.5,0.4l-6.5,0.5c-0.2,0-0.5-0.2-0.5-0.4S88.2,106.3,88.5,106.2L88.5,106.2z"/>
	</g>
	<g>
		<path class="st16" d="M91.2,109.6l17.7,0.5l-17.7,0.4c-0.2,0-0.5-0.2-0.5-0.4C90.7,109.8,90.9,109.6,91.2,109.6L91.2,109.6z"/>
	</g>
	<g>
		<path class="st16" d="M103.8,207.6l15.3,0.4l-15.3,0.4c-0.2,0-0.5-0.2-0.5-0.4C103.4,207.8,103.6,207.6,103.8,207.6L103.8,207.6z"
			/>
	</g>
	<g>
		<path class="st16" d="M104.3,211.8l6,0.4l-6,0.4c-0.2,0-0.5-0.2-0.5-0.4C103.8,212.1,104,211.9,104.3,211.8L104.3,211.8z"/>
	</g>
</g>
<g>
	<g>
		<path class="st16" d="M-36.8,142.5l10.6,0.4l-10.6,0.4c-0.2,0-0.5-0.2-0.5-0.4S-37.1,142.5-36.8,142.5L-36.8,142.5z"/>
	</g>
	<g>
		<path class="st16" d="M-35.4,146.4l20.3,0.5l-20.3,0.4c-0.2,0-0.5-0.2-0.5-0.4C-35.9,146.6-35.7,146.4-35.4,146.4L-35.4,146.4z"/>
	</g>
	<g>
		<path class="st16" d="M-36.7,96.5l7.2,0.4l-7.2,0.5c-0.2,0-0.5-0.2-0.5-0.4C-37.2,96.7-37,96.5-36.7,96.5L-36.7,96.5z"/>
	</g>
	<g>
		<path class="st16" d="M-37.2,100.4l15.5,0.4l-15.5,0.5c-0.2,0-0.5-0.2-0.5-0.4S-37.5,100.4-37.2,100.4L-37.2,100.4z"/>
	</g>
	<g>
		<path class="st16" d="M-51.2,212.6l15.8,0.5l-15.8,0.4c-0.2,0-0.5-0.2-0.5-0.4C-51.7,212.8-51.5,212.6-51.2,212.6
			C-51.3,212.6-51.2,212.6-51.2,212.6z"/>
	</g>
	<g>
		<path class="st16" d="M-50.3,216.3l26.6,0.4l-26.6,0.4c-0.2,0-0.5-0.2-0.5-0.4S-50.6,216.3-50.3,216.3L-50.3,216.3z"/>
	</g>
</g>
<g id="Ebene_3" class="st17">
	<g id="Motion_Lines_Thic" class="st0">
		<path class="st18" d="M110.4,182.3c1-0.9,2.2-1.6,3.5-2.2"/>
		<path class="st18" d="M79.1,219.1c0,0,12.1-1.2,20.9-8.9"/>
		<path class="st18" d="M169.4,217.2c11.4-0.8,14.4-2.5,22.9-9.6"/>
		<path class="st18" d="M84.8,137.6c5.3,2.6,11.2,3.1,16.7,1.3"/>
		<path class="st18" d="M88.7,134.6c2.9,1.4,5.7,1.7,9.1,1.4"/>
		<path class="st18" d="M160.4,141.7c3.4,0.8,5.6,1.5,10.5,1"/>
		<path class="st18" d="M157.4,145.1c5.6,1.2,9.3,2.4,17.4,1.6"/>
		<path class="st18" d="M168.9,213.4c5-0.3,9.9-2.7,13.3-6.5"/>
		<path class="st18" d="M78.6,215.4c3.9-0.5,7.6-2.4,10.3-5.2"/>
		<path class="st18" d="M43.9,129.6c-0.2,4.2,0.8,8.5,2.7,11.9"/>
		<path class="st18" d="M39.9,126.9c0.1,3.3,0.5,6.6,1.3,9.8"/>
		<path class="st18" d="M142.4,97.9c3.5,0.9,7.5,1.2,11.4,0.7"/>
		<path class="st18" d="M144.6,94c5,1.2,11.3,1.2,16.3-0.4"/>
		<path class="st18" d="M106.2,179.6c1.6-1.8,3.7-3.3,6-4.2"/>
	</g>
	<g id="Motion_Lines_Thin" class="st0">
		<path class="st19" d="M156,146c3.2,1.6,6.6,2.6,10.1,3"/>
		<path class="st19" d="M159.2,143.2c3.1,1.1,6.8,1.6,9.9,1.5"/>
		<path class="st19" d="M169.2,215.4c4.7,0,9.4-1.5,13.2-4.2"/>
		<path class="st19" d="M169.6,218.5c0.9-0.1,1.8,0,2.7,0s4.3-0.4,5.2-0.8"/>
		<path class="st19" d="M143.3,96.1c2.1,0.6,4.3,0.9,6.5,1.1"/>
		<path class="st19" d="M145.3,92.2c2.6,0.5,4.9,0.5,7.4,0.4"/>
		<path class="st19" d="M42.1,128.3c-0.2,1.4-0.2,2.8,0,4.2s0.2,1.4,0.5,2.5"/>
		<path class="st19" d="M46,130.8c-0.1,1.5,0.1,3.1,0.5,4.6"/>
		<path class="st19" d="M90.6,133.4c1.9,0.8,5.4,1.2,6.1,1.2"/>
		<path class="st19" d="M86.8,136.3c0.2,0.2,2.5,1.2,4.1,1.6c1.2,0.3,3.2,0.4,4.8,0.2"/>
		<path class="st19" d="M78.5,213.7c1.1-0.3,2.2-0.7,3.2-1.2c1-0.6,1.9-1.4,2.3-2.5"/>
		<path class="st19" d="M79.1,217.2c3.2,0,6.3-1.3,8.9-3.6"/>
		<path class="st19" d="M109.2,181.2c2.3-1.9,4-3.4,5.7-3.6"/>
		<path class="st19" d="M105.2,178.7c0.9-1.2,1.1-1.4,2.3-2.2"/>
		<path class="st19" d="M81.4,93.3c5.2,0.1,13-0.9,14.6-2.1"/>
		<path class="st19" d="M90,95.4c2.6,0.1,5.2-0.4,7.6-1.5"/>
		<path class="st19" d="M90.9,97.2c2.1,0.1,4.2,0,6.3-0.2"/>
	</g>
</g>
</svg>
