<?xml version="1.0" encoding="utf-8"?>
<!-- Generator: Adobe Illustrator 25.2.0, SVG Export Plug-In . SVG Version: 6.00 Build 0)  -->
<svg version="1.1" id="Ebene_1" xmlns="http://www.w3.org/2000/svg" xmlns:xlink="http://www.w3.org/1999/xlink" x="0px" y="0px"
	 viewBox="0 0 220 220" style="enable-background:new 0 0 220 220;" xml:space="preserve">
<style type="text/css">
	.st0{opacity:0.2;fill:#1E1E1E;enable-background:new    ;}
	.st1{fill:#F9AF7D;}
	.st2{fill:#DADADA;}
	.st3{fill:#FFA166;}
	.st4{fill:#1F3866;}
	.st5{fill:#9529F9;}
	.st6{fill:#8519F7;}
	.st7{fill:#EDEDED;}
	.st8{fill:#FFB27D;}
	.st9{fill:#1A2C70;}
	.st10{fill:#FCFCFC;}
	.st11{fill:#F2F2F2;}
	.st12{display:none;fill:#E8E8E8;}
	.st13{fill:#A87C5E;}
	.st14{fill:#FFFFFF;}
	.st15{fill:#EF2B2B;}
	.st16{fill:#E5D50E;}
	.st17{fill:#FFFF99;}
	.st18{fill:#2E51C0;}
	.st19{fill:#2D548C;}
	.st20{fill:#233862;}
	.st21{fill:#5B58EE;}
	.st22{fill:#D3D3D3;}
	.st23{fill:#C6C6C6;}
	.st24{fill:#7C5828;}
	.st25{fill:#895E25;}
	.st26{fill:#875E23;}
	.st27{display:none;}
	.st28{display:inline;}
	.st29{fill:#ED985F;}
	.st30{fill:#F49F64;}
	.st31{fill:#FCA56B;}
	.st32{display:inline;opacity:0.2;fill:#1E1E1E;enable-background:new    ;}
</style>
<g id="Ebene_1_2_">
	<g id="Ebene_2_2_">
		<ellipse class="st0" cx="141" cy="215.7" rx="33.3" ry="2.4"/>
	</g>
	<g>
		<path class="st1" d="M133.7,90.6c2.7,0,0,12.5,0,12.5s-4.6,11.6-5.9,13.2c-1.3,1.5-2.4-0.6-4.6-0.8c1.9-3.6,1.8-14.7,3.4-19
			C127.9,91.8,131,90.6,133.7,90.6L133.7,90.6z"/>
		<path class="st2" d="M149.1,209.1c0.4,0.6,0.7,0.4,0.7,1.1c0,0.6,0.3,2.3-0.1,2.9c-1.2,1.8-14.5,2.7-16.9,2.7
			c-1.9,0-3.4-1.3-3.4-1.9c0-0.4,0.1-1.1,0.2-1.3c1-1.8,2.8-1.5,4.5-1.8l8.6,1.1l0.4-3.4l6.1,0.7V209.1L149.1,209.1z"/>
		<path class="st3" d="M145.6,142.2c0.4-3.2-2.2-6.2-5.9-6.6c-3.6-0.5-6.2,1.4-6.6,4.7c-0.3,2.5-3.6,23.7-0.8,34.6
			c0.5,2.5,1.2,4.2,2.3,4.3C141.3,179.9,145.2,145.4,145.6,142.2L145.6,142.2z"/>
		<path class="st4" d="M141.8,167.4l-11.1-1.3c-1-18.7,2.1-28.1,2.5-30.2c1.1-5.8,2.8-1.7,6.7-1.2c3.8,0.5,6.6,3.6,6.2,7.1
			C145.8,143.7,144.5,156.8,141.8,167.4L141.8,167.4z"/>
		<path class="st3" d="M140.7,204.5c-0.1-0.4,0.4-1,0.3-1.3c-2.2-10.3-8-25.3-8.4-27.3c-0.7-3.2,6.2-8.5,8.4-5.6
			c1.2,1.7,2.6,5.8,3.3,8.9c0.4,1.8,0.2,12.1,1.3,21c0.3,2.6,1,2.9,1,3.7L140.7,204.5L140.7,204.5z"/>
		<path class="st5" d="M129.6,212.3c1.4-3.3,4.4-2.5,6.4-3.5c2.1-1.1,3.3-3.3,3.3-3.3s-1-1.2-0.7-2.5c0.2-0.5,1-0.3,1.4-0.3
			c0.6-0.1,1.3-0.4,1.5-0.1c0.4,0.6,0.1,1.8,0.1,1.8s1.3,0.1,3-0.8c1.5-0.7,1.7-1.5,2.4-1.1c0.2,0.1,0.6,0.8,0.3,1.5
			c0.6,0.1-0.2,1.1,1,2.6c1.1,1.3,1.9,3.1,0.7,5.1c-1.1,1.7-13.8,2.8-16.2,2.8C131.1,214.4,129.3,213,129.6,212.3L129.6,212.3z"/>
		<path class="st6" d="M133.7,209.8c-0.1-0.1-0.3-0.2-0.5-0.1c0.9-0.2,2-0.4,2.8-0.8c1.8-1,3-2.8,3.2-3.2c0.7,0.4,1.5,1,1.2,2
			c-0.3,1.2-1.4,1.8-2.5,2.2C136.6,210.4,135,210.5,133.7,209.8L133.7,209.8z"/>
		<path class="st7" d="M153.3,211.8c0.4,0.7,0.7,0.4,0.6,1.3c0,0.6,0.2,2.3-0.2,2.9c-1.2,1.6-14.6,1.9-17,1.7
			c-1.9-0.1-3.4-1.5-3.3-2.1c0.1-0.4,0.2-1.1,0.3-1.3c1.2-1.8,2.9-1.4,4.6-1.6l8.5,1.5l0.6-3.4l6,1.1V211.8L153.3,211.8z"/>
		<path class="st8" d="M153.6,144.9c0.6-3.2-1.8-6.4-5.5-7.1c-3.6-0.6-7,1.4-7.6,4.7c-0.4,2.5-4.3,23.2-2,34.2
			c0.3,2.6,0.9,4.3,2,4.5C147.1,182.4,153,148.1,153.6,144.9L153.6,144.9z"/>
		<path class="st9" d="M148.5,168.7l-11.4-2.1c0.3-11.5,1.9-26.1,1.7-29.4c-0.2-3.5,5.7-3.2,9.6-2.5c3.9,0.7,7.4,2.1,8.1,5.8
			C157.5,143,153.5,158.3,148.5,168.7L148.5,168.7z"/>
		<path class="st8" d="M145.2,206.8c0-0.3,0.4-0.9,0.4-1.4c-1.7-10.4-6.6-25.7-6.9-27.7c-0.5-3.2,6.7-8.1,8.7-5.1
			c1.1,1.7,3.3,5.8,3.8,9c0.3,1.9-1.5,12.1-0.9,21.1c0.2,2.7,0.9,3,0.8,3.8L145.2,206.8L145.2,206.8z"/>
		<path class="st5" d="M133.8,214c1.5-3.2,4.5-2.2,6.6-3.1c2.1-1,3.4-3.1,3.4-3.1s-0.9-1.3-0.6-2.6c0.2-0.6,1-0.3,1.4-0.3
			c0.6,0,1.3-0.4,1.5,0c0.4,0.6,0,1.8,0,1.8s1.3,0.2,3.1-0.6c1.5-0.7,1.9-1.4,2.5-1c0.3,0.1,0.6,0.9,0.3,1.5
			c0.6,0.1-0.3,1.2,0.9,2.7c1,1.3,1.7,3.2,0.4,5.1c-1.3,1.7-14,2.1-16.4,1.9C135.1,216.1,133.5,214.7,133.8,214L133.8,214z"/>
		<path class="st6" d="M137.9,211.6c-0.1-0.1-0.3-0.2-0.5-0.3c1-0.1,2-0.2,2.9-0.6c1.9-0.8,3.1-2.6,3.4-3c0.7,0.5,1.4,1.1,1.1,2.1
			c-0.4,1.2-1.6,1.7-2.7,2.1C140.8,212.4,139.2,212.4,137.9,211.6L137.9,211.6z"/>
		<path class="st8" d="M133.7,90.7c0,6.1-3.2,8.8-3,12.1c0.2,3.3,2.8,5.5,3.2,6.5c0.5,1.2,0.3,4.4,0.8,8.5c0.5,5-1.5,11.7-0.2,18
			c0.5,7.8,11.9,8.1,11.9,8.1s11.5-0.8,10.2-9.5c-1.3-8.6-6.6-12-6.9-17.8c-0.2-3,2.2-8.9,3.9-14.7c0.9-2.9,0.5-12.9-2.1-14.3
			c-2.6-1.4-4.9-1.7-6-2.2c-0.7-0.3-1.2-1.2-1.4-2.1c-0.2-0.8-0.6-1.4-1.3-1.7c-2.5-1.3-5.4-2.1-6.1,1.9c0,0.2,0,0.4-0.1,0.6
			c0.1,0.3,0,0.6,0,0.9c0.3,0.7,0,1.4,0.3,2.7C137.1,88.6,135.4,89.8,133.7,90.7z"/>
		<path class="st9" d="M134.1,130.9c0,0,2.2,0.9,8.1,0.6c8.9-0.6,13-3,13-3c1.1,0.7,2.5,5.7,2.6,7.5c0.6,8.8-6.5,14.6-12.9,14.6
			s-9.4-7.2-11-13.2C133.3,135.5,133.8,133,134.1,130.9L134.1,130.9z"/>
		<path class="st1" d="M127,111.3c1.9,2,2.1,7.1-1.8,5.4c-7.1-2.9-15.8-13.3-17.4-14.5c-1.8-1.4,1.1-3.5,1.7-3
			c3.3,2.4,9.1,4.6,11.7,6.4C124.8,107.9,125.8,110.1,127,111.3L127,111.3z"/>
		<path class="st10" d="M134.6,117c-0.2-3.3-1-6.5-1.2-7.3c-0.4-1.1-2.7-3.2-2.9-6.6c-0.2-3.3,3.5-6.4,3.5-12.5
			c0.4-0.8,2.5-2.4,2.5-1.7s-3.6,7.7-3.1,8.6c0.5,1,9.5,0.6,10.8-0.8c1.3-1.4,3.1-9.9,3.3-10.5c0.2-0.7,3,0.5,2.7,0.9
			c-3.8,3.5-3.5,15.2,3.8,16.6c-0.7,2.4-4.4,11.6-4.3,13.1v0.1L134.6,117L134.6,117z"/>
		<path class="st8" d="M151.6,87.8c-2.6-0.4-2.3,12.3-2.3,12.3s2.8,13.7,3.8,15.4c1,1.7,6.1,0.2,5.6-1.3c-1.3-3.9,0-15.1-1.2-19.6
			C157,89.9,154.3,88.2,151.6,87.8L151.6,87.8z"/>
		<path class="st8" d="M158.7,114.1c-1.3-2.4-6.4-4.2-5.9,0.3c0.2,7.5,7,19.1,8.2,21.1c1.2,3.3,3.9,0.8,3.4-0.7
			c-1.3-3.9-1.7-10.1-2.5-13.2C160.7,117.5,159.5,115.6,158.7,114.1L158.7,114.1z"/>
		<path class="st1" d="M107.2,101.6h0.8l6,1.7c0,0-2.9-3-3.7-3.7c-0.7-0.7-0.2-2,0-2.8c0.1-0.8-1.5-5.2-1.7-5.5
			c-0.3-0.3-3.3-1.2-3.9-1.1c-0.6,0.1-1.6,1.6-2.2,2.5c-0.6,0.9-0.6,1.7,0,2.3C102.9,95.6,107.2,101.6,107.2,101.6L107.2,101.6z"/>
		<path class="st8" d="M163.7,132.3l-0.7-0.2l-5.5-3.6c0,0,2.1,4.2,2.7,5.1c0.6,0.8-0.4,2-0.7,2.7s0.2,5.3,0.3,5.7
			c0.2,0.3,2.9,1.9,3.5,2c0.5,0.1,1.9-1.1,2.7-1.8c0.8-0.7,1-1.4,0.6-2.2C166.3,139.2,163.7,132.3,163.7,132.3L163.7,132.3z"/>
		<path class="st11" d="M142.9,108.2h0.8c0,0,1.6,0.1,2.9-1.6s0.4-3.9,2.5-5.2c-1.5,1.6-1,4.4-1.9,5.5c-1.6,2-4.4,1.4-4.4,1.4V108.2
			z"/>
		<path class="st12" d="M135.6,108.2c0,0,1.7,0.1,3-1.4c1.3-1.5,1.1-1.1,0.6,0.2c-1.1,1.7-4.4,1.2-4.4,1.2L135.6,108.2z"/>
	</g>
	<g>
		<path d="M144.5,60.7c0,0,0.9-5,8.1-3.8c0,0-3.4-0.2-4.4,1.2c0,0,2.6-1.5,4.4-0.4c1.8,1,2.2,4.4,2,5.6c-0.2,1.1-2,4.4-3.1,4.4
			c-1-0.1-2-0.4-2.8-1L144.5,60.7z"/>
		<path d="M131.8,66.1c0,0,8.5-11.3,13.6-4.6c0,0,3.6,1.3,5.2,7.3c1.5,6-2.3,10.9-4.5,10c-1.4-0.6-2.3,1.8-2.3,1.8L131.8,66.1z"/>
		<path class="st8" d="M136.4,89.3c0,0,3.4,1.3,5.7,0.4c0.8-0.4,1.6-0.7,2.4-1c1.1-0.4,1.6-1.7,1-2.7c-0.8-1.6-1.7-4.2-2.1-7.4
			l-0.4,0.1l-7.2,2.2c0,0,0.5,2.3,0.7,4.5C136.7,87.3,136.8,89,136.4,89.3"/>
		<path class="st3" d="M135.8,80.9c0,0,0.5,2.3,0.7,4.5c4-0.6,5.9-4.6,6.5-6.7L135.8,80.9z"/>
		<path d="M144,78.3c1.2-2,2.1-4.4,2.5-6.7c0.4-2.2-1.1-10.1-9.2-8.6c-1.6,0.4-3.1,0.9-4.4,1.9c-1.7,1.4-4.1,4-0.9,10.8l0.8,2.4
			L144,78.3z"/>
		<path class="st8" d="M134.4,83.3c0,0,10-0.2,9.7-6.6c-0.3-6.3,0.8-10.6-5.6-10.6c-6.4,0-7.6,2.4-8,4.5
			C130,72.7,131.7,83.3,134.4,83.3"/>
		<g>
			<g>
				<path class="st13" d="M137,74.5c-0.4-0.1-0.7-0.2-1.2-0.2c-0.2,0-0.6,0.1-0.8,0.1c-0.2,0.1-0.5,0.1-0.8,0.4
					c0.2-0.4,0.8-0.7,1.3-0.8c0.3,0,0.4-0.1,0.7,0C136.6,74.3,136.9,74.4,137,74.5z"/>
			</g>
			<g>
				<path class="st13" d="M132.3,74.9c-0.4,0-1.8,0-2.2,0.4c0.1-0.4,0.7-0.6,1-0.7C131.6,74.6,132,74.7,132.3,74.9z"/>
			</g>
		</g>
		<path d="M133.9,66.3c0,0,3.1,7.2,7.4,8.1c4.2,0.9,6.1-0.2,6.1-0.2c-2.2-1.7-3.8-4.1-4.3-6.9C143.2,67.1,135.8,62.5,133.9,66.3"/>
		<path d="M134.5,66.2c-1,0.9-1.9,2.1-2.4,3.4c-0.4,1.5-1.9,5.5-2.9,5.4c0,0-0.9-5.6,1.3-8.5C132.8,63.7,134.5,66.2,134.5,66.2"/>
		<path d="M133.5,66.6c0,0,3.1,8,8.6,10.2c0,0-5.6-4.4-6.3-9.5C135.1,62.3,133.5,66.6,133.5,66.6"/>
		<path class="st14" d="M132.5,79.8c0,0,0.3,0.5,0.4,0.9c0.1,0.2,1.9,0.1,2.4-0.2c0.4-0.3,0.8-0.7,0.9-1
			C135,79.5,133.8,79.6,132.5,79.8"/>
	</g>
	<g>
		<g>
			<path class="st15" d="M138.8,96c-0.3-0.2-0.5-0.4-0.6-0.6c-0.7-1.5-1.2-3.1-1.6-4.9c-0.1-0.2-0.1-0.4-0.2-0.6
				c-0.2-0.4-0.3-0.9-0.3-1.3c0-0.2,0.1-0.4,0.3-0.4c0.1,0,0.3,0.2,0.3,0.4c0,0.3,0.1,0.7,0.2,1.1c0.1,0.2,0.2,0.4,0.2,0.6
				c0.4,1.6,0.9,3.2,1.6,4.8c0,0.1,0.1,0.1,0.1,0.1v0.1l0.1-0.1c3.2-2.7,5.5-6,6.7-9.6c0-0.1,0.2-0.2,0.3-0.2h0.1
				c0.2,0.1,0.3,0.3,0.2,0.5c-1.2,3.8-3.5,7.2-6.9,9.9C139.2,95.9,139,96,138.8,96C138.7,96,138.7,96,138.8,96z"/>
			<path class="st15" d="M145.8,85.5C145.8,85.5,145.9,85.5,145.8,85.5c0.2,0.1,0.3,0.2,0.3,0.4c-1.2,3.7-3.5,7.1-6.9,9.8
				c-0.1,0.1-0.2,0.2-0.4,0.2c-0.1,0-0.1,0-0.2,0c-0.2,0-0.4-0.2-0.5-0.4c-0.7-1.5-1.2-3.1-1.6-4.9c-0.1-0.2-0.1-0.4-0.2-0.6
				c-0.2-0.4-0.3-0.9-0.3-1.3c0-0.2,0.1-0.3,0.2-0.3s0.2,0.2,0.2,0.3c0,0.4,0.1,0.8,0.2,1.2c0.1,0.2,0.2,0.4,0.2,0.6
				c0.4,1.6,0.9,3.2,1.6,4.8c0.1,0,0.1,0.1,0.2,0.1c0.1,0,0.1,0,0.1,0l0.1-0.1c3.3-2.7,5.6-6,6.8-9.6
				C145.6,85.6,145.7,85.5,145.8,85.5 M145.8,85.3c-0.2,0-0.3,0.2-0.4,0.4c-1.2,3.6-3.4,6.9-6.7,9.5l0,0c-0.7-1.5-1.2-3.1-1.6-4.8
				c-0.1-0.2-0.1-0.4-0.2-0.6c-0.1-0.4-0.2-0.8-0.2-1.1c0-0.3-0.2-0.5-0.4-0.5s-0.4,0.2-0.4,0.5c0,0.4,0.2,0.9,0.3,1.4
				c0,0.2,0.1,0.3,0.1,0.5c0.3,1.6,0.9,3.3,1.6,4.9c0.1,0.2,0.3,0.4,0.6,0.5c0.1,0,0.1,0,0.2,0c0.2,0,0.4-0.1,0.6-0.2
				c3.4-2.7,5.8-6.1,7-9.9c0-0.3-0.1-0.5-0.3-0.6C145.9,85.3,145.9,85.3,145.8,85.3L145.8,85.3z"/>
		</g>
	</g>
	<g>
		<path class="st16" d="M138,100.1c-0.9-0.1-1.6-1.3-1.4-2.6c0.1-1.3,0.9-2.2,1.8-2.2c0.1,0,0.1,0,0.2,0c0.9,0.1,1.6,1.3,1.4,2.6
			c-0.1,1.3-0.9,2.2-1.8,2.2C138.2,100.1,138.1,100.1,138,100.1z"/>
		<g>
			<path class="st16" d="M138.5,95.5c0,0,0.1,0,0.2,0c0.9,0.1,1.5,1.3,1.3,2.5c-0.1,1.1-0.9,2-1.7,2c-0.1,0-0.1,0-0.2,0
				c-0.9-0.1-1.5-1.3-1.3-2.5C136.9,96.4,137.7,95.5,138.5,95.5 M138.5,95.2c-1,0-1.8,1-2,2.3c-0.2,1.4,0.5,2.7,1.5,2.8
				c0.1,0,0.1,0,0.2,0c1,0,1.8-1,2-2.3c0.2-1.4-0.5-2.7-1.5-2.8C138.7,95.2,138.7,95.2,138.5,95.2L138.5,95.2L138.5,95.2z"/>
		</g>
	</g>
	<path class="st11" d="M139.4,108.2c-0.5,0-1.5-0.1-1.8-0.1c-0.7,0-1.3,0.3-2.2,0.2c0.4,0,1.2-0.3,1.5-0.4c0.6-0.3,0.8-0.8,0.8-0.7
		C137.8,107.6,139,108,139.4,108.2z"/>
	<g>
		<g>
			<polygon class="st17" points="159.3,100.1 163,98.2 159.9,101 			"/>
		</g>
		<g>
			<polygon class="st17" points="159.9,103.9 163,106.7 159.3,104.7 			"/>
		</g>
		<g>
			<polygon class="st17" points="159.9,102 163.8,102.9 159.8,103 			"/>
		</g>
	</g>
	<g>
		<g>
			<polygon class="st17" points="117.6,102.6 117.1,98.9 118.5,102.4 			"/>
		</g>
		<g>
			<polygon class="st17" points="121,103.6 124.3,102.3 121.5,104.4 			"/>
		</g>
		<g>
			<polygon class="st17" points="119.3,102.8 121.3,100 120.2,103.3 			"/>
		</g>
	</g>
</g>
<g id="Ebene_1_1_">
	<g id="Ebene_2_1_">
		<ellipse class="st0" cx="72" cy="216.4" rx="32.9" ry="2.4"/>
	</g>
	<g>
		<path class="st8" d="M79.2,92.9c2.7,0,5.7,1.2,6.9,5.7c1.6,4.3,1.5,15.2,3.4,18.8c-2.1,0.2-3.2,2.3-4.5,0.8s-5.8-13-5.8-13
			S76.5,92.9,79.2,92.9L79.2,92.9z"/>
		<path class="st2" d="M65.5,210.4L65.5,210.4l6-0.9l0.6,3.4l8.4-1.5c1.6,0.2,3.4-0.2,4.5,1.6c0.1,0.2,0.2,0.9,0.3,1.3
			c0,0.6-1.4,2-3.3,2.1c-2.4,0.1-15.5-0.1-16.8-1.8c-0.4-0.6-0.2-2.3-0.3-2.9C64.8,210.8,65.1,211,65.5,210.4L65.5,210.4z"/>
		<path class="st3" d="M67.4,143.8c0.4,3.2,4.3,37.3,10.8,36.5c1.1-0.1,1.8-1.7,2.3-4.2c2.8-10.8-0.5-31.7-0.8-34.2
			c-0.4-3.2-2.9-5.1-6.5-4.6C69.6,137.7,67,140.6,67.4,143.8L67.4,143.8z"/>
		<path class="st18" d="M71.2,168.7c-2.7-10.4-4-23.4-4.2-25.3c-0.4-3.4,2.3-6.5,6.1-7c3.8-0.5,5.5-4.5,6.6,1.2
			c0.4,2,3.5,11.3,2.5,29.8L71.2,168.7L71.2,168.7z"/>
		<path class="st3" d="M73.6,205.4l-5.9-0.3c0-0.8,0.6-1.1,0.8-3.7c0.6-8.7-0.1-18.9,0.2-20.7c0.5-3.1,1.7-7.2,2.8-9
			c2-3,9.1,1.8,8.6,5.1c-0.3,2-5.2,17.1-6.9,27.4C73.1,204.5,73.6,205,73.6,205.4L73.6,205.4z"/>
		<path class="st19" d="M84.8,212.6c0.3,0.7-1.3,2.1-3.2,2.3c-2.4,0.1-14.9-0.3-16.1-2c-1.3-1.8-0.6-3.7,0.4-5
			c1.1-1.6,0.3-2.5,0.9-2.6c-0.3-0.7,0-1.4,0.2-1.5c0.7-0.4,0.9,0.4,2.5,1c1.7,0.8,3,0.6,3,0.6s-0.4-1.2,0-1.8c0.2-0.3,0.9,0,1.5,0
			c0.4,0,1.2-0.3,1.4,0.2c0.4,1.3-0.6,2.5-0.6,2.5s1.3,2.1,3.5,3.1C80.4,210.3,83.3,209.3,84.8,212.6L84.8,212.6z"/>
		<path class="st20" d="M80.7,210.3c-1.3,0.8-2.9,0.7-4.2,0.3c-1.1-0.3-2.2-0.9-2.6-2.1c-0.4-1,0.4-1.6,1.1-2.1
			c0.2,0.4,1.5,2.1,3.4,3c0.8,0.4,1.9,0.5,2.8,0.7C81,210.1,80.8,210.2,80.7,210.3L80.7,210.3z"/>
		<path class="st7" d="M54.7,211.4L54.7,211.4l6-0.4l0.3,3.4l8.5-0.7c1.6,0.4,3.3,0.1,4.3,2c0.1,0.2,0.1,0.9,0.2,1.3
			c0,0.6-1.6,1.9-3.5,1.8c-2.4,0-15.5-1.6-16.6-3.3c-0.3-0.6,0-2.3,0.1-2.9C54,211.7,54.3,212,54.7,211.4L54.7,211.4z"/>
		<path class="st8" d="M60.7,145.5c0.3,3.2,3,37.4,9.5,36.9c1.1-0.1,1.9-1.6,2.4-4.2c3.2-10.6,1.4-31.3,1.2-33.8
			c-0.3-3.2-3.4-5.5-7-5.3C63.1,139.4,60.4,142.3,60.7,145.5L60.7,145.5z"/>
		<path class="st21" d="M63.5,169.4c-4-10.7-6.5-26.1-5.2-28.5c1-3.5,4.6-4.6,8.5-4.9s9.8-0.1,9.2,3.4c-0.5,3.2-0.3,17.7-1,29
			L63.5,169.4L63.5,169.4z"/>
		<path class="st8" d="M63.2,207.2l-5.8-0.9c0-0.8,0.7-1,1.2-3.7c1.4-8.7,0.6-18.9,1.1-20.8c0.8-3.1,3.4-6.9,4.6-8.5
			c2.3-2.8,8.9,2.7,8.1,5.8c-0.5,2-6.7,16.5-9.4,26.6C62.9,206.2,63.2,206.9,63.2,207.2L63.2,207.2z"/>
		<path class="st19" d="M73.8,215.3c0.2,0.7-1.5,2-3.4,1.9c-2.4,0-14.8-1.6-15.9-3.4c-1.1-1.9-0.2-3.7,0.9-4.9
			c1.3-1.4,0.5-2.6,1.2-2.6c-0.2-0.6,0.1-1.4,0.4-1.5c0.6-0.3,1,0.4,2.4,1.2c1.7,1,3,0.9,3,0.9s-0.3-1.2,0.2-1.8
			c0.2-0.4,0.9,0.1,1.5,0.1c0.4,0,1.2-0.2,1.4,0.4c0.2,1.3-0.8,2.5-0.8,2.5s1.1,2.2,3.1,3.4C69.6,212.7,72.6,212,73.8,215.3
			L73.8,215.3z"/>
		<path class="st20" d="M69.9,212.6c-1.3,0.7-2.9,0.5-4.2-0.1c-1.1-0.5-2.2-1.1-2.5-2.3c-0.2-1,0.5-1.6,1.3-2
			c0.3,0.4,1.3,2.3,3.1,3.3c0.9,0.5,1.8,0.7,2.8,0.9C70.2,212.4,70,212.5,69.9,212.6L69.9,212.6z"/>
		<path class="st8" d="M75.9,90.1c0.3-1.3,0-2,0.3-2.7c0-0.3-0.1-0.6,0-0.9c-0.1-0.2-0.1-0.4-0.1-0.6c-0.7-4-3.5-3.2-6-1.9
			c-0.7,0.3-1.1,0.9-1.3,1.7c-0.2,0.9-0.7,1.8-1.4,2.1c-1.1,0.5-3.3,0.8-5.9,2.2c-2.6,1.4-3,11.2-2.1,14.1
			c1.7,5.7,4.1,11.5,3.9,14.5c-0.3,5.7-5.5,9.1-6.8,17.6c-1.3,8.6,10.1,9.4,10.1,9.4s11.3-0.3,11.8-8c1.3-6.2-0.7-12.9-0.2-17.8
			c0.5-4.1,0.3-7.2,0.8-8.4c0.4-1,3-3.1,3.2-6.4s-3-6-3-12C77.5,92.1,75.8,90.9,75.9,90.1z"/>
		<path class="st21" d="M78.8,132.7c0.3,2,0.8,4.5,0.2,6.4c-1.6,5.9-4.6,13-10.9,13s-13.3-5.7-12.7-14.4c0.1-1.8,1.5-6.7,2.6-7.4
			c0,0,4,2.4,12.8,3C76.6,133.6,78.8,132.7,78.8,132.7L78.8,132.7z"/>
		<path class="st8" d="M85.3,113.6c0.9-1.4,1.4-3.7,4.3-6.8c2.1-2.3,7.2-5.6,9.9-8.7c0.5-0.6,3.8,0.8,2.3,2.6
			c-1.3,1.5-7.4,13.4-13.6,17.7C84.8,120.9,83.9,116,85.3,113.6L85.3,113.6z"/>
		<path class="st22" d="M78.3,118.9l-15.1-0.1v-0.1c0.1-1.4-3.5-10.5-4.2-12.9c7.3-1.4,7.6-12.9,3.8-16.4c-0.3-0.4,2.5-1.6,2.7-0.9
			c0.2,0.6,2,9,3.3,10.4s10.2,1.8,10.7,0.8c0.5-0.9-3.1-7.8-3.1-8.5s2.1,0.9,2.5,1.7c0,6,3.7,9,3.5,12.3s-2.5,5.4-2.9,6.5
			C79.3,112.5,78.5,115.6,78.3,118.9L78.3,118.9z"/>
		<path class="st8" d="M61.1,90.1c-2.7,0.5-5.2,2.4-5.5,6.9c-1,4.6,0.9,15.5-0.2,19.4c-0.4,1.5,4.6,2.8,5.6,1c0.9-1.7,3-15.4,3-15.4
			S63.7,89.6,61.1,90.1L61.1,90.1z"/>
		<path class="st8" d="M55.2,117c-0.2,1.7-0.8,3.8-0.5,8c0.3,3.1,2,9,2.1,13.1c0,1.6,3.4,3,3.4-0.5c0.5-2.2,2.8-15.3,0.5-22.3
			C59.8,111,55.6,114.3,55.2,117L55.2,117z"/>
		<path class="st8" d="M102.3,99.9c0,0,2.8-6.7,3.3-7.4c0.5-0.7,0.3-1.5-0.5-2.2s-2.1-2-2.7-2c-0.6,0-3.3,1.6-3.6,1.9
			c-0.1,0.3-0.7,4.9-0.5,5.6c0.4,0.7,1.1,1.9,0.6,2.7c-0.6,0.9-2.8,4.4-2.8,4.4l5.4-3L102.3,99.9L102.3,99.9z"/>
		<path class="st8" d="M56.8,135.6c0,0-0.1,7.3-0.3,8.1c-0.1,0.9,0.3,1.5,1.3,1.9c1,0.4,2.7,1,3.2,0.8c0.5-0.3,2.5-2.7,2.6-3.1
			c0-0.4-1.1-4.8-1.6-5.4c-0.5-0.6-1.9-1.3-1.6-2.3c0.3-1.1,0.8-5.6,0.8-5.6l-3.8,5.2L56.8,135.6L56.8,135.6z"/>
		<path class="st23" d="M70.1,110.4c0,0-2.7,0.6-4.3-1.4c-0.9-1.1-0.4-3.8-1.9-5.4c2.1,1.2,1.2,3.4,2.5,5.1s2.9,1.6,2.9,1.6h0.8
			V110.4z"/>
		<path class="st12" d="M78,110.3c0,0-3.2,0.5-4.3-1.2c-0.5-1.3-0.7-1.7,0.6-0.2c1.3,1.5,3,1.4,3,1.4L78,110.3z"/>
	</g>
	<path class="st24" d="M68.5,64c-0.6-1-1.7-1.6-2.7-1.9c-1.1-0.4-1.8-0.4-3-0.2s-2.3,0.9-3.1,1.9c-0.7,1-1,2.3-1.1,3.6
		c-0.1,1.3,0,2.5-0.1,3.8c-0.2,3.7-1.3,6.3-3.7,9c-0.3,0.4-0.7,0.7-1.1,1c2.4,0,4,0,6-1.4c0.6-0.4,1.2-0.9,1.6-1.6
		c0.6-1,0.9-2.2,1.1-3.3c0.4-2,0.8-4,1.5-5.9c0.4-1.2,1-2.4,2-3.1c0.3-0.2,0.5-0.3,0.8-0.4c0.3-0.1,0.6-0.1,0.9-0.1
		c0.3,0,0.6,0.1,0.9,0.2c0.1,0,0.1,0.1,0.2,0.1c0.1,0,0.1,0.1,0.2,0.1c0.1,0,0.2-0.2,0.1-0.3c-0.1-0.4-0.3-0.8-0.5-1.1
		C68.6,64.1,68.5,64,68.5,64z"/>
	<g>
		<path class="st25" d="M69.4,82.4c0,0-0.7-2.4-2.1-1.9c-2.2,0.8-5.5-4.2-3.7-9.8c1.9-5.7,4.8-5.6,4.8-5.6
			c5.3-6.1,13.3,4.1,13.3,4.1L69.4,82.4z"/>
		<path class="st8" d="M76.5,91.6c-0.4-0.3-0.3-2-0.1-3.9c0.2-2.1,0.7-4.4,0.7-4.4L70,81.1L69.6,81c-0.4,3.2-1.3,5.7-2.1,7.3
			c-0.6,1-0.1,2.3,1,2.7c0.8,0.3,1.6,0.6,2.4,1C73.1,92.9,76.5,91.6,76.5,91.6"/>
		<path class="st3" d="M70,81.1c0.6,2.1,2.4,6,6.4,6.6c0.2-2.1,0.7-4.4,0.7-4.4L70,81.1z"/>
		<path class="st26" d="M80,80.5l0.9-2.2c3.5-6.3,1.3-9-0.2-10.4c-1.2-1-2.6-1.6-4.1-2.1c-7.6-1.9-9.5,5.6-9.3,7.7
			c0.3,2.3,1,4.6,2,6.6L80,80.5z"/>
		<path class="st8" d="M78.2,85.5c2.6,0.1,4.8-9.9,4.5-11.9s-1.3-4.4-7.4-4.8s-5.3,3.8-6,9.8C68.6,84.7,78.2,85.5,78.2,85.5"/>
		<g>
			<g>
				<path class="st13" d="M76.9,76.6c0.3-0.1,0.4,0,0.7,0c0.5,0.1,1,0.4,1.2,0.8c-0.2-0.3-0.5-0.3-0.7-0.4s-0.6-0.1-0.7-0.2
					c-0.5-0.1-0.8-0.1-1.2,0.1C76.4,76.9,76.6,76.7,76.9,76.6z"/>
			</g>
			<g>
				<path class="st13" d="M81.9,77.4c0.3,0.1,0.8,0.3,0.9,0.7c-0.4-0.4-1.7-0.5-2.1-0.5C81,77.4,81.4,77.3,81.9,77.4z"/>
			</g>
		</g>
		<path class="st26" d="M79.8,68.9c-1.6-3.7-7.9,0-7.9,0.2c-1.7,0.7-3.4,5.3-5.6,6.8c0,0,1.7,1.2,5.8,0.6c4.2-0.6,7.6-7.3,7.6-7.3"
			/>
		<path class="st26" d="M79.1,69.1c0,0,1.8-2.3,3.8,0.5c1.9,2.9,0.7,8.2,0.7,8.2c-0.9,0.1-2.1-3.8-2.4-5.3
			C80.8,71.2,80,70,79.1,69.1"/>
		<path class="st26" d="M80.1,69.6c0,0-1.3-4.3-2.3,0.5s-6.6,8.7-6.6,8.7C76.6,77.1,80.1,69.6,80.1,69.6"/>
		<path class="st14" d="M80.2,82.2c-1.2-0.2-2.4-0.4-3.5-0.5c0.1,0.3,0.4,0.7,0.8,1c0.5,0.3,2.2,0.5,2.3,0.3
			C79.9,82.7,80.2,82.2,80.2,82.2"/>
	</g>
	<g>
		<g>
			<path class="st15" d="M74.2,98.2c-0.2,0-0.4-0.1-0.5-0.2c-3.3-2.7-5.6-6-6.8-9.8c-0.1-0.2,0-0.4,0.2-0.5h0.1
				c0.1,0,0.3,0.1,0.3,0.2c1.2,3.6,3.4,6.8,6.6,9.5l0.1,0.1v-0.1c0,0,0.1,0,0.1-0.1c0.7-1.5,1.2-3.1,1.6-4.7c0-0.2,0.1-0.4,0.2-0.6
				c0.1-0.4,0.2-0.8,0.2-1.1c0-0.2,0.2-0.4,0.3-0.4c0.2,0,0.3,0.2,0.3,0.4c0,0.4-0.1,0.9-0.3,1.3c-0.1,0.2-0.1,0.4-0.2,0.6
				c-0.4,1.7-0.9,3.3-1.6,4.8C74.7,97.8,74.5,98,74.2,98.2C74.3,98.2,74.3,98.2,74.2,98.2z"/>
			<path class="st15" d="M67.2,87.8c0.1,0,0.2,0.1,0.2,0.2c1.2,3.6,3.4,6.8,6.7,9.5l0.1,0.1c0,0,0,0,0.1,0s0.1-0.1,0.2-0.1
				c0.7-1.5,1.2-3.1,1.6-4.7c0-0.2,0.1-0.4,0.2-0.6c0.1-0.4,0.2-0.8,0.2-1.2c0-0.1,0.1-0.3,0.2-0.3s0.2,0.1,0.2,0.3
				c0,0.4-0.1,0.9-0.3,1.3c-0.1,0.2-0.1,0.4-0.2,0.6c-0.4,1.7-0.9,3.3-1.6,4.8c-0.1,0.2-0.3,0.4-0.5,0.4c-0.1,0-0.1,0-0.2,0
				c-0.2,0-0.3-0.1-0.4-0.2c-3.3-2.7-5.6-6-6.8-9.7C66.9,88,67,87.9,67.2,87.8C67.1,87.8,67.2,87.8,67.2,87.8 M67.2,87.6
				c-0.1,0-0.1,0-0.2,0c-0.2,0.1-0.3,0.3-0.3,0.6c1.2,3.8,3.5,7.1,6.9,9.8c0.2,0.1,0.4,0.2,0.6,0.2c0.1,0,0.1,0,0.2,0
				c0.3-0.1,0.5-0.3,0.6-0.5c0.7-1.5,1.3-3.2,1.6-4.8c0-0.2,0.1-0.3,0.1-0.5c0.1-0.5,0.3-1,0.3-1.4c0-0.3-0.2-0.5-0.4-0.5
				c-0.2,0-0.4,0.2-0.4,0.5s-0.1,0.7-0.2,1.1c-0.1,0.2-0.1,0.4-0.2,0.6c-0.4,1.6-0.9,3.2-1.6,4.7l0,0c-3.2-2.6-5.4-5.8-6.6-9.4
				C67.5,87.8,67.4,87.6,67.2,87.6L67.2,87.6z"/>
		</g>
	</g>
	<g>
		<path class="st16" d="M74.7,102.3c-0.9,0-1.7-0.9-1.8-2.2c-0.2-1.3,0.5-2.5,1.4-2.6c0.1,0,0.1,0,0.2,0c0.9,0,1.7,0.9,1.8,2.2
			c0.2,1.3-0.5,2.5-1.4,2.6C74.8,102.3,74.7,102.3,74.7,102.3z"/>
		<g>
			<path class="st16" d="M74.4,97.7c0.8,0,1.6,0.9,1.7,2c0.2,1.2-0.4,2.4-1.3,2.5c-0.1,0-0.1,0-0.2,0c-0.8,0-1.6-0.9-1.7-2
				c-0.2-1.2,0.4-2.4,1.3-2.5C74.3,97.7,74.4,97.7,74.4,97.7 M74.4,97.4L74.4,97.4c-0.1,0-0.1,0-0.2,0c-1,0.1-1.7,1.4-1.5,2.8
				c0.2,1.3,1,2.3,2,2.3c0.1,0,0.1,0,0.2,0c1-0.1,1.7-1.4,1.5-2.8C76.2,98.4,75.4,97.4,74.4,97.4L74.4,97.4z"/>
		</g>
	</g>
	<path class="st23" d="M75.3,109.3c0-0.1,0.2,0.4,0.8,0.7c0.3,0.1,1.1,0.4,1.5,0.4c-0.9,0.1-1.5-0.2-2.2-0.2c-0.3,0-1.3,0.1-1.8,0.1
		C74,110.1,75.1,109.7,75.3,109.3z"/>
	<g>
		<g>
			<polygon class="st17" points="53.3,103.1 50.3,100.4 53.9,102.3 			"/>
		</g>
		<g>
			<polygon class="st17" points="53.9,106.8 50.3,108.8 53.3,106 			"/>
		</g>
		<g>
			<polygon class="st17" points="53.4,105.1 49.5,105 53.3,104.1 			"/>
		</g>
	</g>
</g>
<g class="st27">
	<g class="st28">
		<g>
			<path class="st8" d="M153.2,193.4c-0.1-4.5-2.8-21.2-2.8-22.9c0-2.1,0.6-5.6,1.1-10.4c0.4-3.7-1.5-14.2-0.6-19
				c2.2-11.2,10.4-16.9,11.6-16.9c3.7,0,6.3,15.4-1.7,37.3c-0.3,0.8,2.1,4.8,1.6,9.2c-0.5,4.5-4.4,19.8-4.5,22.6
				c-0.1,1.5-1.2,1.6-2.5,1.5C154.4,194.8,153.3,194.9,153.2,193.4L153.2,193.4z"/>
			<path class="st7" d="M151.8,203.9c0,1.5,2.1,2.6,3.7,2.6c1.6,0,4.2-1.6,4.2-2.6c0-0.1,0-1.1,0-1.4c-0.3-2.1-1.4-7.6-1.4-7.6h-5.6
				c0,0-0.8,5.2-1,7.6C151.8,202.9,151.8,203.7,151.8,203.9L151.8,203.9z"/>
			<path class="st20" d="M151.8,202.2c0,1.5,2.1,2.6,3.7,2.6c1.6,0,4.2-1.6,4.2-2.6s-1.1-7-1.4-8.5c0-0.2-0.2-0.4-0.4-0.4h-4.5
				c-0.4,0-0.8,0.3-0.8,0.7C152.5,195.9,151.8,201.1,151.8,202.2L151.8,202.2z"/>
			<path class="st19" d="M153.8,199.4c0,0.7,1.1,1.4,1.9,1.4c0.8,0,2.1-0.8,2.1-1.4s-0.7-4.5-0.7-4.5h-2.8
				C154.3,195.1,153.8,198.7,153.8,199.4L153.8,199.4z"/>
			<path class="st29" d="M159.1,161.8c0,0-1.5,1-2.8,1s-2.8-1-2.8-1H159.1L159.1,161.8z"/>
			<path class="st14" d="M153.8,196.4c0,0.2,0.1,0.3,0.3,0.3h3.2c0.2,0,0.3-0.1,0.3-0.3s-0.1-0.3-0.3-0.3h-3.2
				C154,196.1,153.8,196.3,153.8,196.4L153.8,196.4z"/>
			<path class="st14" d="M153.7,200c0,0.2,0.2,0.3,0.3,0.3h3.4c0.2,0,0.3-0.1,0.3-0.3s-0.2-0.3-0.3-0.3H154
				C153.8,199.7,153.7,199.8,153.7,200L153.7,200z"/>
			<path class="st14" d="M153.7,197.6c0,0.2,0.2,0.3,0.3,0.3h3.5c0.2,0,0.3-0.1,0.3-0.3s-0.2-0.3-0.3-0.3H154
				C153.8,197.3,153.7,197.4,153.7,197.6L153.7,197.6z"/>
			<path class="st14" d="M153.5,198.6c0,0.2,0.2,0.3,0.4,0.3h3.9c0.2,0,0.4-0.1,0.4-0.3s-0.2-0.3-0.4-0.3h-3.9
				C153.6,198.4,153.5,198.5,153.5,198.6L153.5,198.6z"/>
			<path class="st8" d="M145.4,193.4c0.1-4.5,2.9-20.6,2.9-22.2c-0.1-1.7-0.7-6.3-1.2-11.1c-0.4-3.7,1.5-14.2,0.6-19
				c-2.2-11.2-10.4-16.9-11.6-16.9c-4.2,0-7.1,13.3,1.7,37.3c0.3,0.8-2.4,7.5-1.8,10.4c0.8,4.5,4.7,18.6,4.8,21.4
				c0.1,1.5,1.2,1.6,2.5,1.5C144.2,194.8,145.4,194.9,145.4,193.4L145.4,193.4z"/>
			<path class="st7" d="M147.1,203.9c0,1.5-2.1,2.6-3.7,2.6c-1.6,0-4.2-1.6-4.2-2.6c0-0.1,0-1.1,0-1.4c0.3-2.1,1.4-7.6,1.4-7.6h5.6
				c0,0,0.8,5.2,1,7.6C147.1,202.9,147.1,203.7,147.1,203.9L147.1,203.9z"/>
			<path class="st20" d="M147.1,202.2c0,1.5-2.1,2.6-3.7,2.6c-1.6,0-4.2-1.6-4.2-2.6s1.1-6.9,1.3-8.4c0-0.2,0.2-0.4,0.5-0.4h4.4
				c0.3,0,0.5,0.2,0.6,0.5C146.2,195.4,147.1,201,147.1,202.2L147.1,202.2z"/>
			<path class="st19" d="M145.1,199.4c0,0.7-1.1,1.4-1.9,1.4c-0.8,0-2.1-0.8-2.1-1.4s0.7-4.5,0.7-4.5h2.8
				C144.6,195.1,145.1,198.7,145.1,199.4L145.1,199.4z"/>
			<path class="st21" d="M150.2,152c0,0,3.7,1.4,7,1.4c3.4,0,7.2-1.4,7.2-1.4c0.9-5.5,1.5-12.6,1.8-15.2c0.9-7.6-2.3-12.8-2.9-17.8
				c-0.3-2.5-3.8-0.3-6.4-0.3c-2.1,0-6.2-0.6-7.5,1.9c-1.2,2.4-0.1,11.1-0.1,13.3C149.4,135.5,149.7,144.3,150.2,152L150.2,152z"/>
			<path class="st21" d="M133.6,152.4c0,0,3.2,1,7.7,1s7.1-1,7.1-1c0.6-7.8,0.6-16.9,0.6-18.4c2.6-0.1,0.8-12.2-0.1-14.3
				c-1.4-3.4-5.8-0.8-8.3-0.8c-2.6,0-5.3-2.2-5.4,0.4c-0.6,5.6-4.1,10.1-3.3,17.9C132.1,138.6,132.6,146.1,133.6,152.4L133.6,152.4z
				"/>
			<path class="st18" d="M163.5,119.9c-0.1,0.3-6.1,1.5-13.3,1.5c-7.6,0-14.5-1.1-14.8-1.3c-0.6-0.3-0.1-3.3,0.4-4
				c0.5-0.8,25.8-0.4,26.6,0S163.8,119.3,163.5,119.9L163.5,119.9z"/>
			<path class="st8" d="M111.1,78.7c0-0.6-0.3-2.2-0.7-2.7c-0.3-0.4-0.5-2.1-0.3-2.6c0.5-0.3,1.3-0.2,1.9-0.2c0.9,0,1.6,0.7,2.4,0.7
				c0.7,0,1.5-0.1,1.9,0.4s0.6,1.5,0.6,2.1c0,0.8-0.3,1.2-0.8,1.7c-0.5,0.4-0.7,1.5-0.8,2.1c-0.3,0-1.1-0.9-1.4-1
				c-0.5-0.2-1.1-0.6-1.6-0.5"/>
			<path class="st8" d="M135.7,76.8c-1.9-0.2-6.5,1.6-8,3.3c-1.5,1.7-2.3,3.8-2.7,4.4c-0.4,0.6-5,2.1-6,8.6c-0.2,1.3-0.8,2.6-1,2.9
				c2.7-5.8-3.2-15.4-3.4-18.1c-0.2-2.1-4.4-2.1-3.6,0.6c0.5,1.7-0.7,7.8-0.1,13.5c0.3,3.2,1.7,6.3,3,8.5c0.7,1.2,0.8,2,1.8,2.4
				c2,0.7,8.2-1.1,10.7-5.7c2.8-1.3,5-4.9,5.2-5C132.3,92.2,137.7,77,135.7,76.8L135.7,76.8z"/>
			<path class="st8" d="M111.2,73.4c0.3,0.7,0.5,1.8,0.9,2.5c0.2,0.4,1,0.4,0.9-0.5c0.2,0.7,1,0.8,1.2,0.7c0.1-0.1,0.1-0.5,0-0.7
				c0.2,0.5,1,0.8,1.2,0.7c0.2-0.1,0-0.5-0.1-0.9c0.2,0.8,1.3,1.3,1.3,0.7c0-0.9-0.2-2.1-0.5-2.7c-0.2-0.4-0.3-0.9-0.7-1.1
				c-0.5-0.3-0.6,0-1.2,0c-0.3,0-0.6-0.3-1-0.1c-0.3,0.1-0.8-0.1-1.1-0.1c-0.5,0-0.9,0.3-0.9,0.3s-0.9-0.2-1.1,0.4
				c-0.2,0.4-0.1,1.3-0.1,1.4"/>
			<path class="st8" d="M116.7,77.4c0.6-0.7,0.8-2.8,0.4-3.7c-0.4-1-2.6,0.5-3.3,0.9c-0.7,0.4-0.3,0.8,0.3,0.9
				c0.5,0.1,1.5-0.4,1.5-0.4"/>
			<path class="st8" d="M187.3,78.7c0-0.6,0.3-2.2,0.7-2.7c0.3-0.4,0.5-2.1,0.3-2.6c-0.5-0.3-1.3-0.2-1.9-0.2
				c-0.9,0-1.6,0.7-2.4,0.7c-0.7,0-1.5-0.1-1.9,0.4s-0.6,1.5-0.6,2.1c0,0.8,0.3,1.2,0.8,1.7c0.5,0.4,0.7,1.5,0.8,2.1
				c0.3,0,1.1-0.9,1.4-1c0.5-0.2,1.1-0.6,1.6-0.5"/>
			<path class="st8" d="M163.7,76.9c1.9-0.2,5.5,1.5,7,3.2c1.4,1.7,2.3,3.8,2.7,4.4s5,2.1,6,8.6c0.2,1.3,0.8,2.6,1,2.9
				c-2.7-5.8,3.2-15.4,3.4-18.1c0.2-2.1,4.4-2.1,3.6,0.6c-0.5,1.7,0.7,7.8,0.1,13.5c-0.3,3.2-1.7,6.3-3,8.5c-0.7,1.2-0.8,2-1.8,2.4
				c-2,0.7-8-1.4-10.5-6c-2.8-1.3-5.2-4.9-5.3-5C166.3,91.5,161.7,77.1,163.7,76.9L163.7,76.9z"/>
			<path class="st8" d="M187.2,73.4c-0.3,0.7-0.5,1.8-0.9,2.5c-0.2,0.4-1,0.4-0.9-0.5c-0.2,0.7-1,0.8-1.2,0.7
				c-0.1-0.1-0.1-0.5,0-0.7c-0.2,0.5-1,0.8-1.2,0.7c-0.2-0.1,0-0.5,0.1-0.9c-0.2,0.8-1.3,1.3-1.3,0.7c0-0.9,0.2-2.1,0.5-2.7
				c0.2-0.4,0.3-0.9,0.7-1.1c0.5-0.3,0.6,0,1.2,0c0.3,0,0.6-0.3,1-0.1c0.3,0.1,0.8-0.1,1.1-0.1c0.5,0,0.9,0.3,0.9,0.3
				s0.9-0.2,1.1,0.4c0.2,0.4,0.1,1.3,0.1,1.4"/>
			<path class="st8" d="M181.7,77.4c-0.6-0.7-0.8-2.8-0.4-3.7c0.4-1,2.6,0.5,3.3,0.9s0.3,0.8-0.3,0.9c-0.5,0.1-1.5-0.4-1.5-0.4"/>
			<path class="st8" d="M166.6,91.3c0.2-1.5,0.1-3.9-0.4-5c0.1-0.6-1.4-7.5-1-9c-0.6-1.1-6.8-1.5-8.6-1.3c-0.6-0.6-0.3,0-1-0.3
				c0,0-4.4-2.5-6.4-2.1c-2-0.4-6.4,2.1-6.4,2.1c-0.6,0.3-0.4-0.2-1,0.3c-1.8-0.2-8.1,0.3-8.6,1.3c0.5,2.1-0.3,7.6,0,9
				c-0.5,1.1-1.8,4.5-1.6,6c0.1,0.9,3.1,2.2,4.1,4.4c1,3.7,2.6,5.4,2.6,6.1c0,1.1-2.4,10.9-2.1,13.3c0.2,1.2,6.1,1.9,12.8,1.9l0,0
				c0.1,0,0.1,0,0.2,0c0.1,0,0.1,0,0.2,0l0,0c6.7,0,12.6-0.7,12.8-1.9c0.4-2.4-2-11.3-2.1-12.3c0-0.7,1.6-3.5,2.7-7.2
				C163.7,94.3,166.5,92.2,166.6,91.3L166.6,91.3z"/>
			<path class="st18" d="M145.4,132.5c0,0,1.9,1,3.6,1c1.7,0,3.6-1,3.6-1H145.4L145.4,132.5z"/>
			<path class="st29" d="M139.5,161.8c0,0,1.5,1,2.8,1s2.8-1,2.8-1H139.5L139.5,161.8z"/>
			<path class="st14" d="M145.1,196.4c0,0.2-0.1,0.3-0.3,0.3h-3.2c-0.2,0-0.3-0.1-0.3-0.3s0.1-0.3,0.3-0.3h3.2
				C145,196.1,145.1,196.3,145.1,196.4L145.1,196.4z"/>
			<path class="st14" d="M145.3,200c0,0.2-0.2,0.3-0.3,0.3h-3.4c-0.2,0-0.3-0.1-0.3-0.3s0.2-0.3,0.3-0.3h3.4
				C145.1,199.7,145.3,199.8,145.3,200L145.3,200z"/>
			<path class="st14" d="M145.3,197.6c0,0.2-0.2,0.3-0.3,0.3h-3.5c-0.2,0-0.3-0.1-0.3-0.3s0.2-0.3,0.3-0.3h3.5
				C145.1,197.3,145.3,197.4,145.3,197.6L145.3,197.6z"/>
			<path class="st14" d="M145.5,198.6c0,0.2-0.2,0.3-0.4,0.3h-3.9c-0.2,0-0.4-0.1-0.4-0.3s0.2-0.3,0.4-0.3h3.9
				C145.3,198.4,145.5,198.5,145.5,198.6L145.5,198.6z"/>
			<path class="st10" d="M162,91.9c-2.8-4.4-2.3-15.6-3.2-15.8c-0.8-0.2-1.5-0.2-2-0.2c-0.4-0.4,2.2,6.1,0,10.3
				c-1,1.9-13.4,1.9-14.3-0.1c-2.1-4.2-0.4-10.6-0.8-10.3c-0.5,0-1.3,0-2,0.2c-1.1,0.2,0.4,12.2-3.7,16.2c-1,1-3.2,1.4-2.5,2.1
				c0.4,0.6,1.5,1.5,1.9,2.4c1.1,3.7,2.7,4.7,2.6,7.1c0,1.1-2.8,10.9-2.4,13.3c0.2,1.2,6.6,1.9,13.5,1.9h0.4
				c6.9,0,13.1-0.7,13.3-1.9c0.4-2.4-2.2-12.3-2.2-13.4c-0.1-2,1.6-3.5,2.7-7.2c0.5-1,1.1-2,1.6-2.9C165.6,92.7,163,93.5,162,91.9
				L162,91.9z"/>
		</g>
		<path class="st8" d="M156.1,76.1c0.3,0.4-0.1,1.2-0.4,1.7c-1,1.5-3.8,3.9-10.5,3.1c-2.3-0.2-4.1-3.3-2.6-5c0.2-0.3,0.7-0.8,1-1.6
			c0.3-1.3,1-2.5,1-3.8l5-3.1l4.7-3C153.3,71.8,155.3,74.7,156.1,76.1z"/>
		<path class="st29" d="M154,68.1c0,0-4.5,5.4-10.4,6.2c0.3-1.1,1-3,1-4l5.1-3.1L154,68.1z"/>
		<path class="st8" d="M142.7,70c0,0,11.1,3.1,12.9-3.6c1.8-6.7,4.5-11-2.4-13.2s-9-0.1-10.2,2.1C141.9,57.3,139.8,69,142.7,70z"/>
		<path d="M161.2,53.2c0.3-0.1,0.6-0.2,0.9-0.1c-0.2-0.3-0.6-0.3-1-0.4c0-1-0.5-2.1-1.5-2.5c0.4,0.3,0.6,0.8,0.6,1.2
			c-1.3-1.6-9.2-4.5-13.7-3.4c-7.5,1.2-6.1,7.4-5.2,8c1.4,1,4.1-0.6,6.9-0.1c2.8,0.5,2.8,4.6,3.6,5.1c0.7,0.5,0.7-0.4,2-0.8
			c1.3-0.4,1.2,1.7,0.6,3c-0.6,1.2,1,3.2,1,3.2l2-1.7c2-1.7,4.5-9.5,3.9-11.3L161.2,53.2z"/>
		<path class="st14" d="M141.9,65.6c0.2,0.6,0.7,1.1,1.3,1.2s2.1,0.4,2.9-1.1C145.2,65.4,143,65.5,141.9,65.6z"/>
		<g>
			<g>
				<path class="st15" d="M150.1,89.5c-0.3,0-0.7-0.2-1-0.5c-2.8-3.1-4.8-7.1-7.6-12.9c-0.1-0.2,0-0.4,0.1-0.5c0.1,0,0.1,0,0.2,0
					c0.1,0,0.3,0.1,0.3,0.2c2.8,5.7,4.8,9.7,7.5,12.7c0.2,0.2,0.3,0.3,0.5,0.3c0.1,0,0.2-0.1,0.4-0.2c2-2,5.4-8.4,5.9-12.6
					c0-0.2,0.2-0.3,0.3-0.3c0.2,0,0.4,0.2,0.3,0.4c-0.5,4.1-3.8,10.8-6.1,13.1C150.7,89.4,150.4,89.5,150.1,89.5z"/>
				<path class="st15" d="M141.8,75.7c0.1,0,0.2,0.1,0.2,0.1c2.8,5.7,4.8,9.7,7.5,12.7c0.2,0.2,0.4,0.3,0.5,0.3s0.3-0.1,0.5-0.3
					c2-2,5.4-8.4,5.9-12.7c0-0.1,0.1-0.2,0.2-0.2l0,0c0.1,0,0.2,0.1,0.2,0.3c-0.5,4.1-3.8,10.8-6.1,13c-0.3,0.3-0.5,0.4-0.8,0.4
					s-0.6-0.2-0.9-0.5c-2.8-3.1-4.8-7.1-7.6-12.9c-0.1-0.1,0-0.3,0.1-0.4C141.7,75.7,141.8,75.7,141.8,75.7 M141.8,75.5
					c-0.1,0-0.1,0-0.2,0.1c-0.2,0.1-0.3,0.4-0.2,0.6c2.8,5.8,4.8,9.8,7.6,12.9c0.3,0.4,0.7,0.6,1,0.6s0.6-0.2,0.9-0.4
					c2.3-2.3,5.7-9,6.1-13.1c0-0.3-0.1-0.5-0.4-0.5l0,0l0,0c-0.2,0-0.4,0.2-0.4,0.4c-0.5,4.2-3.9,10.6-5.9,12.6
					c-0.1,0.1-0.2,0.2-0.3,0.2s-0.2-0.1-0.4-0.3c-2.7-3-4.7-7-7.5-12.7C142.1,75.6,142,75.5,141.8,75.5L141.8,75.5z"/>
			</g>
		</g>
		<g>
			<path class="st16" d="M150.2,93.5c-1.2,0-2.1-1-2.2-2.3c-0.1-1.3,0.9-2.4,2.1-2.5l0,0c1.3,0,2.2,1,2.3,2.3
				C152.4,92.3,151.5,93.4,150.2,93.5L150.2,93.5z"/>
			<path class="st16" d="M150.2,88.8c1.1,0,2,1,2.1,2.2c0,1.3-0.8,2.3-2,2.4h-0.1c-1.1,0-2-1-2.1-2.2
				C148.1,89.9,149,88.9,150.2,88.8C150.1,88.8,150.2,88.8,150.2,88.8 M150.2,88.6L150.2,88.6c-1.4,0.1-2.3,1.2-2.3,2.6
				c0.1,1.4,1.1,2.4,2.3,2.4h0.1c1.3-0.1,2.2-1.2,2.2-2.6C152.4,89.7,151.4,88.6,150.2,88.6L150.2,88.6z"/>
		</g>
		<path class="st13" d="M144.8,60.8c0.2-0.3,0.5-0.5,0.8-0.6s0.6-0.1,0.9-0.1c0.3,0,0.7,0.1,1,0.2c0.3,0.1,0.5,0.4,0.6,0.7
			c-0.2-0.1-0.3-0.2-0.8-0.4c-0.5-0.1-1.2-0.2-1.5-0.1C145.4,60.6,145,60.6,144.8,60.8z"/>
		<g>
			<path class="st13" d="M143.1,60.7c-0.5,0-0.9-0.2-1.4-0.2s-0.9,0-1.2,0.4c0-0.2,0.2-0.6,0.5-0.7c0.3-0.2,0.5-0.2,0.7-0.2
				c0.4,0,0.2,0,0.7,0.2C142.8,60.4,142.9,60.6,143.1,60.7z"/>
		</g>
		<g>
			<path class="st11" d="M148,96.3c-0.7,0.3-1.4,0.6-2.2,0.8c-0.8,0.2-1.5,0.4-2.3,0.5c-1.6,0.2-3.2,0-4.7-0.6c1.6,0,3.1,0,4.6-0.2
				c0.8-0.1,1.5-0.2,2.3-0.3C146.5,96.5,147.2,96.3,148,96.3z"/>
		</g>
		<g>
			<path class="st11" d="M151.2,96.3c0.8,0,1.6,0.2,2.3,0.3c0.8,0.1,1.5,0.2,2.3,0.3c1.5,0.2,3,0.2,4.6,0.2
				c-1.5,0.6-3.1,0.7-4.7,0.6c-0.8-0.1-1.6-0.2-2.3-0.5C152.6,96.9,151.9,96.6,151.2,96.3z"/>
		</g>
		<path class="st11" d="M148.4,102.9c-0.5,0.2-1,0.5-1.5,0.6c-0.5,0.2-1,0.3-1.6,0.4c-1.1,0.2-2.2,0-3.2-0.5c1.1,0,2.1,0,3.2-0.2
			c0.5-0.1,1-0.2,1.6-0.2C147.3,103.1,147.8,102.9,148.4,102.9z"/>
		<g>
			<path class="st30" d="M130.8,90.1c-0.2,0.6-0.4,1.2-0.7,1.8c-0.3,0.6-0.6,1.1-0.9,1.7c-0.7,1.1-1.7,1.8-2.8,2.3
				c0.8-0.9,1.6-1.8,2.3-2.8c0.4-0.5,0.7-1,1-1.5C130.2,91.1,130.4,90.6,130.8,90.1z"/>
			<path class="st31" d="M118.2,91c0.1,0.4,0.2,0.8,0.3,1.3c0,0.5,0.1,0.9,0.1,1.3c0,0.9-0.3,1.7-0.7,2.4c0.1-0.9,0.3-1.7,0.3-2.5
				c0-0.4,0-0.8,0-1.3C118.2,91.8,118.1,91.4,118.2,91z"/>
			<path class="st31" d="M125.7,84.4c0.2-0.5,0.3-0.9,0.6-1.4c0.2-0.5,0.4-0.9,0.7-1.3c0.6-0.8,1.3-1.5,2.1-1.9
				c-0.6,0.7-1.2,1.4-1.8,2.2c-0.3,0.4-0.5,0.8-0.8,1.2C126.2,83.6,126,84,125.7,84.4z"/>
		</g>
		<path class="st30" d="M74.8,126.6c0,0.4-0.1,0.8-0.1,1.2c-0.1,0.8-0.1,1.6,0,2.4c-0.4-0.7-0.5-1.6-0.4-2.4c0-0.4,0.1-0.8,0.3-1.2
			c0.1-0.4,0.3-0.8,0.4-1.2C74.9,125.8,74.8,126.2,74.8,126.6z"/>
		<path class="st12" d="M79.4,110c0.7-0.2,1-0.6,1.6-0.9c-0.4,0.5-0.8,0.9-1.4,1.2c-0.3,0.1-0.7,0.1-1,0.2c-0.4,0-0.5-0.1-0.9,0
			C78,110.3,78.7,110.2,79.4,110z"/>
		<g>
			<path class="st30" d="M168.6,91.3c0.4,0.5,0.7,1,1,1.5c0.7,1,1.4,1.9,2.3,2.8c-1.1-0.5-2.1-1.3-2.8-2.3c-0.4-0.5-0.6-1.1-0.9-1.7
				c-0.3-0.6-0.5-1.2-0.7-1.8C168,90.3,168.2,90.8,168.6,91.3z"/>
			<path class="st31" d="M180.3,91.9c0,0.4,0,0.8,0,1.3c0,0.8,0.1,1.6,0.3,2.5c-0.5-0.7-0.7-1.5-0.7-2.4c0-0.4,0-0.9,0.1-1.3
				c0-0.5,0.2-0.9,0.3-1.3C180.2,91.1,180.2,91.5,180.3,91.9z"/>
			<path class="st31" d="M171.8,82.9c-0.3-0.4-0.5-0.8-0.8-1.2c-0.5-0.8-1.1-1.5-1.8-2.2c0.8,0.4,1.6,1.1,2.1,1.9
				c0.3,0.4,0.5,0.8,0.7,1.3s0.4,0.9,0.6,1.4C172.4,83.7,172.2,83.3,171.8,82.9z"/>
		</g>
		<g>
			<path class="st11" d="M150.7,102.9c0.5,0,1.1,0.2,1.6,0.2c0.5,0.1,1,0.2,1.6,0.2c1,0.2,2.1,0.2,3.2,0.2c-1,0.5-2.1,0.5-3.2,0.5
				c-0.5-0.1-1.1-0.2-1.6-0.4C151.7,103.4,151.2,103.1,150.7,102.9z"/>
		</g>
		<path class="st11" d="M148.3,106.8c-0.5,0.2-1,0.5-1.5,0.6c-0.5,0.2-1,0.3-1.6,0.4c-1.1,0.2-2.2,0-3.2-0.5c1.1,0,2.1,0,3.2-0.2
			c0.5-0.1,1-0.2,1.6-0.2C147.3,107,147.7,106.8,148.3,106.8z"/>
		<g>
			<path class="st11" d="M150.7,106.8c0.5,0,1.1,0.2,1.6,0.2c0.5,0.1,1,0.2,1.6,0.2c1,0.2,2.1,0.2,3.2,0.2c-1,0.5-2.1,0.5-3.2,0.5
				c-0.5-0.1-1.1-0.2-1.6-0.4C151.7,107.2,151.2,107,150.7,106.8z"/>
		</g>
	</g>
	<g class="st28">
		<g>
			<polygon class="st17" points="122.9,85.3 122.6,81.1 123.9,85.1 			"/>
		</g>
		<g>
			<polygon class="st17" points="120.9,87.3 117.6,84.8 121.4,86.4 			"/>
		</g>
		<g>
			<polygon class="st17" points="121.6,86.1 119.3,82.3 122.4,85.5 			"/>
		</g>
	</g>
	<g class="st28">
		<g>
			<polygon class="st17" points="177.2,86.4 181.1,85 177.7,87.3 			"/>
		</g>
		<g>
			<polygon class="st17" points="174.8,85.2 176.2,81.3 175.7,85.4 			"/>
		</g>
		<g>
			<polygon class="st17" points="176.1,85.5 179,82.2 176.9,86.1 			"/>
		</g>
	</g>
	<g class="st28">
		<g>
			<polygon class="st17" points="167.6,148.1 171.7,150.1 167.2,149 			"/>
		</g>
		<g>
			<polygon class="st17" points="167.6,141.7 174,140.9 167.9,142.7 			"/>
		</g>
		<g>
			<polygon class="st17" points="167.8,144.9 173,145.6 167.7,145.9 			"/>
		</g>
	</g>
	<g class="st28">
		<g>
			<polygon class="st17" points="130.1,137.9 125.6,139.2 129.7,137 			"/>
		</g>
		<g>
			<polygon class="st17" points="130.1,131.8 124.4,128.9 130.5,130.9 			"/>
		</g>
		<g>
			<polygon class="st17" points="129.6,135.1 124.5,133.6 129.8,134.1 			"/>
		</g>
	</g>
	<ellipse class="st32" cx="149.4" cy="216.6" rx="25.5" ry="1.8"/>
</g>
</svg>
