<?xml version="1.0" encoding="utf-8"?>
<!-- Generator: Adobe Illustrator 25.2.0, SVG Export Plug-In . SVG Version: 6.00 Build 0)  -->
<svg version="1.1" id="Ebene_1" xmlns="http://www.w3.org/2000/svg" xmlns:xlink="http://www.w3.org/1999/xlink" x="0px" y="0px"
	 viewBox="0 0 220 220" style="enable-background:new 0 0 220 220;" xml:space="preserve">
<style type="text/css">
	.st0{display:none;}
	.st1{display:inline;}
	.st2{opacity:0.2;fill:#1E1E1E;enable-background:new    ;}
	.st3{fill:#F9AF7D;}
	.st4{fill:#DADADA;}
	.st5{fill:#FFA166;}
	.st6{fill:#1F3866;}
	.st7{fill:#9529F9;}
	.st8{fill:#8519F7;}
	.st9{fill:#EDEDED;}
	.st10{fill:#FFB27D;}
	.st11{fill:#1A2C70;}
	.st12{fill:#FCFCFC;}
	.st13{fill:#F2F2F2;}
	.st14{display:none;fill:#E8E8E8;}
	.st15{fill:#A87C5E;}
	.st16{fill:#FFFFFF;}
	.st17{fill:#EF2B2B;}
	.st18{fill:#E5D50E;}
	.st19{display:inline;fill:#F2F2F2;}
	.st20{fill:#FFFF99;}
	.st21{fill:#2E51C0;}
	.st22{fill:#2D548C;}
	.st23{fill:#233862;}
	.st24{fill:#5B58EE;}
	.st25{fill:#D3D3D3;}
	.st26{fill:#C6C6C6;}
	.st27{display:inline;fill:#7C5828;}
	.st28{fill:#895E25;}
	.st29{fill:#875E23;}
	.st30{display:inline;fill:#C6C6C6;}
	.st31{display:inline;fill:#F49F64;}
	.st32{fill:#ED985F;}
	.st33{fill:#F49F64;}
	.st34{fill:#FCA56B;}
	.st35{fill:#DBDBDB;}
	.st36{fill:#8E6316;}
	.st37{fill:#D1D1D1;}
</style>
<g id="Ebene_1_2_" class="st0">
	<g id="Ebene_2_2_" class="st1">
		<ellipse class="st2" cx="141" cy="215.7" rx="33.3" ry="2.4"/>
	</g>
	<g class="st1">
		<path class="st3" d="M133.7,90.6c2.7,0,0,12.5,0,12.5s-4.6,11.6-5.9,13.2c-1.3,1.5-2.4-0.6-4.6-0.8c1.9-3.6,1.8-14.7,3.4-19
			C127.9,91.8,131,90.6,133.7,90.6L133.7,90.6z"/>
		<path class="st4" d="M149.1,209.1c0.4,0.6,0.7,0.4,0.7,1.1c0,0.6,0.3,2.3-0.1,2.9c-1.2,1.8-14.5,2.7-16.9,2.7
			c-1.9,0-3.4-1.3-3.4-1.9c0-0.4,0.1-1.1,0.2-1.3c1-1.8,2.8-1.5,4.5-1.8l8.6,1.1l0.4-3.4l6.1,0.7V209.1L149.1,209.1z"/>
		<path class="st5" d="M145.6,142.2c0.4-3.2-2.2-6.2-5.9-6.6c-3.6-0.5-6.2,1.4-6.6,4.7c-0.3,2.5-3.6,23.7-0.8,34.6
			c0.5,2.5,1.2,4.2,2.3,4.3C141.3,179.9,145.2,145.4,145.6,142.2L145.6,142.2z"/>
		<path class="st6" d="M141.8,167.4l-11.1-1.3c-1-18.7,2.1-28.1,2.5-30.2c1.1-5.8,2.8-1.7,6.7-1.2c3.8,0.5,6.6,3.6,6.2,7.1
			C145.8,143.7,144.5,156.8,141.8,167.4L141.8,167.4z"/>
		<path class="st5" d="M140.7,204.5c-0.1-0.4,0.4-1,0.3-1.3c-2.2-10.3-8-25.3-8.4-27.3c-0.7-3.2,6.2-8.5,8.4-5.6
			c1.2,1.7,2.6,5.8,3.3,8.9c0.4,1.8,0.2,12.1,1.3,21c0.3,2.6,1,2.9,1,3.7L140.7,204.5L140.7,204.5z"/>
		<path class="st7" d="M129.6,212.3c1.4-3.3,4.4-2.5,6.4-3.5c2.1-1.1,3.3-3.3,3.3-3.3s-1-1.2-0.7-2.5c0.2-0.5,1-0.3,1.4-0.3
			c0.6-0.1,1.3-0.4,1.5-0.1c0.4,0.6,0.1,1.8,0.1,1.8s1.3,0.1,3-0.8c1.5-0.7,1.7-1.5,2.4-1.1c0.2,0.1,0.6,0.8,0.3,1.5
			c0.6,0.1-0.2,1.1,1,2.6c1.1,1.3,1.9,3.1,0.7,5.1c-1.1,1.7-13.8,2.8-16.2,2.8C131.1,214.4,129.3,213,129.6,212.3L129.6,212.3z"/>
		<path class="st8" d="M133.7,209.8c-0.1-0.1-0.3-0.2-0.5-0.1c0.9-0.2,2-0.4,2.8-0.8c1.8-1,3-2.8,3.2-3.2c0.7,0.4,1.5,1,1.2,2
			c-0.3,1.2-1.4,1.8-2.5,2.2C136.6,210.4,135,210.5,133.7,209.8L133.7,209.8z"/>
		<path class="st9" d="M153.3,211.8c0.4,0.7,0.7,0.4,0.6,1.3c0,0.6,0.2,2.3-0.2,2.9c-1.2,1.6-14.6,1.9-17,1.7
			c-1.9-0.1-3.4-1.5-3.3-2.1c0.1-0.4,0.2-1.1,0.3-1.3c1.2-1.8,2.9-1.4,4.6-1.6l8.5,1.5l0.6-3.4l6,1.1V211.8L153.3,211.8z"/>
		<path class="st10" d="M153.6,144.9c0.6-3.2-1.8-6.4-5.5-7.1c-3.6-0.6-7,1.4-7.6,4.7c-0.4,2.5-4.3,23.2-2,34.2
			c0.3,2.6,0.9,4.3,2,4.5C147.1,182.4,153,148.1,153.6,144.9L153.6,144.9z"/>
		<path class="st11" d="M148.5,168.7l-11.4-2.1c0.3-11.5,1.9-26.1,1.7-29.4c-0.2-3.5,5.7-3.2,9.6-2.5c3.9,0.7,7.4,2.1,8.1,5.8
			C157.5,143,153.5,158.3,148.5,168.7L148.5,168.7z"/>
		<path class="st10" d="M145.2,206.8c0-0.3,0.4-0.9,0.4-1.4c-1.7-10.4-6.6-25.7-6.9-27.7c-0.5-3.2,6.7-8.1,8.7-5.1
			c1.1,1.7,3.3,5.8,3.8,9c0.3,1.9-1.5,12.1-0.9,21.1c0.2,2.7,0.9,3,0.8,3.8L145.2,206.8L145.2,206.8z"/>
		<path class="st7" d="M133.8,214c1.5-3.2,4.5-2.2,6.6-3.1c2.1-1,3.4-3.1,3.4-3.1s-0.9-1.3-0.6-2.6c0.2-0.6,1-0.3,1.4-0.3
			c0.6,0,1.3-0.4,1.5,0c0.4,0.6,0,1.8,0,1.8s1.3,0.2,3.1-0.6c1.5-0.7,1.9-1.4,2.5-1c0.3,0.1,0.6,0.9,0.3,1.5
			c0.6,0.1-0.3,1.2,0.9,2.7c1,1.3,1.7,3.2,0.4,5.1c-1.3,1.7-14,2.1-16.4,1.9C135.1,216.1,133.5,214.7,133.8,214L133.8,214z"/>
		<path class="st8" d="M137.9,211.6c-0.1-0.1-0.3-0.2-0.5-0.3c1-0.1,2-0.2,2.9-0.6c1.9-0.8,3.1-2.6,3.4-3c0.7,0.5,1.4,1.1,1.1,2.1
			c-0.4,1.2-1.6,1.7-2.7,2.1C140.8,212.4,139.2,212.4,137.9,211.6L137.9,211.6z"/>
		<path class="st10" d="M133.7,90.7c0,6.1-3.2,8.8-3,12.1c0.2,3.3,2.8,5.5,3.2,6.5c0.5,1.2,0.3,4.4,0.8,8.5c0.5,5-1.5,11.7-0.2,18
			c0.5,7.8,11.9,8.1,11.9,8.1s11.5-0.8,10.2-9.5c-1.3-8.6-6.6-12-6.9-17.8c-0.2-3,2.2-8.9,3.9-14.7c0.9-2.9,0.5-12.9-2.1-14.3
			c-2.6-1.4-4.9-1.7-6-2.2c-0.7-0.3-1.2-1.2-1.4-2.1c-0.2-0.8-0.6-1.4-1.3-1.7c-2.5-1.3-5.4-2.1-6.1,1.9c0,0.2,0,0.4-0.1,0.6
			c0.1,0.3,0,0.6,0,0.9c0.3,0.7,0,1.4,0.3,2.7C137.1,88.6,135.4,89.8,133.7,90.7z"/>
		<path class="st11" d="M134.1,130.9c0,0,2.2,0.9,8.1,0.6c8.9-0.6,13-3,13-3c1.1,0.7,2.5,5.7,2.6,7.5c0.6,8.8-6.5,14.6-12.9,14.6
			s-9.4-7.2-11-13.2C133.3,135.5,133.8,133,134.1,130.9L134.1,130.9z"/>
		<path class="st3" d="M127,111.3c1.9,2,2.1,7.1-1.8,5.4c-7.1-2.9-15.8-13.3-17.4-14.5c-1.8-1.4,1.1-3.5,1.7-3
			c3.3,2.4,9.1,4.6,11.7,6.4C124.8,107.9,125.8,110.1,127,111.3L127,111.3z"/>
		<path class="st12" d="M134.6,117c-0.2-3.3-1-6.5-1.2-7.3c-0.4-1.1-2.7-3.2-2.9-6.6c-0.2-3.3,3.5-6.4,3.5-12.5
			c0.4-0.8,2.5-2.4,2.5-1.7s-3.6,7.7-3.1,8.6c0.5,1,9.5,0.6,10.8-0.8c1.3-1.4,3.1-9.9,3.3-10.5c0.2-0.7,3,0.5,2.7,0.9
			c-3.8,3.5-3.5,15.2,3.8,16.6c-0.7,2.4-4.4,11.6-4.3,13.1v0.1L134.6,117L134.6,117z"/>
		<path class="st10" d="M151.6,87.8c-2.6-0.4-2.3,12.3-2.3,12.3s2.8,13.7,3.8,15.4c1,1.7,6.1,0.2,5.6-1.3c-1.3-3.9,0-15.1-1.2-19.6
			C157,89.9,154.3,88.2,151.6,87.8L151.6,87.8z"/>
		<path class="st10" d="M158.7,114.1c-1.3-2.4-6.4-4.2-5.9,0.3c0.2,7.5,7,19.1,8.2,21.1c1.2,3.3,3.9,0.8,3.4-0.7
			c-1.3-3.9-1.7-10.1-2.5-13.2C160.7,117.5,159.5,115.6,158.7,114.1L158.7,114.1z"/>
		<path class="st3" d="M107.2,101.6h0.8l6,1.7c0,0-2.9-3-3.7-3.7c-0.7-0.7-0.2-2,0-2.8c0.1-0.8-1.5-5.2-1.7-5.5
			c-0.3-0.3-3.3-1.2-3.9-1.1c-0.6,0.1-1.6,1.6-2.2,2.5c-0.6,0.9-0.6,1.7,0,2.3C102.9,95.6,107.2,101.6,107.2,101.6L107.2,101.6z"/>
		<path class="st10" d="M163.7,132.3l-0.7-0.2l-5.5-3.6c0,0,2.1,4.2,2.7,5.1c0.6,0.8-0.4,2-0.7,2.7s0.2,5.3,0.3,5.7
			c0.2,0.3,2.9,1.9,3.5,2c0.5,0.1,1.9-1.1,2.7-1.8c0.8-0.7,1-1.4,0.6-2.2C166.3,139.2,163.7,132.3,163.7,132.3L163.7,132.3z"/>
		<path class="st13" d="M142.9,108.2h0.8c0,0,1.6,0.1,2.9-1.6s0.4-3.9,2.5-5.2c-1.5,1.6-1,4.4-1.9,5.5c-1.6,2-4.4,1.4-4.4,1.4V108.2
			z"/>
		<path class="st14" d="M135.6,108.2c0,0,1.7,0.1,3-1.4c1.3-1.5,1.1-1.1,0.6,0.2c-1.1,1.7-4.4,1.2-4.4,1.2L135.6,108.2z"/>
	</g>
	<g class="st1">
		<path d="M144.5,60.7c0,0,0.9-5,8.1-3.8c0,0-3.4-0.2-4.4,1.2c0,0,2.6-1.5,4.4-0.4c1.8,1,2.2,4.4,2,5.6c-0.2,1.1-2,4.4-3.1,4.4
			c-1-0.1-2-0.4-2.8-1L144.5,60.7z"/>
		<path d="M131.8,66.1c0,0,8.5-11.3,13.6-4.6c0,0,3.6,1.3,5.2,7.3c1.5,6-2.3,10.9-4.5,10c-1.4-0.6-2.3,1.8-2.3,1.8L131.8,66.1z"/>
		<path class="st10" d="M136.4,89.3c0,0,3.4,1.3,5.7,0.4c0.8-0.4,1.6-0.7,2.4-1c1.1-0.4,1.6-1.7,1-2.7c-0.8-1.6-1.7-4.2-2.1-7.4
			l-0.4,0.1l-7.2,2.2c0,0,0.5,2.3,0.7,4.5C136.7,87.3,136.8,89,136.4,89.3"/>
		<path class="st5" d="M135.8,80.9c0,0,0.5,2.3,0.7,4.5c4-0.6,5.9-4.6,6.5-6.7L135.8,80.9z"/>
		<path d="M144,78.3c1.2-2,2.1-4.4,2.5-6.7c0.4-2.2-1.1-10.1-9.2-8.6c-1.6,0.4-3.1,0.9-4.4,1.9c-1.7,1.4-4.1,4-0.9,10.8l0.8,2.4
			L144,78.3z"/>
		<path class="st10" d="M134.4,83.3c0,0,10-0.2,9.7-6.6c-0.3-6.3,0.8-10.6-5.6-10.6c-6.4,0-7.6,2.4-8,4.5
			C130,72.7,131.7,83.3,134.4,83.3"/>
		<g>
			<g>
				<path class="st15" d="M137,74.5c-0.4-0.1-0.7-0.2-1.2-0.2c-0.2,0-0.6,0.1-0.8,0.1c-0.2,0.1-0.5,0.1-0.8,0.4
					c0.2-0.4,0.8-0.7,1.3-0.8c0.3,0,0.4-0.1,0.7,0C136.6,74.3,136.9,74.4,137,74.5z"/>
			</g>
			<g>
				<path class="st15" d="M132.3,74.9c-0.4,0-1.8,0-2.2,0.4c0.1-0.4,0.7-0.6,1-0.7C131.6,74.6,132,74.7,132.3,74.9z"/>
			</g>
		</g>
		<path d="M133.9,66.3c0,0,3.1,7.2,7.4,8.1c4.2,0.9,6.1-0.2,6.1-0.2c-2.2-1.7-3.8-4.1-4.3-6.9C143.2,67.1,135.8,62.5,133.9,66.3"/>
		<path d="M134.5,66.2c-1,0.9-1.9,2.1-2.4,3.4c-0.4,1.5-1.9,5.5-2.9,5.4c0,0-0.9-5.6,1.3-8.5C132.8,63.7,134.5,66.2,134.5,66.2"/>
		<path d="M133.5,66.6c0,0,3.1,8,8.6,10.2c0,0-5.6-4.4-6.3-9.5C135.1,62.3,133.5,66.6,133.5,66.6"/>
		<path class="st16" d="M132.5,79.8c0,0,0.3,0.5,0.4,0.9c0.1,0.2,1.9,0.1,2.4-0.2c0.4-0.3,0.8-0.7,0.9-1
			C135,79.5,133.8,79.6,132.5,79.8"/>
	</g>
	<g class="st1">
		<g>
			<path class="st17" d="M138.8,96c-0.3-0.2-0.5-0.4-0.6-0.6c-0.7-1.5-1.2-3.1-1.6-4.9c-0.1-0.2-0.1-0.4-0.2-0.6
				c-0.2-0.4-0.3-0.9-0.3-1.3c0-0.2,0.1-0.4,0.3-0.4c0.1,0,0.3,0.2,0.3,0.4c0,0.3,0.1,0.7,0.2,1.1c0.1,0.2,0.2,0.4,0.2,0.6
				c0.4,1.6,0.9,3.2,1.6,4.8c0,0.1,0.1,0.1,0.1,0.1v0.1l0.1-0.1c3.2-2.7,5.5-6,6.7-9.6c0-0.1,0.2-0.2,0.3-0.2h0.1
				c0.2,0.1,0.3,0.3,0.2,0.5c-1.2,3.8-3.5,7.2-6.9,9.9C139.2,95.9,139,96,138.8,96C138.7,96,138.7,96,138.8,96z"/>
			<path class="st17" d="M145.8,85.5C145.8,85.5,145.9,85.5,145.8,85.5c0.2,0.1,0.3,0.2,0.3,0.4c-1.2,3.7-3.5,7.1-6.9,9.8
				c-0.1,0.1-0.2,0.2-0.4,0.2c-0.1,0-0.1,0-0.2,0c-0.2,0-0.4-0.2-0.5-0.4c-0.7-1.5-1.2-3.1-1.6-4.9c-0.1-0.2-0.1-0.4-0.2-0.6
				c-0.2-0.4-0.3-0.9-0.3-1.3c0-0.2,0.1-0.3,0.2-0.3s0.2,0.2,0.2,0.3c0,0.4,0.1,0.8,0.2,1.2c0.1,0.2,0.2,0.4,0.2,0.6
				c0.4,1.6,0.9,3.2,1.6,4.8c0.1,0,0.1,0.1,0.2,0.1c0.1,0,0.1,0,0.1,0l0.1-0.1c3.3-2.7,5.6-6,6.8-9.6
				C145.6,85.6,145.7,85.5,145.8,85.5 M145.8,85.3c-0.2,0-0.3,0.2-0.4,0.4c-1.2,3.6-3.4,6.9-6.7,9.5l0,0c-0.7-1.5-1.2-3.1-1.6-4.8
				c-0.1-0.2-0.1-0.4-0.2-0.6c-0.1-0.4-0.2-0.8-0.2-1.1c0-0.3-0.2-0.5-0.4-0.5s-0.4,0.2-0.4,0.5c0,0.4,0.2,0.9,0.3,1.4
				c0,0.2,0.1,0.3,0.1,0.5c0.3,1.6,0.9,3.3,1.6,4.9c0.1,0.2,0.3,0.4,0.6,0.5c0.1,0,0.1,0,0.2,0c0.2,0,0.4-0.1,0.6-0.2
				c3.4-2.7,5.8-6.1,7-9.9c0-0.3-0.1-0.5-0.3-0.6C145.9,85.3,145.9,85.3,145.8,85.3L145.8,85.3z"/>
		</g>
	</g>
	<g class="st1">
		<path class="st18" d="M138,100.1c-0.9-0.1-1.6-1.3-1.4-2.6c0.1-1.3,0.9-2.2,1.8-2.2c0.1,0,0.1,0,0.2,0c0.9,0.1,1.6,1.3,1.4,2.6
			c-0.1,1.3-0.9,2.2-1.8,2.2C138.2,100.1,138.1,100.1,138,100.1z"/>
		<g>
			<path class="st18" d="M138.5,95.5c0,0,0.1,0,0.2,0c0.9,0.1,1.5,1.3,1.3,2.5c-0.1,1.1-0.9,2-1.7,2c-0.1,0-0.1,0-0.2,0
				c-0.9-0.1-1.5-1.3-1.3-2.5C136.9,96.4,137.7,95.5,138.5,95.5 M138.5,95.2c-1,0-1.8,1-2,2.3c-0.2,1.4,0.5,2.7,1.5,2.8
				c0.1,0,0.1,0,0.2,0c1,0,1.8-1,2-2.3c0.2-1.4-0.5-2.7-1.5-2.8C138.7,95.2,138.7,95.2,138.5,95.2L138.5,95.2L138.5,95.2z"/>
		</g>
	</g>
	<path class="st19" d="M139.4,108.2c-0.5,0-1.5-0.1-1.8-0.1c-0.7,0-1.3,0.3-2.2,0.2c0.4,0,1.2-0.3,1.5-0.4c0.6-0.3,0.8-0.8,0.8-0.7
		C137.8,107.6,139,108,139.4,108.2z"/>
	<g class="st1">
		<g>
			<polygon class="st20" points="159.3,100.1 163,98.2 159.9,101 			"/>
		</g>
		<g>
			<polygon class="st20" points="159.9,103.9 163,106.7 159.3,104.7 			"/>
		</g>
		<g>
			<polygon class="st20" points="159.9,102 163.8,102.9 159.8,103 			"/>
		</g>
	</g>
	<g class="st1">
		<g>
			<polygon class="st20" points="117.6,102.6 117.1,98.9 118.5,102.4 			"/>
		</g>
		<g>
			<polygon class="st20" points="121,103.6 124.3,102.3 121.5,104.4 			"/>
		</g>
		<g>
			<polygon class="st20" points="119.3,102.8 121.3,100 120.2,103.3 			"/>
		</g>
	</g>
</g>
<g id="Ebene_1_1_" class="st0">
	<g id="Ebene_2_1_" class="st1">
		<ellipse class="st2" cx="72" cy="216.4" rx="32.9" ry="2.4"/>
	</g>
	<g class="st1">
		<path class="st10" d="M79.2,92.9c2.7,0,5.7,1.2,6.9,5.7c1.6,4.3,1.5,15.2,3.4,18.8c-2.1,0.2-3.2,2.3-4.5,0.8s-5.8-13-5.8-13
			S76.5,92.9,79.2,92.9L79.2,92.9z"/>
		<path class="st4" d="M65.5,210.4L65.5,210.4l6-0.9l0.6,3.4l8.4-1.5c1.6,0.2,3.4-0.2,4.5,1.6c0.1,0.2,0.2,0.9,0.3,1.3
			c0,0.6-1.4,2-3.3,2.1c-2.4,0.1-15.5-0.1-16.8-1.8c-0.4-0.6-0.2-2.3-0.3-2.9C64.8,210.8,65.1,211,65.5,210.4L65.5,210.4z"/>
		<path class="st5" d="M67.4,143.8c0.4,3.2,4.3,37.3,10.8,36.5c1.1-0.1,1.8-1.7,2.3-4.2c2.8-10.8-0.5-31.7-0.8-34.2
			c-0.4-3.2-2.9-5.1-6.5-4.6C69.6,137.7,67,140.6,67.4,143.8L67.4,143.8z"/>
		<path class="st21" d="M71.2,168.7c-2.7-10.4-4-23.4-4.2-25.3c-0.4-3.4,2.3-6.5,6.1-7c3.8-0.5,5.5-4.5,6.6,1.2
			c0.4,2,3.5,11.3,2.5,29.8L71.2,168.7L71.2,168.7z"/>
		<path class="st5" d="M73.6,205.4l-5.9-0.3c0-0.8,0.6-1.1,0.8-3.7c0.6-8.7-0.1-18.9,0.2-20.7c0.5-3.1,1.7-7.2,2.8-9
			c2-3,9.1,1.8,8.6,5.1c-0.3,2-5.2,17.1-6.9,27.4C73.1,204.5,73.6,205,73.6,205.4L73.6,205.4z"/>
		<path class="st22" d="M84.8,212.6c0.3,0.7-1.3,2.1-3.2,2.3c-2.4,0.1-14.9-0.3-16.1-2c-1.3-1.8-0.6-3.7,0.4-5
			c1.1-1.6,0.3-2.5,0.9-2.6c-0.3-0.7,0-1.4,0.2-1.5c0.7-0.4,0.9,0.4,2.5,1c1.7,0.8,3,0.6,3,0.6s-0.4-1.2,0-1.8c0.2-0.3,0.9,0,1.5,0
			c0.4,0,1.2-0.3,1.4,0.2c0.4,1.3-0.6,2.5-0.6,2.5s1.3,2.1,3.5,3.1C80.4,210.3,83.3,209.3,84.8,212.6L84.8,212.6z"/>
		<path class="st23" d="M80.7,210.3c-1.3,0.8-2.9,0.7-4.2,0.3c-1.1-0.3-2.2-0.9-2.6-2.1c-0.4-1,0.4-1.6,1.1-2.1
			c0.2,0.4,1.5,2.1,3.4,3c0.8,0.4,1.9,0.5,2.8,0.7C81,210.1,80.8,210.2,80.7,210.3L80.7,210.3z"/>
		<path class="st9" d="M54.7,211.4L54.7,211.4l6-0.4l0.3,3.4l8.5-0.7c1.6,0.4,3.3,0.1,4.3,2c0.1,0.2,0.1,0.9,0.2,1.3
			c0,0.6-1.6,1.9-3.5,1.8c-2.4,0-15.5-1.6-16.6-3.3c-0.3-0.6,0-2.3,0.1-2.9C54,211.7,54.3,212,54.7,211.4L54.7,211.4z"/>
		<path class="st10" d="M60.7,145.5c0.3,3.2,3,37.4,9.5,36.9c1.1-0.1,1.9-1.6,2.4-4.2c3.2-10.6,1.4-31.3,1.2-33.8
			c-0.3-3.2-3.4-5.5-7-5.3C63.1,139.4,60.4,142.3,60.7,145.5L60.7,145.5z"/>
		<path class="st24" d="M63.5,169.4c-4-10.7-6.5-26.1-5.2-28.5c1-3.5,4.6-4.6,8.5-4.9s9.8-0.1,9.2,3.4c-0.5,3.2-0.3,17.7-1,29
			L63.5,169.4L63.5,169.4z"/>
		<path class="st10" d="M63.2,207.2l-5.8-0.9c0-0.8,0.7-1,1.2-3.7c1.4-8.7,0.6-18.9,1.1-20.8c0.8-3.1,3.4-6.9,4.6-8.5
			c2.3-2.8,8.9,2.7,8.1,5.8c-0.5,2-6.7,16.5-9.4,26.6C62.9,206.2,63.2,206.9,63.2,207.2L63.2,207.2z"/>
		<path class="st22" d="M73.8,215.3c0.2,0.7-1.5,2-3.4,1.9c-2.4,0-14.8-1.6-15.9-3.4c-1.1-1.9-0.2-3.7,0.9-4.9
			c1.3-1.4,0.5-2.6,1.2-2.6c-0.2-0.6,0.1-1.4,0.4-1.5c0.6-0.3,1,0.4,2.4,1.2c1.7,1,3,0.9,3,0.9s-0.3-1.2,0.2-1.8
			c0.2-0.4,0.9,0.1,1.5,0.1c0.4,0,1.2-0.2,1.4,0.4c0.2,1.3-0.8,2.5-0.8,2.5s1.1,2.2,3.1,3.4C69.6,212.7,72.6,212,73.8,215.3
			L73.8,215.3z"/>
		<path class="st23" d="M69.9,212.6c-1.3,0.7-2.9,0.5-4.2-0.1c-1.1-0.5-2.2-1.1-2.5-2.3c-0.2-1,0.5-1.6,1.3-2
			c0.3,0.4,1.3,2.3,3.1,3.3c0.9,0.5,1.8,0.7,2.8,0.9C70.2,212.4,70,212.5,69.9,212.6L69.9,212.6z"/>
		<path class="st10" d="M75.9,90.1c0.3-1.3,0-2,0.3-2.7c0-0.3-0.1-0.6,0-0.9c-0.1-0.2-0.1-0.4-0.1-0.6c-0.7-4-3.5-3.2-6-1.9
			c-0.7,0.3-1.1,0.9-1.3,1.7c-0.2,0.9-0.7,1.8-1.4,2.1c-1.1,0.5-3.3,0.8-5.9,2.2c-2.6,1.4-3,11.2-2.1,14.1
			c1.7,5.7,4.1,11.5,3.9,14.5c-0.3,5.7-5.5,9.1-6.8,17.6c-1.3,8.6,10.1,9.4,10.1,9.4s11.3-0.3,11.8-8c1.3-6.2-0.7-12.9-0.2-17.8
			c0.5-4.1,0.3-7.2,0.8-8.4c0.4-1,3-3.1,3.2-6.4s-3-6-3-12C77.5,92.1,75.8,90.9,75.9,90.1z"/>
		<path class="st24" d="M78.8,132.7c0.3,2,0.8,4.5,0.2,6.4c-1.6,5.9-4.6,13-10.9,13s-13.3-5.7-12.7-14.4c0.1-1.8,1.5-6.7,2.6-7.4
			c0,0,4,2.4,12.8,3C76.6,133.6,78.8,132.7,78.8,132.7L78.8,132.7z"/>
		<path class="st10" d="M85.3,113.6c0.9-1.4,1.4-3.7,4.3-6.8c2.1-2.3,7.2-5.6,9.9-8.7c0.5-0.6,3.8,0.8,2.3,2.6
			c-1.3,1.5-7.4,13.4-13.6,17.7C84.8,120.9,83.9,116,85.3,113.6L85.3,113.6z"/>
		<path class="st25" d="M78.3,118.9l-15.1-0.1v-0.1c0.1-1.4-3.5-10.5-4.2-12.9c7.3-1.4,7.6-12.9,3.8-16.4c-0.3-0.4,2.5-1.6,2.7-0.9
			c0.2,0.6,2,9,3.3,10.4s10.2,1.8,10.7,0.8c0.5-0.9-3.1-7.8-3.1-8.5s2.1,0.9,2.5,1.7c0,6,3.7,9,3.5,12.3s-2.5,5.4-2.9,6.5
			C79.3,112.5,78.5,115.6,78.3,118.9L78.3,118.9z"/>
		<path class="st10" d="M61.1,90.1c-2.7,0.5-5.2,2.4-5.5,6.9c-1,4.6,0.9,15.5-0.2,19.4c-0.4,1.5,4.6,2.8,5.6,1
			c0.9-1.7,3-15.4,3-15.4S63.7,89.6,61.1,90.1L61.1,90.1z"/>
		<path class="st10" d="M55.2,117c-0.2,1.7-0.8,3.8-0.5,8c0.3,3.1,2,9,2.1,13.1c0,1.6,3.4,3,3.4-0.5c0.5-2.2,2.8-15.3,0.5-22.3
			C59.8,111,55.6,114.3,55.2,117L55.2,117z"/>
		<path class="st10" d="M102.3,99.9c0,0,2.8-6.7,3.3-7.4c0.5-0.7,0.3-1.5-0.5-2.2s-2.1-2-2.7-2c-0.6,0-3.3,1.6-3.6,1.9
			c-0.1,0.3-0.7,4.9-0.5,5.6c0.4,0.7,1.1,1.9,0.6,2.7c-0.6,0.9-2.8,4.4-2.8,4.4l5.4-3L102.3,99.9L102.3,99.9z"/>
		<path class="st10" d="M56.8,135.6c0,0-0.1,7.3-0.3,8.1c-0.1,0.9,0.3,1.5,1.3,1.9c1,0.4,2.7,1,3.2,0.8c0.5-0.3,2.5-2.7,2.6-3.1
			c0-0.4-1.1-4.8-1.6-5.4c-0.5-0.6-1.9-1.3-1.6-2.3c0.3-1.1,0.8-5.6,0.8-5.6l-3.8,5.2L56.8,135.6L56.8,135.6z"/>
		<path class="st26" d="M70.1,110.4c0,0-2.7,0.6-4.3-1.4c-0.9-1.1-0.4-3.8-1.9-5.4c2.1,1.2,1.2,3.4,2.5,5.1s2.9,1.6,2.9,1.6h0.8
			V110.4z"/>
		<path class="st14" d="M78,110.3c0,0-3.2,0.5-4.3-1.2c-0.5-1.3-0.7-1.7,0.6-0.2c1.3,1.5,3,1.4,3,1.4L78,110.3z"/>
	</g>
	<path class="st27" d="M68.5,64c-0.6-1-1.7-1.6-2.7-1.9c-1.1-0.4-1.8-0.4-3-0.2s-2.3,0.9-3.1,1.9c-0.7,1-1,2.3-1.1,3.6
		c-0.1,1.3,0,2.5-0.1,3.8c-0.2,3.7-1.3,6.3-3.7,9c-0.3,0.4-0.7,0.7-1.1,1c2.4,0,4,0,6-1.4c0.6-0.4,1.2-0.9,1.6-1.6
		c0.6-1,0.9-2.2,1.1-3.3c0.4-2,0.8-4,1.5-5.9c0.4-1.2,1-2.4,2-3.1c0.3-0.2,0.5-0.3,0.8-0.4c0.3-0.1,0.6-0.1,0.9-0.1
		c0.3,0,0.6,0.1,0.9,0.2c0.1,0,0.1,0.1,0.2,0.1c0.1,0,0.1,0.1,0.2,0.1c0.1,0,0.2-0.2,0.1-0.3c-0.1-0.4-0.3-0.8-0.5-1.1
		C68.6,64.1,68.5,64,68.5,64z"/>
	<g class="st1">
		<path class="st28" d="M69.4,82.4c0,0-0.7-2.4-2.1-1.9c-2.2,0.8-5.5-4.2-3.7-9.8c1.9-5.7,4.8-5.6,4.8-5.6
			c5.3-6.1,13.3,4.1,13.3,4.1L69.4,82.4z"/>
		<path class="st10" d="M76.5,91.6c-0.4-0.3-0.3-2-0.1-3.9c0.2-2.1,0.7-4.4,0.7-4.4L70,81.1L69.6,81c-0.4,3.2-1.3,5.7-2.1,7.3
			c-0.6,1-0.1,2.3,1,2.7c0.8,0.3,1.6,0.6,2.4,1C73.1,92.9,76.5,91.6,76.5,91.6"/>
		<path class="st5" d="M70,81.1c0.6,2.1,2.4,6,6.4,6.6c0.2-2.1,0.7-4.4,0.7-4.4L70,81.1z"/>
		<path class="st29" d="M80,80.5l0.9-2.2c3.5-6.3,1.3-9-0.2-10.4c-1.2-1-2.6-1.6-4.1-2.1c-7.6-1.9-9.5,5.6-9.3,7.7
			c0.3,2.3,1,4.6,2,6.6L80,80.5z"/>
		<path class="st10" d="M78.2,85.5c2.6,0.1,4.8-9.9,4.5-11.9s-1.3-4.4-7.4-4.8s-5.3,3.8-6,9.8C68.6,84.7,78.2,85.5,78.2,85.5"/>
		<g>
			<g>
				<path class="st15" d="M76.9,76.6c0.3-0.1,0.4,0,0.7,0c0.5,0.1,1,0.4,1.2,0.8c-0.2-0.3-0.5-0.3-0.7-0.4s-0.6-0.1-0.7-0.2
					c-0.5-0.1-0.8-0.1-1.2,0.1C76.4,76.9,76.6,76.7,76.9,76.6z"/>
			</g>
			<g>
				<path class="st15" d="M81.9,77.4c0.3,0.1,0.8,0.3,0.9,0.7c-0.4-0.4-1.7-0.5-2.1-0.5C81,77.4,81.4,77.3,81.9,77.4z"/>
			</g>
		</g>
		<path class="st29" d="M79.8,68.9c-1.6-3.7-7.9,0-7.9,0.2c-1.7,0.7-3.4,5.3-5.6,6.8c0,0,1.7,1.2,5.8,0.6c4.2-0.6,7.6-7.3,7.6-7.3"
			/>
		<path class="st29" d="M79.1,69.1c0,0,1.8-2.3,3.8,0.5c1.9,2.9,0.7,8.2,0.7,8.2c-0.9,0.1-2.1-3.8-2.4-5.3
			C80.8,71.2,80,70,79.1,69.1"/>
		<path class="st29" d="M80.1,69.6c0,0-1.3-4.3-2.3,0.5s-6.6,8.7-6.6,8.7C76.6,77.1,80.1,69.6,80.1,69.6"/>
		<path class="st16" d="M80.2,82.2c-1.2-0.2-2.4-0.4-3.5-0.5c0.1,0.3,0.4,0.7,0.8,1c0.5,0.3,2.2,0.5,2.3,0.3
			C79.9,82.7,80.2,82.2,80.2,82.2"/>
	</g>
	<g class="st1">
		<g>
			<path class="st17" d="M74.2,98.2c-0.2,0-0.4-0.1-0.5-0.2c-3.3-2.7-5.6-6-6.8-9.8c-0.1-0.2,0-0.4,0.2-0.5h0.1
				c0.1,0,0.3,0.1,0.3,0.2c1.2,3.6,3.4,6.8,6.6,9.5l0.1,0.1v-0.1c0,0,0.1,0,0.1-0.1c0.7-1.5,1.2-3.1,1.6-4.7c0-0.2,0.1-0.4,0.2-0.6
				c0.1-0.4,0.2-0.8,0.2-1.1c0-0.2,0.2-0.4,0.3-0.4c0.2,0,0.3,0.2,0.3,0.4c0,0.4-0.1,0.9-0.3,1.3c-0.1,0.2-0.1,0.4-0.2,0.6
				c-0.4,1.7-0.9,3.3-1.6,4.8C74.7,97.8,74.5,98,74.2,98.2C74.3,98.2,74.3,98.2,74.2,98.2z"/>
			<path class="st17" d="M67.2,87.8c0.1,0,0.2,0.1,0.2,0.2c1.2,3.6,3.4,6.8,6.7,9.5l0.1,0.1c0,0,0,0,0.1,0s0.1-0.1,0.2-0.1
				c0.7-1.5,1.2-3.1,1.6-4.7c0-0.2,0.1-0.4,0.2-0.6c0.1-0.4,0.2-0.8,0.2-1.2c0-0.1,0.1-0.3,0.2-0.3s0.2,0.1,0.2,0.3
				c0,0.4-0.1,0.9-0.3,1.3c-0.1,0.2-0.1,0.4-0.2,0.6c-0.4,1.7-0.9,3.3-1.6,4.8c-0.1,0.2-0.3,0.4-0.5,0.4c-0.1,0-0.1,0-0.2,0
				c-0.2,0-0.3-0.1-0.4-0.2c-3.3-2.7-5.6-6-6.8-9.7C66.9,88,67,87.9,67.2,87.8C67.1,87.8,67.2,87.8,67.2,87.8 M67.2,87.6
				c-0.1,0-0.1,0-0.2,0c-0.2,0.1-0.3,0.3-0.3,0.6c1.2,3.8,3.5,7.1,6.9,9.8c0.2,0.1,0.4,0.2,0.6,0.2c0.1,0,0.1,0,0.2,0
				c0.3-0.1,0.5-0.3,0.6-0.5c0.7-1.5,1.3-3.2,1.6-4.8c0-0.2,0.1-0.3,0.1-0.5c0.1-0.5,0.3-1,0.3-1.4c0-0.3-0.2-0.5-0.4-0.5
				c-0.2,0-0.4,0.2-0.4,0.5s-0.1,0.7-0.2,1.1c-0.1,0.2-0.1,0.4-0.2,0.6c-0.4,1.6-0.9,3.2-1.6,4.7l0,0c-3.2-2.6-5.4-5.8-6.6-9.4
				C67.5,87.8,67.4,87.6,67.2,87.6L67.2,87.6z"/>
		</g>
	</g>
	<g class="st1">
		<path class="st18" d="M74.7,102.3c-0.9,0-1.7-0.9-1.8-2.2c-0.2-1.3,0.5-2.5,1.4-2.6c0.1,0,0.1,0,0.2,0c0.9,0,1.7,0.9,1.8,2.2
			c0.2,1.3-0.5,2.5-1.4,2.6C74.8,102.3,74.7,102.3,74.7,102.3z"/>
		<g>
			<path class="st18" d="M74.4,97.7c0.8,0,1.6,0.9,1.7,2c0.2,1.2-0.4,2.4-1.3,2.5c-0.1,0-0.1,0-0.2,0c-0.8,0-1.6-0.9-1.7-2
				c-0.2-1.2,0.4-2.4,1.3-2.5C74.3,97.7,74.4,97.7,74.4,97.7 M74.4,97.4L74.4,97.4c-0.1,0-0.1,0-0.2,0c-1,0.1-1.7,1.4-1.5,2.8
				c0.2,1.3,1,2.3,2,2.3c0.1,0,0.1,0,0.2,0c1-0.1,1.7-1.4,1.5-2.8C76.2,98.4,75.4,97.4,74.4,97.4L74.4,97.4z"/>
		</g>
	</g>
	<path class="st30" d="M75.3,109.3c0-0.1,0.2,0.4,0.8,0.7c0.3,0.1,1.1,0.4,1.5,0.4c-0.9,0.1-1.5-0.2-2.2-0.2c-0.3,0-1.3,0.1-1.8,0.1
		C74,110.1,75.1,109.7,75.3,109.3z"/>
	<g class="st1">
		<g>
			<polygon class="st20" points="53.3,103.1 50.3,100.4 53.9,102.3 			"/>
		</g>
		<g>
			<polygon class="st20" points="53.9,106.8 50.3,108.8 53.3,106 			"/>
		</g>
		<g>
			<polygon class="st20" points="53.4,105.1 49.5,105 53.3,104.1 			"/>
		</g>
	</g>
	<path class="st31" d="M74.8,126.6c0,0.4-0.1,0.8-0.1,1.2c-0.1,0.8-0.1,1.6,0,2.4c-0.4-0.7-0.5-1.6-0.4-2.4c0-0.4,0.1-0.8,0.3-1.2
		c0.1-0.4,0.3-0.8,0.4-1.2C74.9,125.8,74.8,126.2,74.8,126.6z"/>
</g>
<ellipse class="st2" cx="73.4" cy="216.6" rx="25.5" ry="1.8"/>
<g>
	<g>
		<g>
			<path class="st10" d="M150.2,193.4c-0.1-4.5-2.8-21.2-2.8-22.9c0-2.1,0.6-5.6,1.1-10.4c0.4-3.7-1.5-14.2-0.6-19
				c2.2-11.2,10.4-16.9,11.6-16.9c3.7,0,6.3,15.4-1.7,37.3c-0.3,0.8,2.1,4.8,1.6,9.2c-0.5,4.5-4.4,19.8-4.5,22.6
				c-0.1,1.5-1.2,1.6-2.5,1.5C151.4,194.8,150.3,194.9,150.2,193.4L150.2,193.4z"/>
			<path class="st9" d="M148.8,203.9c0,1.5,2.1,2.6,3.7,2.6c1.6,0,4.2-1.6,4.2-2.6c0-0.1,0-1.1,0-1.4c-0.3-2.1-1.4-7.6-1.4-7.6h-5.6
				c0,0-0.8,5.2-1,7.6C148.8,202.9,148.8,203.7,148.8,203.9L148.8,203.9z"/>
			<path class="st7" d="M148.8,202.2c0,1.5,2.1,2.6,3.7,2.6c1.6,0,4.2-1.6,4.2-2.6s-1.1-7-1.4-8.5c0-0.2-0.2-0.4-0.4-0.4h-4.5
				c-0.4,0-0.8,0.3-0.8,0.7C149.5,195.9,148.8,201.1,148.8,202.2L148.8,202.2z"/>
			<path class="st8" d="M150.8,199.4c0,0.7,1.1,1.4,1.9,1.4c0.8,0,2.1-0.8,2.1-1.4s-0.7-4.5-0.7-4.5h-2.8
				C151.3,195.1,150.8,198.7,150.8,199.4L150.8,199.4z"/>
			<path class="st32" d="M156.1,161.8c0,0-1.5,1-2.8,1s-2.8-1-2.8-1H156.1L156.1,161.8z"/>
			<path class="st16" d="M150.8,196.4c0,0.2,0.1,0.3,0.3,0.3h3.2c0.2,0,0.3-0.1,0.3-0.3s-0.1-0.3-0.3-0.3h-3.2
				C151,196.1,150.8,196.3,150.8,196.4L150.8,196.4z"/>
			<path class="st16" d="M150.7,200c0,0.2,0.2,0.3,0.3,0.3h3.4c0.2,0,0.3-0.1,0.3-0.3s-0.2-0.3-0.3-0.3H151
				C150.8,199.7,150.7,199.8,150.7,200L150.7,200z"/>
			<path class="st16" d="M150.7,197.6c0,0.2,0.2,0.3,0.3,0.3h3.5c0.2,0,0.3-0.1,0.3-0.3s-0.2-0.3-0.3-0.3H151
				C150.8,197.3,150.7,197.4,150.7,197.6L150.7,197.6z"/>
			<path class="st16" d="M150.5,198.6c0,0.2,0.2,0.3,0.4,0.3h3.9c0.2,0,0.4-0.1,0.4-0.3s-0.2-0.3-0.4-0.3h-3.9
				C150.6,198.4,150.5,198.5,150.5,198.6L150.5,198.6z"/>
			<path class="st10" d="M142.4,193.4c0.1-4.5,2.9-20.6,2.9-22.2c-0.1-1.7-0.7-6.3-1.2-11.1c-0.4-3.7,1.5-14.2,0.6-19
				c-2.2-11.2-10.4-16.9-11.6-16.9c-4.2,0-7.1,13.3,1.7,37.3c0.3,0.8-2.4,7.5-1.8,10.4c0.8,4.5,4.7,18.6,4.8,21.4
				c0.1,1.5,1.2,1.6,2.5,1.5C141.2,194.8,142.4,194.9,142.4,193.4L142.4,193.4z"/>
			<path class="st9" d="M144.1,203.9c0,1.5-2.1,2.6-3.7,2.6c-1.6,0-4.2-1.6-4.2-2.6c0-0.1,0-1.1,0-1.4c0.3-2.1,1.4-7.6,1.4-7.6h5.6
				c0,0,0.8,5.2,1,7.6C144.1,202.9,144.1,203.7,144.1,203.9L144.1,203.9z"/>
			<path class="st7" d="M144.1,202.2c0,1.5-2.1,2.6-3.7,2.6c-1.6,0-4.2-1.6-4.2-2.6s1.1-6.9,1.3-8.4c0-0.2,0.2-0.4,0.5-0.4h4.4
				c0.3,0,0.5,0.2,0.6,0.5C143.2,195.4,144.1,201,144.1,202.2L144.1,202.2z"/>
			<path class="st8" d="M142.1,199.4c0,0.7-1.1,1.4-1.9,1.4c-0.8,0-2.1-0.8-2.1-1.4s0.7-4.5,0.7-4.5h2.8
				C141.6,195.1,142.1,198.7,142.1,199.4L142.1,199.4z"/>
			<path class="st11" d="M147.2,152c0,0,3.7,1.4,7,1.4c3.4,0,7.2-1.4,7.2-1.4c0.9-5.5,1.5-12.6,1.8-15.2c0.9-7.6-2.3-12.8-2.9-17.8
				c-0.3-2.5-3.8-0.3-6.4-0.3c-2.1,0-6.2-0.6-7.5,1.9c-1.2,2.4-0.1,11.1-0.1,13.3C146.4,135.5,146.7,144.3,147.2,152L147.2,152z"/>
			<path class="st11" d="M130.6,152.4c0,0,3.2,1,7.7,1s7.1-1,7.1-1c0.6-7.8,0.6-16.9,0.6-18.4c2.6-0.1,0.8-12.2-0.1-14.3
				c-1.4-3.4-5.8-0.8-8.3-0.8c-2.6,0-5.3-2.2-5.4,0.4c-0.6,5.6-4.1,10.1-3.3,17.9C129.1,138.6,129.6,146.1,130.6,152.4L130.6,152.4z
				"/>
			<path class="st6" d="M160.5,119.9c-0.1,0.3-6.1,1.5-13.3,1.5c-7.6,0-14.5-1.1-14.8-1.3c-0.6-0.3-0.1-3.3,0.4-4
				c0.5-0.8,25.8-0.4,26.6,0S160.8,119.3,160.5,119.9L160.5,119.9z"/>
			<path class="st10" d="M108.1,78.7c0-0.6-0.3-2.2-0.7-2.7c-0.3-0.4-0.5-2.1-0.3-2.6c0.5-0.3,1.3-0.2,1.9-0.2
				c0.9,0,1.6,0.7,2.4,0.7c0.7,0,1.5-0.1,1.9,0.4s0.6,1.5,0.6,2.1c0,0.8-0.3,1.2-0.8,1.7c-0.5,0.4-0.7,1.5-0.8,2.1
				c-0.3,0-1.1-0.9-1.4-1c-0.5-0.2-1.1-0.6-1.6-0.5"/>
			<path class="st10" d="M132.7,76.8c-1.9-0.2-6.5,1.6-8,3.3c-1.5,1.7-2.3,3.8-2.7,4.4c-0.4,0.6-5,2.1-6,8.6c-0.2,1.3-0.8,2.6-1,2.9
				c2.7-5.8-3.2-15.4-3.4-18.1c-0.2-2.1-4.4-2.1-3.6,0.6c0.5,1.7-0.7,7.8-0.1,13.5c0.3,3.2,1.7,6.3,3,8.5c0.7,1.2,0.8,2,1.8,2.4
				c2,0.7,8.2-1.1,10.7-5.7c2.8-1.3,5-4.9,5.2-5C129.3,92.2,134.7,77,132.7,76.8L132.7,76.8z"/>
			<path class="st10" d="M108.2,73.4c0.3,0.7,0.5,1.8,0.9,2.5c0.2,0.4,1,0.4,0.9-0.5c0.2,0.7,1,0.8,1.2,0.7c0.1-0.1,0.1-0.5,0-0.7
				c0.2,0.5,1,0.8,1.2,0.7c0.2-0.1,0-0.5-0.1-0.9c0.2,0.8,1.3,1.3,1.3,0.7c0-0.9-0.2-2.1-0.5-2.7c-0.2-0.4-0.3-0.9-0.7-1.1
				c-0.5-0.3-0.6,0-1.2,0c-0.3,0-0.6-0.3-1-0.1c-0.3,0.1-0.8-0.1-1.1-0.1c-0.5,0-0.9,0.3-0.9,0.3s-0.9-0.2-1.1,0.4
				c-0.2,0.4-0.1,1.3-0.1,1.4"/>
			<path class="st10" d="M113.7,77.4c0.6-0.7,0.8-2.8,0.4-3.7c-0.4-1-2.6,0.5-3.3,0.9c-0.7,0.4-0.3,0.8,0.3,0.9
				c0.5,0.1,1.5-0.4,1.5-0.4"/>
			<path class="st10" d="M184.3,78.7c0-0.6,0.3-2.2,0.7-2.7c0.3-0.4,0.5-2.1,0.3-2.6c-0.5-0.3-1.3-0.2-1.9-0.2
				c-0.9,0-1.6,0.7-2.4,0.7c-0.7,0-1.5-0.1-1.9,0.4s-0.6,1.5-0.6,2.1c0,0.8,0.3,1.2,0.8,1.7c0.5,0.4,0.7,1.5,0.8,2.1
				c0.3,0,1.1-0.9,1.4-1c0.5-0.2,1.1-0.6,1.6-0.5"/>
			<path class="st10" d="M160.7,76.9c1.9-0.2,5.5,1.5,7,3.2c1.4,1.7,2.3,3.8,2.7,4.4s5,2.1,6,8.6c0.2,1.3,0.8,2.6,1,2.9
				c-2.7-5.8,3.2-15.4,3.4-18.1c0.2-2.1,4.4-2.1,3.6,0.6c-0.5,1.7,0.7,7.8,0.1,13.5c-0.3,3.2-1.7,6.3-3,8.5c-0.7,1.2-0.8,2-1.8,2.4
				c-2,0.7-8-1.4-10.5-6c-2.8-1.3-5.2-4.9-5.3-5C163.3,91.5,158.7,77.1,160.7,76.9L160.7,76.9z"/>
			<path class="st10" d="M184.2,73.4c-0.3,0.7-0.5,1.8-0.9,2.5c-0.2,0.4-1,0.4-0.9-0.5c-0.2,0.7-1,0.8-1.2,0.7
				c-0.1-0.1-0.1-0.5,0-0.7c-0.2,0.5-1,0.8-1.2,0.7c-0.2-0.1,0-0.5,0.1-0.9c-0.2,0.8-1.3,1.3-1.3,0.7c0-0.9,0.2-2.1,0.5-2.7
				c0.2-0.4,0.3-0.9,0.7-1.1c0.5-0.3,0.6,0,1.2,0c0.3,0,0.6-0.3,1-0.1c0.3,0.1,0.8-0.1,1.1-0.1c0.5,0,0.9,0.3,0.9,0.3
				s0.9-0.2,1.1,0.4c0.2,0.4,0.1,1.3,0.1,1.4"/>
			<path class="st10" d="M178.7,77.4c-0.6-0.7-0.8-2.8-0.4-3.7c0.4-1,2.6,0.5,3.3,0.9s0.3,0.8-0.3,0.9c-0.5,0.1-1.5-0.4-1.5-0.4"/>
			<path class="st10" d="M163.6,91.3c0.2-1.5,0.1-3.9-0.4-5c0.1-0.6-1.4-7.5-1-9c-0.6-1.1-6.8-1.5-8.6-1.3c-0.6-0.6-0.3,0-1-0.3
				c0,0-4.4-2.5-6.4-2.1c-2-0.4-6.4,2.1-6.4,2.1c-0.6,0.3-0.4-0.2-1,0.3c-1.8-0.2-8.1,0.3-8.6,1.3c0.5,2.1-0.3,7.6,0,9
				c-0.5,1.1-1.8,4.5-1.6,6c0.1,0.9,3.1,2.2,4.1,4.4c1,3.7,2.6,5.4,2.6,6.1c0,1.1-2.4,10.9-2.1,13.3c0.2,1.2,6.1,1.9,12.8,1.9l0,0
				c0.1,0,0.1,0,0.2,0c0.1,0,0.1,0,0.2,0l0,0c6.7,0,12.6-0.7,12.8-1.9c0.4-2.4-2-11.3-2.1-12.3c0-0.7,1.6-3.5,2.7-7.2
				C160.7,94.3,163.5,92.2,163.6,91.3L163.6,91.3z"/>
			<path class="st6" d="M142.4,132.5c0,0,1.9,1,3.6,1c1.7,0,3.6-1,3.6-1H142.4L142.4,132.5z"/>
			<path class="st32" d="M136.5,161.8c0,0,1.5,1,2.8,1s2.8-1,2.8-1H136.5L136.5,161.8z"/>
			<path class="st16" d="M142.1,196.4c0,0.2-0.1,0.3-0.3,0.3h-3.2c-0.2,0-0.3-0.1-0.3-0.3s0.1-0.3,0.3-0.3h3.2
				C142,196.1,142.1,196.3,142.1,196.4L142.1,196.4z"/>
			<path class="st16" d="M142.3,200c0,0.2-0.2,0.3-0.3,0.3h-3.4c-0.2,0-0.3-0.1-0.3-0.3s0.2-0.3,0.3-0.3h3.4
				C142.1,199.7,142.3,199.8,142.3,200L142.3,200z"/>
			<path class="st16" d="M142.3,197.6c0,0.2-0.2,0.3-0.3,0.3h-3.5c-0.2,0-0.3-0.1-0.3-0.3s0.2-0.3,0.3-0.3h3.5
				C142.1,197.3,142.3,197.4,142.3,197.6L142.3,197.6z"/>
			<path class="st16" d="M142.5,198.6c0,0.2-0.2,0.3-0.4,0.3h-3.9c-0.2,0-0.4-0.1-0.4-0.3s0.2-0.3,0.4-0.3h3.9
				C142.3,198.4,142.5,198.5,142.5,198.6L142.5,198.6z"/>
			<path class="st12" d="M159,91.9c-2.8-4.4-2.3-15.6-3.2-15.8c-0.8-0.2-1.5-0.2-2-0.2c-0.4-0.4,2.2,6.1,0,10.3
				c-1,1.9-13.4,1.9-14.3-0.1c-2.1-4.2-0.4-10.6-0.8-10.3c-0.5,0-1.3,0-2,0.2c-1.1,0.2,0.4,12.2-3.7,16.2c-1,1-3.2,1.4-2.5,2.1
				c0.4,0.6,1.5,1.5,1.9,2.4c1.1,3.7,2.7,4.7,2.6,7.1c0,1.1-2.8,10.9-2.4,13.3c0.2,1.2,6.6,1.9,13.5,1.9h0.4
				c6.9,0,13.1-0.7,13.3-1.9c0.4-2.4-2.2-12.3-2.2-13.4c-0.1-2,1.6-3.5,2.7-7.2c0.5-1,1.1-2,1.6-2.9C162.6,92.7,160,93.5,159,91.9
				L159,91.9z"/>
		</g>
		<path class="st10" d="M153.1,76.1c0.3,0.4-0.1,1.2-0.4,1.7c-1,1.5-3.8,3.9-10.5,3.1c-2.3-0.2-4.1-3.3-2.6-5c0.2-0.3,0.7-0.8,1-1.6
			c0.3-1.3,1-2.5,1-3.8l5-3.1l4.7-3C150.3,71.8,152.3,74.7,153.1,76.1z"/>
		<path class="st32" d="M151,68.1c0,0-4.5,5.4-10.4,6.2c0.3-1.1,1-3,1-4l5.1-3.1L151,68.1z"/>
		<path class="st10" d="M139.7,70c0,0,11.1,3.1,12.9-3.6c1.8-6.7,4.5-11-2.4-13.2s-9-0.1-10.2,2.1C138.9,57.3,136.8,69,139.7,70z"/>
		<path d="M158.2,53.2c0.3-0.1,0.6-0.2,0.9-0.1c-0.2-0.3-0.6-0.3-1-0.4c0-1-0.5-2.1-1.5-2.5c0.4,0.3,0.6,0.8,0.6,1.2
			c-1.3-1.6-9.2-4.5-13.7-3.4c-7.5,1.2-6.1,7.4-5.2,8c1.4,1,4.1-0.6,6.9-0.1c2.8,0.5,2.8,4.6,3.6,5.1c0.7,0.5,0.7-0.4,2-0.8
			c1.3-0.4,1.2,1.7,0.6,3c-0.6,1.2,1,3.2,1,3.2l2-1.7c2-1.7,4.5-9.5,3.9-11.3L158.2,53.2z"/>
		<path class="st16" d="M138.9,65.6c0.2,0.6,0.7,1.1,1.3,1.2s2.1,0.4,2.9-1.1C142.2,65.4,140,65.5,138.9,65.6z"/>
		<g>
			<g>
				<path class="st17" d="M147.1,89.5c-0.3,0-0.7-0.2-1-0.5c-2.8-3.1-4.8-7.1-7.6-12.9c-0.1-0.2,0-0.4,0.1-0.5c0.1,0,0.1,0,0.2,0
					c0.1,0,0.3,0.1,0.3,0.2c2.8,5.7,4.8,9.7,7.5,12.7c0.2,0.2,0.3,0.3,0.5,0.3c0.1,0,0.2-0.1,0.4-0.2c2-2,5.4-8.4,5.9-12.6
					c0-0.2,0.2-0.3,0.3-0.3c0.2,0,0.4,0.2,0.3,0.4c-0.5,4.1-3.8,10.8-6.1,13.1C147.7,89.4,147.4,89.5,147.1,89.5z"/>
				<path class="st17" d="M138.8,75.7c0.1,0,0.2,0.1,0.2,0.1c2.8,5.7,4.8,9.7,7.5,12.7c0.2,0.2,0.4,0.3,0.5,0.3s0.3-0.1,0.5-0.3
					c2-2,5.4-8.4,5.9-12.7c0-0.1,0.1-0.2,0.2-0.2l0,0c0.1,0,0.2,0.1,0.2,0.3c-0.5,4.1-3.8,10.8-6.1,13c-0.3,0.3-0.5,0.4-0.8,0.4
					s-0.6-0.2-0.9-0.5c-2.8-3.1-4.8-7.1-7.6-12.9c-0.1-0.1,0-0.3,0.1-0.4C138.7,75.7,138.8,75.7,138.8,75.7 M138.8,75.5
					c-0.1,0-0.1,0-0.2,0.1c-0.2,0.1-0.3,0.4-0.2,0.6c2.8,5.8,4.8,9.8,7.6,12.9c0.3,0.4,0.7,0.6,1,0.6s0.6-0.2,0.9-0.4
					c2.3-2.3,5.7-9,6.1-13.1c0-0.3-0.1-0.5-0.4-0.5l0,0l0,0c-0.2,0-0.4,0.2-0.4,0.4c-0.5,4.2-3.9,10.6-5.9,12.6
					c-0.1,0.1-0.2,0.2-0.3,0.2s-0.2-0.1-0.4-0.3c-2.7-3-4.7-7-7.5-12.7C139.1,75.6,139,75.5,138.8,75.5L138.8,75.5z"/>
			</g>
		</g>
		<g>
			<path class="st18" d="M147.2,93.5c-1.2,0-2.1-1-2.2-2.3c-0.1-1.3,0.9-2.4,2.1-2.5l0,0c1.3,0,2.2,1,2.3,2.3
				C149.4,92.3,148.5,93.4,147.2,93.5L147.2,93.5z"/>
			<path class="st18" d="M147.2,88.8c1.1,0,2,1,2.1,2.2c0,1.3-0.8,2.3-2,2.4h-0.1c-1.1,0-2-1-2.1-2.2
				C145.1,89.9,146,88.9,147.2,88.8C147.1,88.8,147.2,88.8,147.2,88.8 M147.2,88.6L147.2,88.6c-1.4,0.1-2.3,1.2-2.3,2.6
				c0.1,1.4,1.1,2.4,2.3,2.4h0.1c1.3-0.1,2.2-1.2,2.2-2.6C149.4,89.7,148.4,88.6,147.2,88.6L147.2,88.6z"/>
		</g>
		<path class="st15" d="M141.8,60.8c0.2-0.3,0.5-0.5,0.8-0.6s0.6-0.1,0.9-0.1c0.3,0,0.7,0.1,1,0.2c0.3,0.1,0.5,0.4,0.6,0.7
			c-0.2-0.1-0.3-0.2-0.8-0.4c-0.5-0.1-1.2-0.2-1.5-0.1C142.4,60.6,142,60.6,141.8,60.8z"/>
		<g>
			<path class="st15" d="M140.1,60.7c-0.5,0-0.9-0.2-1.4-0.2s-0.9,0-1.2,0.4c0-0.2,0.2-0.6,0.5-0.7c0.3-0.2,0.5-0.2,0.7-0.2
				c0.4,0,0.2,0,0.7,0.2C139.8,60.4,139.9,60.6,140.1,60.7z"/>
		</g>
		<g>
			<path class="st13" d="M145,96.3c-0.7,0.3-1.4,0.6-2.2,0.8c-0.8,0.2-1.5,0.4-2.3,0.5c-1.6,0.2-3.2,0-4.7-0.6c1.6,0,3.1,0,4.6-0.2
				c0.8-0.1,1.5-0.2,2.3-0.3C143.5,96.5,144.2,96.3,145,96.3z"/>
		</g>
		<g>
			<path class="st13" d="M148.2,96.3c0.8,0,1.6,0.2,2.3,0.3c0.8,0.1,1.5,0.2,2.3,0.3c1.5,0.2,3,0.2,4.6,0.2
				c-1.5,0.6-3.1,0.7-4.7,0.6c-0.8-0.1-1.6-0.2-2.3-0.5C149.6,96.9,148.9,96.6,148.2,96.3z"/>
		</g>
		<path class="st13" d="M145.4,102.9c-0.5,0.2-1,0.5-1.5,0.6c-0.5,0.2-1,0.3-1.6,0.4c-1.1,0.2-2.2,0-3.2-0.5c1.1,0,2.1,0,3.2-0.2
			c0.5-0.1,1-0.2,1.6-0.2C144.3,103.1,144.8,102.9,145.4,102.9z"/>
		<g>
			<path class="st33" d="M127.8,90.1c-0.2,0.6-0.4,1.2-0.7,1.8c-0.3,0.6-0.6,1.1-0.9,1.7c-0.7,1.1-1.7,1.8-2.8,2.3
				c0.8-0.9,1.6-1.8,2.3-2.8c0.4-0.5,0.7-1,1-1.5C127.2,91.1,127.4,90.6,127.8,90.1z"/>
			<path class="st34" d="M115.2,91c0.1,0.4,0.2,0.8,0.3,1.3c0,0.5,0.1,0.9,0.1,1.3c0,0.9-0.3,1.7-0.7,2.4c0.1-0.9,0.3-1.7,0.3-2.5
				c0-0.4,0-0.8,0-1.3C115.2,91.8,115.1,91.4,115.2,91z"/>
			<path class="st34" d="M122.7,84.4c0.2-0.5,0.3-0.9,0.6-1.4c0.2-0.5,0.4-0.9,0.7-1.3c0.6-0.8,1.3-1.5,2.1-1.9
				c-0.6,0.7-1.2,1.4-1.8,2.2c-0.3,0.4-0.5,0.8-0.8,1.2C123.2,83.6,123,84,122.7,84.4z"/>
		</g>
		<path class="st14" d="M76.4,110c0.7-0.2,1-0.6,1.6-0.9c-0.4,0.5-0.8,0.9-1.4,1.2c-0.3,0.1-0.7,0.1-1,0.2c-0.4,0-0.5-0.1-0.9,0
			C75,110.3,75.7,110.2,76.4,110z"/>
		<g>
			<path class="st33" d="M165.6,91.3c0.4,0.5,0.7,1,1,1.5c0.7,1,1.4,1.9,2.3,2.8c-1.1-0.5-2.1-1.3-2.8-2.3c-0.4-0.5-0.6-1.1-0.9-1.7
				c-0.3-0.6-0.5-1.2-0.7-1.8C165,90.3,165.2,90.8,165.6,91.3z"/>
			<path class="st34" d="M177.3,91.9c0,0.4,0,0.8,0,1.3c0,0.8,0.1,1.6,0.3,2.5c-0.5-0.7-0.7-1.5-0.7-2.4c0-0.4,0-0.9,0.1-1.3
				c0-0.5,0.2-0.9,0.3-1.3C177.2,91.1,177.2,91.5,177.3,91.9z"/>
			<path class="st34" d="M168.8,82.9c-0.3-0.4-0.5-0.8-0.8-1.2c-0.5-0.8-1.1-1.5-1.8-2.2c0.8,0.4,1.6,1.1,2.1,1.9
				c0.3,0.4,0.5,0.8,0.7,1.3s0.4,0.9,0.6,1.4C169.4,83.7,169.2,83.3,168.8,82.9z"/>
		</g>
		<g>
			<path class="st13" d="M147.7,102.9c0.5,0,1.1,0.2,1.6,0.2c0.5,0.1,1,0.2,1.6,0.2c1,0.2,2.1,0.2,3.2,0.2c-1,0.5-2.1,0.5-3.2,0.5
				c-0.5-0.1-1.1-0.2-1.6-0.4C148.7,103.4,148.2,103.1,147.7,102.9z"/>
		</g>
		<path class="st13" d="M145.3,106.8c-0.5,0.2-1,0.5-1.5,0.6c-0.5,0.2-1,0.3-1.6,0.4c-1.1,0.2-2.2,0-3.2-0.5c1.1,0,2.1,0,3.2-0.2
			c0.5-0.1,1-0.2,1.6-0.2C144.3,107,144.7,106.8,145.3,106.8z"/>
		<g>
			<path class="st13" d="M147.7,106.8c0.5,0,1.1,0.2,1.6,0.2c0.5,0.1,1,0.2,1.6,0.2c1,0.2,2.1,0.2,3.2,0.2c-1,0.5-2.1,0.5-3.2,0.5
				c-0.5-0.1-1.1-0.2-1.6-0.4C148.7,107.2,148.2,107,147.7,106.8z"/>
		</g>
	</g>
	<g>
		<g>
			<polygon class="st20" points="119.9,85.3 119.6,81.1 120.9,85.1 			"/>
		</g>
		<g>
			<polygon class="st20" points="117.9,87.3 114.6,84.8 118.4,86.4 			"/>
		</g>
		<g>
			<polygon class="st20" points="118.6,86.1 116.3,82.3 119.4,85.5 			"/>
		</g>
	</g>
	<g>
		<g>
			<polygon class="st20" points="174.2,86.4 178.1,85 174.7,87.3 			"/>
		</g>
		<g>
			<polygon class="st20" points="171.8,85.2 173.2,81.3 172.7,85.4 			"/>
		</g>
		<g>
			<polygon class="st20" points="173.1,85.5 176,82.2 173.9,86.1 			"/>
		</g>
	</g>
	<g>
		<g>
			<polygon class="st20" points="164.6,148.1 168.7,150.1 164.2,149 			"/>
		</g>
		<g>
			<polygon class="st20" points="164.6,141.7 171,140.9 164.9,142.7 			"/>
		</g>
		<g>
			<polygon class="st20" points="164.8,144.9 170,145.6 164.7,145.9 			"/>
		</g>
	</g>
	<g>
		<g>
			<polygon class="st20" points="127.1,137.9 122.6,139.2 126.7,137 			"/>
		</g>
		<g>
			<polygon class="st20" points="127.1,131.8 121.4,128.9 127.5,130.9 			"/>
		</g>
		<g>
			<polygon class="st20" points="126.6,135.1 121.5,133.6 126.8,134.1 			"/>
		</g>
	</g>
	<ellipse class="st2" cx="146.4" cy="216.6" rx="25.5" ry="1.8"/>
</g>
<g>
	<g>
		<g>
			<path class="st10" d="M69.6,208.4c-0.1,1.5-1.2,1.4-2.2,1.4c-1.3,0.1-2.4,0-2.5-1.5c-0.1-2.8-4-20.1-4.5-24.6
				c-0.5-4.4,1.9-8.4,1.6-9.2c-8-21.9-5.4-37.3-1.7-37.3c1.2,0,9.4,5.7,11.6,16.9c0.9,4.8-1,15.3-0.6,19c0.5,4.8,1.1,8.3,1.1,10.4
				C72.4,185.2,69.7,203.9,69.6,208.4L69.6,208.4z"/>
			<path class="st9" d="M71,216.6c0-0.2,0-0.8,0.1-1.1c-0.2-1.9-1-5.9-1-5.9h-5.6c0,0-1.1,4.3-1.4,5.9c0,0.2,0,1,0,1.1
				c0,0.8,2.6,2,4.2,2C68.9,218.6,71,217.7,71,216.6L71,216.6z"/>
			<path class="st23" d="M71,215.2c0-0.9-0.7-4.9-0.8-6.4c0-0.3-0.4-0.5-0.8-0.5h-4.5c-0.2,0-0.4,0.2-0.4,0.3
				c-0.3,1.2-1.4,5.9-1.4,6.6s2.6,2,4.2,2C68.9,217.3,71,216.4,71,215.2L71,215.2z"/>
			<path class="st22" d="M69,213.1c0-0.5-0.5-3.4-0.5-3.5h-2.8c0,0-0.7,3-0.7,3.5c0,0.5,1.3,1.1,2.1,1.1
				C67.9,214.2,69,213.6,69,213.1L69,213.1z"/>
			<path class="st32" d="M63.7,174.8h5.6c0,0-1.5,1-2.8,1S63.7,174.8,63.7,174.8L63.7,174.8z"/>
			<path class="st16" d="M69,210.7c0-0.1-0.2-0.2-0.3-0.2h-3.2c-0.2,0-0.3,0.1-0.3,0.2c0,0.2,0.1,0.2,0.3,0.2h3.2
				C68.9,211,69,210.9,69,210.7L69,210.7z"/>
			<path class="st16" d="M69.1,213.5c0-0.2-0.1-0.2-0.3-0.2h-3.4c-0.1,0-0.3,0.1-0.3,0.2c0,0.2,0.1,0.2,0.3,0.2h3.4
				C68.9,213.8,69.1,213.7,69.1,213.5L69.1,213.5z"/>
			<path class="st16" d="M69.1,211.7c0-0.2-0.1-0.2-0.3-0.2h-3.5c-0.1,0-0.3,0.1-0.3,0.2c0,0.2,0.1,0.2,0.3,0.2h3.5
				C68.9,211.9,69.1,211.8,69.1,211.7L69.1,211.7z"/>
			<path class="st16" d="M69.3,212.4c0-0.1-0.1-0.2-0.4-0.2H65c-0.2,0-0.4,0.1-0.4,0.2c0,0.2,0.2,0.2,0.4,0.2h3.9
				C69.1,212.7,69.3,212.6,69.3,212.4L69.3,212.4z"/>
			<path class="st10" d="M77.4,208.4c0,1.5,1.2,1.4,2.1,1.4c1.3,0.1,2.4,0,2.5-1.5c0.1-2.8,4-18.9,4.8-23.4
				c0.6-2.9-2.1-9.6-1.8-10.4c8.8-24,5.9-37.3,1.7-37.3c-1.2,0-9.4,5.7-11.6,16.9c-0.9,4.8,1,15.3,0.6,19c-0.5,4.8-1.1,9.4-1.2,11.1
				C74.5,185.8,77.3,203.9,77.4,208.4L77.4,208.4z"/>
			<path class="st9" d="M75.7,216.6c0-0.2,0-0.8-0.1-1.1c0.2-1.9,1-5.9,1-5.9h5.6c0,0,1.1,4.3,1.4,5.9c0,0.2,0,1,0,1.1
				c0,0.8-2.6,2-4.2,2C77.8,218.6,75.7,217.7,75.7,216.6L75.7,216.6z"/>
			<path class="st23" d="M75.7,215.2c0-0.9,0.9-5.3,1.1-6.5c0.1-0.2,0.3-0.4,0.6-0.4h4.4c0.3,0,0.5,0.2,0.5,0.3
				c0.2,1.2,1.3,5.8,1.3,6.6s-2.6,2-4.2,2C77.8,217.3,75.7,216.4,75.7,215.2L75.7,215.2z"/>
			<path class="st22" d="M77.7,213.1c0-0.5,0.5-3.4,0.5-3.5H81c0,0,0.7,3,0.7,3.5c0,0.5-1.3,1.1-2.1,1.1
				C78.8,214.2,77.7,213.6,77.7,213.1L77.7,213.1z"/>
			<path class="st24" d="M72.6,165c0.5-7.7,0.8-16.5,0.9-18.1c0-2.2,1.1-10.9-0.1-13.3c-1.3-2.5-5.4-1.9-7.5-1.9
				c-2.6,0-6.1-2.2-6.4,0.3c-0.6,5-3.8,10.2-2.9,17.8c0.3,2.6,0.9,9.7,1.8,15.2c0,0,3.8,1.4,7.2,1.4C68.9,166.4,72.6,165,72.6,165
				L72.6,165z"/>
			<path class="st24" d="M89.2,165.4c1-6.3,1.5-13.8,1.7-15.2c0.8-7.8-2.7-12.3-3.3-17.9c-0.1-2.6-2.8-0.4-5.4-0.4
				c-2.5,0-6.9-2.6-8.3,0.8c-0.9,2.1-2.7,14.2-0.1,14.3c0,1.5,0,10.6,0.6,18.4c0,0,2.6,1,7.1,1S89.2,165.4,89.2,165.4L89.2,165.4z"
				/>
			<path class="st21" d="M59.3,132.9c-0.3-0.6,0.3-3.4,1.1-3.8c0.8-0.4,26.1-0.8,26.6,0c0.5,0.7,1,3.7,0.4,4
				c-0.3,0.2-7.2,1.3-14.8,1.3C65.4,134.4,59.4,133.2,59.3,132.9L59.3,132.9z"/>
			<path class="st10" d="M109.1,89.7c-0.5-0.1-1.1,0.4-1.6,0.6c-0.3,0.1-1,1.1-1.3,1.1c-0.1-0.6-0.4-1.7-0.9-2
				c-0.5-0.5-0.9-0.8-0.9-1.6c0-0.6,0.1-1.6,0.5-2.1c0.4-0.5,1.2-0.5,1.9-0.5c0.8-0.1,1.4-0.8,2.3-0.9c0.6,0,1.4-0.2,1.9,0.1
				c0.2,0.5,0.2,2.2-0.1,2.6c-0.4,0.5-0.5,2.1-0.5,2.7"/>
			<path class="st10" d="M85.6,89.5c-2,0.3,4.5,15.1,5.2,15.1c0.2,0.1,2.7,3.5,5.5,4.6c2.8,4.4,9.1,5.8,11.1,4.9
				c1-0.5,1-1.3,1.6-2.5c1.1-2.3,2.3-5.5,2.4-8.7c0.2-5.7-1.4-11.7-1.1-13.5c0.6-2.7-3.6-2.5-3.6-0.3c0,2.7-5.2,12.7-2.1,18.3
				c-0.2-0.3-0.9-1.5-1.2-2.8c-1.5-6.4-6.2-7.6-6.6-8.2c-0.4-0.6-1.4-2.6-3-4.2C92.2,90.6,87.5,89.2,85.6,89.5L85.6,89.5z"/>
			<path class="st10" d="M111,84.9c0-0.1,0-1-0.2-1.4c-0.2-0.6-1.1-0.3-1.1-0.3s-0.4-0.3-0.9-0.2c-0.3,0-0.8,0.3-1.1,0.2
				c-0.4-0.2-0.7,0.1-1,0.2c-0.6,0-0.7-0.2-1.2,0.1c-0.4,0.2-0.4,0.7-0.6,1.1c-0.3,0.6-0.4,1.8-0.3,2.7c0,0.6,1.1,0,1.2-0.8
				c-0.1,0.4-0.2,0.8,0,0.9c0.2,0.1,1-0.3,1.1-0.8c-0.1,0.2-0.1,0.6,0,0.7c0.2,0.1,1-0.1,1.1-0.8c0,0.9,0.8,0.8,0.9,0.4
				c0.3-0.7,0.5-1.8,0.7-2.6"/>
			<path class="st10" d="M105.5,86.4c0,0,1,0.4,1.5,0.3c0.6-0.1,1-0.6,0.2-0.9c-0.7-0.3-3-1.7-3.4-0.7c-0.3,0.9,0,3,0.7,3.7"/>
			<path class="st10" d="M39.1,87.8c0.5,0,1,0.5,1.5,0.8c0.3,0.1,0.9,1.2,1.2,1.2c0.2-0.6,0.6-1.6,1.1-1.9c0.6-0.4,0.9-0.8,1.1-1.5
				c0.1-0.6,0.1-1.6-0.3-2.2c-0.3-0.6-1.1-0.6-1.8-0.7c-0.8-0.1-1.4-0.9-2.3-1.1c-0.6-0.1-1.4-0.3-1.9-0.1c-0.3,0.5-0.4,2.2-0.1,2.6
				c0.3,0.6,0.4,2.2,0.3,2.8"/>
			<path class="st10" d="M61.5,89.7c1.9,0.5-4.9,14-5.6,14.3c-0.1,0.1-3.1,3.2-6,4.1c-3.2,4.1-9.5,5.2-11.3,4.2
				c-0.9-0.6-0.9-1.4-1.4-2.7c-0.9-2.4-1.8-5.7-1.6-8.9c0.3-5.7,2.5-11.5,2.3-13.3c-0.4-2.8,3.8-2.1,3.6,0c-0.2,2.7,4,13.1,0.4,18.4
				c0.2-0.3,1-1.4,1.5-2.7c2-6.3,6.8-7,7.3-7.5c0.5-0.5,1.7-2.5,3.4-3.9C55.8,90.3,59.6,89.2,61.5,89.7L61.5,89.7z"/>
			<path class="st10" d="M37.5,82.8c0-0.1,0.1-1,0.3-1.4c0.3-0.6,1.2-0.2,1.2-0.2s0.4-0.2,0.9-0.2c0.3,0,0.8,0.3,1.1,0.3
				c0.4-0.1,0.7,0.2,1,0.3c0.6,0.1,0.7-0.2,1.2,0.2c0.4,0.3,0.4,0.8,0.5,1.2c0.2,0.6,0.2,1.9,0.1,2.7c-0.1,0.6-1.1-0.1-1.2-0.9
				c0,0.4,0.2,0.8,0,0.9c-0.2,0.1-1-0.4-1.1-0.9c0.1,0.2,0,0.6-0.1,0.7c-0.2,0.1-1-0.2-1.1-0.9c0,0.9-0.8,0.8-1,0.3
				c-0.3-0.8-0.3-1.9-0.5-2.6"/>
			<path class="st10" d="M42.9,84.8c0,0-1.1,0.3-1.5,0.2c-0.6-0.2-0.9-0.7-0.2-0.9s3.2-1.4,3.4-0.4c0.2,1-0.3,3-1,3.6"/>
			<path class="st10" d="M56.2,104.3c0.1,0.9,2.9,3,3.8,5.3c1.1,3.7,2.7,6.5,2.7,7.2c-0.1,1-2.5,9.9-2.1,12.3
				c0.2,1.2,6.1,1.9,12.8,1.9l0,0c0.1,0,0.1,0,0.2,0c0.1,0,0.1,0,0.2,0l0,0c6.7,0,12.6-0.7,12.8-1.9c0.3-2.4-2.1-12.2-2.1-13.3
				c0-0.7,1.6-2.4,2.6-6.1c1-2.2,4-3.5,4.1-4.4c0.2-1.5-1.1-4.9-1.6-6c0.3-1.4-0.5-6.9,0-9c-0.5-1-6.8-1.5-8.6-1.3
				c-0.6-0.5-0.4,0-1-0.3c0,0-4.4-2.5-6.4-2.1c-2-0.4-6.4,2.1-6.4,2.1c-0.7,0.3-0.4-0.3-1,0.3c-1.8-0.2-8,0.2-8.6,1.3
				c0.4,1.5-1.1,8.4-1,9C56.1,100.4,56,102.8,56.2,104.3L56.2,104.3z"/>
			<path class="st21" d="M77.4,145.5h-7.2c0,0,1.9,1,3.6,1C75.5,146.5,77.4,145.5,77.4,145.5L77.4,145.5z"/>
			<path class="st32" d="M83.3,174.8h-5.6c0,0,1.5,1,2.8,1S83.3,174.8,83.3,174.8L83.3,174.8z"/>
			<path class="st16" d="M77.7,210.7c0-0.1,0.1-0.2,0.3-0.2h3.2c0.2,0,0.3,0.1,0.3,0.2c0,0.2-0.1,0.2-0.3,0.2H78
				C77.8,211,77.7,210.9,77.7,210.7L77.7,210.7z"/>
			<path class="st16" d="M77.5,213.5c0-0.2,0.2-0.2,0.3-0.2h3.4c0.1,0,0.3,0.1,0.3,0.2c0,0.2-0.1,0.2-0.3,0.2h-3.4
				C77.7,213.8,77.5,213.7,77.5,213.5L77.5,213.5z"/>
			<path class="st16" d="M77.5,211.7c0-0.2,0.2-0.2,0.3-0.2h3.5c0.1,0,0.3,0.1,0.3,0.2c0,0.2-0.1,0.2-0.3,0.2h-3.5
				C77.7,211.9,77.5,211.8,77.5,211.7L77.5,211.7z"/>
			<path class="st16" d="M77.3,212.4c0-0.1,0.2-0.2,0.4-0.2h3.9c0.2,0,0.4,0.1,0.4,0.2c0,0.2-0.2,0.2-0.4,0.2h-3.9
				C77.5,212.7,77.3,212.6,77.3,212.4L77.3,212.4z"/>
			<path class="st35" d="M60.8,104.9c-1,1.6-3.6,0.8-2.9,1.7c0.5,0.9,1.1,1.9,1.6,2.9c1.1,3.7,2.8,5.2,2.7,7.2
				c0,1.1-2.6,11-2.2,13.4c0.2,1.2,6.4,1.9,13.3,1.9h0.4c6.9,0,13.3-0.7,13.5-1.9c0.4-2.4-2.4-12.2-2.4-13.3
				c-0.1-2.4,1.5-3.4,2.6-7.1c0.4-0.9,1.5-1.8,1.9-2.4c0.7-0.7-1.5-1.1-2.5-2.1c-4.1-4-2.6-16-3.7-16.2c-0.7-0.2-1.5-0.2-2-0.2
				c-0.4-0.3,1.3,6.1-0.8,10.3c-0.9,2-13.3,2-14.3,0.1c-2.2-4.2,0.4-10.7,0-10.3c-0.5,0-1.2,0-2,0.2
				C63.1,89.3,63.6,100.5,60.8,104.9L60.8,104.9z"/>
		</g>
		<path class="st10" d="M68.5,78.1l4.7,3l5,3.1c0,1.3,0.7,1.8,1,3.1c0.3,0.8,0.8,2,1,2.3c1.5,1.7-0.3,4.1-2.6,4.3
			c-6.7,0.8-9.5-1.6-10.5-3.1c-0.3-0.5-0.7-0.6-0.4-1C67.5,88.4,69.5,85.5,68.5,78.1z"/>
		<path class="st32" d="M73.1,80.9l5.1,3.1c0,1,0.7,2.2,1,3.3c-5.9-0.8-10.4-5.5-10.4-5.5L73.1,80.9z"/>
		<path class="st10" d="M81.3,69.5c-1.1-2.3-3.1-4.6-10.3-2.8S66.3,73,67.7,80c1.4,6.9,12.9,4.5,12.9,4.5
			C83.7,83.6,82.3,71.6,81.3,69.5z"/>
		<path class="st36" d="M83,70.1c0,0.6-0.1,1.2-0.4,1.7c0.8-0.7,1.4-1.6,1.5-2.7c0.1-0.4,0-0.8,0-1.2c0-0.3-0.1-0.6-0.1-0.9
			c0.5,0.3,0.7,0.8,0.8,1.3c0,0.1,0.1,0.3,0.2,0.3c0-0.7-0.1-1.3-0.2-2c-0.1-0.3-0.1-0.6-0.3-0.9c-0.1-0.3-0.3-0.5-0.5-0.7
			c-0.2-0.3-0.4-0.5-0.6-0.8c-0.3-0.3-0.6-0.6-0.9-0.9c-0.1-0.1-0.1-0.1-0.2-0.2c0-0.1-0.1-0.1-0.1-0.2c0,0-0.1-0.1-0.1-0.1
			c-0.2-0.2-0.4-0.3-0.6-0.4c-0.2-0.1-0.4-0.3-0.7-0.4c-0.1-0.1-0.2-0.1-0.4-0.1c-0.1,0-0.1,0-0.2-0.1c0,0-0.1,0-0.1,0
			c0,0-0.1,0-0.1,0c0.6-0.2,1.2-0.2,1.9-0.2c-0.7-0.6-1.6-0.9-2.6-1c-2.1-0.3-4.2-0.3-6.3-0.2c0.1-0.3,0.4-0.6,0.7-0.7
			c0.3-0.1,0.6-0.1,1-0.2c-1.5,0.1-3,0.4-4.4,1.1c-0.7,0.4-1.4,0.9-2.1,1.3c-0.4,0.2-0.8,0.4-1.2,0.6c-0.4,0.2-0.8,0.4-1.2,0.5
			c-0.2,0.1-0.3,0.1-0.4,0.2c-0.2,0.1-0.4,0.2-0.6,0.3c-0.2,0.1-0.4,0.2-0.6,0.4c-0.1,0.1-0.1,0.1-0.2,0.2c0,0-0.1,0.1-0.1,0.1
			c0-0.4,0.3-0.9,0.7-1.2c-1,0.3-1.6,1.4-1.7,2.5c-0.4,0.1-0.8,0.1-1,0.3c0.3-0.1,0.6,0,0.9,0.2c0,0-0.1,0.2-0.1,0.2
			c0,0,0,0.1-0.1,0.2c0,0.1,0,0.2,0,0.2c0,0.2,0,0.4,0,0.6c0,0.5,0,1,0.1,1.5c0,0.1,0,0.3,0.1,0.4c0,0,0,0.1,0,0.1c0,0,0,0.1,0,0.1
			c0,0.1,0,0.2,0,0.3c0,0.5,0,0.9,0.1,1.3s0.1,0.9,0.2,1.3c0.1,0.3,0.1,0.6,0.2,0.8c0-0.3,0.1-0.6,0.3-0.9c-0.2,1,0.2,2,0.5,3
			c0.2,0.5,0.4,1.1,0.8,1.5c0-0.2,0-0.3,0-0.5c0.1,0.6,0.3,1.3,0.8,1.7c0-0.1,0-0.2,0-0.3c0,0,0,0.1,0.1,0.1c0,0,0,0.1,0.1,0.1
			c0,0.1,0.1,0.2,0.1,0.2c0.1,0.1,0.2,0.3,0.4,0.4c0.3,0.3,0.6,0.5,0.9,0.6c0.1,0,0.1,0,0.2,0.1c0.1,0.1,0.2,0.2,0.3,0.3
			c0.1,0.1,0.2,0.2,0.3,0.3c0,0,1.8-1.9,1.2-3.2c-0.5-1.4-0.5-3.5,0.8-3c1.3,0.5,1.2,1.4,2,0.9c0.8-0.5,1.1-4.6,4-5
			c2.9-0.3,5.5,1.5,7,0.5c1-0.6,2.8-6.8-4.8-8.5c-3.6-1.1-9.5,0.2-12.5,1.5"/>
		<path class="st16" d="M77.5,79.9c0.7,1.6,2.3,1.4,2.9,1.3c0.6-0.1,1.2-0.5,1.4-1.1C80.6,79.9,78.4,79.6,77.5,79.9z"/>
		<g>
			<g>
				<path class="st17" d="M71.9,102.2c-2.3-2.3-5.6-9-6.1-13.1c-0.1-0.2,0.1-0.4,0.3-0.4c0.1,0,0.3,0.1,0.3,0.3
					c0.5,4.2,3.9,10.6,5.9,12.6c0.2,0.1,0.3,0.2,0.4,0.2c0.2,0,0.3-0.1,0.5-0.3c2.7-3,4.7-7,7.5-12.7c0-0.1,0.2-0.2,0.3-0.2
					c0.1,0,0.1,0,0.2,0c0.1,0.1,0.2,0.3,0.1,0.5c-2.8,5.8-4.8,9.8-7.6,12.9c-0.3,0.3-0.7,0.5-1,0.5
					C72.4,102.5,72.1,102.4,71.9,102.2z"/>
				<path class="st17" d="M81,88.7c0,0,0.1,0,0.3-0.2c0.1,0.1,0.2,0.3,0.1,0.4c-2.8,5.8-4.8,9.8-7.6,12.9c-0.3,0.3-0.6,0.5-0.9,0.5
					s-0.5-0.1-0.8-0.4c-2.3-2.2-5.6-8.9-6.1-13c0-0.2,0.1-0.3,0.2-0.3l0,0c0.1,0,0.2,0.1,0.2,0.2c0.5,4.3,3.9,10.7,5.9,12.7
					c0.2,0.2,0.4,0.3,0.5,0.3s0.3-0.1,0.5-0.3c2.7-3,4.7-7,7.5-12.7C80.8,88.8,80.9,88.7,81,88.7 M81,88.5c-0.2,0-0.3,0.1-0.3,0.4
					c-2.8,5.7-4.8,9.7-7.5,12.7c-0.2,0.2-0.3,0.3-0.4,0.3s-0.2-0.1-0.3-0.2c-2-2-5.4-8.4-5.9-12.6c0-0.2-0.2-0.4-0.4-0.4l0,0l0,0
					c-0.3,0-0.4,0.2-0.4,0.5c0.4,4.1,3.8,10.8,6.1,13.1c0.3,0.2,0.6,0.4,0.9,0.4s0.7-0.2,1-0.6c2.8-3.1,4.8-7.1,7.6-12.9
					c0.1-0.2,0-0.5-0.2-0.6C81.1,88.5,81.1,88.5,81,88.5L81,88.5z"/>
			</g>
		</g>
		<g>
			<path class="st18" d="M72.6,106.5c-1.3-0.1-2.2-1.2-2.2-2.5c0.1-1.3,1-2.3,2.3-2.3l0,0c1.2,0.1,2.2,1.2,2.1,2.5
				C74.7,105.5,73.8,106.5,72.6,106.5L72.6,106.5z"/>
			<path class="st18" d="M72.6,101.8C72.6,101.8,72.7,101.8,72.6,101.8c1.2,0.1,2.1,1.1,2.1,2.4c-0.1,1.2-1,2.2-2.1,2.2h-0.1
				c-1.2-0.1-2-1.1-2-2.4C70.6,102.8,71.5,101.8,72.6,101.8 M72.6,101.6c-1.2,0-2.2,1.1-2.3,2.4c0,1.4,0.9,2.5,2.2,2.6h0.1
				c1.2,0,2.2-1,2.3-2.4C74.9,102.8,74,101.7,72.6,101.6L72.6,101.6L72.6,101.6z"/>
		</g>
		<path class="st15" d="M78.1,74.6c-0.3-0.1-1-0.1-1.5,0c-0.5,0.2-0.6,0.3-0.8,0.4c0.1-0.3,0.3-0.6,0.7-0.7c0.3-0.1,0.7-0.2,1-0.1
			c0.3,0,0.6,0,0.9,0.2c0.3,0.1,0.6,0.3,0.8,0.7C78.9,74.7,78.5,74.7,78.1,74.6z"/>
		<g>
			<path class="st15" d="M81.6,74.5c0.5-0.2,0.3-0.2,0.7-0.2c0.2,0,0.4,0,0.7,0.2c0.3,0.1,0.5,0.5,0.5,0.7c-0.3-0.4-0.7-0.5-1.2-0.5
				c-0.5,0-0.9,0.1-1.4,0.1C81,74.9,81.1,74.7,81.6,74.5z"/>
		</g>
		<g>
			<path class="st37" d="M77.1,109.5c0.8,0.1,1.5,0.2,2.3,0.3c1.5,0.2,3,0.2,4.6,0.2c-1.5,0.6-3.1,0.8-4.7,0.6
				c-0.8-0.1-1.5-0.3-2.3-0.5c-0.8-0.2-1.5-0.5-2.2-0.8C75.6,109.3,76.3,109.5,77.1,109.5z"/>
		</g>
		<g>
			<path class="st37" d="M69.4,110.2c-0.7,0.3-1.5,0.4-2.3,0.5c-1.6,0.1-3.2,0-4.7-0.6c1.6,0,3.1,0,4.6-0.2c0.8-0.1,1.5-0.2,2.3-0.3
				c0.7-0.1,1.5-0.3,2.3-0.3C70.9,109.6,70.2,109.9,69.4,110.2z"/>
		</g>
		<path class="st37" d="M75.9,116c0.6,0,1.1,0.1,1.6,0.2c1.1,0.2,2.1,0.2,3.2,0.2c-1,0.5-2.1,0.7-3.2,0.5c-0.6-0.1-1.1-0.2-1.6-0.4
			c-0.5-0.1-1-0.4-1.5-0.6C75,115.9,75.5,116.1,75.9,116z"/>
		<g>
			<path class="st33" d="M92.6,103.8c0.3,0.5,0.7,1,1.1,1.4c0.8,0.9,1.6,1.8,2.5,2.6c-1.1-0.4-2.2-1-3-2.1c-0.3-0.6-0.7-1.1-1-1.6
				c-0.3-0.6-0.6-1.2-0.8-1.7C91.9,102.9,92.1,103.4,92.6,103.8z"/>
			<path class="st34" d="M104.1,103.6c0,0.5,0.1,0.9,0.1,1.3c0.1,0.8,0.3,1.6,0.5,2.5c-0.4-0.7-0.8-1.4-0.9-2.3c0-0.4,0-0.8,0-1.3
				c0.1-0.5,0.1-0.9,0.2-1.3C104.2,102.8,104.1,103.2,104.1,103.6z"/>
			<path class="st34" d="M95.2,95.2c-0.3-0.4-0.6-0.8-0.9-1.1c-0.7-0.8-1.3-1.4-2-2.1c0.8,0.3,1.6,1,2.2,1.7
				c0.3,0.4,0.6,0.8,0.8,1.2c0.3,0.5,0.5,0.9,0.7,1.4C95.8,96,95.6,95.6,95.2,95.2z"/>
		</g>
		<path class="st14" d="M145.1,123.5c-0.4-0.1-0.5,0-0.9,0c-0.3-0.1-0.7-0.1-1-0.2c-0.6-0.3-1-0.7-1.4-1.2c0.6,0.3,0.9,0.7,1.6,0.9
			C144.1,123.2,144.8,123.3,145.1,123.5z"/>
		<g>
			<path class="st33" d="M55.6,101.8c-0.3,0.6-0.6,1.1-1,1.7c-0.4,0.5-0.7,1.1-1.2,1.5c-0.9,0.9-2,1.5-3.1,1.8
				c1-0.7,1.9-1.5,2.7-2.4c0.4-0.4,0.8-0.9,1.2-1.3C54.8,102.7,55.1,102.2,55.6,101.8z"/>
			<path class="st34" d="M42.8,100.6c0,0.4,0.2,0.8,0.1,1.3c0,0.4,0,0.9-0.1,1.3c-0.1,0.9-0.5,1.6-1.1,2.3c0.3-0.9,0.6-1.6,0.7-2.4
				c0.1-0.5,0.1-0.9,0.2-1.3C42.8,101.4,42.9,101,42.8,100.6z"/>
			<path class="st34" d="M51.5,95.3c0.3-0.5,0.5-0.8,0.8-1.3c0.3-0.5,0.5-0.8,0.9-1.2c0.6-0.7,1.5-1.3,2.4-1.5
				c-0.8,0.6-1.5,1.2-2.1,1.9c-0.4,0.3-0.6,0.7-1,1.1C52,94.6,51.8,95,51.5,95.3z"/>
		</g>
		<g>
			<path class="st37" d="M70.5,116.6c-0.5,0.2-1.1,0.3-1.6,0.4c-1.1,0-2.2,0-3.2-0.5c1.1,0,2.2,0,3.2-0.2c0.6,0,1.1-0.1,1.6-0.2
				c0.5,0,1.1-0.2,1.6-0.2C71.6,116.1,71.1,116.4,70.5,116.6z"/>
		</g>
		<path class="st37" d="M76,119.9c0.6,0,1.1,0.1,1.6,0.2c1.1,0.2,2.1,0.2,3.2,0.2c-1,0.5-2.1,0.7-3.2,0.5c-0.6-0.1-1.1-0.2-1.6-0.4
			c-0.5-0.1-1-0.4-1.5-0.6C75.1,119.8,75.5,120,76,119.9z"/>
		<g>
			<path class="st37" d="M70.5,120.5c-0.5,0.2-1.1,0.3-1.6,0.4c-1.1,0-2.2,0-3.2-0.5c1.1,0,2.2,0,3.2-0.2c0.6,0,1.1-0.1,1.6-0.2
				c0.5,0,1.1-0.2,1.6-0.2C71.6,120,71.1,120.2,70.5,120.5z"/>
		</g>
	</g>
	<g>
		<g>
			<polygon class="st20" points="98,96.9 99,92.9 99,97.1 			"/>
		</g>
		<g>
			<polygon class="st20" points="100.5,98.1 104.2,96.2 101.1,98.9 			"/>
		</g>
		<g>
			<polygon class="st20" points="99.5,97.2 102.3,93.8 100.3,97.8 			"/>
		</g>
	</g>
	<g>
		<g>
			<polygon class="st20" points="46,97.7 43,94.9 46.6,96.9 			"/>
		</g>
		<g>
			<polygon class="st20" points="48.2,96.1 48.4,92 49.2,96.1 			"/>
		</g>
		<g>
			<polygon class="st20" points="46.9,96.6 45.5,92.4 47.8,96.2 			"/>
		</g>
	</g>
	<g>
		<g>
			<polygon class="st20" points="55.6,162 51.1,163.1 55.2,161.1 			"/>
		</g>
		<g>
			<polygon class="st20" points="54.9,155.7 48.8,153.9 55.2,154.7 			"/>
		</g>
		<g>
			<polygon class="st20" points="55.1,158.9 49.8,158.6 55,157.9 			"/>
		</g>
	</g>
	<g>
		<g>
			<polygon class="st20" points="93.1,150 97.2,152.2 92.7,150.9 			"/>
		</g>
		<g>
			<polygon class="st20" points="92.3,143.9 98.4,141.9 92.7,144.8 			"/>
		</g>
		<g>
			<polygon class="st20" points="93,147.1 98.3,146.6 93.2,148.1 			"/>
		</g>
	</g>
</g>
</svg>
