<?xml version="1.0" encoding="utf-8"?>
<!-- Generator: Adobe Illustrator 25.2.0, SVG Export Plug-In . SVG Version: 6.00 Build 0)  -->
<svg version="1.1" id="Ebene_1" xmlns="http://www.w3.org/2000/svg" xmlns:xlink="http://www.w3.org/1999/xlink" x="0px" y="0px"
	 viewBox="0 0 220 220" style="enable-background:new 0 0 220 220;" xml:space="preserve">
<style type="text/css">
	.st0{fill:#FFB27D;}
	.st1{fill:#FFA166;}
	.st2{fill:#53495C;}
	.st3{fill:#6D697C;}
	.st4{fill:#9491C7;}
	.st5{fill:#FFAD73;}
	.st6{fill:#FFFFFF;}
	.st7{fill:#A87C5E;}
	.st8{fill:#E9CEB2;}
	.st9{fill:#DDBC94;}
	.st10{fill:#975D9A;}
	.st11{fill:#474442;}
	.st12{fill:#D46E13;}
</style>
<g id="Ebene_2_1_">
	<g>
		<path class="st0" d="M131.4,140.8c-2.6,1.2-4.8,3.2-3.9,7.3c0.3,1.3,0.7,2.2,1,3.2c0.4,1.1,0.8,2.8,0.6,4.8c0.4,5.2,0.6,6,0.2,8.2
			c-1.6,9.1,4.4,16.3-7.6,17.3c-7.1,1.7,1,1.4,8.5,1.6c0,0,2,0.2,2.2-2.2c0,0,2.5-9.3,2-15.1c-0.2-2.7,1.5-10.1,0.8-16.2
			c-0.1-1.1,0.1-2.2,0.7-3C138.3,143.5,134.9,139.2,131.4,140.8z"/>
		<path class="st1" d="M203,170.9c0,0,1.6,0.8,2.7,0.9c0,0,2.7-0.3,1.7,3.6c-1.3,3.5,2.3,10.4-6.9,7.7c0,0-0.6-0.4,0.3-0.9
			c0.8-0.4,1.3-1.2,1.3-2.1c0-1-0.4-2.6-1.7-4.7l-0.1-0.7l1.9-3.6L203,170.9L203,170.9z"/>
		<path class="st2" d="M203,170.9c-6.3-4.4-8.5-8.3-15-9.1c-2.8-0.4-6.3-1.8-8.3-3.1c-2.4-1.5-10.4-6.2-12-7.8
			c-2.8-2.7-6.8-3.9-10.6-3.2l1.5,12.3c3.4,2.9,13.9,7.3,22.4,7.7c5.1,0.1,17.3,5.6,19.5,7.6C200.4,175.3,203.9,174.2,203,170.9
			L203,170.9z"/>
		<path class="st0" d="M209.6,170.8c0,0,1.7,0.9,2.9,1c0,0,2.9-0.3,1.8,3.9c-1.4,3.8,2.5,11.3-7.5,8.3c0,0-0.6-0.5,0.4-1
			c2.5-1.2,1-5-0.5-7.4l-0.1-0.7l2.1-3.9L209.6,170.8L209.6,170.8z"/>
		<path class="st3" d="M206.7,175.7c0,0,3.8-1.3,2.8-4.9c-6.9-4.9-9.2-9-16.3-9.9c-1.5-0.2-3.1-0.6-4.5-1.2
			c-16.4-6.7-19.2-16-29.2-14.1l-1.1,1l-4.3,10.7l0.7,0.9c5.2,3.2,8.2,1.9,11,3.4c13.7,7.7,17.3,3.4,29.8,8.3
			C199.1,171.5,204.9,174,206.7,175.7L206.7,175.7z"/>
		<path class="st4" d="M154.7,158.3c0,0,6.8-4.4,4.7-12.6c0,0-9.1-2.9-15.2-6.5l-7.8-0.2l-6.8,7.7c0,0,1,5.2,6.9,8
			c0,0,1.9,2,8.2,1.5C144.8,156.2,150.2,156.7,154.7,158.3L154.7,158.3z"/>
		<path class="st0" d="M132.6,138.8c-3.8,0.9-5.1,4.9-5.4,6.1c-0.1,0.4,0,2.4,0.1,2.6c0.3-0.4,0.6,0,0.6,0l2.5-0.1
			c1.1,3.1,5.3,6.2,5.3,6.2c4,1.8,1.6-1.7,1.6-1.7c-0.9-0.6-1.8-5.2-1.8-5.2c0.1-7.1,9.1-6.9,9.1-6.9
			C145.8,138.6,137.3,137.7,132.6,138.8z"/>
		<path class="st0" d="M145.8,140.6c0,0-13.5,0.3-9,10.7c0,0,1.5,2.6,1.4,6.1c0.6,4.6,0.9,6.1,0.6,8.4c-0.2,1.3-0.3,3.5,0.2,6
			l0.6,8.6c0.1,2.2-5.4,2.8-7.5,3c0,0-6.5,1.6,0.9,1.4c7.8,0.2,9.6,0.9,9.8-2.1c2.4-11.1,0.9-14.6,1.3-18.3
			c0.3-3.6,0.8-11.6-0.5-15.4C143.6,149,147.4,145.8,145.8,140.6L145.8,140.6z"/>
	</g>
</g>
<g id="Ebene_1_1_">
	<path class="st5" d="M77,24.2v0.9c0,0,0.2,2.9-3.3,3.3s-6.3-1.1-6.2-3.4c0.4-1.4,0.6-2.9,0.7-4.3c0-0.6,0-1.2-0.1-1.7l6.9-0.1
		l2,0.3V24.2z"/>
	<path class="st1" d="M77.1,19.2v3.6c-2.6,1-8-0.7-8.4-2.8l6.4-1.2L77.1,19.2z"/>
	<path class="st5" d="M67.6,17.9c0.8,4.3,6.4,4.2,8.8,3.9c0.7-0.1,1.1-0.2,1.1-0.2c0.8-0.2,1.2-1.4,1.4-3c0.4-3.1-0.1-7.7-0.6-8.9
		C77.5,7.9,76,6,70.4,7.4S66.5,12.3,67.6,17.9"/>
	<path class="st6" d="M74.7,18.9c0,0,0.5,0.8,2,0.7c0.6,0,1-0.4,1.1-1C76.8,18.4,75.7,18.5,74.7,18.9"/>
	<path d="M79.6,9.7c0.8-0.8,0.8-2.2,0-3c-0.2-0.2-0.3-0.3-0.5-0.4c-1.6-0.9-3.2-1.6-4.9-2.1c-2-0.5-4.1-0.3-5.9,0.6
		c0-0.2,0.1-0.4,0.2-0.6C68.2,4.4,68,4.7,68,5c0,0-0.1,0,0,0c-0.3,0-0.6,0-0.8,0c0,0,0.2,0,0.3,0.1l0,0c-3.7,1.8-4.9,6.2-2.8,9
		c1.3,1.7,3.6,5.3,3.6,5.3c-0.2-0.5-0.4-1.1-0.5-1.7c0-0.2,0-0.5,0.1-0.7c0.2-0.4,0.2-0.9,0-1.3c-0.2-0.6-0.3-1.3,0.2-1.5
		s1.1,0.1,1.4,0.6c0.2,0.4,0.7,0.5,1.1,0.4l0,0c1.6-0.7,0.3-2.5,1.6-3.6s5-0.5,6.2-1C78.8,10.3,79.2,10,79.6,9.7"/>
	<path d="M119.3,122.5c0,0-2.1-3.6,2.9-6.8c0,0-2.2,1.7-2,3.1c0,0,0.8-2.3,2.5-2.7c1.6-0.4,3.8,1.5,4.3,2.3s1.2,3.7,0.5,4.4
		c-0.6,0.5-1.4,0.8-2.2,0.9L119.3,122.5z"/>
	<path d="M114.6,132.9c0,0-1-11.6,5.8-10.3c0,0,2.9-1.2,7.2,1.6c4.3,2.8,4.7,8,2.8,8.6c-1.2,0.4-0.4,2.4-0.4,2.4L114.6,132.9z"/>
	<path class="st0" d="M130.1,145.2c0,0,3-0.9,4-2.8s2.3-4,2.3-4c-0.7,0.5-3.8-0.7-7.3-4.1l-0.2,0.3l-3.6,5.3c0,0,1.5,1.3,2.8,2.6
		C129.2,143.7,130.2,144.8,130.1,145.2"/>
	<path class="st1" d="M125.3,139.9c0,0,1.5,1.3,2.8,2.6c2.4-2.6,1.5-6.2,0.8-7.9L125.3,139.9z"/>
	<path d="M128.9,133.6c-0.4-1.9-1.2-3.8-2.2-5.5c-1-1.5-6.3-5.5-10.4-0.2c-0.8,1.1-1.4,2.3-1.7,3.6c-0.3,1.7-0.3,4.7,5.4,7.1l1.8,1
		L128.9,133.6z"/>
	<path class="st0" d="M125.7,142c0,0,6-5.7,2.3-9.4s-5.4-6.9-9.3-3.4c-3.9,3.5-3.3,5.7-2.4,7.2C117.2,137.9,124,143.5,125.7,142"/>
	<g>
		<g>
			<path class="st7" d="M122.5,135.2c-0.4,0.1-0.7,0.3-1,0.6c-0.1,0.1-0.3,0.3-0.4,0.5s-0.2,0.3-0.2,0.6c-0.1-0.4,0.1-0.9,0.4-1.2
				c0.2-0.2,0.3-0.3,0.5-0.4C122.1,135.2,122.3,135.2,122.5,135.2z"/>
		</g>
		<g>
			<path class="st7" d="M119.7,137.9c-0.3,0.2-0.5,0.4-0.6,0.7c-0.1,0.1-0.2,0.3-0.2,0.4c-0.1,0.1-0.1,0.3-0.1,0.5
				c-0.2-0.3,0-0.7,0.1-1C119.1,138.2,119.4,138,119.7,137.9z"/>
		</g>
	</g>
	<path d="M116,131.8c0,0,5.9,2.7,9,0.9c3.1-1.8,3.6-3.5,3.6-3.5c-2.3,0.1-4.6-0.5-6.4-1.9C122.1,127.2,115.1,128.5,116,131.8"/>
	<path d="M116.3,131.4c-0.1,1.1,0,2.3,0.4,3.4c0.6,1.2,1.9,4.5,1.2,4.9c0,0-3.6-2.9-3.9-5.9C113.8,130.8,116.3,131.4,116.3,131.4"/>
	<path d="M115.9,132.3c0,0,6.4,3.2,10.9,1.5c0,0-5.9,0.3-9.1-2.4C114.5,128.7,115.9,132.3,115.9,132.3"/>
	<path class="st6" d="M122.6,140.8c0,0,0.5,0.2,0.7,0.3s1.2-0.9,1.4-1.4c0.1-0.4,0.1-0.8,0-1.1C124,139.2,123.3,140,122.6,140.8"/>
	<path class="st0" d="M264,4.4c0,0,11.7,13.4,13,17.3s-16.5,11.6-16.5,11.6l-0.7-2.8c0,0,11.2-8.2,10.9-9c-0.3-0.8-8.9-7.5-9-10.7
		C261.5,7.7,264,4.4,264,4.4z"/>
	<g>
		<path class="st8" d="M83.3,134.1c0,0,3.8,1.4,6.9-2.1l4.6-2.5l10,2.7l1,2.8c0,0-1.2,3.6-3.6,5.1c0,0-1.1,0.1-1.6,1.5l-0.2,1.5
			c0,0-0.6,1-1.7,0.2c0,0-0.8-0.2-0.9,0.3c0,0-0.7,0.6-1,0.1c0,0-0.3,0.6-0.7,0.2c0,0-0.9-0.5-1,0.2c0,0-0.7,2-2.6-0.5
			c0,0-0.9-1.6-3.3-1.2c-0.8,0.1-5.8,0.8-5.8,0.8l-3.2-5.2L83.3,134.1L83.3,134.1z"/>
		<path class="st9" d="M78.1,144.8c0,0-4.1-3.5-2.3-7.5c0,0,4.5-6.9,9.1-0.3c2.2,4.2-1.3,8.2-1.6,12.3c-0.2,3.7-0.7,10.1-1.1,11.9
			c-2.1,9.1-4.9,13.7-1.8,14.1c14.7,2,7.5,4,2.7,3.5l-5.1-0.5c0,0-2.6,0.5-2.6-3.7C77.6,153.9,76.9,160.7,78.1,144.8L78.1,144.8z"/>
		<path class="st10" d="M58,144.4c8.6-10.4,24.9-16.1,27.3-9.4c0.9,2.5,1.8,6.5,0.1,10l-7,5.8c0,0-11.4,6.5-17,6.5l-2.2-2l-1.6-8.5
			L58,144.4L58,144.4z"/>
		<path class="st8" d="M-7.6,169.6c-2.7-6.3,4.8-2.1,15.2-7.3c4.3-2.2,8.4-3.1,13.1-3.6c3.5-0.4,4.5-1.1,15-5.6l1.4,0.5l1.2,8.7
			l-1,1.5c0,0-4.4,0.2-7,1.4c-2.4,1.1-28.7,1.7-31,7.7c-0.6,2.1-1.6,4.1-0.3,5.7c0.9,1.1,1.3,2.4-2.8,1.4
			C-8.9,178.9-5.6,174.3-7.6,169.6L-7.6,169.6z"/>
		<path class="st11" d="M35.8,153.1c0,0-1.9,7.2,2.1,11.6c1.4-0.4,8.3-2.2,9.7-2.2c2.4,0,9.7-0.4,13.9-5.3L58,144.4
			c-3.3,0-9.6-1.7-13.9,4C42.7,150.2,40.4,150.9,35.8,153.1L35.8,153.1z"/>
		<path class="st8" d="M77.5,146.8c0,0-4.7-4-2.6-8.5c0,0,5.2-7.9,10.4-0.3c2.5,4.9-1.5,9.4-1.8,14c-0.3,4.2-0.8,11.6-1.3,13.6
			c-4,17.5-7.2,15.4,4.1,17c5.9,1.7,6.5,4.2-9,2.6c0,0-3,0.5-3-4.2l2.1-19.3L77.5,146.8L77.5,146.8z"/>
		<path class="st12" d="M89.4,133.8c-0.6-0.7-0.7-1.1-0.2-2.1c1.2-2.4,2.6-4.9,5.1-6.2c2.1-1.1,5.6-1.2,7.8,0.1
			c4.1,2.3,5.3,9.5,3.3,12.7c0-0.5,0-1,0-1.5c-0.1,0.4-0.3,0.7-0.4,1.1c0-0.4-0.1-0.8-0.1-1.2c-0.4,0.4-0.9,0.7-1.4,0.9
			c0.1-0.5,0.5-1,0.9-1.2c-0.6,0.2-1.3,0.5-1.9,0.7c0.7-0.7,1.2-1.5,1.6-2.4c-0.6,0.6-1.3,1.2-1.9,1.9c0.1-0.4,0.2-0.9,0.3-1.3
			c-0.8,0.9-1.7,1.7-2.7,2.3c0.3-0.4,0.5-0.9,0.6-1.4c-0.8,0.6-1.7,1.1-2.7,1.5c0.4-0.5,0.8-1,1.2-1.6c-0.5,0.4-1.2,0.7-1.8,0.9
			c0.3-0.4,0.6-0.7,0.8-1.1c-0.3,0-0.5,0.1-0.8,0.1c2.2-2.2-0.8-3-3.3-1.6C92.1,135.6,91.4,136.2,89.4,133.8L89.4,133.8z"/>
		<path class="st11" d="M102.1,139.8c-0.3-0.5-0.8-0.7-1.3-0.6C101.2,139.4,101.6,139.6,102.1,139.8L102.1,139.8z"/>
		<path class="st11" d="M100.9,140.1c-0.2-0.2-0.4-0.3-0.7-0.4C100.3,140,100.6,140.3,100.9,140.1L100.9,140.1z"/>
	</g>
</g>
</svg>
