<?xml version="1.0" encoding="utf-8"?>
<!-- Generator: Adobe Illustrator 23.0.3, SVG Export Plug-In . SVG Version: 6.00 Build 0)  -->
<svg version="1.1" id="Ebene_1" xmlns="http://www.w3.org/2000/svg" xmlns:xlink="http://www.w3.org/1999/xlink" x="0px" y="0px"
	 viewBox="0 0 220 220" style="enable-background:new 0 0 220 220;" xml:space="preserve">
<style type="text/css">
	.st0{clip-path:url(#SVGID_2_);fill:#FFB27D;}
	.st1{clip-path:url(#SVGID_2_);fill:#7F26DD;}
	.st2{clip-path:url(#SVGID_2_);fill:#1F3866;}
	.st3{clip-path:url(#SVGID_2_);fill:#9529F9;}
	.st4{clip-path:url(#SVGID_2_);fill:#1A2C70;}
	.st5{clip-path:url(#SVGID_2_);fill:#FCFCFC;}
	.st6{clip-path:url(#SVGID_2_);}
	.st7{clip-path:url(#SVGID_2_);fill:#FFA166;}
	.st8{clip-path:url(#SVGID_2_);fill:#A87C5E;}
	.st9{clip-path:url(#SVGID_2_);fill:#FFFFFF;}
	.st10{clip-path:url(#SVGID_2_);fill:#5B58EE;}
</style>
<g>
	<defs>
		<rect id="SVGID_1_" width="220" height="220"/>
	</defs>
	<clipPath id="SVGID_2_">
		<use xlink:href="#SVGID_1_"  style="overflow:visible;"/>
	</clipPath>
	<path class="st0" d="M136.27,140.8c-2.6,1.2-4.8,3.2-3.9,7.3c0.3,1.3,0.7,2.2,1,3.2c0.4,1.1,0.8,2.8,0.6,4.8c0.4,5.2,0.6,6,0.2,8.2
		c-1.6,9.1,4.4,16.3-7.6,17.3c-7.1,1.7,1,1.4,8.5,1.6c0,0,2,0.2,2.2-2.2c0,0,2.5-9.3,2-15.1c-0.2-2.7,1.5-10.1,0.8-16.2
		c-0.1-1.1,0.1-2.2,0.7-3C143.17,143.5,139.77,139.2,136.27,140.8"/>
	<path class="st1" d="M207.87,170.9c0,0,1.6,0.8,2.7,0.9c0,0,2.7-0.3,1.7,3.6c-1.3,3.5,2.3,10.4-6.9,7.7c0,0-0.6-0.4,0.3-0.9
		c0.8-0.4,1.3-1.2,1.3-2.1c0-1-0.4-2.6-1.7-4.7l-0.1-0.7l1.9-3.6L207.87,170.9z"/>
	<path class="st2" d="M207.87,170.9c-6.3-4.4-8.5-8.3-15-9.1c-2.8-0.4-6.3-1.8-8.3-3.1c-2.4-1.5-10.4-6.2-12-7.8
		c-2.8-2.7-6.8-3.9-10.6-3.2l1.5,12.3c3.4,2.9,13.9,7.3,22.4,7.7c5.1,0.1,17.3,5.6,19.5,7.6C205.27,175.3,208.77,174.2,207.87,170.9
		"/>
	<path class="st3" d="M214.47,170.8c0,0,1.7,0.9,2.9,1c0,0,2.9-0.3,1.8,3.9c-1.4,3.8,2.5,11.3-7.5,8.3c0,0-0.6-0.5,0.4-1
		c2.5-1.2,1-5-0.5-7.4l-0.1-0.7l2.1-3.9L214.47,170.8z"/>
	<path class="st4" d="M211.57,175.7c0,0,3.8-1.3,2.8-4.9c-6.9-4.9-9.2-9-16.3-9.9c-1.5-0.2-3.1-0.6-4.5-1.2
		c-16.4-6.7-16.36-17.2-29.2-14.1l-1.1,1l-4.3,10.7l0.7,0.9c5.2,3.2,8.2,1.9,11,3.4c13.7,7.7,17.3,3.4,29.8,8.3
		C203.97,171.5,209.77,174,211.57,175.7"/>
	<path class="st5" d="M159.57,158.3c0,0,6.8-4.4,4.7-12.6c0,0-9.1-2.9-15.2-6.5l-7.8-0.2l-6.8,7.7c0,0,1,5.2,6.9,8
		c0,0,1.9,2,8.2,1.5C149.67,156.2,155.07,156.7,159.57,158.3"/>
	<path class="st0" d="M137.47,138.8c-3.8,0.9-5.1,4.9-5.4,6.1c-0.1,0.4,0,2.4,0.1,2.6c0.3-0.4,0.6,0,0.6,0l2.5-0.1
		c1.1,3.1,5.3,6.2,5.3,6.2c4,1.8,1.6-1.7,1.6-1.7c-0.9-0.6-1.8-5.2-1.8-5.2c0.1-7.1,9.1-6.9,9.1-6.9
		C150.67,138.6,142.17,137.7,137.47,138.8"/>
	<path class="st0" d="M150.67,140.6c0,0-13.5,0.3-9,10.7c0,0,1.5,2.6,1.4,6.1c0.6,4.6,0.9,6.1,0.6,8.4c-0.2,1.3-0.3,3.5,0.2,6
		l0.6,8.6c0.1,2.2-5.4,2.8-7.5,3c0,0-6.5,1.6,0.9,1.4c7.8,0.2,9.6,0.9,9.8-2.1c2.4-11.1,0.9-14.6,1.3-18.3
		c0.3-3.6,0.8-11.6-0.5-15.4C148.47,149,152.27,145.8,150.67,140.6"/>
	<path class="st6" d="M124.17,122.5c0,0-2.1-3.6,2.9-6.8c0,0-2.2,1.7-2,3.1c0,0,0.8-2.3,2.5-2.7c1.6-0.4,3.8,1.5,4.3,2.3
		c0.5,0.8,1.2,3.7,0.5,4.4c-0.6,0.5-1.4,0.8-2.2,0.9L124.17,122.5z"/>
	<path class="st6" d="M119.47,132.9c0,0-1-11.6,5.8-10.3c0,0,2.9-1.2,7.2,1.6c4.3,2.8,4.7,8,2.8,8.6c-1.2,0.4-0.4,2.4-0.4,2.4
		L119.47,132.9z"/>
	<path class="st0" d="M134.97,145.2c0,0,3-0.9,4-2.8c1-1.9,2.3-4,2.3-4c-0.7,0.5-3.8-0.7-7.3-4.1l-0.2,0.3l-3.6,5.3
		c0,0,1.5,1.3,2.8,2.6C134.07,143.7,135.07,144.8,134.97,145.2"/>
	<path class="st7" d="M130.17,139.9c0,0,1.5,1.3,2.8,2.6c2.4-2.6,1.5-6.2,0.8-7.9L130.17,139.9z"/>
	<path class="st6" d="M133.77,133.6c-0.4-1.9-1.2-3.8-2.2-5.5c-1-1.5-6.3-5.5-10.4-0.2c-0.8,1.1-1.4,2.3-1.7,3.6
		c-0.3,1.7-0.3,4.7,5.4,7.1l1.8,1L133.77,133.6z"/>
	<path class="st0" d="M130.57,142c0,0,6-5.7,2.3-9.4c-3.7-3.7-5.4-6.9-9.3-3.4c-3.9,3.5-3.3,5.7-2.4,7.2
		C122.07,137.9,128.87,143.5,130.57,142"/>
	<path class="st8" d="M127.37,135.2c-0.4,0.1-0.6,0.27-0.9,0.57c-0.1,0.1-0.3,0.3-0.4,0.5c-0.1,0.2-0.3,0.33-0.3,0.63
		c-0.1-0.4,0.1-0.9,0.4-1.2c0.2-0.2,0.3-0.3,0.5-0.4C126.97,135.2,127.17,135.2,127.37,135.2"/>
	<path class="st8" d="M124.57,137.9c-0.25,0.23-0.92,1.1-0.9,1.6c-0.2-0.3,0-0.73,0.1-1C123.97,138.2,124.27,138,124.57,137.9"/>
	<path class="st6" d="M120.87,131.8c0,0,5.9,2.7,9,0.9c3.1-1.8,3.6-3.5,3.6-3.5c-2.3,0.1-4.6-0.5-6.4-1.9
		C126.97,127.2,119.97,128.5,120.87,131.8"/>
	<path class="st6" d="M121.17,131.4c-0.1,1.1,0,2.3,0.4,3.4c0.6,1.2,1.9,4.5,1.2,4.9c0,0-3.6-2.9-3.9-5.9
		C118.67,130.8,121.17,131.4,121.17,131.4"/>
	<path class="st6" d="M120.77,132.3c0,0,6.4,3.2,10.9,1.5c0,0-5.9,0.3-9.1-2.4C119.37,128.7,120.77,132.3,120.77,132.3"/>
	<path class="st9" d="M127.47,140.8c0,0,0.5,0.2,0.7,0.3c0.2,0.1,1.2-0.9,1.4-1.4c0.1-0.4,0.1-0.8,0-1.1
		C128.87,139.2,128.17,140,127.47,140.8"/>
	<path class="st0" d="M97.99,139.88l-0.72,0.65c0,0-2.81,2.4-4.44-0.19c-2.01-3.21-3.7-5.8-1.81-7.39c1.4-0.7,2.74-1.63,3.92-2.57
		c0.48-0.44,0.95-0.87,1.28-1.31l5.09,5.41l1.21,1.81L97.99,139.88z"/>
	<path class="st7" d="M102.93,136.6l-3.55,2.16c-2.21-0.81-4.88-6.65-3.5-8.5l5.6,4.21L102.93,136.6z"/>
	<path class="st0" d="M96.75,127.87c-2.83,3.76,1.31,8.13,3.3,9.82c0.59,0.48,0.96,0.73,0.96,0.73c0.74,0.49,1.98-0.07,3.4-1.07
		c2.75-1.93,6.04-5.67,6.63-6.94c0.85-1.94,1.27-4.51-3.91-7.94C101.94,119.04,100.39,122.93,96.75,127.87"/>
	<path class="st9" d="M101.11,134.23c0,0-0.27,0.98,0.9,2.1c0.44,0.48,1.04,0.5,1.59,0.15
		C103.03,135.54,102.15,134.73,101.11,134.23"/>
	<path class="st6" d="M111.97,131.44c1.22,0.05,2.33-0.96,2.38-2.18c0.01-0.3,0.02-0.46-0.04-0.69c-0.45-1.92-1.06-3.7-1.89-5.42
		c-1.05-1.95-2.74-3.47-4.76-4.25c0.16-0.14,0.39-0.21,0.62-0.28c-0.38-0.09-0.76-0.03-1,0.18c0,0-0.07-0.08,0,0
		c-0.22-0.24-0.44-0.48-0.58-0.64c0,0,0.14,0.16,0.14,0.31c-4.12-1.63-8.48,0.61-9.18,4.31c-0.41,2.27-1.59,6.71-1.59,6.71
		c0.25-0.52,0.58-1.12,0.99-1.63c0.16-0.14,0.4-0.36,0.63-0.43c0.46-0.13,0.86-0.5,1.03-0.94c0.33-0.59,0.81-1.18,1.34-0.93
		c0.52,0.25,0.72,0.95,0.54,1.55c-0.17,0.45,0.11,0.92,0.48,1.16c1.72,0.76,2.2-1.58,4.02-1.35c1.82,0.23,4.03,3.6,5.3,4.19
		C110.91,131.24,111.44,131.34,111.97,131.44"/>
	<path class="st8" d="M103.79,130.54c0.47-0.15,1.19,0.29,1.33,0.44c0.15,0.15,0.3,0.29,0.37,0.52c0.07,0.22,0.15,0.44,0.08,0.67
		C105.18,131.21,104.01,130.46,103.79,130.54"/>
	<path class="st8" d="M107.47,133.64c0.15,0,0.22,0.07,0.38,0.21c0.07,0.07,0.23,0.22,0.23,0.37c0.08,0.22,0.01,0.44-0.06,0.52
		c-0.01-0.3-0.16-0.44-0.39-0.66c-0.23-0.22-0.45-0.29-0.68-0.5C107.1,133.57,107.25,133.57,107.47,133.64"/>
	<path class="st7" d="M88.14,144.8c0,0-4.1-3.5-2.3-7.5c0,0,4.5-6.9,9.1-0.3c2.2,4.2-1.3,8.2-1.6,12.3c-0.2,3.7-0.7,10.1-1.1,11.9
		c-2.1,9.1-4.9,13.7-1.8,14.1c14.7,2,7.5,4,2.7,3.5l-5.1-0.5c0,0-2.6,0.5-2.6-3.7C87.64,153.9,86.94,160.7,88.14,144.8"/>
	<path class="st5" d="M68.04,144.4c8.6-10.4,24.9-16.1,27.3-9.4c0.9,2.5,1.8,6.5,0.1,10l-7,5.8c0,0-11.4,6.5-17,6.5l-2.2-2l-1.6-8.5
		L68.04,144.4z"/>
	<path class="st0" d="M47.14,153.6l-1.57-0.84c-10.5,4.5-11.33,5.54-14.83,5.94c-4.7,0.5-8.8,1.4-13.1,3.6
		c-3.56,1.78-6.79,2.46-9.38,2.83c0.4,1.21,0.4,2.57,0.89,3.75c0.03,0.08,0.07,0.17,0.11,0.25c0.31,0.64,0.78,1.21,1.34,1.66
		c0.13,0.1,0.27,0.17,0.41,0.25c6.35-4.28,27.19-4.87,29.32-5.84c2.6-1.2,7-1.4,7-1.4l1-1.5L47.14,153.6z"/>
	<path class="st2" d="M9.26,169.13c-0.04-0.08-0.08-0.16-0.11-0.24c-0.49-1.19-0.5-2.54-0.89-3.75c-4.97,0.72-7.6,0.32-5.83,4.46
		c2,4.7-1.3,9.3,3.8,10.4c4.1,1,3.7-0.3,2.8-1.4c-1.3-1.6-0.3-3.6,0.3-5.7c0.26-0.69,0.86-1.3,1.68-1.86
		c-0.14-0.09-0.28-0.16-0.41-0.26C10.04,170.34,9.58,169.78,9.26,169.13"/>
	<path class="st10" d="M45.56,152.76c0,0-1.63,7.54,2.37,11.94c1.4-0.4,8.3-2.2,9.7-2.2c2.4,0,9.7-0.4,13.9-5.3l-3.5-12.8
		c-3.3,0-8.87-2.19-13.96,3.69C52.67,149.89,49.89,150.17,45.56,152.76"/>
	<path class="st0" d="M86.21,146.8c0,0-3.38-4-1.28-8.5c0,0,5.2-7.9,10.4-0.3c2.5,4.9-1.5,9.4-1.8,14c0.08,4.51-0.05,7.3-1.3,13.6
		c-4,17.5-7.2,15.4,4.1,17c5.9,1.7,6.5,4.2-9,2.6c0,0-3,0.5-3-4.2l1.81-19.47L86.21,146.8z"/>
</g>
</svg>
