<?xml version="1.0" encoding="utf-8"?>
<!-- Generator: Adobe Illustrator 25.2.0, SVG Export Plug-In . SVG Version: 6.00 Build 0)  -->
<svg version="1.1" id="Ebene_1" xmlns="http://www.w3.org/2000/svg" xmlns:xlink="http://www.w3.org/1999/xlink" x="0px" y="0px"
	 viewBox="0 0 220 220" style="enable-background:new 0 0 220 220;" xml:space="preserve">
<style type="text/css">
	.st0{opacity:0.2;fill:#1E1E1E;enable-background:new    ;}
	.st1{display:none;fill:#962A27;}
	.st2{display:none;}
	.st3{display:inline;fill:#1D1B16;}
	.st4{display:inline;fill:#FFAD73;}
	.st5{display:inline;fill:#FC2727;}
	.st6{display:inline;fill:#1F87DD;}
	.st7{display:inline;fill:#3581B5;}
	.st8{display:inline;}
	.st9{fill:#FCFCFC;}
	.st10{display:inline;fill:#FAD000;}
	.st11{display:inline;fill:#D5DCE2;}
	.st12{display:inline;fill:#E22424;}
	.st13{display:inline;fill:#FFFFFF;}
	.st14{fill:#A87C5E;}
	.st15{fill:#E22424;}
	.st16{fill:#FC2727;}
	.st17{fill:#D1492E;}
	.st18{fill:#1F87DD;}
	.st19{fill:#007EE6;}
	.st20{fill:#FAD000;}
	.st21{fill:#1295FF;}
	.st22{fill:#FFED9C;}
	.st23{fill:#FFA1A3;}
	.st24{fill:#1E81AD;}
	.st25{fill:#C6E3FF;}
	.st26{fill:#FF9194;}
	.st27{fill:#1F3866;}
	.st28{fill:#2C2C2C;}
	.st29{fill:#3A3A5B;}
	.st30{fill:#4C4B73;}
	.st31{fill:#FFAD73;}
	.st32{fill:#1D1B16;}
	.st33{fill:none;}
	.st34{fill:#FFFFFF;}
	.st35{fill:#FFB27D;}
	.st36{fill:#FFA166;}
	.st37{fill:#77511E;}
</style>
<g id="Ebene_3">
	<ellipse class="st0" cx="113" cy="216.8" rx="84.1" ry="3.2"/>
	<ellipse class="st0" cx="83.4" cy="200.7" rx="37.5" ry="2.7"/>
</g>
<g id="Ebene_1_2_">
	<g id="Ebene_2_1_">
	</g>
	<g id="Ebene_1_1_">
		<path class="st1" d="M80.3,74.5c-0.1-0.6-8.3-1-26.3,42.5s-42.9,42.7-44.1,43.3s6.5,19.2,29.8,9s13.7-2.9,16.8,1.2
			s21.2-2.2,27.8-5.9l6.6-3.7c0.7-11.6,0.7-23.3,0-34.9c-1.2-17.8,0.5-41-2.8-45.5C86.2,77.8,83.5,75.7,80.3,74.5z"/>
		<g class="st2">
			<path class="st3" d="M89.6,52.6c-6.6-12.3-34.3,1-32.2,10.2s10.2,15,4.1,19.9s-6,7.6-3.1,13.2c1.8,3.4,3,7.1,3.6,10.9L76.5,71
				C76.5,71,93.1,59.3,89.6,52.6z"/>
			<path class="st3" d="M90.9,59.5c0,0,5.2-4.1-1.1-6.3c-3.6-1.3-19.7-1.4-20.9,18.7c-1.2,20.3-0.3,13.5-1.8,14.8
				c-1.3,1.1,5.9,35.4,15.2-5.4c2-8.6,2.6-19,3.1-20.4s5.9-3,5.9-3"/>
			<path class="st4" d="M86.3,73.1c-0.2,0-2-4.3-0.9-6s-4.6-3.5-4.6-3.5s-1.4,6.6-1.2,9.9s6.7-0.8,6.7-0.8"/>
			<path class="st4" d="M81.2,52.4c-0.1,0-1.8,7.1,0,11.6s5.5,6,6.6,5.4c1.1-0.9,1.9-2.1,2.5-3.4c1.3-2.6,0.8-4.1,1.2-8.9
				c0.1-1.2-1.1-2.2-2.1-3c-2.8-2.3-7.3-3.2-8.4-1.9"/>
			<path class="st4" d="M80.3,59.3c0,0-2.1-1.3-1.8,2.5c0.2,1.7,1.1,1.3,1.8,1.3c0.1,0,0,0,0,0L78.5,73l3.4-0.3c0,0,0.5-6.3,0.3-6.7
				S81.4,59.5,80.3,59.3z"/>
			<path class="st5" d="M96.3,107.8c0.1,1.7,0.1,3.4,0.1,4.7c0,1.6-0.1,2.7-0.1,2.7l-5.5-0.8l-2.9-0.4l-3.7-0.5l-8.5-1.2
				c0,0-0.5-2.5,1.6-7c0.7-1.5,1.5-2.9,2.5-4.2l0,0l0,0c0.9-1.3,1.9-2.6,3-3.8c2.9-3.3-0.4-3.3-5.1-16.8c-1.8-5.2-4.3-9.1-1.3-10.5
				c0.9-0.4,2.8-0.2,5,0.3c4.2,1,7.2,2.5,8.4,3.9c1.8,2.2,5.8,8.4,7,9.4s0.6,4.2-1.2,5.1c0,0-0.2,0.5-0.3,1.4
				c-0.5,2.4-1.3,7.5,0,11.2C95.8,103.4,96.2,105.6,96.3,107.8z"/>
			<path class="st6" d="M88,103.9c-0.2,1.7-0.5,3.4-0.9,5c0.4,1.7,0.6,3.4,0.7,5.2c0.2,5.1-0.2,10.2-1.4,15.2
				c-0.1,0.6-0.3,1.2-0.4,1.8l0,0c-0.1,0.2-0.1,0.5-0.2,0.7c-1.4,5.4-3.3,10.6-5.6,15.6c-0.5,2.8-0.8,5.7-1,8.5
				c-0.1,1.3-0.2,2.7-0.4,4c-0.9,5.6-2.7,11.9-2.6,14.4c0.1,3.1,1.2,8.9,0,13.1s0.8,10.1,0,11.4s-2.1,1-4,0.8s-2.9-4.6-2.9-6.4
				s2-3.4,2.1-7.7c0.1-2.5,0.5-4.9,1-7.3c0-0.5-1.4-10.1-1.9-17.8c-0.3-4.3-0.3-8.1,0.4-9.4c1.8-3.7,3.9-5.1,4.2-8.5
				c0.2-3-6.8-24,1.3-36.9c0.9-1.6,2-3.1,3.3-4.3l0,0l0,0C87.9,93,88.5,98.9,88,103.9z"/>
			<path class="st6" d="M101.4,192.8c-0.5,1.3-1.3,1.5-3.1,1.6s-3.5-2.4-3.8-4.1s0.1-3.2-0.5-7.2c-0.3-2.3-0.4-4.6-0.3-6.9
				c-0.1-0.7-7.1-21-6-24.6s2.7-5.3,2.4-8.5c-0.1-1.3-2.3-6-4.1-12l0,0V131l0,0c-1.6-5.3-2.7-11.6-1.9-17.5c0.4-3.2,1.6-6.2,3.4-8.9
				l0.6-0.8c6.8-9.3,7.6-0.2,7.6,4.3c0,1.3-0.1,2.2-0.1,2.2c0.3,0.7,0.6,1.4,0.8,2.1c1.5,4.6,4,16.5-0.6,34.3c0,0-0.4,7,0.4,10.2
				S96,169.2,96.6,172s2.6,7.9,2.2,12S101.9,191.5,101.4,192.8z"/>
			<path class="st4" d="M84.3,105.1c-1.3-0.8-2.6-1.4-4-2c-1.3-0.4-3.3,4.6-5.3,1.2c-1.2-2.1-6.2-4.4-9.6-7.1
				c-2.3-1.7-3.8-3.6-3.2-5.5c0.3-1.1,0.5-5.9,6.7-14.3c1.1-1.7,3.1-3.5,4-5.4c1.3-2.8,4.3-4,8.4-1.8L79.2,80
				c-0.1,0.3-0.4,0.5-0.7,0.5C75.9,80.9,68,91.7,68,91.7l1.3,1.6c2.3,2.9,6.9,8.5,7.8,8.6c1.3,0.1,3.7-1.2,3.7-1.2
				c0.8,0,1.7,0.1,2.5,0.4C84.1,101.5,84.3,105.1,84.3,105.1z"/>
			<path class="st3" d="M80.3,59.3c0,0,1.9-0.1,3.1-3.1s3-2.2,3.1-2.2s3,1,3.1-0.5s-5.7-4.4-8.4-2.4s-1.4,8.1-1.4,8.1"/>
			<path class="st7" d="M101.4,192.8c-0.5,1.3-1.3,1.5-3.1,1.6s-3.5-2.4-3.8-4.1s0.1-3.2-0.5-7.2c-0.3-2.3-0.4-4.6-0.3-6.9
				c-0.1-0.5-3.4-10.2-5.1-17.4c-0.8-3.3-1.2-6.1-0.9-7.2c1.1-3.6,2.7-5.3,2.4-8.5c-0.1-1.3-2.3-6-4.1-12c-0.1,0.2-0.1,0.5-0.2,0.7
				c0-0.3,0.1-0.6,0.2-0.8l0,0c0,0,0.2-0.7,0.4-1.7c0.9-3.3,2.8-10.7,4.3-14.8c0.3-0.7,0.5-1.4,0.7-1.8c0.9-1.9,2.4-3.4,4.2-4.4
				c0.2-0.1,0.4-0.3,0.7-0.4c0.1,1.7,0.1,3.4,0.1,4.7c2.4,4.8,4,16.5-0.6,34.3c0,0,0.1,2.5,0.6,7.6c0,0.3,0,0.7,0.1,1.1
				c0.1,4.2-0.4,13.9,0.2,16.5c1.3,4.7,2.2,9.5,2.9,14.3C99.8,190.5,101.9,191.5,101.4,192.8z"/>
			<g class="st8">
				<polygon class="st9" points="81.9,106.6 81.3,106.1 80.4,106.3 80.8,105.5 80.3,104.7 81.2,104.8 81.7,104.1 81.9,105 
					82.7,105.3 82,105.8 				"/>
				<polygon class="st9" points="86.4,108.5 85.7,107.9 84.9,108.1 85.2,107.3 84.8,106.6 85.6,106.7 86.2,106 86.4,106.9 
					87.2,107.2 86.4,107.6 				"/>
				<polygon class="st9" points="77.9,109 77.4,108.2 76.6,108.1 77.1,107.5 76.9,106.7 77.7,107 78.5,106.5 78.4,107.4 79,108 
					78.2,108.2 				"/>
				<polygon class="st9" points="82.7,110.3 82.2,109.6 81.4,109.5 81.9,108.8 81.7,108 82.5,108.3 83.3,107.9 83.2,108.7 
					83.8,109.3 83,109.5 				"/>
				<polygon class="st9" points="87.9,111.5 87.4,110.8 86.6,110.7 87.2,110.1 86.9,109.2 87.7,109.6 88.5,109.1 88.4,110 
					89.1,110.5 88.2,110.7 				"/>
				<polygon class="st9" points="86,102.8 85.2,102.7 84.6,103.4 84.4,102.6 83.6,102.2 84.4,101.8 84.4,100.9 85.1,101.5 
					85.9,101.3 85.6,102.1 				"/>
				<polygon class="st9" points="92.2,104.8 91.4,104.4 90.7,104.8 90.8,104 90.2,103.4 91,103.2 91.4,102.4 91.8,103.2 92.6,103.3 
					92,103.9 				"/>
				<polygon class="st9" points="95.6,111.7 94.9,111.4 94.1,111.8 94.2,111 93.6,110.4 94.4,110.2 94.8,109.4 95.2,110.2 
					96.1,110.3 95.5,110.9 				"/>
			</g>
			<path class="st10" d="M87.9,124c0,0,0.1-0.3,0.1-0.8c0.5-2.7,1.9-11.5,1.1-15.5c-0.5-2.7-3.3-5.4-5.7-6.8c0,0,6,3.4,8.1,3
				c1.4-0.3,2.8-0.9,4-1.7c0.5,2,0.9,3.9,0.9,6.2"/>
			<path class="st10" d="M95.4,88.8c0,0-0.2,0.5-0.3,1.4c-0.4,0-0.7,0.1-1.1,0.3c-0.6,0.4-1.8,7.1-1.8,7.1c-0.9-2.8,0.7-8.3,0.7-8.3
				c-0.8,0.5-1.7,0.7-2.6,0.6c-1.7,0-3-2.4-3-2.4c1.9,0.4,3.8,0.1,5.6-0.7C93.5,87.6,94.4,88.4,95.4,88.8z"/>
			<path class="st11" d="M84.3,105.1c-1.3-0.8-2.6-1.4-4-2c-1.3-0.4-3.3,4.6-5.3,1.2c-1.2-2.1-6.2-4.4-9.6-7.1
				c0.5-1.8,1.7-4.8,3.8-4c2.3,2.9,6.9,8.5,7.8,8.6c1.3,0.1,3.7-1.2,3.7-1.2c0.8,0,1.7,0.1,2.5,0.4
				C84.1,101.5,84.3,105.1,84.3,105.1z"/>
			<path class="st10" d="M92.6,86.8c1-0.9,1.5-2.2,1.5-3.5c0,0,0.1,4.3,1.3,5.5c0,0-2.3,0.9-3-1.9"/>
			<path class="st12" d="M75.3,69.5c0,0,2.3-2.7,4.3-2.2s6,4,6,4s1.6-0.6,1.8-0.3s1.8,2.6,1.8,2.6l-3.1-0.5
				C86,73.1,80.3,69.4,75.3,69.5z"/>
			<path class="st13" d="M85.9,65.6c0,0,0,0.9,0.6,1c0.8,0.1,1.8,0.2,2.6,0.1c0.2-0.4,0.5-0.7,0.5-1.1
				C88.7,65.3,87.2,65.6,85.9,65.6z"/>
			<g class="st8">
				<path class="st14" d="M84.6,60.5c0.2-0.2,0.3-0.5,0.6-0.6c0.3-0.1,0.6-0.2,0.8-0.1c0.5,0.1,1.1,0.2,1.3,0.7
					c-0.2-0.2-0.5-0.2-0.7-0.2c-0.3,0-0.5-0.1-0.8-0.1C85.4,60.2,85,60.2,84.6,60.5z"/>
			</g>
			<g class="st8">
				<path class="st14" d="M89.6,60.8c0.3-0.4,0.5-0.5,1.2-0.6s0.9,0.3,1.1,0.7c-0.1-0.2-0.3-0.2-0.5-0.2c-0.2-0.1-0.3-0.1-0.5-0.1
					C90.6,60.6,90,60.7,89.6,60.8z"/>
			</g>
			<path class="st10" d="M68,95.5c0.7-0.7,1.3-0.9,2.3-1.1C69.9,94,69.2,93,69.1,93s-0.2-0.1-0.5,0c-0.5,0.1-1,0-1.7,0.7
				c-0.7,0.6-1.6,3-1.6,3.3c0,0,0,0.1-0.1,0.1c0,0,0.1,0.1,0.2,0.2c0.3,0.2,0.6,0.4,0.9,0.6c0.1,0.1,0.4,0.3,0.4,0.3
				s0.1-0.2,0.1-0.3C66.9,97.5,67.4,96.1,68,95.5z"/>
			<path class="st10" d="M76.3,187.4c-1.2,4.2,0.8,10.2,0,11.5s-2.1,1-4.1,0.8c-1.9-0.2-2.9-4.6-2.9-6.4s2-3.4,2.1-7.8
				c0.1-2.5,0.5-4.9,1-7.3c0-0.5-1.4-10.2-2-17.9c2.5-1.9,5.7-4.1,6.4-3.3c0.5,0.6,1.3,1.8,2,2.9c-0.9,5.6-2.7,12-2.6,14.5
				C76.4,177.5,77.5,183.2,76.3,187.4z"/>
			<path class="st10" d="M101.4,192.8c-0.5,1.3-1.3,1.5-3.1,1.6s-3.5-2.4-3.8-4.1s0.1-3.2-0.5-7.2c-0.3-2.3-0.4-4.6-0.3-6.9
				c-0.1-0.5-3.4-10.2-5.1-17.4c1.2-1.6,4.2-5.6,5.6-4.9c0.8,0.5,1.5,1,2.2,1.6c0.1,4.2-0.4,13.9,0.2,16.5c1.3,4.7,2.2,9.5,2.9,14.3
				C99.9,190.5,101.9,191.5,101.4,192.8z"/>
		</g>
		<g>
			<path class="st15" d="M121.8,167c0,0-7.6,2-13.8,0.7c-0.2,0-0.4-0.1-0.6-0.1c-2.8-0.7-4.8-0.6-6.4,0c-2.1,0.7-3.7,1.9-5.6,3
				c-1.8,1-3.5,0-5.2-1.1v0c-1.6-1-3.2-2.1-5-1.8c-0.5,0.1-0.9,0.1-1.3,0.2c-2.5,0.5-3.3,1.3-6.4,0.6c-0.3-0.1-0.6-0.1-0.9-0.2
				c-2.1-0.6-3-0.2-4.4,0.5c-1.6,0.7-3.9,1.8-9.2,1.9c-3.5,0.1-5.7-0.5-7.3-1.1c-2.8-1.1-4.2-2.3-8.5-0.7c-0.3,0.1-0.7,0.3-1.1,0.4
				c-7.9,3.4-14.8-2.6-14.8-2.6s6.4-25.9,18.3-42.8c11.9-16.8,5.8-34.5,16.3-44.9c0,0,24.6-2.3,27.6,0c2.9,2.3,5.7,19.3,8.7,33.3
				c3.1,14,8,23.4,10.4,33.2C115,155.2,121.8,167,121.8,167L121.8,167z"/>
			<path class="st16" d="M55.7,169.4c-2.8-1.1-4.2-2.3-8.5-0.7c8.1-21,15.8-70,19.4-71.4C70.1,96,56.9,152.7,55.7,169.4L55.7,169.4z
				"/>
			<path class="st16" d="M77.6,168.3c-0.3-0.1-0.6-0.1-0.9-0.2c-2.1-0.6-3-0.2-4.4,0.5c2.3-15.4,3.1-60.9,5.1-63.3
				C79.2,103.1,78.1,148.4,77.6,168.3L77.6,168.3z"/>
			<path class="st17" d="M90.3,169.4c-1.6-1-3.2-2.1-5-1.8c-0.5,0.1-0.9,0.1-1.3,0.2c-0.1-15.3-0.7-53.5,0-55.5
				C84.6,110.5,88.5,150.3,90.3,169.4L90.3,169.4z"/>
			<path class="st16" d="M108,167.7c-0.2,0-0.4-0.1-0.6-0.1c-2.8-0.7-4.8-0.6-6.4,0c-2.5-21.6-8.7-70.2-8-70.2
				C93.9,97.3,103.7,146.7,108,167.7L108,167.7z"/>
			<path class="st18" d="M102.6,166.3c-0.3,2.4-2.7,3.1-5.1,2.7c-2.1-0.4-4.1-1.7-4.5-3.7c-0.9-4.6-12.8-29.4-12.3-32.2
				c0,0,5.1-14.6,10.4-10.9c3.2,2.2,7,14.7,8.9,25.9c0.7,3.8,1.5,12.7,2.4,16.6c0,0.1,0,0.1,0,0.2
				C102.7,165.4,102.7,165.9,102.6,166.3L102.6,166.3z"/>
			<path class="st18" d="M94.8,99.8c-2.9,6-4.1,20.1-4.1,20.1c-15,3.7-23.1-0.8-23.1-0.8s0,0,0-0.5c0-0.4-0.1-1.1-0.2-2.4
				c-0.1-1.7-0.3-4.3-0.6-8.4c-0.3-3.5-1.3-6.3-2.6-8.6v0c-2.9-4.9-7-7.3-7-9.4c0-1.8,0.6-4,1.9-5.9c0.9-1.4,2.2-2.7,3.7-3.7
				c3.7-2.2,10.9-3.7,13.6-5.4l8.4,0.1c0,0,0.2,0.5,2.3,1.4c2.1,0.8,10.5,2.9,12.2,7.7C101,88.8,97.8,93.9,94.8,99.8L94.8,99.8z"/>
			<path class="st18" d="M60.2,82.6c-6.2,6.9-11,18-11.8,23.6c-0.1,0.7,0.2,1.3,0.6,1.8c1.5,2.2,6.2,8.3,14.2,10.5
				c2,0.5,2.9-1.1,1.8-3c-2-3.2-3.3-7.9-5.9-10.1c0,0,2.4-2.3,4-4.4c2.5-3.2,4.1-6.3,4.4-11.5C67.6,84.2,60.2,82.6,60.2,82.6
				L60.2,82.6z"/>
			<path class="st19" d="M67.6,118.7c0-0.4-0.1-1.1-0.2-2.4C68.1,117.2,68.1,118.1,67.6,118.7L67.6,118.7z"/>
			<path class="st18" d="M111.7,89.9c-2.9-5.1-1.7-14.3-5.3-22.2c-1.3-2.8,1.8-2.7,2.8-1.6c1,1.1,13,15.2,12.9,19.1
				C122,89.2,111.7,89.9,111.7,89.9L111.7,89.9z"/>
			<path class="st20" d="M67.6,119.2c-1,2.8-1.7,4.5-1.7,4.5s9.8,2,12.5,9.1c0,0,2.1,0.7,3.3,0c1.3-0.7,6.5-9.9,9.4-10.6l-0.3-3.7
				C85.4,120.3,77.4,120.4,67.6,119.2L67.6,119.2z"/>
			<path class="st18" d="M66,123.7c-4.4,7.1-3.3,39.3-4.1,45.5c-0.7,5.8,7.3,7.1,7.8,1.3c0.6-6.3,10.4-29.4,8.8-37.7
				C76.9,124.5,66,123.7,66,123.7L66,123.7z"/>
			<path class="st21" d="M69.8,175.3c0,1.2-0.5,3.3-1.2,5.8v0c-1.5,5.9-4.1,13.5-4.1,14.4c0,0.1,0,0.2-0.1,0.3
				c-0.4,1.1-2.5,1.8-2.7-0.3c-0.2-2.4-1.3-15.9-1.1-19.9c0.1-1,0.2-1.9,0.3-2.7l0,0c0.6-4.6,2.1-6.9,3.8-7.5l0.1,0
				c0.2-0.1,0.4-0.1,0.6-0.1C70,165,69.9,171.4,69.8,175.3L69.8,175.3z"/>
			<path class="st21" d="M105.6,195.5L105.6,195.5c-0.2,0.3-1.9,3.2-3.1,0c-1.1-3-3.4-6.9-5.3-10.7c-1.4-2.9-2.7-5.6-3-7.8
				c-0.9-5.2-1.1-11.6-1.1-11.6l7.5-0.5l1.7-0.1l0.3,0c0,0.1,0,0.1,0,0.2c0,0.4,0,0.9,0.1,1.4c0.5,6.7,2.2,25.5,2.9,28.8
				c0,0.1,0,0.1,0,0.2C105.6,195.3,105.6,195.4,105.6,195.5L105.6,195.5z"/>
			<path class="st21" d="M109.2,200.4c-2.2-0.3-4.9,0.1-6.2-0.3c-0.7-0.2-0.9-0.7-0.8-1.6c0.1-0.7,0.7-1.5,0.3-3.1l2.9-0.6
				c0,0.2,0.1,0.4,0.1,0.6c0.8,2.5,3.8,3.9,5.2,4C112.3,199.5,111.4,200.8,109.2,200.4L109.2,200.4z"/>
			<path class="st21" d="M65.3,200.5c-0.7,0.3-5.2,0.4-5.1-0.8c0.1-1.2,0.8-1.6,1.6-4.2h2.8c0,0-0.1,0.1-0.1,0.3
				c0,0.4,0.1,1.1,0.8,2.2C66.4,199.9,66,200.2,65.3,200.5L65.3,200.5z"/>
			<path class="st22" d="M70.1,176.9c-0.3-4.1-1.5-7.8-4.5-7.8c-4.4,0-5.1,9.9-5.3,12.9c-0.1-1.1-0.1-2.2,0-3
				c0.1-1,0.4-13.7,5.4-13.7C69.5,165.3,70.4,171.6,70.1,176.9L70.1,176.9z"/>
			<path class="st20" d="M64.6,195.6c0,0.1,0,0.2-0.1,0.3c0,0.3,0,0.9,0.5,1.8c0.1,0.1,0.2,0.3,0.2,0.4c1.1,1.7,0.7,2.1,0,2.4
				c-0.1,0-0.3,0.1-0.6,0.1c-0.8,0.1-2.3,0.1-3.3-0.1c-0.7-0.1-1.2-0.4-1.2-0.8c0.1-1,0.6-1.5,1.3-3.2c0.1-0.3,0.2-0.6,0.3-1
				c-0.1-1.9-1.3-8.8-1.6-13.5c0.2-3,0.9-12.9,5.3-12.9c3,0,4.2,3.7,4.5,7.8c-0.1,1.6-0.3,3-0.5,4.3
				C69.5,181.1,64.6,194.7,64.6,195.6L64.6,195.6z"/>
			<path class="st22" d="M102.8,169.2c-0.4-0.1-0.9,0-1.4,0.2c-1.2,0.6-2.3,2.3-3.1,4.2c-0.3,0.8-0.5,1.6-0.6,2.4
				c-0.3,2.4-0.6,7-0.5,10.9c-0.2-0.4-0.4-0.8-0.6-1.2c-0.6-4.1-0.2-11.1,0.2-14.3c0.1-0.8,0.3-1.6,0.6-2.4c0.7-1.8,1.9-3.5,3.1-4.2
				c0.6-0.3,1.1-0.4,1.7-0.1c0.1,0,0.2,0.1,0.3,0.2l0,0c0.1,0.5,0.1,1,0.1,1.4C102.7,167.1,102.8,168.1,102.8,169.2L102.8,169.2z"/>
			<path class="st20" d="M109.2,200.4c-0.8-0.1-1.8-0.2-2.6-0.2c-1.4,0-2.8,0.1-3.5-0.1c-0.3-0.1-0.5-0.2-0.6-0.4
				c-0.1-0.1-0.2-0.3-0.2-0.5c0-0.2,0-0.5,0-0.7c0.1-0.7-0.1-1.4-0.5-3c-1-2.7-2.8-5.4-4.5-8.7c-0.1-3.9,0.2-8.5,0.5-10.9
				c0.1-0.8,0.3-1.6,0.6-2.4c0.7-1.8,1.9-3.5,3.1-4.2c0.5-0.2,0.9-0.3,1.4-0.2c0.6,8.1,2,23.1,2.7,25.9c0,0.1,0,0.1,0,0.2
				c0,0.1,0,0.1,0.1,0.2l0,0c0.1,0.2,0.2,0.4,0.3,0.6c1,2.1,3.6,3.3,4.9,3.4C112.3,199.5,111.4,200.8,109.2,200.4L109.2,200.4z"/>
			<path class="st16" d="M84.8,76.8c2.1,0.9,8.7,2,8.7,2s-4-8.9-18.9-5.1C74.5,78.5,82.7,77.1,84.8,76.8L84.8,76.8z"/>
			<path class="st23" d="M64.9,115.5c0.3,0.3,2.3,0.9,2.5,1l0.1,1.5c1,0.9,1.8,0.7,2.7,1.1c1.1,0.4,0.5,1,0,1
				c-0.5,0-2.2-0.3-2.2-0.3s2.2,1.1,2.4,1.4c0.2,0.3,0,0.7-0.8,0.5c-0.8-0.1-2.1-0.8-2.1-0.8s1.8,1.1,2.1,1.4c0.4,0.3-0.2,0.9-1,0.5
				c-1.1-0.5-1.8-0.8-1.8-0.8s1.6,1.1,1.5,1.4c-0.1,0.3-0.4,0.5-1.1,0c-0.8-0.5-1.4-1-2-1.5c-0.5-0.5-2.1-1.7-2.9-3.4
				C62,117.1,64.9,115.5,64.9,115.5L64.9,115.5z"/>
			<path class="st24" d="M98.6,92c-1.9-1-4.2,0.7-4.7,1.8c-1,2.3,0,7.1-0.5,9.3L98.6,92L98.6,92z"/>
			<path class="st16" d="M75.3,93.2c0-3,2.5-5.5,5.5-5.5c3,0,5.5,2.5,5.5,5.5c0,3-2.4,5.5-5.5,5.5C77.7,98.7,75.3,96.3,75.3,93.2
				L75.3,93.2z"/>
			<path class="st20" d="M76.3,93.2c0-2.5,2-4.5,4.5-4.5c2.5,0,4.5,2,4.5,4.5s-2,4.5-4.5,4.5C78.3,97.7,76.3,95.7,76.3,93.2
				L76.3,93.2z"/>
			<polygon class="st16" points="80.8,89.8 81.6,92.2 84.2,92.2 82.1,93.8 82.9,96.2 80.8,94.7 78.7,96.2 79.5,93.8 77.4,92.2 
				80,92.2 80.8,89.8 			"/>
			<path class="st18" d="M115.6,89.1c-2.6,2.1-12.7,2.6-17,3.6C87,95.3,84.1,75.8,84.1,75.8c8.1,1.2,10.1,2.4,11.2,2.8
				c0.5,0.2,0.8,0.1,1.6-0.3c0.3-0.1,0.5-0.3,0.8-0.4c8.8-4.2,8.6,3.1,15.8,1.6C117.6,78.8,118.2,87,115.6,89.1L115.6,89.1z"/>
			<path class="st25" d="M86.2,76.7c0,1.7-1.4,3.3-4.6,3.3c-3.2,0-7.1-1.7-7.1-3.3c0-1.7,2.6-3,5.8-3C83.6,73.7,86.2,75,86.2,76.7
				L86.2,76.7z"/>
			<path class="st16" d="M65.9,78.7c3.6-0.4,10.7-1.8,10.7-1.8s-0.3-1.8,0-2.5c0,0,0.4-1.6-3.4-0.3C69.3,75.5,65.9,78.7,65.9,78.7
				L65.9,78.7z"/>
			<path class="st26" d="M101,67.1c0,0.7,0.2,1,1,0.8c0.5-0.1,1-0.4,1.5-0.3c1.2,0.2,3.5,0.2,2.7-0.6c0,0-1.7-2.8-2.4-3.6
				C103.1,62.7,100.9,66.6,101,67.1L101,67.1z"/>
			<path class="st23" d="M108.7,65.8c-1.5-2.6-3.9-3.7-4.7-3.8c-1.1-0.2-1.6-0.2-3.7,2.8c-1,1.4-0.2,1.9,0.5,2.4
				c0.5-2,1.4-0.4,1.9-0.3c0.8,0.1,1.2-0.6,1.4-1.1c0.1-0.2-0.1-0.4-0.3-0.4c-3-0.1,0.5-2,1,0.3c0.2,1.2,1.2,2.1,2.2,1.2L108.7,65.8
				L108.7,65.8z"/>
			<path class="st26" d="M101.7,64c-0.2,0.5-0.4,0.9-0.6,1.3c-0.1,0.2-0.1,0.4-0.1,0.6c0,0.2,0.1,0.4,0.2,0.7
				c-0.2-0.1-0.4-0.4-0.5-0.6c-0.1-0.3,0-0.6,0.1-0.8c0.1-0.2,0.3-0.5,0.4-0.6C101.3,64.3,101.5,64.2,101.7,64L101.7,64z"/>
			<path class="st26" d="M102.6,64.1c-0.2,0.5-0.4,0.9-0.6,1.3c-0.1,0.2-0.1,0.4-0.1,0.6c0,0.2,0.1,0.4,0.2,0.7
				c-0.2-0.1-0.4-0.4-0.5-0.6c-0.1-0.3,0-0.6,0.1-0.8c0.1-0.2,0.3-0.5,0.4-0.6C102.2,64.4,102.4,64.2,102.6,64.1L102.6,64.1z"/>
			<path class="st24" d="M109.2,79.3c-0.8,4.1-0.8,5.1-0.8,5.1s-0.4-4.8,0-5.4L109.2,79.3L109.2,79.3z"/>
			<path class="st24" d="M97.7,77.9c-1.6,1.1-2,2.3-3.1,2c-0.6-0.2,0-0.8,0.7-1.3c0.5,0.2,0.8,0.1,1.6-0.3
				C97.2,78.2,97.4,78,97.7,77.9L97.7,77.9z"/>
			<path class="st24" d="M63,99.2c-1.4,0.9-0.6,2.8-3,4c-1.4,0.6-6.2,4.3-1,2.2c0.7-0.3,1.5-0.2,3.1-1.3c1.5-1.2,1.2-3.2,2.6-4.5
				c2-1.8,3.3-6.3,0.9-6.5C64.3,92.9,65.4,97.5,63,99.2L63,99.2z"/>
		</g>
		<path id="cape" class="st16" d="M100.8,137.9c-2.6,7.7-13.8,49.2-12,47.1s18-8.5,26.7-8.3c8.6,0.2,25.5,6.2,26.9,8.3
			s-9.5-40-10.6-48.1C127.9,129.3,103.9,128.8,100.8,137.9z"/>
		<path class="st18" d="M145.6,212.3c-1.6-2-7.1-7.1-7.1-8c0-0.6-0.1-1.2-0.3-1.7c-0.1-0.5,3.2-8,3.3-10.9s-2-8.4-2-9.6
			s0.8-9.6,0.3-14.1s-10.3-13.8-10.3-13.8l-14.3,2.6l-14.3-2.6c0,0-9.8,9.4-10.3,13.8s0.4,12.8,0.4,14s-2.1,6.7-2,9.6
			s3.4,10.4,3.3,10.9c-0.2,0.6-0.3,1.1-0.3,1.7c0,0.9-5.5,6.1-7.1,8s-1.7,2.9,1.3,2.9s10.8-2.2,11.1-3.2s0.7-7.8,0.7-9.6
			s3.8-12.4,3.2-14.9s-0.9-8.4-0.3-9.7s6.8-7.1,9.1-8.7c2.2-1.5,3.9-2.8,5.3-2.9c1.4,0.1,3,1.3,5.1,2.8c2.2,1.6,8.6,7.4,9.3,8.7
			s0.4,7.2-0.3,9.7s3.2,13,3.2,14.9s0.3,8.7,0.7,9.6s8,3.2,11.1,3.2S147.2,214.2,145.6,212.3z"/>
		<path class="st15" d="M136.3,161.6c-2.6-4.7-6.7-7.4-6.7-7.4l-14.3,2.6l-14.4-2.6c-2.3,2.3-3.5,3.4-5.5,5.9
			c1.8-0.3,7.8-0.4,10.9,0.8c3.9,1.5,6,2.9,8.8,5.2c0.1,0.1,0.3,0.1,0.5,0c5.5-3,8.3-5.4,13.5-5.4
			C130.9,160.8,134.5,161.3,136.3,161.6z"/>
		<path class="st27" d="M97.4,212c0.3-1.3,0.4-2.6,0.4-3.9l-1.6,0.2c-0.2-1.2-0.8-2.2-1.7-2.9c-0.8-0.7-2.1-0.8-3-0.1
			c-1.5,1.9-5.2,5.4-6.5,7c-1.6,2-1.7,2.9,1.3,2.9S97,212.9,97.4,212z"/>
		<path class="st27" d="M145.6,212.3c-1.3-1.6-5.3-5.4-6.7-7.2c-0.5,0.1-0.9,0.3-1.3,0.6c-0.9,0.8-1.6,1.8-1.9,3l-3-1.4
			c0,1.6,0.2,3.1,0.5,4.7c0.4,0.9,8,3.2,11.1,3.2S147.2,214.2,145.6,212.3z"/>
		<path class="st28" d="M60.8,198.1H23.6c-0.7-0.1-1.2-0.7-1.2-1.4c0.1-0.6,0.5-1.1,1.2-1.2h37.3c0.7,0.1,1.2,0.7,1.2,1.4
			C61.9,197.6,61.4,198.1,60.8,198.1z"/>
		<path class="st29" d="M56.2,177.8h-2.5c-1.3,0-2.3,7.8-2.3,17.4s1,17.4,2.3,17.4h2.5V177.8z"/>
		<path class="st30" d="M60.2,171.6h-3.4c-1.7,0-3.1,10.5-3.1,23.5s1.4,23.6,3.1,23.6h3.4V171.6z"/>
		<ellipse class="st29" cx="60.2" cy="195.2" rx="3.1" ry="23.5"/>
		<path class="st28" d="M208.9,198.1h-33.8c-0.7,0.1-1.3-0.5-1.4-1.2c-0.1-0.7,0.5-1.3,1.2-1.4c0.1,0,0.2,0,0.2,0h33.8
			c0.7,0.1,1.2,0.7,1.2,1.4C210,197.6,209.5,198.1,208.9,198.1z"/>
		<path class="st29" d="M178.8,177.8h2.5c1.2,0,2.3,7.8,2.3,17.4s-1,17.4-2.3,17.4h-2.5V177.8z"/>
		<path class="st30" d="M174.8,171.6h3.4c1.7,0,3.1,10.5,3.1,23.5s-1.4,23.6-3.1,23.6h-3.4V171.6z"/>
		<path class="st29" d="M171.7,195.2c0,13,1.4,23.6,3.1,23.6s3.1-10.5,3.1-23.6s-1.4-23.5-3.1-23.5S171.7,182.2,171.7,195.2z"/>
		<path class="st28" d="M82.7,198.1H60.8c-0.7-0.1-1.2-0.7-1.2-1.4c0.1-0.6,0.5-1.1,1.2-1.2h21.9c0.7,0.1,1.2,0.7,1.2,1.4
			C83.8,197.6,83.3,198.1,82.7,198.1z"/>
		<path class="st31" d="M87.1,144.4c0,0-4.3,18.7-5.3,22.3s-2,15.5-2,19.4s-1.4,8.2-1.6,9.5s0.5,4,1.3,4.2s4.5,0.1,4.9,0.4
			s1.3,0.8,2,0.1s1.2-2.5,1.7-2.9s1.7-2,0.9-3.3s-3.2-2.5-3.6-3.4s6-18.4,6-20.8c0.2-2.7,1.5-5.3,2.1-8l2.3-10.3
			C95.9,151.6,88.3,145.9,87.1,144.4z"/>
		<path class="st28" d="M175.1,198.1h-25.3c-0.7-0.1-1.2-0.7-1.2-1.4c0.1-0.6,0.5-1.1,1.2-1.2h25.3c0.7,0.1,1.2,0.7,1.2,1.4
			C176.2,197.6,175.7,198.1,175.1,198.1z"/>
		<path class="st31" d="M145.1,144.4c4.3,18.7,4.2,18.5,5.3,22.3c1,3.6,2,15.5,2,19.4s1.4,8.2,1.6,9.5s-0.5,4-1.3,4.2
			s-4.5,0.1-4.9,0.4s-1.3,0.8-2,0.1s-1.2-2.5-1.7-2.9s-1.7-2-0.9-3.3s3.2-2.5,3.6-3.4s-6.1-18.4-6.1-20.8c-0.2-2.7-1.6-5.2-2.2-7.9
			l-2.1-10.4C136.3,151.6,143.9,145.9,145.1,144.4z"/>
		<path class="st18" d="M145.1,144.4C145.1,144.5,145.1,144.4,145.1,144.4c-0.4-2.1-4.8-4.9-9.9-7.6c-6.2-3.3-14.9-5.7-19.8-5.3
			c-5,0.9-9.9,2.2-14.8,3.8c-7.1,2.5-13.6,7.6-13.5,9.1l0,0c0,0-1.9,8.2-3.5,14.8c1.1,0.6,3.3,1,4.6,1.3c1.6,0.3,4,0.5,5.6,0.4
			c0,0,1.9-4,1.9-9c0.8,0.9,1.6,2.3,2.1,2.7s5.3,5.4,14.2,7.7s17-4.2,18.6-5.5c1.5-1.4,2.8-1.9,4.1-3.5c0,0,1.1-1.8,1.2-1.8
			c-0.5,4.1,2.3,9.7,2.3,9.7c1.6,0.1,4.2-0.4,5.7-0.7c1.3-0.3,3.5-0.7,4.6-1.3C147,152.6,145.1,144.4,145.1,144.4z"/>
		<path class="st16" d="M100.7,135.4c3,1.7,14.4,12.6,14.8,15.2c2.3-2.4,8.2-14.6,16.7-15.2c-13.2-5.8-16.2-4.2-16.2-4.2
			S102.2,133.6,100.7,135.4z"/>
		<path class="st31" d="M119.9,125.1c-0.9-2-3.1-3.2-5.3-2.8c-4.1,0.4-5.8,3-6.2,5.3c-0.4,2.3-0.5,11.9,0.4,13.3s4.4,7.5,6.7,7.7
			c2.4,0.1,6.2-7.4,6.2-8.8c0-1.5-0.1-7.5-0.1-9.2C121.6,128.8,121.4,126.4,119.9,125.1z"/>
		<path class="st31" d="M108.3,131.7c0,0-0.5-2.1-1.3-0.5s-0.8,3.6-0.1,4.5c0.4,0.5,0.8,1,1.3,1.4L108.3,131.7z"/>
		<path class="st31" d="M121.6,131.7c0,0,0.5-2.1,1.3-0.5s0.8,3.6,0.1,4.5c-0.4,0.5-0.8,1-1.3,1.4L121.6,131.7z"/>
		<path class="st32" d="M121.6,130.5c0-1.7-0.3-4.1-1.7-5.4c-0.9-2-3.1-3.2-5.3-2.8c-4.1,0.4-5.8,3-6.2,5.3
			c-0.3,2.4-0.4,4.7-0.3,7.1c0.4-0.1,0.7-0.4,0.8-0.8c0.1-0.9,0.5-3.6,0.5-3.6c1.7,1.3,3.7,1.9,5.8,1.8c3.4-0.1,4.8-1.8,4.8-1.8
			s0.1,4.4,0.7,4.9c0.3,0.3,0.6,0.5,1,0.8C121.7,133.9,121.6,131.5,121.6,130.5z"/>
		<path class="st28" d="M146.1,198.1H87c-0.7-0.1-1.2-0.7-1.2-1.4c0.1-0.6,0.5-1.1,1.2-1.2h59.1c0.7,0.1,1.2,0.7,1.2,1.4
			C147.2,197.6,146.8,198.1,146.1,198.1L146.1,198.1z"/>
		<path class="st29" d="M83.9,214.5c0,0,0.3-1.1,0.7-1.1s1.6-0.1,1.8,0.2s0.5,1.1,0.9,1.1c1.7,0,3.4-0.3,5-0.6
			c0.2-0.4,0.5-0.9,1.7-1.1c1-0.3,1.9-0.7,2.7-1.2c0.3-0.2,0.9-1,0.8-0.5s0.1,1-0.4,1.3c-1.6,0.7-3.3,1.3-5,1.8
			c-2.2,0.6-4.4,1-6.7,1C84.2,215.2,83.8,214.9,83.9,214.5z"/>
		<path class="st29" d="M146.7,214.5c0,0-0.3-1.1-0.7-1.1s-1.6-0.1-1.8,0.2s-0.5,1.1-0.9,1.1c-1.7,0-3.4-0.3-5-0.6
			c-0.2-0.4-0.5-0.9-1.7-1.1c-1-0.3-1.9-0.7-2.7-1.2c-0.3-0.2-0.9-1-0.8-0.5s-0.1,1,0.4,1.3c1.6,0.7,3.3,1.3,5,1.8
			c2.2,0.6,4.4,1,6.6,1C146.5,215.2,146.8,214.9,146.7,214.5z"/>
		<path class="st29" d="M91.4,205.3l0.3-0.4c0,0,2.3-1.4,3.9,1.6c0.7,1.5,0.6,1.8,0.6,1.8s1.4-0.5,1.5-0.7s0.2-0.7,0.3-0.5
			s0,1.1-0.2,1.3c-0.6,0.2-1.1,0.3-1.7,0.3c-0.2,0-0.4-2.6-2.4-3.6C92.9,204.7,91.4,205.3,91.4,205.3z"/>
		<path class="st29" d="M139.3,205.4L139,205c0,0-1.3-0.4-2.8,1.5c-0.7,1.5-0.6,1.8-0.6,1.8c-0.9-0.3-1.8-0.7-2.7-1.2
			c-0.1-0.2-0.2-0.7-0.3-0.5s0,1.1,0.2,1.3c1,0.3,1.9,0.6,2.9,0.8c0.2,0,0.1-2,2.1-3C138.4,205.5,138.9,205.4,139.3,205.4z"/>
		<line class="st33" x1="114.9" y1="159.4" x2="115.9" y2="159.4"/>
		<g>
			<path class="st16" d="M105,153.4l1.2-0.7c0.2-0.1,0.4-0.2,0.7-0.2h17.5c0.2,0,0.4,0.1,0.5,0.2l0.9,0.7c0.2,0.2,0.2,0.5-0.1,0.6
				c0,0-9.3,5.9-9.6,6c-0.2,0-0.2,0-0.8,0c-0.5,0-0.7,0-0.8,0c-0.2-0.1-9.5-6-9.5-6C104.7,153.9,104.7,153.6,105,153.4z"/>
			<path class="st20" d="M107.6,154.1l0.9-0.5c0.1-0.1,0.3-0.1,0.5-0.1h13c0.1,0,0.3,0,0.4,0.1l0.6,0.5c0.2,0.1,0.1,0.3-0.1,0.5
				c0,0-7,4.4-7.2,4.5c-0.1,0-0.1,0-0.6,0c-0.4,0-0.5,0-0.6,0s-7.1-4.5-7.1-4.5C107.3,154.5,107.3,154.3,107.6,154.1z"/>
			<g>
				<g>
					<path class="st16" d="M114.4,159.1c-0.1-0.3-0.3-0.6-0.5-1c-0.4-0.6-0.8-1.2-1.3-1.8c-0.3-0.4-0.7-0.9-1-1.3
						c-0.1-0.1-0.2-0.3-0.4-0.4c-0.1-0.1-0.3-0.3-0.5-0.5c0.8-0.1,1.4-0.2,1.8-0.3c0.4,0,1-0.1,1.8-0.2c0.8,0,1.4,0,2,0
						c0.8,0,1.3,0.1,1.7,0.2c0.3,0.1,0.6,0.2,0.8,0.3c0.2,0.1,0.4,0.3,0.4,0.4c0.1,0.2,0.1,0.3,0,0.5s-0.2,0.3-0.3,0.5
						c-0.3,0.3-0.7,0.6-1.2,0.9c-0.4,0.3-0.8,0.5-1.2,0.6c-0.4,0.1-0.7,0.2-1.1,0.2c-0.1,0-0.3,0-0.5,0c0-0.1-0.1-0.3-0.2-0.5
						s-0.2-0.4-0.2-0.5c0.2,0,0.3,0,0.5,0c0.3,0,0.6-0.1,0.8-0.2c0.2-0.1,0.3-0.3,0.4-0.5c0-0.1,0-0.2,0-0.3s-0.1-0.1-0.2-0.2
						c-0.1-0.1-0.2-0.1-0.3-0.1c-0.1,0-0.3,0-0.4,0c-0.2,0-0.3,0-0.5,0s-0.4,0-0.6,0c0.1,0.6,0.2,1.1,0.3,1.7c0.2,1.1,0.3,1.7,0.4,2
						c0,0.2,0.1,0.3,0.1,0.5c-0.1,0-0.2,0-0.3,0C114.7,159.1,114.6,159.1,114.4,159.1z"/>
				</g>
			</g>
		</g>
		<path class="st34" d="M112.9,143.9c0.3,0.7,0.9,1.1,1.6,1.3s2.6,0.4,3.4-1.3C116.8,143.6,114.3,143.8,112.9,143.9z"/>
		<path class="st14" d="M116.2,138.8c0.2-0.4,0.4-0.5,0.8-0.6c0.3-0.1,0.6-0.2,0.9-0.2s0.8,0.1,1.1,0.2c0.3,0.1,0.5,0.3,0.7,0.7
			c-0.3-0.1-0.4-0.2-0.8-0.3c-0.5-0.1-1.2-0.1-1.6,0C116.8,138.6,116.4,138.6,116.2,138.8z"/>
		<g>
			<path class="st14" d="M114,138.7c-0.7,0-1.2-0.2-1.9-0.2c-0.7,0-1.2,0-1.6,0.4c0-0.2,0.2-0.6,0.7-0.8c0.4-0.2,0.7-0.2,0.9-0.2
				c0.5,0,0.3,0,0.9,0.2C113.6,138.3,113.8,138.5,114,138.7z"/>
		</g>
	</g>
</g>
<g id="Ebene_2_2_">
</g>
<g>
	<path class="st35" d="M85,74.6l0.2,1c0,0,0.5,3.8-2.6,3.7c-3.9-0.1-7-0.1-7.4-2.6c0.2-1.6,0.1-3.3,0-4.8c-0.1-0.7-0.2-1.3-0.4-1.8
		l7.5-1.4l2.2,0L85,74.6z"/>
	<path class="st36" d="M84.9,68.5l-0.1,4.3c-1.9,1.4-8.4,0.5-9.3-1.7l6.7-2.5L84.9,68.5z"/>
	<path class="st35" d="M74,69c1.6,4.5,7.7,3.4,10.3,2.6c0.7-0.2,1.2-0.4,1.2-0.4c0.8-0.4,1.1-1.7,1-3.5c-0.1-3.4-1.5-8.4-2.3-9.6
		c-1.2-1.8-3.2-3.6-9-1.1S71.7,63.1,74,69"/>
	<path class="st34" d="M81.9,68.8c0,0,0.7,0.8,2.3,0.4c0.7-0.1,1-0.6,1-1.3C84,67.9,82.9,68.2,81.9,68.8"/>
	<path class="st37" d="M85.5,57.9c0.7-1,0.5-2.5-0.5-3.3c-0.3-0.2-0.4-0.3-0.6-0.3c-1.9-0.7-3.8-1.2-5.7-1.4
		c-2.3-0.2-4.5,0.4-6.3,1.7c0-0.2,0-0.5,0.1-0.7c-0.3,0.3-0.5,0.6-0.4,1c0,0-0.1,0,0,0C71.7,55,71.4,55,71.2,55c0,0,0.2,0,0.3,0.1
		l0,0c-3.7,2.6-4.2,7.6-1.4,10.3c1.7,1.6,4.9,5.1,4.9,5.1c-0.3-0.5-0.6-1.1-0.9-1.8c0-0.2-0.1-0.5,0-0.8c0.1-0.5,0.1-1-0.2-1.4
		c-0.3-0.6-0.6-1.4-0.1-1.7c0.5-0.3,1.2-0.1,1.6,0.4c0.3,0.4,0.9,0.4,1.3,0.2l0,0c1.6-1.1-0.1-2.8,1.1-4.2c1.2-1.4,5.3-1.4,6.6-2.2
		C84.8,58.7,85.1,58.3,85.5,57.9"/>
	<g>
		<path class="st14" d="M80.2,64.4c0.1-0.5,0.9-0.9,1.1-0.9c0.2,0,0.4-0.1,0.7,0c0.2,0.1,0.5,0.1,0.6,0.3
			C81.5,63.6,80.2,64.2,80.2,64.4z"/>
	</g>
	<g>
		<path class="st14" d="M84.9,63c0.1-0.1,0.2-0.2,0.4-0.2c0.1,0,0.3-0.1,0.4,0c0.2,0.1,0.4,0.2,0.4,0.3c-0.3-0.2-0.5-0.1-0.8,0
			c-0.3,0.1-0.5,0.2-0.8,0.3C84.6,63.3,84.7,63.2,84.9,63z"/>
	</g>
</g>
</svg>
