<svg xmlns="http://www.w3.org/2000/svg" viewBox="0 0 220 220"><g id="OBJECTS"><path d="M95.56,174.55a102.42,102.42,0,0,0-6.37-10,12.94,12.94,0,0,0-1.68-2.26c-1.84-2.37-8.68-4.13-16.84-4.13-8,0-14.7,1.68-16.71,4-.43.15-.74.83-1.81,2.33a102.42,102.42,0,0,0-6.37,10l7,3.28c.65,7.3,2.48,25.08,5.58,33.23a3.53,3.53,0,0,0,3.28,2.26l7.94.06h2.09l7.94-.06A3.52,3.52,0,0,0,82.87,211c3.08-8.1,4.91-25.69,5.57-33.09Z" style="fill:#fff"/><path d="M129.64,143.89c-.66,3.7,2.68,8-.9,10.88-1.7,1.37-4.56,1.94-6.13,3.37a4.07,4.07,0,0,0-.73,5,46.59,46.59,0,0,0,3.17,4.74,2.84,2.84,0,0,1,.58,1.66c-.14,1.45-2.34,2.37-3.6,3.56-2,1.85-1.56,4.47.17,6.42s4.55,3.37,7.39,4.65a25.26,25.26,0,0,0,7.6,2.35A20.81,20.81,0,0,0,150,183.25c5.49-3.42,8.69-8.38,8.61-13.37-.05-3.66-1.77-7.39-.41-10.95.87-2.24,2.89-4.2,4-6.38,1.88-3.56,1.25-7.66-1.66-10.9a13,13,0,0,0-3.75-2.49c-2.18-1.2-2-1.36-3.06-3.08-1.33-2.26-3.76-2.2-7.54-1.75C139.09,135.19,130.55,138.85,129.64,143.89Z"/><path d="M151.06,176.65c-4.45,0-8.06-4.15-8.06-9.27a10.53,10.53,0,0,1,.64-3.63,31.74,31.74,0,0,1,7.34-1.31c2.78,0,7.73,1.43,7.48,1.28a10.43,10.43,0,0,1,.66,3.66C159.12,172.5,155.51,176.65,151.06,176.65Z" style="fill:#ffb288"/><path d="M155.93,149.87c-.11,2.17-2.81,2-2.7-.13S156,147.69,155.93,149.87Z" style="fill:#ffb288"/><path d="M147.85,142.22c-2.17,1.89-1.9,4.25-2.09,8.38-.15,2.93,1.71,5.42,4.12,5.53s4.5-2.19,4.64-5.12l.2-4.16Z" style="fill:#ffb288"/><path d="M153.23,164.13l-3.52-.17a1,1,0,0,1-.82-1.14c.55-11.46.27-12.48,1.48-12.42l3.52.16a1,1,0,0,1,.82,1.14l-.54,11.37A1,1,0,0,1,153.23,164.13Z" style="fill:#ffb288"/><path d="M163.17,193.05c.06-2.2.05-4.4.13-6.58a44.92,44.92,0,0,1,.57-6.13l1.67,1.44,6.49-6c-3.5-4.06-7.05-7.63-8.34-8.91a6.88,6.88,0,0,0-2.48-2.14,9,9,0,0,0-2.5-.84l-.25-.15a10.43,10.43,0,0,1,.66,3.66c0,5.12-3.61,9.27-8.06,9.27S143,172.5,143,167.38a10.53,10.53,0,0,1,.64-3.63l-.2.12a7.78,7.78,0,0,0-4.41,2.28,1.44,1.44,0,0,0-.66.5s-4.86,4.71-9.43,10.09l6.64,5.72q1.14-1,2.67-2.31c.76,4.23.62,8.56.74,12.9a15.55,15.55,0,0,1-1.31,6.44c-1.78,4.39-3.93,7.67-5,11.84h36.86c-1.1-4.17-3.25-7.45-5-11.84A15.55,15.55,0,0,1,163.17,193.05Z" style="fill:#fff"/><path d="M70.34,166c-1.29-1.21-2.6-2.41-3.92-3.58a2,2,0,0,1-.09-2.87,6,6,0,0,1,4.07-1.95c1.73,0,4.76.91,4.13,2.87a50.9,50.9,0,0,1-1.84,5A1.45,1.45,0,0,1,70.34,166Z" style="fill:#ffb288"/><path d="M76.94,138.55l0,3.22c-.06,4.79-3,8.68-6.47,8.63s-6.32-4-6.25-8.8l0-3.22v-.07c3.7-2.2,8-2.74,12.36-2.76A11.21,11.21,0,0,1,76.94,138.55Z"/><path d="M66.28,145.06a1.84,1.84,0,1,0,1.48,1.83A1.68,1.68,0,0,0,66.28,145.06Z" style="fill:#ffb288"/><path d="M66.31,143.47c0-3.22,2.26-5.83,4.94-5.8a4.34,4.34,0,0,1,3,1.32l-7.92,4.64Z"/><path d="M74.22,139A6.34,6.34,0,0,1,76,143.6L76,148.32c0,3.22-2.26,5.83-4.94,5.79s-4.83-2.7-4.79-5.92l.06-4.56Z" style="fill:#ffb288"/><rect x="66.99" y="148.66" width="5.86" height="12.04" rx="0.98" transform="translate(-18.5 9.78) rotate(-7.07)" style="fill:#ffb288"/><path d="M73.54,199c.59-.87,13.93-11.83,17-14.34a.83.83,0,0,0,.12-1.15c-1-1.25-3.1-3.95-3.84-4.81l8.76-4.11c4.1,7.35,3.89,11.12,3.89,11.12-.41,5.46-17.8,14.7-22.24,16.9C71.92,205.19,71,202.69,73.54,199Z" style="fill:#ffb288"/><path d="M67.8,198.87c-.59-.86-13.94-11.83-17-14.33a.83.83,0,0,1-.13-1.15c1-1.25,3.11-4,3.85-4.81l-8.76-4.11c-4.1,7.35-3.9,11.11-3.9,11.11.42,5.47,17.81,14.71,22.25,16.91C69.42,205.11,70.34,202.61,67.8,198.87Z" style="fill:#ffb288"/><path d="M69.55,199.65a4.4,4.4,0,0,1,1.93-.47c.31,0,.62,0,.93-.05a3.33,3.33,0,0,1,2.68,1.32c.32.42.56.77.57.8a1.74,1.74,0,0,1-.65,1.89,3.59,3.59,0,0,1-2,.6,4.53,4.53,0,0,1-4-1.37,2.08,2.08,0,0,1-.45-1A1.85,1.85,0,0,1,69.55,199.65Z" style="fill:#ffb288"/><path d="M71.1,199.49a4.36,4.36,0,0,0-1.92-.48l-.94,0a3.33,3.33,0,0,0-2.68,1.32,8.66,8.66,0,0,0-.57.8,1.74,1.74,0,0,0,.65,1.89,3.59,3.59,0,0,0,2,.6,4.56,4.56,0,0,0,4-1.37,2.08,2.08,0,0,0,.45-1A1.85,1.85,0,0,0,71.1,199.49Z" style="fill:#ffb288"/><path d="M187.42,205.51l-4.75-3.25c-4.67,2.92-8.52,3.47-15.59,2.77l-12.79,1.66v1.55h-7.52v-.57l-1.6.21v-1.7l-9.51-1.25c-7.08.69-11,.13-15.65-2.78l-4.79,3.25c-.54,3,1,8.84,6.41,10.82,9.72,3.55,19.37,4.11,29.15,3.4,10.17.87,20.18.43,30.28-3.29C186.43,214.35,188,208.51,187.42,205.51Z" style="fill:#233862"/><path d="M125.85,218.93l11.6-.7c.57,0,1.11-.47,1.07-.87l-.64-6.29c0-.37-.56-.51-1.08-.3l-11,4.36C122.92,216.27,123,219.11,125.85,218.93Z" style="fill:#ffb288"/><path d="M187.43,205.59a5.8,5.8,0,0,0-5.71-4.84,6,6,0,0,0-1.39.17c-1.51.37-3.27.76-5.63,1.26l-.48.1-6.41,1.32c-6.47,1.31-13.15,2.67-19.6,4.44l-2.07.59c-2.11.61-4.1,1.24-6,1.91-3.59,1.26-5.25,4.11-4.73,6,.45,1.62,2.14,2.09,6.88,1.13.58-.12,2.54-.39,5.25-.76,9.43-1.27,27.93-3.57,29-3.72,2.24-.32,4.3-.63,6.21-1A5.81,5.81,0,0,0,187.43,205.59Z" style="fill:#1a2c70"/><path d="M177.29,218.82l-11.72-.71c-.57,0-1.12-.47-1.08-.87l.65-6.36c0-.37.56-.52,1.09-.3l11.11,4.4C180.25,216.14,180.22,219,177.29,218.82Z" style="fill:#ffb288"/><path d="M165.11,212c-1.19-.42-6.48-2-12.44-3.79l-1.69,8c5.59.69,10.36,1.3,11.45,1.52,4.74,1,4.39.31,4.83-1.31C167.79,214.47,168.71,213.27,165.11,212Z" style="fill:#1a2c70"/><path d="M134.84,203.42l-4.05-.84-2.37-.48L128,202c-2.38-.5-4.15-.89-5.66-1.26a6.16,6.16,0,0,0-1.4-.17,5.79,5.79,0,0,0-1,11.5c1.81.32,3.76.62,5.87.92l3.28.45,1.44.2c3.35.45,12.71,1.58,20.47,2.54l1.69-8C145.9,206.25,138.28,204.12,134.84,203.42Z" style="fill:#1a2c70"/><path d="M147.36,205c.2,1.32,2.3,2.1,4.68,1.74s4.14-1.75,3.93-3.07-2.3-2.11-4.68-1.74S147.15,203.68,147.36,205Z" style="fill:#ffb288"/><path d="M167.61,192.42a22.62,22.62,0,0,0,3.89-3.87,1.49,1.49,0,0,0,.15-.2,32.3,32.3,0,0,0-6.11-6.57l6.49-6a59.62,59.62,0,0,1,7.17,9.8c0,.06,0,.13.05.19s1.61,3.94-.23,5.89h0l-.15.13c-1,.83-6.72,5.35-21.47,13-1.48.66-2.84,1.23-4,1.7l-.69-4.42C153.5,201.54,163.86,195.06,167.61,192.42Z" style="fill:#ffb288"/><ellipse cx="149.88" cy="204.65" rx="2.43" ry="4.36" transform="translate(-75.26 321.5) rotate(-81.21)" style="fill:#ffb288"/><path d="M122.29,186.05a1.27,1.27,0,0,1,.06-.18,55.77,55.77,0,0,1,6.59-9.13l6.64,5.72a30.07,30.07,0,0,0-5.67,6.2l.13.2a24.14,24.14,0,0,0,3.89,3.87c3.75,2.63,14.11,9.11,14.92,9.6l-.68,4.43c-1.21-.48-2.56-1-4-1.71-14.75-7.61-20.49-12.14-21.47-13l-.15-.13,0,0C120.69,190,122.29,186.05,122.29,186.05Z" style="fill:#ffb288"/><path d="M108.91,204.1l-5-3.42c-4.93,3.06-9,3.64-16.44,2.92l-16.89,2.22-16.41-2.11c-7.49.73-11.57.16-16.52-2.92l-5,3.42c-.57,3.15,1,9.29,6.74,11.37C50.05,219.49,60.69,220,71.48,219c10.3.76,20.46.17,30.69-3.57C107.87,213.39,109.48,207.24,108.91,204.1Z" style="fill:#233862"/><path d="M97.75,218.31l-12.19-.74c-.6,0-1.17-.49-1.13-.91l.67-6.61c0-.39.59-.54,1.14-.32l11.55,4.59C100.83,215.52,100.79,218.5,97.75,218.31Z" style="fill:#ffb288"/><path d="M82.91,209.06c-2.83-1-5.68-1.85-8.53-2.64-5.62-1.53-11.28-2.76-17-3.93-3.44-.71-6.89-1.4-10.37-2.13-2.37-.5-4.49-1-6.4-1.42a6.55,6.55,0,1,0-2.7,12.81c3.12.55,10.05,1.42,17.51,2.3,11.66,1.38,24.61,2.81,26.36,3.16C92.6,219.39,90.33,211.65,82.91,209.06Z" style="fill:#2e51c0"/><path d="M43.7,218.2,56,217.45c.6,0,1.18-.5,1.13-.92l-.67-6.68c0-.39-.59-.54-1.15-.32l-11.67,4.63C40.58,215.38,40.62,218.39,43.7,218.2Z" style="fill:#ffb288"/><path d="M108.91,204.1a6.56,6.56,0,0,0-8-5.28c-1.91.46-4,.93-6.4,1.43-3.6.76-7.18,1.47-10.75,2.2-5.59,1.15-11.13,2.35-16.62,3.86-2.85.78-5.7,1.65-8.53,2.63-7.43,2.59-8.76,10.39,2.07,8.21,1.68-.33,13.49-1.7,24.55-3.05,7.73-.95,15.09-1.89,18.38-2.46A6.55,6.55,0,0,0,108.91,204.1Z" style="fill:#5b58ee"/></g></svg>