<svg xmlns="http://www.w3.org/2000/svg" viewBox="0 0 220 220"><g id="OBJECTS"><path d="M132.47,172.72c-1.41,1.54-3.52,3.12-.16,6.63,4.31,4.5,11,23.89,11,23.89-.23.74,0,1.77-.52,2.07-.85.49-3-1-3-1s-19.79-20.5-21.39-25.11c-1.19-3.4,4.87-19.89,8.5-28.53a32.36,32.36,0,0,1,2.5-5.29l.12-.08a5.38,5.38,0,0,1,5.93-.14,8.71,8.71,0,0,1,1.12.78c4.42,3.59,7.27,12.11,7,13.88-.2,1.24-2.36,3.85-4.73,6.42-.49.53-1,1.06-1.49,1.58C135.11,170.08,133.07,172.06,132.47,172.72Z" style="fill:#5b58ee"/><path d="M138.75,166.24c-.49.53-1,1.06-1.49,1.58l-10.42-17.15a32.36,32.36,0,0,1,2.5-5.29l.12-.08,5.93-.14,1.07,0,0,.8Z" style="fill:#2e51c0"/><path d="M132.85,106.59s2.22,5.42,1.64,8.64-8.21,19.29-11,22-21.23-8.94-21.23-8.94l1.82-1.74s14.59,3.72,15.36,2.55S123.94,105.08,132.85,106.59Z" style="fill:#ffb27d"/><path d="M132.41,149.06s3.79,18.93,13.34,32.25c9.23,12.86,14,32.58,14,32.58a1.84,1.84,0,0,0,1.82,0c1.2-.51,2,.11,2.25-.48,0,0-1.74-31.13-6.53-37.94-2.71-3.85-4.15-18-4.06-21.84a28.47,28.47,0,0,0-1.59-8.56Z" style="fill:#5b58ee"/><path d="M163.77,219h-2.24c-.75-.11-1.3-.32-2.07-.42a2.07,2.07,0,0,0-1.8.45l0,0-9.49.07c-.24-.34,0-1.13.2-1.72a1.36,1.36,0,0,1,.89-.81,10.2,10.2,0,0,0,4.78-2.23c1-.93,4.92-3.43,4.92-3.43h0c.08,0,.49.13,2.28,1.62.93.77,2.48-1.12,2.48-1.12a2.29,2.29,0,0,1,.52.7,2.33,2.33,0,0,1,.21,1.45,9.67,9.67,0,0,0,.71,3.52c.22.65.41,1.11.41,1.11S165.68,218.72,163.77,219Z" style="fill:#233862"/><path d="M164.24,212.11a7,7,0,0,1-2.4,1.23c-1,.14-2.9-2.42-2.9-2.42h0c.08,0,.49.13,2.28,1.62.93.77,2.48-1.12,2.48-1.12A2.29,2.29,0,0,1,164.24,212.11Z" style="fill:#233862"/><path d="M163.77,219h-2.24c-.75-.11-1.3-.32-2.07-.42a2.07,2.07,0,0,0-1.8.45l0,0-9.49.07c-.24-.34,0-1.13.2-1.72.29-.25.38,1.11.54,1.33s7.74,0,8.18-.29a4.53,4.53,0,0,1,3.57-.47c1.6.37,3.94-.62,4.52-.88.22.65.41,1.11.41,1.11S165.68,218.72,163.77,219Z" style="fill:#233862"/><path d="M152.25,133.14c0-10.61-1.93-25.93-4.59-27.1a32.06,32.06,0,0,0-12.24-2.35c-4,.06-12.53,1.93-13.4,8.54-.55,4.19-.77,7.64-.77,7.64a5.67,5.67,0,0,0,3.45,3.38,34.19,34.19,0,0,0,.83,3.35,45.83,45.83,0,0,1,2.14,22.13c3.87,3.22,23.11,1.33,25,.07C155.87,146.74,152.24,143.75,152.25,133.14Z" style="fill:#fff"/><path d="M147.64,205.9l-1.6,1.55c-.62.44-1.17.67-1.79,1.13a2.07,2.07,0,0,0-1,1.57v0l-6.81,6.61c-.41-.08-.79-.8-1-1.38a1.37,1.37,0,0,1,.08-1.2,10.12,10.12,0,0,0,1.91-4.92c.09-1.37,1.18-5.87,1.18-5.87v0c.06-.06.44-.25,2.77-.42,1.2-.08,1-2.51,1-2.51a2.24,2.24,0,0,1,.85.14,2.31,2.31,0,0,1,1.17.9,9.44,9.44,0,0,0,2.93,2.05l1.07.52S148.85,204.39,147.64,205.9Z" style="fill:#233862"/><path d="M143.23,200.61a7,7,0,0,1-.88,2.54c-.63.8-3.77.27-3.77.27v0c.06-.06.44-.25,2.77-.42,1.2-.08,1-2.51,1-2.51A2.24,2.24,0,0,1,143.23,200.61Z" style="fill:#233862"/><path d="M147.64,205.9l-1.6,1.55c-.62.44-1.17.67-1.79,1.13a2.07,2.07,0,0,0-1,1.57v0l-6.81,6.61c-.41-.08-.79-.8-1-1.38,0-.38,1,.54,1.31.59s5.61-5.33,5.7-5.87a4.62,4.62,0,0,1,2.26-2.81c1.41-.83,2.42-3.17,2.65-3.76l1.07.52S148.85,204.39,147.64,205.9Z" style="fill:#233862"/><path d="M142.15,107.44s5.85-.07,8.64,1.66,14.9,14.74,16.44,18.34-12.54,13.86-12.54,13.86l-2-3.15s6.26-8.8,5.46-9.94S137.46,115.17,142.15,107.44Z" style="fill:#ffb27d"/><path d="M153.44,137.66l2.34,1.8s-2.05,4.44-3.18,4.86l-.11,0c-1.21.24-4.2-1.72-4.7-3.74a1,1,0,0,1,0-.58c.47-1.23,3.27-1.92,4.74-2.2C153.09,137.71,153.44,137.66,153.44,137.66Z" style="fill:#ffb27d"/><path d="M105.7,127l-1.17,2.7s-4.81-.9-5.49-1.88L99,127.7c-.53-1.11.63-4.49,2.47-5.48a1.06,1.06,0,0,1,.57-.11c1.3.14,2.66,2.7,3.3,4C105.56,126.65,105.7,127,105.7,127Z" style="fill:#ffb27d"/><path d="M139.93,104s5.43.24,9.33,2.66c1.79,1.12,8.69,7.65,8.69,7.65s-.76,6.83-9,8.68-9.7-12.09-9.7-12.09Z" style="fill:#fff"/><path d="M138.44,104.08a1.19,1.19,0,0,1,0,1.28c-.73,1.15-2.77,3.15-8.09,2.78-1.82-.12-2.24-1.5-1.09-2.92.28-.34.19-2.32.16-3.12a25,25,0,0,1,0-2.87l3.77-2.58,3.57-2.47C136.16,100,137.69,103,138.44,104.08Z" style="fill:#ffb27d"/><path d="M136.62,97.08s-2.63,4.12-7.17,5a25,25,0,0,1,0-2.87l3.77-2.58Z" style="fill:#ed985f"/><path d="M127.79,99s8.75,2,10-3.35,3.12-8.76-2.42-10.28-7.08.29-7.93,2S125.54,98.33,127.79,99Z" style="fill:#ffb27d"/><path d="M141.66,85.13a1,1,0,0,1,.69-.14,1.62,1.62,0,0,0-.75-.27,2.1,2.1,0,0,0-1.26-1.93,1.25,1.25,0,0,1,.54.94c-1.06-1.25-3.46-2.27-10.28-2.19-9,.12-6.42,6-5.3,6.8s4.15-.92,6.29-.61,2.35,3.46,3,3.94.47-.3,1.49-.69,1,1.27.65,2.32.91,2.54.91,2.54l1.47-1.39c1.47-1.39,3.18-7.57,2.65-9Z"/><path d="M127,95.59a1.33,1.33,0,0,0,1.12.9,1.82,1.82,0,0,0,1.47-.52A4.59,4.59,0,0,0,127,95.59Z" style="fill:#fff"/><path d="M79.9,116h0S79.88,116,79.9,116Z" style="fill:#ffb27d"/><path d="M80,152.48v.07c-.05,2-.19,4-.39,6.08-.29,3-.71,6-1.17,8.85h0c-.08.49-.16,1-.25,1.46s-.13.8-.2,1.19l-.47,2.58c-.13.68-.26,1.34-.39,2-.82,4.08-1.55,7.09-1.77,8h0a2.84,2.84,0,0,0,.24.93c2.26,5.18,1.74,7.26,1.28,12.32a135.62,135.62,0,0,1-3.27,19.3l-4,3.76s1.27-7-.29-19.55a126.47,126.47,0,0,0-2.42-13.35c-1.29-5.52-4.42-19.89-4.81-30.46,0-1.1.29-12.13,2.42-16.6.55-1.16,4.89,1.59,4.89,1.59l4.45,0,4.45,0,.1.21a17.85,17.85,0,0,1,1.44,6A50.25,50.25,0,0,1,80,152.48Z" style="fill:#1a2c70"/><path d="M80,152.48v.07c-.05,2-.19,4-.39,6.08-.29,3-.71,6-1.17,8.85h0c-.08.49-.16,1-.25,1.46s-.13.8-.2,1.19l-.47,2.58c-.13.68-.26,1.34-.39,2,0,0-12.15-28.7-12.27-29.08l9-5,4.45,0,.1.21a17.85,17.85,0,0,1,1.44,6A50.25,50.25,0,0,1,80,152.48Z" style="fill:#233862"/><path d="M69.21,220l0,0a1.54,1.54,0,0,1,1.34-.31c.57.08,1,.24,1.53.33h1.65c1.42-.17,1.34-.57,1.34-.57s-.13-.34-.29-.82a6.86,6.86,0,0,1-.49-2.6,1.72,1.72,0,0,0-.14-1.08,1.6,1.6,0,0,0-.38-.52s-1.17,1.38-1.85.8c-1.3-1.12-1.61-1.22-1.67-1.22h0s-2.91,1.8-3.67,2.48a7.54,7.54,0,0,1-3.56,1.6,1,1,0,0,0-.66.6c-.17.43-.35,1-.17,1.26Z" style="fill:#9529f9"/><path d="M66.25,108S63.46,125.72,59,132.49c-2.26,3.4-17.83-9.77-17.83-9.77l1.79-1.07s12.19,6,12.59,5.29,1.76-14.86,4.2-16.85S66.25,108,66.25,108Z" style="fill:#ffb27d"/><path d="M67.43,99.82s-3.52-.2-5.1-5.84c-1.23-4.36,1.22-9.73,7.51-9.25,0,0,4.16-.41,5.59,3,.64,1.5,1.66,2.1-.16,7.65l-.44,1.87Z"/><path d="M74.51,94.65s2.13,2.5,4.56,2,7.24-2,9.11.17-.75,7.27,1.09,9.15.36,7.68-8,5.76-8.12-11.23-8-12.5A38.9,38.9,0,0,1,74.51,94.65Z"/><path d="M114.31,189.45l-.38,2.54s-10.09-3.13-21.4-6.13c-3.56-1-7.25-1.88-10.78-2.7s-14.35-47-14.35-47,15.87-1.59,20,6.21c6.42,12.19-.78,32.68,4.25,33.44a17.48,17.48,0,0,1,3.69,1C104,180.12,114.31,189.45,114.31,189.45Z" style="fill:#1a2c70"/><path d="M62.57,108a31.19,31.19,0,0,1,9.6-2.69c4.72-.35,10.32.21,11.55,1.46a15.18,15.18,0,0,1,1.82,9.77,47.26,47.26,0,0,0-1.43,9.67c-.15,5.66,1.54,8.68,3.81,15.06,1.49,4.18-13.88,12.93-25.06,4.6.35-4.64,2-15.79.8-17.85C60.15,122,60.27,109.6,62.57,108Z" style="fill:#fff"/><path d="M83.77,106.76s11.71,13.4,13,17.28-16.53,11.59-16.53,11.59l-.74-2.8s10.23-8.23,9.93-9-7.87-7.52-8-10.67S83.77,106.76,83.77,106.76Z" style="fill:#ffb27d"/><path d="M69.42,110c-4.66.15-2.88-2.15-2.28-3a1.55,1.55,0,0,0,.19-.36,14.49,14.49,0,0,0,.2-4.29c-.1-1.43-.29-2.92-.35-3.42h0l0-.17L73,97.2l1,1.85.22.39a20.2,20.2,0,0,0,.56,3.08,6.84,6.84,0,0,0,1.14,2.66C76.27,105.53,76.51,109.76,69.42,110Z" style="fill:#ffb27d"/><path d="M74.8,102.52a11.67,11.67,0,0,1-7.62-3.58h0a15.57,15.57,0,0,1,6.84.12l.22.39A20.2,20.2,0,0,0,74.8,102.52Z" style="fill:#ed975d"/><path d="M74.55,101.08s-7.82.65-8.15-4.22-1.56-8.07,3.42-8.7,6.07,1.18,6.58,2.78S76.58,100.79,74.55,101.08Z" style="fill:#ffb27d"/><path d="M73.38,87.81s-1.77,5.86-5,6.92-4.72.28-4.72.28a9.32,9.32,0,0,0,2.68-5.7S71.58,85.19,73.38,87.81Z"/><path d="M72.88,88.31A6.92,6.92,0,0,1,75,90.69c.48,1.22.82,3.76,1.56,3.63,0,0,1.36-4-.6-6.08S72.88,88.31,72.88,88.31Z" style="fill:#1e1e1e"/><path d="M72.46,98.59s.32.65.81.67a6.42,6.42,0,0,0,1.83-.2,6.48,6.48,0,0,0,.35-.78A9.46,9.46,0,0,0,72.46,98.59Z" style="fill:#fff"/><path d="M80.3,132.49l1.76,1.63s-2,3.44-2.94,3.7H79c-1,.1-3.28-1.71-3.53-3.38a.86.86,0,0,1,.07-.48c.46-.95,2.79-1.3,4-1.42C80,132.5,80.3,132.49,80.3,132.49Z" style="fill:#ffb27d"/><path d="M44,122.15l-.64,1.92a17.22,17.22,0,0,1-3.22-.63c-.46-.16-1.12-.62-1.2-1.11-.17-1.06,0-3.08,1-3.84a1,1,0,0,1,.44-.17C41.37,118.27,44,122.15,44,122.15Z" style="fill:#ffb27d"/><path d="M117.65,191.33h0a1.54,1.54,0,0,1-.47-1.29c0-.57.13-1,.16-1.56l-.18-1.64c-.34-1.39-.72-1.27-.72-1.27l-.79.39a7,7,0,0,1-2.53.78,1.77,1.77,0,0,0-1,.27,1.62,1.62,0,0,0-.47.43s1.5,1,1,1.74c-1,1.43-1,1.74-1,1.81h0s2.14,2.68,2.9,3.36a7.61,7.61,0,0,1,2,3.35,1,1,0,0,0,.67.59c.44.12,1,.22,1.27,0Z" style="fill:#9529f9"/></g></svg>